<svg width="225" height="244" viewBox="0 0 225 244" fill="none" xmlns="http://www.w3.org/2000/svg">
<g clip-path="url(#clip0)">
<path d="M215.418 31.7324C219.67 32.7467 223.502 35.0354 226.39 38.286C229.279 41.5367 231.085 45.5908 231.561 49.8969C233.296 58.6178 233.798 67.5108 235.005 76.0563C236.213 84.6017 238.47 95.2414 240.027 104.485C240.2 105.706 240.9 107.102 241.072 108.323C237.856 124.705 248.92 133.619 258.219 144.273C270.501 158.246 284.371 171.001 289.951 189.145C292.351 197.555 294.15 206.123 295.333 214.785C296.363 223.853 294.42 226.115 285.081 229.409C243.846 243.622 202.464 247.897 159.718 237.176C144.063 233.134 129.112 228.745 113.279 225.226C110.414 224.347 107.347 224.341 104.477 225.208C99.0518 227.084 93.1521 227.12 87.7075 225.31C82.2629 223.499 77.5827 219.946 74.4036 215.21C71.7782 211.945 68.4868 209.265 64.7443 207.345C46.2844 198.541 29.1872 187.176 13.9677 173.593C7.95492 167.765 4.41933 159.88 4.08372 151.55C3.7481 143.221 6.63781 135.077 12.1621 128.782C24.7031 114.337 40.7496 105.128 56.2685 95.7451C59.9719 93.486 65.7805 93.6721 70.0115 91.5884C73.6979 89.8128 77.1856 87.658 80.4166 85.1589C84.8354 79.0657 75.3641 67.1905 91.7351 67.3979C90.3604 55.8882 88.808 44.9013 87.9609 33.567C87.1139 22.2326 77.8097 13.3224 83.4765 1.82686C94.9164 2.72171 99.4822 6.5666 102.445 16.8591C105.402 28.8951 109.065 40.5837 112.728 52.2724C113.596 55.4592 115.208 58.399 117.433 60.8561C119.657 63.3132 122.433 65.2189 125.537 66.4202C134.212 49.526 132.686 29.8216 140.656 13.2747C152.801 13.8223 154.906 16.2676 158.219 27.2582C162.049 41.9111 166.762 55.6938 170.592 70.3468C171.292 71.743 172.52 73.3148 174.447 76.2826C188.576 60.6199 201.822 45.8271 215.418 31.7324ZM137.96 213.072C155.731 216.071 170.864 218.194 185.82 220.84C191.065 221.699 196.351 222.291 201.658 222.615C221.608 221.249 241.342 217.663 260.486 211.925C272.819 208.463 275.122 203.411 270.404 191.372C269.478 189.353 268.364 187.425 267.076 185.611C253.238 162.979 236.027 142.548 216.026 125.01C207.6 116.973 198.646 108.76 187.916 105.775C177.186 102.789 166.629 101.024 157.143 94.3797C155.21 93.1553 151.334 94.1936 147.813 94.1865C138.834 94.6914 130.559 94.8493 121.402 95.8769C116.471 96.5643 110.662 96.3782 108.354 103.173C107.644 105.264 101.825 108.564 100.42 107.516C89.6952 102.786 80.3505 107.824 71.3608 111.816C58.1623 117.135 46.344 125.335 36.7872 135.806C27.2496 146.596 25.8136 156.008 35.8177 166.315C44.7433 176.865 56.6894 184.487 70.0816 188.177C70.6092 188.352 72.0194 187.658 72.7245 187.311C73.5536 186.253 74.3211 185.148 75.0229 184.003C79.657 173.591 85.04 163.522 91.1304 153.873C99.6867 141.181 109.258 129.19 119.753 118.016C124.231 114 129.817 111.4 135.795 110.551C142.394 109.681 149.036 109.171 155.692 109.022C157.872 108.708 160.093 108.833 162.223 109.39C164.352 109.947 166.346 110.924 168.084 112.262C169.823 113.601 171.27 115.273 172.34 117.179C173.41 119.086 174.08 121.186 174.31 123.356C175.872 130.856 178.668 138.184 180.052 146.207C180.84 149.602 180.458 153.161 178.967 156.317C171.266 173.196 161.01 188.814 148.553 202.632C144.759 205.84 141.217 209.33 137.96 213.072ZM220.308 105.491C219.497 81.9529 217.594 70.2675 212.861 63.4584C205.972 71.6388 199.26 79.2969 192.548 86.9546C202.562 93.7744 210.644 99.3698 220.308 105.491V105.491ZM127.403 150.808C126.526 149.935 125.47 149.584 124.593 148.711C113.19 157.406 105.239 169.796 102.134 183.709C101.808 184.937 101.732 186.217 101.91 187.475C102.087 188.732 102.515 189.942 103.168 191.034C105.019 193.029 107.301 194.583 109.845 195.58C111.26 193.142 114.436 190.708 113.913 188.789C112.744 179.705 115.03 170.511 120.326 162.998C122.979 158.645 124.999 154.43 127.403 150.808V150.808ZM145.972 61.5798C145.607 66.1121 145.419 70.1218 144.876 75.1768C153.16 71.5322 153.16 71.5321 145.972 61.5798V61.5798Z" fill="#F66526"/>
</g>
<defs>
<clipPath id="clip0">
<rect width="225" height="244" fill="white"/>
</clipPath>
</defs>
</svg>
