<svg width="330" height="394" viewBox="0 0 330 394" fill="none" xmlns="http://www.w3.org/2000/svg">
<path d="M191.025 177.132C189.168 177.461 187.721 177.177 186.855 177.759C185.541 178.644 184.599 179.982 184.209 181.517C183.68 185.387 183.378 189.285 183.304 193.191C183.192 196.117 183.457 198.887 183.549 202.836C179.491 200.536 176.047 198.645 172.87 196.865C170.892 191.042 171.273 185.567 170.742 180.028C170.352 176.425 170.417 172.854 170.027 169.25C169.589 165.002 167.45 164.119 163.153 166.571C162.586 166.806 162.444 167.53 161.956 167.954C162.281 175.129 162.607 182.304 163.057 190.313C161.38 189.85 159.735 189.275 158.134 188.594C151.812 184.577 145.411 180.372 139.168 176.544C129.401 170.637 119.446 164.808 109.869 158.822C100.905 153.246 92.3183 147.513 83.543 141.858C81.9149 140.522 80.3612 139.097 78.889 137.591C82.4605 137.657 84.2855 137.784 86.1105 137.911C92.6103 138.791 99.2069 138.664 105.668 137.532C107.888 137.087 110.037 136.342 112.057 135.318C112.668 135.058 113.199 134.638 113.592 134.102C113.985 133.566 114.227 132.934 114.291 132.273C114.356 131.612 114.242 130.945 113.96 130.343C113.679 129.741 113.24 129.226 112.691 128.852C107.828 124.422 102.338 120.734 96.399 117.905C79.8643 109.993 62.1966 104.71 44.0332 102.244C36.0413 101.137 27.8288 100.564 19.9641 97.632C18.4102 97.0494 16.7207 96.9305 15.1005 97.2896C13.4803 97.6487 11.9992 98.4704 10.8371 99.6551C7.90008 102.799 5.13001 106.095 2.53835 109.53C14.1894 119.97 21.6219 133.05 30.7859 144.967C34.1498 149.327 38.0802 153.452 41.7432 157.467C45.1885 161.072 49.8173 163.316 54.7818 163.786C56.3977 163.998 58.04 163.87 59.6037 163.411C61.1673 162.951 62.6178 162.17 63.862 161.118C66.7903 158.571 68.3817 155.473 66.9999 151.617C65.4611 147.383 63.5446 143.307 61.8169 139.152C64.115 137.753 65.6557 139.328 67.0394 140.525C84.07 152.715 100.912 164.984 119.502 174.532C123.778 176.931 127.91 179.576 131.879 182.455C136.172 185.321 140.654 188.109 144.947 190.976C151.269 194.993 157.701 198.742 164.291 202.869C165.185 207.149 166.267 211.351 167.082 215.442C168.445 223.514 169.352 231.555 170.526 239.706C170.607 240.341 170.815 240.954 171.136 241.508C171.458 242.062 171.887 242.546 172.398 242.932C172.91 243.318 173.493 243.598 174.114 243.755C174.735 243.912 175.381 243.944 176.014 243.848C177.141 243.605 178.139 242.953 178.814 242.018C179.488 241.083 179.793 239.931 179.668 238.784C179.027 233.513 178.008 228.399 176.989 223.285C176.017 218.816 175.312 214.457 174.151 210.066C183.653 210.545 185.037 211.742 186.763 218.556C189.178 228.627 191.673 238.887 194.01 248.77C200.633 249.782 203.183 247.392 201.551 241.868C200.155 236.911 198.49 231.844 197.094 226.887C196.34 224.542 195.886 221.851 195.117 218.405C197.98 219.429 199.742 220.469 201.724 220.974C205.015 221.867 208.041 223.541 210.546 225.855C213.051 228.169 214.96 231.054 216.11 234.264C218.231 239.363 221.484 243.991 223.793 249.012C226.103 254.032 230.54 253.516 234.835 253.724C238.485 253.978 240.123 251.525 241.415 248.773C242.707 246.02 243.354 243.315 244.411 239.996C252.967 243.526 261.414 247.324 269.75 251.389C270.63 251.909 271.889 252.272 272.014 253.106C273.929 259.841 282.377 260.98 284.669 267.559C286.567 272.389 288.749 277.103 291.204 281.676C296.011 291.639 301.007 301.524 305.893 311.675C306.171 312.244 306.537 312.764 306.978 313.218C307.214 313.542 307.511 313.816 307.853 314.025C308.196 314.234 308.576 314.373 308.972 314.434C309.368 314.496 309.772 314.479 310.161 314.384C310.551 314.289 310.918 314.119 311.241 313.882C314.625 311.367 315.54 308.772 313.749 305.529L303.41 285.461C300.925 280.903 298.803 276.157 297.064 271.265C303.34 274.637 306.01 281.058 309.955 286.284C313.9 291.511 317.404 297.807 321.129 303.568C322.341 303.286 323.521 303.459 324.198 302.956C328.526 300.049 328.953 297.878 326.281 294.116C321.361 287.079 316.709 280.153 311.79 273.116C311.264 272.313 310.832 271.453 310.501 270.551C311.223 270.368 311.978 270.358 312.704 270.521C321.732 275.185 330.681 279.66 339.709 284.323C342.807 285.915 345.984 287.695 349.161 289.475C355.169 292.736 357.168 291.684 358.92 283.645C353.226 281.139 347.155 278.791 341.383 276.096C335.61 273.401 330.593 270.393 324.931 267.431C326.62 264.712 328.865 262.38 331.518 260.59C334.171 258.8 337.173 257.59 340.326 257.042C342.519 256.498 344.657 255.757 346.716 254.828C348.254 254.361 349.566 253.342 350.4 251.967C350.909 251.168 351.247 250.271 351.391 249.334C351.536 248.397 351.483 247.44 351.238 246.524C350.374 244.446 347.982 244.555 346.093 245.34C341.293 247.115 336.462 249.345 331.394 251.009C324.887 253.349 317.792 253.499 311.192 251.435C304.098 249.29 296.846 246.768 289.862 244.355C286.999 243.331 284.247 242.038 281.382 243.673C277.274 246.045 273.908 244.344 270.275 242.532C261.137 238.135 251.999 233.739 242.672 229.421C240.552 224.322 238.463 218.767 236.076 213.557C233.688 208.347 230.702 203.83 228.015 198.966C227.737 198.398 227.371 197.877 226.93 197.423C224.462 194.684 222.026 191.488 218.013 192.492C215.916 193.02 214.019 194.15 212.555 195.742C211.092 197.335 210.127 199.32 209.778 201.454C208.846 205.607 208.828 209.824 208.21 214.733C202.784 214.272 197.657 212.046 193.614 208.397C192.655 207.688 192.483 206.209 192.122 204.809C190.685 199.11 190.106 193.228 190.404 187.359C190.795 183.964 191.002 180.55 191.025 177.132V177.132ZM35.3119 108.971C52.6981 108.166 90.0732 119.207 97.775 129.738C80.6075 132.668 47.559 121.91 35.3119 108.971ZM21.3213 113.681C29.3897 117.636 35.5846 123.478 41.7476 129.776C47.7474 135.726 52.662 142.678 56.2705 150.319C56.8987 151.83 57.527 153.341 54.3631 155.321C53.7497 154.911 52.2558 153.982 51.0292 153.163C49.6411 152.267 48.3312 151.256 47.1136 150.139C37.0539 139.09 28.3914 126.845 21.3213 113.681V113.681ZM232.796 223.781C228.264 222.906 223.914 221.269 219.929 218.942C219.347 218.617 218.897 218.099 218.656 217.478C216.913 212.221 215.627 206.997 218.51 201.146C225.617 207.051 229.703 214.213 232.796 223.781ZM235.723 243.608C231.305 239.907 227.326 237.796 226.795 232.258C236.548 234.404 236.705 234.782 235.723 243.608ZM294.806 261.571C294.696 261.839 294.585 262.106 294.664 262.295C294.396 262.185 294.129 262.074 294.05 261.886C293.972 261.697 294.082 261.429 294.192 261.162C294.271 261.351 294.538 261.461 294.806 261.571Z" fill="#204554"/>
</svg>
