<svg width="133" height="82" viewBox="0 0 133 82" fill="none" xmlns="http://www.w3.org/2000/svg">
<g clip-path="url(#clip0)">
<path d="M128.722 68.19C128.675 68.1532 128.635 68.1072 128.605 68.0547C128.512 67.9019 128.365 67.7893 128.192 67.7386C128.02 67.6879 127.835 67.7027 127.673 67.7802C127.295 67.9907 126.895 68.1975 126.518 68.4232C126.318 68.5397 126.14 68.7089 125.951 68.8368C125.318 69.1801 124.713 69.5736 124.143 70.0137C123.388 70.6867 122.776 71.4952 122.082 72.2284C121.659 72.6721 121.209 73.0857 120.756 73.4955C120.501 73.7036 120.235 73.8982 119.96 74.0784C119.095 74.6913 118.359 75.4997 117.241 75.699C116.486 75.8343 115.822 76.3419 114.976 76.0261C114.444 75.823 113.844 75.808 113.323 75.5749C112.643 75.2369 111.984 74.8602 111.348 74.4469C110.957 74.2297 110.579 73.9899 110.215 73.7287C109.789 73.394 109.419 72.9766 108.985 72.657C108.639 72.3915 108.258 72.1763 107.852 72.0178C107.361 71.8298 107.003 71.4538 106.516 71.2432C105.908 70.9875 105.432 70.4423 104.854 70.1152C104.321 69.8367 103.77 69.5943 103.205 69.3895C103.012 69.3143 102.804 69.2805 102.491 69.1977C102.438 68.9947 102.113 68.9721 101.838 68.8217C101.246 68.5084 100.569 68.39 99.9048 68.4833C99.2667 68.5472 98.5381 68.1712 98.0171 68.8292C98.0035 68.8331 97.9891 68.8331 97.9756 68.8292C97.163 68.8459 96.3766 69.1183 95.7292 69.6076C95.4272 69.8407 95.11 70.0588 94.7967 70.2806L93.3318 71.3222C93.2576 71.3736 93.1914 71.4357 93.1355 71.5064C92.5088 72.3412 91.8972 73.191 91.2478 74.0182C91.013 74.291 90.7608 74.5485 90.4927 74.789C89.8811 75.3831 89.0656 75.6012 88.3181 75.9359C87.9348 76.1538 87.5154 76.3015 87.0797 76.372C86.4643 76.3908 85.8414 76.5676 85.226 76.3946C85.0477 76.3332 84.8725 76.2629 84.7012 76.184C84.1952 76.0156 83.6997 75.8173 83.2175 75.5899C82.79 75.3256 82.3836 75.0289 82.0018 74.7025C81.7187 74.4845 81.4619 74.2288 81.1599 74.0408C80.5558 73.6647 79.9178 73.3339 79.3062 72.9616C78.8839 72.7038 78.4756 72.4239 78.0829 72.1231C77.6889 71.7584 77.2729 71.4181 76.8371 71.1041C76.3953 70.8447 76.082 70.307 75.4439 70.4047C75.41 70.4047 75.3609 70.3671 75.3382 70.3333C74.9003 69.7317 74.2056 69.8182 73.6015 69.743C73.053 69.7329 72.5053 69.7898 71.9706 69.9122C71.8857 69.939 71.809 69.9868 71.7478 70.0513C71.3703 70.3559 70.9927 70.698 70.6152 70.965C70.147 71.2696 69.6223 71.4989 69.139 71.7885C68.6829 72.0088 68.2629 72.2966 67.8931 72.642C67.3721 73.2138 66.7582 73.6943 66.0772 74.0633C65.7787 74.281 65.5074 74.5335 65.2692 74.8153C64.8615 75.2252 64.4802 75.6651 64.0498 76.0524C63.7138 76.4123 63.3096 76.7024 62.8605 76.906C62.1375 77.0945 61.402 77.2315 60.6595 77.3158L59.6023 77.4925C59.5072 77.5155 59.4089 77.5219 59.3116 77.5113C58.5128 77.402 57.7272 77.2117 56.9671 76.9436C55.9645 76.5849 55.0413 76.0358 54.2488 75.3267C53.6674 74.7552 53.1464 74.1235 52.6027 73.5143C51.6702 72.4653 50.6697 71.5027 49.3143 70.9951C49.1357 70.9248 48.9699 70.8257 48.8235 70.7018C48.1195 70.1071 47.2386 69.7596 46.3167 69.7129C46.1095 69.6837 45.9041 69.6435 45.7013 69.5926C45.3049 69.5211 44.8556 69.3105 44.5271 69.4271C44.1987 69.5437 43.8249 69.194 43.5191 69.4797C42.764 69.2241 42.0543 69.5173 41.3822 69.7617C39.9967 70.2656 38.8678 71.2395 37.739 72.1306C36.7913 72.8826 36.04 73.8753 35.2321 74.7853C34.3731 75.8117 33.3713 76.7107 32.2571 77.4549C30.9696 78.2596 29.6143 78.1092 28.2551 78.0265C28.2249 78.0265 28.1834 78.0265 28.1721 77.9964C27.8738 77.564 27.3188 77.6467 26.9337 77.3797C26.5476 77.1234 26.1467 76.8899 25.7332 76.6804C25.5385 76.5894 25.338 76.5115 25.1329 76.4472C25.0432 76.4267 24.9576 76.3911 24.8799 76.3419C24.3023 75.8268 23.7095 75.3267 23.1734 74.774C22.873 74.4202 22.6015 74.043 22.3617 73.6459C22.2258 73.4467 22.1503 73.1797 21.9842 73.0518C21.2631 72.5405 20.5193 72.0667 19.7718 71.5967C19.3678 71.3448 18.911 71.168 18.5335 70.886C17.8539 70.3784 17.0535 70.3897 16.2682 70.3295C15.6849 70.323 15.1019 70.3594 14.524 70.4386C14.4188 70.4317 14.3132 70.4406 14.2106 70.4649C13.6292 70.7168 13.0516 70.98 12.4777 71.2432C12.29 71.3139 12.1082 71.3994 11.9341 71.4989C11.5565 71.7471 11.2129 72.0103 10.8618 72.281C10.5107 72.5518 10.186 72.8112 9.87268 73.1007C9.49514 73.4504 9.14401 73.8528 8.74004 74.1874C8.24168 74.6273 7.72447 75.0485 7.19969 75.4583C6.26716 76.184 5.6216 77.2632 4.44367 77.6805C4.19827 77.767 3.91889 77.7783 3.68859 77.8874C3.11473 78.1581 2.5786 78.222 2.06515 77.7746C1.78419 77.5661 1.51685 77.34 1.26476 77.0977C1.01702 76.7927 0.788761 76.4725 0.58139 76.1389C0.518341 76.2006 0.45155 76.2584 0.381329 76.3119C-0.16233 76.6164 -0.117047 76.6014 0.0754988 77.1842C0.381307 78.113 1.1477 78.6093 1.85748 79.1357C2.13308 79.3425 2.63146 79.6696 2.96369 79.0755C3.34123 79.1771 3.60171 78.6995 4.02456 78.9665C4.30738 79.0976 4.60947 79.1826 4.91933 79.2184C5.08167 78.9665 5.14208 78.7672 5.29687 78.6694C5.67441 78.3874 6.30494 78.4288 6.4635 77.8272C6.4711 77.8143 6.48147 77.8032 6.49387 77.7947C6.50627 77.7863 6.52038 77.7807 6.53521 77.7783C6.97694 77.7031 7.06755 77.2933 7.29029 76.9962C7.32427 76.9511 7.3243 76.8721 7.36583 76.8383C7.80633 76.5239 8.22859 76.185 8.63058 75.8231C9.29883 75.1462 10.2729 74.8003 10.7221 73.8904C10.7834 73.8051 10.8652 73.7366 10.96 73.6911C11.5603 73.2812 12.153 72.8676 12.7646 72.4728C13.0298 72.2594 13.3335 72.0986 13.6594 71.999C14.3843 71.8749 15.128 71.8486 15.8643 71.7847C16.0433 71.7628 16.2238 71.754 16.4041 71.7584C16.6596 71.7483 16.9149 71.7813 17.1592 71.8561C17.801 72.1306 18.4202 72.454 19.0469 72.7548C19.3944 72.8873 19.7324 73.043 20.0587 73.2211C20.592 73.5261 21.0438 73.9542 21.3763 74.4694C21.5074 74.6806 21.6592 74.8784 21.8294 75.0598C22.2749 75.5674 22.7242 76.0675 23.1772 76.5638C23.3445 76.7942 23.5456 76.9983 23.7737 77.1692C24.6345 77.673 25.5104 78.1543 26.3939 78.613C26.8791 78.8997 27.4011 79.1198 27.9455 79.2673C28.4175 79.3688 28.9234 79.6809 29.418 79.3275C29.5237 79.4628 29.6294 79.5944 29.7955 79.8313V79.2673L30.0522 79.4215V79.2899C30.275 79.1959 30.5506 78.9703 30.7129 79.0342C31.1547 79.1996 31.536 78.9439 31.9512 78.9627C32.2767 78.9514 32.5911 78.8427 32.8536 78.6507C33.464 78.2413 34.049 77.7956 34.6054 77.3158C35.2396 76.7631 35.8399 76.1652 36.4327 75.5636C36.8102 75.1876 37.0216 74.6499 37.4747 74.2889C38.158 73.7475 38.7545 73.1007 39.4039 72.5142C39.7426 72.2209 40.1009 71.9509 40.4761 71.7057C40.8354 71.4669 41.2072 71.2472 41.5899 71.0477C41.9019 70.8804 42.2262 70.7371 42.5602 70.6191C42.7414 70.5662 42.9318 70.5521 43.1189 70.5777C43.3492 70.6003 43.5682 70.6943 43.7985 70.7206C44.0288 70.7469 44.2893 70.6905 44.5196 70.7431C45.4483 70.9612 46.3733 71.1831 47.2907 71.45C47.7857 71.592 48.2631 71.7888 48.7141 72.0366C49.1831 72.3111 49.63 72.6216 50.0506 72.9654C50.6305 73.3998 51.1852 73.8668 51.7117 74.3641C52.3196 74.9582 52.8443 75.6538 53.4446 76.2442C53.9052 76.6766 54.5244 76.9436 54.9775 77.3722C55.5173 77.9024 56.2082 78.0716 56.8652 78.3386C57.1484 78.4246 57.4391 78.4837 57.7335 78.5153L57.8996 78.3235C58.1376 78.4839 58.4021 78.601 58.6811 78.6694C59.4362 78.6995 60.1913 78.6695 60.9464 78.6243C61.0257 78.6243 61.1049 78.5491 61.1842 78.5115C61.3684 78.4138 61.5619 78.3344 61.7619 78.2746C62.2074 78.1844 62.7321 78.4589 63.1021 77.9889C63.1286 77.9588 63.2418 77.9889 63.3136 77.9889C63.4865 77.9847 63.658 77.9568 63.8232 77.9061C64.0722 77.8107 64.3082 77.6843 64.5255 77.5301C65.048 77.1893 65.5185 76.7752 65.9224 76.3006C66.4399 75.5554 67.1217 74.938 67.9158 74.4957C68.6942 74.0971 69.3631 73.5149 69.8639 72.7999C69.9778 72.6656 70.1178 72.5556 70.2754 72.4765C70.6012 72.2135 70.9686 72.0064 71.3627 71.8637C71.8142 71.6737 72.2403 71.4287 72.6313 71.1342C72.7334 71.077 72.8506 71.0521 72.9673 71.0628C73.3581 71.1072 73.7463 71.1724 74.1301 71.2583C74.6245 71.3331 75.1044 71.4827 75.5534 71.702C76.4557 72.266 77.2712 72.9766 78.1698 73.5519C79.0683 74.1272 79.6309 75.0259 80.6955 75.2666C80.6955 75.2666 80.6955 75.2891 80.7295 75.2966C81.2752 75.6733 81.8397 76.0222 82.4209 76.3419C83.0098 76.639 83.4063 77.3196 84.1915 77.2406C84.2708 77.2406 84.3614 77.3948 84.4483 77.4775C84.5088 77.5539 84.5841 77.6174 84.6698 77.6643C84.7554 77.7111 84.8497 77.7403 84.9469 77.7501C85.0441 77.7599 85.1423 77.7502 85.2357 77.7214C85.329 77.6927 85.4156 77.6455 85.4903 77.5828C85.5129 77.5828 85.5507 77.5828 85.5734 77.5828L85.8527 77.8121C86.0127 77.7105 86.1836 77.6273 86.3624 77.564C86.7399 77.47 87.1628 77.4211 87.563 77.3346C87.9632 77.2481 88.3181 77.1165 88.673 77.0714C89.1411 77.0188 89.6168 77.0338 89.9528 76.6164C89.9528 76.6164 89.9792 76.6164 89.9943 76.6164C90.9004 76.6164 91.429 75.9208 91.984 75.3944C92.539 74.868 92.9958 74.0633 93.5395 73.4241C93.9774 72.909 94.4909 72.4502 94.9779 71.9727C95.2422 71.7132 95.5102 71.4538 95.7934 71.2207C96.0595 70.9647 96.3592 70.7459 96.6844 70.5702C97.1433 70.4172 97.6111 70.2916 98.0851 70.1942C98.4626 70.0889 98.8061 69.9498 99.1724 69.8482C99.4442 69.773 99.8066 69.5963 99.9954 69.7053C100.597 69.9854 101.244 70.1536 101.906 70.2017C102.009 70.2083 102.108 70.2494 102.185 70.3182C102.676 70.98 103.578 70.8334 104.152 71.3184C104.179 71.341 104.243 71.3184 104.28 71.3184C104.483 71.3742 104.682 71.442 104.877 71.5215C105.032 71.5967 105.156 71.7245 105.304 71.8148C105.681 72.0441 106.059 72.2585 106.436 72.4991C106.893 72.7962 107.339 73.112 107.788 73.4241C108.301 73.8001 108.822 74.131 109.298 74.5108C110.019 75.0597 110.71 75.6388 111.439 76.1803C111.567 76.2743 111.843 76.1464 112.02 76.2066C112.356 76.2947 112.672 76.448 112.949 76.6578C113.171 76.8584 113.432 77.0119 113.715 77.1089C113.999 77.2059 114.3 77.2443 114.599 77.2218C114.693 77.2218 114.855 77.2481 114.874 77.3045C115.018 77.6805 115.278 77.5602 115.52 77.4625C115.78 77.7595 115.773 77.7294 116.098 77.6241C116.569 77.4625 117.06 77.3685 117.532 77.2068C117.823 77.0874 118.106 76.9479 118.378 76.7894C118.48 76.7368 118.578 76.6728 118.684 76.6277C119.083 76.49 119.471 76.3203 119.843 76.1201C120.368 75.7639 120.873 75.3772 121.353 74.962C121.881 74.5296 122.41 74.0896 122.893 73.6083C123.336 73.233 123.711 72.7855 124.003 72.2848C124.332 71.5854 124.985 71.3222 125.513 70.886C125.906 70.5661 126.336 70.2935 126.793 70.0738C127.258 69.837 127.767 69.6978 128.243 69.4797C128.531 69.393 128.792 69.2322 128.998 69.0135C129.038 68.9421 129.062 68.8633 129.069 68.7821C129.077 68.7009 129.067 68.619 129.041 68.5416C129.016 68.4643 128.974 68.3931 128.919 68.3326C128.864 68.272 128.797 68.2235 128.722 68.19V68.19Z" fill="#093243"/>
<path d="M29.116 20.2483C29.15 20.7371 29.1764 21.2222 29.2368 21.7072C29.3161 22.369 29.4822 23.027 29.5049 23.6926C29.5369 24.3436 29.6959 24.9822 29.973 25.5726C30.0527 25.7644 30.1969 25.9225 30.3807 26.0201C30.6929 26.1377 31.0135 26.232 31.3397 26.3021C31.6564 26.6201 31.948 26.9621 32.2118 27.3249C32.4799 27.7648 32.8423 27.7272 33.2274 27.6482C33.9825 27.4978 34.7376 27.3361 35.4549 27.1519C36.0749 27.0085 36.6851 26.8264 37.2822 26.6067C37.6714 26.4277 38.0377 26.203 38.3733 25.9374C38.8488 25.6445 39.2884 25.2975 39.6834 24.9033C40.1779 24.3318 40.5517 23.6587 40.9896 23.0233C41.6232 22.0407 41.9888 20.9106 42.0505 19.7445C42.2166 18.1577 41.4125 16.8266 40.4762 15.6271C39.9871 15.0962 39.4372 14.6242 38.8376 14.2209C38.5061 13.9937 38.162 13.7853 37.807 13.5967C38.1619 13.3711 38.4375 13.2207 38.6715 13.0477C39.8295 12.122 40.8028 10.9881 41.5408 9.70497C41.9648 8.88924 42.3429 8.05069 42.6735 7.19321C43.4852 5.31316 43.5531 3.45566 42.2959 1.72601C41.8989 1.18719 41.4374 0.698535 40.9217 0.27085C40.4988 -0.0788407 39.9514 -0.0638016 39.3889 0.022681C38.7839 0.0779229 38.1756 0.0879786 37.5691 0.0527626C37.0443 0.0527626 36.5158 0.0226808 35.9986 0.0753223C35.4812 0.0881014 34.97 0.191186 34.4884 0.37989C33.7107 0.755902 33.0235 1.31992 32.2647 1.74481C31.166 2.36147 30.8791 3.46318 30.9433 4.48593C30.9754 5.72324 30.7584 6.95444 30.3052 8.10692C29.9003 9.15212 29.5821 10.2286 29.3538 11.3256C29.1839 12.3859 29.0178 13.4463 28.9121 14.5104C28.8505 15.1968 28.8416 15.8869 28.8857 16.5747C28.931 17.8231 29.0291 19.0338 29.116 20.2483ZM32.8574 12.307C32.9782 10.5472 33.0953 8.7875 33.235 7.04281C33.2561 6.34076 33.3153 5.64035 33.4124 4.94467C33.4588 4.49171 33.6405 4.063 33.9339 3.71382C34.2273 3.36465 34.619 3.11102 35.0585 2.98565C36.4488 2.52171 37.9235 2.36265 39.3813 2.5194C40.4195 2.62092 41.6465 4.02344 41.1973 5.18156C40.8575 6.06518 40.529 6.95633 40.159 7.81363C40.0137 8.10488 39.8197 8.36936 39.5852 8.59574C38.8301 9.37408 38.1279 10.175 37.3199 10.8894C36.7997 11.2762 36.2549 11.6291 35.689 11.946C35.3907 12.149 35.1642 12.4724 34.8508 12.6454C34.4331 12.849 34.0002 13.02 33.5559 13.1567C33.3331 13.232 33.099 13.2733 32.7593 13.3598C32.8046 12.9499 32.8348 12.6266 32.8574 12.2957V12.307ZM32.2722 23.3843C32.2722 21.4892 32.2861 19.5916 32.3138 17.6914C32.3138 17.4546 32.3855 17.2177 32.3968 16.9808C32.3968 16.492 32.5214 16.3904 33.0009 16.5371C33.1832 16.6077 33.3812 16.6286 33.5743 16.5975C33.7675 16.5665 33.9488 16.4846 34.0995 16.3604C34.7527 15.849 35.5417 15.9204 36.2704 15.9844C36.9618 16.0362 37.6278 16.2662 38.203 16.6519C38.7782 17.0375 39.2428 17.5655 39.5512 18.184C39.7522 18.5749 39.8658 19.0046 39.8841 19.4434C39.9023 19.8822 39.8248 20.3197 39.6569 20.7259C39.5512 21.0229 39.2794 21.2598 39.1435 21.5531C38.7282 22.4517 37.9127 22.8992 37.1538 23.4557C36.1987 24.1513 35.1189 24.516 34.058 24.9597C33.5181 25.1741 32.9254 25.2944 32.2722 25.4974C32.2722 24.6702 32.2685 24.0272 32.2722 23.3843ZM30.9169 12.149H31.083C31.3472 12.589 30.8904 12.9725 30.9357 13.3936H30.7885L30.9169 12.149Z" fill="#093243"/>
<path d="M7.06748 53.1191C7.15771 53.1966 7.26506 53.2517 7.38077 53.28C7.49649 53.3082 7.61726 53.3088 7.73324 53.2817C7.84923 53.2546 7.95713 53.2005 8.04811 53.1239C8.13909 53.0472 8.21059 52.9503 8.25674 52.8409C8.4296 52.4472 8.53671 52.0281 8.57386 51.6C8.64937 50.472 8.66445 49.344 8.69843 48.1859C8.72864 47.1142 8.77019 46.0426 8.77397 44.971C8.77397 44.3355 8.66826 43.7 8.68714 43.0646C8.74377 41.4289 8.84569 39.7933 8.92497 38.1764C8.94385 37.8305 8.92498 37.4808 8.97783 37.1424C8.99393 36.9002 9.07171 36.6661 9.20382 36.4622C9.33593 36.2583 9.51802 36.0912 9.73291 35.9768C10.3062 35.7217 10.903 35.5227 11.5149 35.3827C12.0902 35.2728 12.6736 35.21 13.2591 35.1947C13.8368 35.1608 14.422 35.1608 14.9996 35.1947C15.1015 35.1947 15.2299 35.3375 15.2903 35.4428C15.9434 36.6423 16.7023 37.7816 16.389 39.2894C16.2876 39.8454 16.0761 40.3758 15.7669 40.8496C15.4578 41.3234 15.057 41.7313 14.5881 42.0494C13.9028 42.5608 13.1493 42.9746 12.3493 43.2789C11.7631 43.5253 11.1631 43.7375 10.5522 43.9144C10.297 43.9785 10.0585 44.0958 9.85216 44.2584C9.64587 44.4211 9.47654 44.6255 9.35537 44.8582C9.04579 45.362 9.31007 45.7982 9.57057 46.2193C9.70915 46.4837 9.89024 46.7238 10.1067 46.93C10.2577 47.0503 10.5333 47.0127 10.7485 47.0653C11.7226 47.316 12.6966 47.5667 13.6707 47.8174C14.0482 47.9151 14.4257 48.0091 14.7655 48.1332C15.4175 48.3003 16.0502 48.5347 16.6532 48.8326C17.1339 49.0939 17.5464 49.4636 17.8578 49.9122C18.1692 50.3607 18.3708 50.8757 18.4466 51.4158C18.5447 52.1039 18.2804 53.0063 17.6575 53.2056C16.9553 53.4312 16.287 53.9576 15.464 53.6343C15.43 53.6343 15.3772 53.6343 15.3318 53.6343C13.9803 53.8899 12.6324 54.1607 11.2733 54.3863C10.8127 54.4652 10.337 54.454 9.72536 54.4953C9.62194 54.9626 9.56254 55.4384 9.54792 55.9167C9.63568 56.2496 9.78272 56.5642 9.98208 56.8454C10.0298 56.9899 10.1323 57.1101 10.2677 57.1803C10.4031 57.2506 10.5608 57.2653 10.707 57.2214C10.9259 57.1725 11.1525 57.1462 11.3677 57.0936C12.2322 56.8905 13.0855 56.6611 13.9538 56.4844C14.7089 56.334 15.464 56.2739 16.1926 56.1084C16.9543 55.8871 17.7516 55.8144 18.5409 55.8941C18.7466 55.8839 18.947 55.8259 19.1261 55.7249C19.7868 55.488 19.8812 54.7961 20.2285 54.3224C20.3486 54.1591 20.4381 53.9757 20.4928 53.7809C20.81 52.6529 20.5759 51.5248 20.2852 50.4645C20.027 49.5023 19.5504 48.6121 18.8921 47.8625C18.0748 46.8972 16.9709 46.2152 15.7396 45.9147C15.2453 45.7901 14.7577 45.6408 14.2785 45.4673C14.2143 45.4447 14.1501 45.1928 14.169 45.1778C14.5466 44.9296 14.9241 44.6889 15.3394 44.4671C16.4181 43.9154 17.3214 43.0756 17.9482 42.0418C18.103 41.7711 18.0614 41.3876 18.2162 41.1168C18.523 40.5509 18.6543 39.9071 18.5938 39.2669C18.5223 38.366 18.3227 37.4798 18.001 36.6348C17.5901 35.6792 17.1015 34.7587 16.54 33.8824C16.3295 33.5083 16.0267 33.1938 15.6603 32.9687C14.6711 32.4385 13.5612 32.6829 12.5003 32.6227C12.1212 32.6453 11.7468 32.7173 11.3865 32.8371L9.22322 33.3296L9.43089 33.4349L9.36669 33.5741C9.11517 33.5606 8.86312 33.5606 8.61161 33.5741C8.23407 33.6192 7.85653 33.8034 7.47898 33.5365C7.44123 33.5101 7.26001 33.5891 7.24113 33.6493C7.05987 34.0833 6.93307 34.5379 6.86359 35.0029C6.80319 35.879 6.86362 36.7626 6.84096 37.635C6.84096 38.3456 6.77298 39.0563 6.76543 39.7707C6.76543 40.9514 6.76543 42.1321 6.76543 43.3127C6.76543 44.1588 6.79563 45.0048 6.76543 45.8471C6.73522 46.6893 6.66729 47.6331 6.59933 48.5243C6.57169 49.3386 6.48842 50.1502 6.35014 50.9533C6.24631 51.3447 6.25884 51.7577 6.38618 52.1422C6.51352 52.5267 6.75019 52.8661 7.06748 53.1191V53.1191Z" fill="#093243"/>
<path d="M70.3018 39.4436C70.2413 39.4534 70.1857 39.4824 70.1432 39.5263C69.8789 39.7858 69.4561 40.0189 69.3881 40.3272C69.2709 40.9594 69.2366 41.604 69.2862 42.2449C69.3389 42.7274 69.4234 43.206 69.5391 43.6775C69.592 43.9858 69.6146 44.2979 69.6788 44.6025C69.7996 45.1364 69.9884 45.6628 70.0563 46.2005C70.2602 47.6444 70.4641 49.0883 70.5811 50.5359C70.6453 51.5878 70.6453 52.6426 70.5811 53.6944C70.5585 54.266 70.3546 54.8225 70.3055 55.3978C70.3105 55.7936 70.3471 56.1884 70.415 56.5784C70.4133 56.7472 70.4471 56.9144 70.5142 57.0694C70.5814 57.2243 70.6804 57.3635 70.805 57.4779C70.9295 57.5924 71.0767 57.6795 71.2371 57.7338C71.3976 57.7881 71.5677 57.8082 71.7364 57.793C71.8421 57.793 71.9478 57.793 72.1139 57.7666C72.3215 57.426 72.4756 57.0557 72.5708 56.6687C72.6614 55.6835 72.6689 54.6946 72.6765 53.7057C72.6778 53.1218 72.6488 52.5382 72.5896 51.9573C72.4839 50.8267 72.3644 49.6987 72.231 48.5732C72.129 47.6858 71.9743 46.8059 71.8987 45.9148C71.8421 45.2116 71.8572 44.5047 71.8534 43.7978C71.8534 43.3128 71.8534 42.824 71.9025 42.3389C71.922 42.2698 71.9559 42.2055 72.0021 42.1505C72.0483 42.0954 72.1058 42.0507 72.1706 42.0193C73.2237 41.5554 74.4057 41.469 75.5156 41.7749C76.2284 41.9755 76.922 42.2385 77.5883 42.5607C78.03 42.7487 78.1206 43.0007 77.8677 43.4105C77.5122 43.9916 77.1266 44.5539 76.7124 45.0951C76.4242 45.4523 76.1073 45.7855 75.7648 46.0915C75.5632 46.3113 75.3158 46.4846 75.0399 46.5991C74.5725 46.7719 74.1161 46.9728 73.6732 47.2007C72.9181 47.5429 73.0276 48.2009 72.9181 48.7349C72.8922 48.953 72.9161 49.1742 72.988 49.3819C73.0599 49.5896 73.178 49.7784 73.3334 49.9343C73.7865 50.2878 74.1376 50.9533 74.9191 50.7841C75.1442 50.7558 75.3721 50.8092 75.5609 50.9345C76.5236 51.5361 77.5014 52.1227 78.4075 52.8146C79.1173 53.3448 79.1362 53.5215 78.8266 54.0705C78.6835 54.3443 78.4698 54.5753 78.2075 54.7398C77.4776 55.1401 76.7207 55.4894 75.9422 55.7851C75.2939 56.0147 74.6233 56.176 73.9413 56.2664C73.3183 56.3528 73.1333 56.492 73.0012 57.0936C72.869 57.6952 73.2352 58.1464 73.4542 58.6427C73.6732 59.1391 73.9224 59.2556 74.4245 59.0864C75.2815 58.8007 76.131 58.4811 76.988 58.184C77.4256 58.0647 77.8555 57.919 78.2754 57.7478C78.8726 57.4446 79.4478 57.1004 79.997 56.7176C80.3199 56.4863 80.6029 56.2044 80.8351 55.8828C81.3561 55.1797 81.2504 54.3525 81.19 53.5516C81.0997 52.7358 80.7383 51.9735 80.1631 51.3857C79.2948 50.4382 78.1659 49.7839 77.0824 49.0958C76.6218 48.8063 76.5916 48.513 76.9314 48.1558C77.7997 47.2421 78.7096 46.3622 79.5062 45.3884C79.9857 44.798 80.4387 44.1061 80.299 43.2639C80.2214 42.6355 80.0295 42.0264 79.7327 41.4665C79.4858 40.9584 79.0769 40.5459 78.5699 40.2934C78.2188 40.1392 77.8563 40.0114 77.4939 39.8835C76.8785 39.6692 76.2707 39.4399 75.644 39.2744C75.1805 39.1647 74.7078 39.098 74.2319 39.0751C73.9047 39.0664 73.5774 39.0878 73.2541 39.139C72.9294 39.1766 72.6085 39.2594 72.2838 39.2895C71.6194 39.3684 70.9587 39.391 70.3018 39.4436Z" fill="#093243"/>
<path d="M104.832 44.1326C104.654 45.0087 104.515 45.8886 104.382 46.7647C104.262 47.5769 104.133 48.3853 104.08 49.2013C104.044 49.8435 104.064 50.4877 104.141 51.1264C104.198 51.9705 104.345 52.8062 104.579 53.6194C104.994 54.8452 105.47 56.0559 106.376 57.0637C107.054 57.8788 107.928 58.51 108.917 58.8986C109.907 59.3032 111.016 59.3113 112.013 58.9212C112.283 58.778 112.577 58.6826 112.881 58.6391C114.172 58.5752 114.946 57.6202 115.837 56.9208C116.455 56.4992 116.907 55.8774 117.117 55.161C117.135 55.1041 117.171 55.0542 117.219 55.0182C117.888 54.3873 118.377 53.5905 118.635 52.7095C119.227 51.0212 119.125 49.2577 119.107 47.5017C119.107 46.1142 118.574 44.8696 118.136 43.5874C118.027 43.3409 117.882 43.1116 117.706 42.9068C117.346 42.4893 117.01 42.0524 116.698 41.5983C116.32 40.9779 115.746 40.6282 115.188 40.2221C114.943 40.0125 114.658 39.8537 114.351 39.7549C114.044 39.6561 113.72 39.6194 113.398 39.6468C113.315 39.6468 113.224 39.5791 113.138 39.5829C112.821 39.5494 112.501 39.5659 112.19 39.6318C111.507 39.8536 111.382 39.8311 110.891 39.2558C110.681 39.0375 110.455 38.8352 110.215 38.6504L110.129 38.782C109.581 38.8534 109.037 38.9211 108.494 38.9963C108.441 38.9963 108.392 39.0602 108.347 39.0978C107.758 39.5867 107.154 40.0642 106.583 40.5793C106.395 40.7485 106.327 41.0456 106.161 41.2524C105.489 42.0903 105.032 43.0791 104.832 44.1326V44.1326ZM106.802 46.3173C106.991 46.4026 107.187 46.4705 107.388 46.5203C107.467 46.1091 107.521 45.6935 107.55 45.2757C107.55 44.7493 107.928 44.4222 108.199 44.0913C109.06 43.0431 110.28 42.3504 111.624 42.1473C112.38 42.0244 113.145 41.9553 113.912 41.9405C114.484 41.9461 115.035 42.1601 115.459 42.5421C116.057 43.0241 116.53 43.6407 116.84 44.3409C117.151 45.0412 117.29 45.805 117.245 46.5692C117.245 47.1858 117.223 47.7987 117.245 48.4154C117.325 50.4985 116.535 52.2394 115.214 53.8074C114.552 54.5444 113.79 55.1849 112.949 55.71C111.729 56.526 110.378 56.6162 109.019 56.4357C108.455 56.2816 107.949 55.9681 107.561 55.5333C106.773 54.7299 106.282 53.684 106.168 52.5666C106.003 51.7463 105.93 50.91 105.953 50.0736C106.047 48.9005 106.18 47.7311 106.3 46.5617C106.346 46.2458 106.493 46.1368 106.802 46.3173V46.3173Z" fill="#093243"/>
<path d="M62.8832 8.28725C62.955 9.64841 62.9512 11.0133 62.9701 12.3783C62.968 12.528 62.9567 12.6774 62.9361 12.8257C62.6014 14.8874 62.4649 16.9762 62.5284 19.0637C62.6001 20.2895 62.6114 21.5191 62.6039 22.7486C62.6059 23.4607 62.5453 24.1716 62.4227 24.8731C62.2188 25.9372 62.3773 26.8246 63.2457 27.5691C63.5666 27.8474 63.8611 28.0278 64.2386 27.8812C65.0979 27.5982 66.0092 27.507 66.9078 27.6142C67.6629 27.6556 68.418 27.7421 69.1467 27.7872C69.426 27.7872 69.713 27.7233 69.9961 27.7346C70.4945 27.7609 70.9928 27.8286 71.5063 27.8662C71.6117 27.8613 71.7142 27.8302 71.8045 27.7759C71.9674 27.6913 72.1117 27.5752 72.2291 27.4345C72.3466 27.2938 72.4347 27.1312 72.4885 26.9563C72.5422 26.7813 72.5605 26.5975 72.5422 26.4154C72.524 26.2334 72.4696 26.0568 72.3822 25.8959C72.1141 25.4785 71.8763 25.0348 71.3062 24.8317C70.838 24.6663 70.4945 24.9107 70.1207 24.9709C68.691 25.1665 67.2406 25.1589 65.813 24.9483C65.6391 24.9199 65.4732 24.8557 65.3256 24.7599C65.1781 24.6641 65.0522 24.5387 64.956 24.3918C64.767 23.9917 64.6678 23.5555 64.6652 23.1134C64.635 22.6095 64.7181 22.0981 64.737 21.6093C64.771 20.8573 64.7861 20.0827 64.8238 19.3194C64.8465 18.8118 64.9824 18.6802 65.4807 18.6915C66.4132 18.714 67.3458 18.7404 68.2783 18.778C68.7245 18.8298 69.1732 18.8574 69.6224 18.8607C69.9618 18.8525 70.2918 18.7482 70.5737 18.5599C70.7897 18.3594 70.9291 18.0906 70.9684 17.7992C71.0076 17.5078 70.9442 17.2119 70.7889 16.9618C70.5473 16.5595 70.3736 16.1722 69.796 16.003C69.4205 15.8511 69.0095 15.8081 68.6105 15.8789C68.5054 15.8937 68.3986 15.8937 68.2934 15.8789L65.3033 15.7661C64.6199 15.7436 64.6086 15.7661 64.6464 15.0555C64.7257 13.6981 64.8238 12.3444 64.9069 10.987C64.9258 10.6674 64.9069 10.3478 64.9069 10.0282C65.1376 10.2226 65.4101 10.3617 65.7034 10.4347C65.9966 10.5078 66.3028 10.5127 66.5983 10.4493C67.04 10.3967 67.4704 10.2463 67.9121 10.1974C68.85 10.0631 69.7961 9.99398 70.7436 9.99058C71.258 10.0127 71.7733 9.99133 72.284 9.92666C72.4627 9.90067 72.6253 9.80917 72.7398 9.67006C72.8543 9.53096 72.9126 9.35428 72.9032 9.17464C72.8706 8.63324 72.6473 8.12064 72.2727 7.727C71.7328 7.19306 71.0721 7.17802 70.385 7.2645C69.6978 7.35098 68.973 7.51267 68.2594 7.55027C67.2212 7.59915 66.1792 7.57659 65.1372 7.55027C65.0739 7.54223 65.0137 7.51835 64.9622 7.48087C64.9107 7.44339 64.8696 7.39353 64.8427 7.33594C64.786 6.82457 64.7559 6.30943 64.7408 5.79054C64.7131 5.46673 64.587 5.15902 64.3792 4.90844C64.1715 4.65786 63.8919 4.47631 63.5779 4.38802C63.4254 4.34159 63.2626 4.34071 63.1096 4.38549C62.9566 4.43026 62.8202 4.51873 62.7171 4.63994C62.4129 5.08028 62.269 5.61099 62.3094 6.14399C62.3135 6.49369 62.3747 6.84039 62.4906 7.1705C62.5925 7.56907 62.8644 7.91876 62.8832 8.28725Z" fill="#093243"/>
<path d="M49.6428 56.1572C49.6982 56.174 49.7573 56.174 49.8127 56.1572C50.0262 56.0945 50.2194 55.9771 50.3731 55.8168C50.5268 55.6565 50.6356 55.4588 50.6886 55.2435C50.8585 54.4651 50.8925 53.6642 51.2171 52.9122C51.455 52.352 51.5607 51.7353 51.757 51.1562C52.1436 49.922 52.3968 48.6501 52.5121 47.3623C52.5725 46.881 52.6442 46.4035 52.7122 45.9146C53.0968 46.1463 53.5107 46.3258 53.943 46.4486C54.1639 46.4743 54.3755 46.5518 54.5606 46.6746C54.7456 46.7975 54.8988 46.9623 55.0076 47.1555C55.4531 47.8549 55.8949 48.558 56.363 49.2424C56.6613 49.6785 57.2691 49.8064 57.9147 49.6184C58.4584 49.4567 58.5792 49.2424 58.6698 48.5956C58.7124 48.2583 58.8326 47.9353 59.0209 47.6518C59.3682 47.163 59.7949 46.7306 60.1762 46.2681C60.5084 45.8658 60.8255 45.4559 61.2182 44.9633C61.3053 45.0983 61.375 45.2435 61.4258 45.3958C61.4711 45.8394 61.4862 46.2907 61.524 46.7381C61.6146 47.7157 61.6977 48.6971 61.8071 49.6748C61.8789 50.329 61.9997 50.972 62.0865 51.6225C62.2073 52.5099 62.3772 53.3935 62.4112 54.2847C62.5052 55.2823 62.462 56.288 62.2829 57.2739C62.0752 58.135 62.1054 58.7442 62.7963 59.3232C63.4117 59.8346 64.2347 59.6992 64.4424 58.9209C64.6398 58.1975 64.7163 57.4468 64.6689 56.6986C64.5783 55.4052 64.348 54.123 64.1743 52.8408C64.0611 52.0135 63.9327 51.1863 63.827 50.3591C63.7213 49.5319 63.6231 48.6708 63.5514 47.8285C63.4683 46.8885 63.4004 45.9485 63.3588 45.0085C63.3362 44.5422 63.3928 44.0759 63.4117 43.6059C63.4837 42.8818 63.3626 42.1516 63.0606 41.489C62.683 40.7896 62.0865 40.737 61.4334 40.737C61.2808 40.7317 61.1311 40.779 61.0094 40.8707C60.8877 40.9625 60.8015 41.0932 60.7651 41.2408C60.6309 41.6368 60.4681 42.0226 60.2781 42.3952C60.0752 42.6986 59.8466 42.9841 59.5948 43.2487C59.0134 43.9368 58.4621 44.6287 57.8392 45.2867C57.7335 45.4033 57.4805 45.4108 57.2955 45.4258C56.8916 45.4521 56.6915 45.11 56.4159 44.9069C55.9456 44.5877 55.5024 44.2305 55.0907 43.8391C54.6868 43.4028 54.3252 42.9294 54.0109 42.4253C53.7716 42.1001 53.5996 41.7307 53.505 41.3386C53.3276 40.2858 52.5574 39.7217 51.5116 39.9737C51.4134 39.9962 51.2511 40.0038 51.2322 40.0526C51.0302 40.5053 50.8917 40.9836 50.8207 41.474C50.8207 41.9703 51.0548 42.4704 51.1001 42.978C51.0813 43.3218 51.0294 43.663 50.9453 43.997C50.8029 45.6 50.5659 47.1933 50.2355 48.7686C49.9148 50.0037 49.4748 51.205 48.9217 52.3557C48.721 52.684 48.4911 52.9936 48.2346 53.2807C47.6003 54.1606 48.597 55.9353 49.6428 56.1572Z" fill="#093243"/>
<path d="M90.3115 41.1618C89.6814 41.9507 89.1074 42.7824 88.5937 43.651C88.4787 43.8436 88.3814 44.0462 88.303 44.2563C88.0538 44.9256 87.6838 45.5799 87.6083 46.268C87.5196 47.3567 87.5196 48.4507 87.6083 49.5393C87.6866 51.1876 88.0519 52.8098 88.6881 54.3334C88.9171 54.9274 89.1962 55.501 89.5224 56.0481C90.4436 57.4769 91.5234 58.7516 93.2148 59.3382C93.84 59.6196 94.5351 59.7099 95.212 59.5976C95.3131 59.5773 95.4086 59.5349 95.4913 59.4735C95.9179 59.0975 96.3559 58.7215 96.7523 58.2891C97.159 57.8771 97.5303 57.4318 97.8623 56.958C98.3429 56.2594 98.7671 55.5239 99.1308 54.7583C99.3836 54.1433 99.5635 53.501 99.667 52.8444C99.8667 51.944 100.002 51.0304 100.071 50.1108C100.067 49.2437 100.014 48.3776 99.9123 47.5164H100.007C99.935 46.7455 99.8897 45.9672 99.7802 45.2001C99.692 44.7062 99.5658 44.2197 99.4027 43.745C99.1573 42.9554 98.9307 42.1582 98.3304 41.5265C98.0485 41.1928 97.7958 40.8355 97.5754 40.4586C97.3056 39.9712 96.9935 39.5082 96.6428 39.0749C96.4882 38.8888 96.2838 38.75 96.0533 38.6748C95.8228 38.5996 95.5756 38.591 95.3403 38.65C94.6947 38.8267 94.0454 38.9922 93.3998 39.1727C93.0799 39.2308 92.7698 39.3333 92.4786 39.4772C91.665 39.9116 90.9321 40.4813 90.3115 41.1618V41.1618ZM93.3922 42.8313C93.5211 42.6829 93.6902 42.5745 93.8792 42.5192C94.5928 42.365 95.3139 42.1808 96.0501 42.4327C96.1908 42.4827 96.3363 42.518 96.4843 42.538C96.7413 42.5437 96.9874 42.6422 97.177 42.8151C97.3666 42.988 97.4867 43.2235 97.515 43.478C97.6396 44.0909 97.7641 44.7 97.8925 45.3129C98.1296 46.7483 98.15 48.2108 97.9529 49.6521C97.9257 49.7838 97.9055 49.9169 97.8925 50.0507C97.934 51.581 97.2394 52.8444 96.5258 54.1342C96.0452 55.0068 95.405 55.7822 94.6381 56.4203C94.2908 56.7061 93.6678 56.7286 93.1657 56.7474C92.6636 56.7662 92.2218 56.4053 91.8216 56.0593C91.214 55.5465 90.7301 54.9039 90.4059 54.1793C90.1726 53.6151 89.9907 53.0312 89.8622 52.4346C89.6388 51.5884 89.4748 50.7278 89.3714 49.8589C89.3363 49.0989 89.373 48.3373 89.4809 47.584C89.5635 46.675 89.8472 45.7954 90.3115 45.0084C90.7674 44.2962 91.2641 43.6107 91.799 42.9554C91.9664 42.8085 92.158 42.6914 92.3653 42.6094C92.4521 42.6997 92.5239 42.7749 92.5881 42.8538C92.9543 43.2599 92.992 43.2524 93.3733 42.8313H93.3922Z" fill="#093243"/>
<path d="M27.451 54.668C27.5138 54.8615 27.6458 55.0251 27.822 55.1278C27.9982 55.2304 28.2061 55.2649 28.4062 55.2246C28.6913 55.1892 28.9557 55.0582 29.1561 54.8532C29.3565 54.6481 29.4808 54.3813 29.5086 54.0965C29.6188 53.4248 29.7971 52.7659 30.0409 52.13C30.494 51.0358 31.0376 49.9792 31.5511 48.9113C31.6351 48.7746 31.7352 48.6483 31.8494 48.5353C31.9853 49.0768 32.1174 49.5054 32.1891 49.9378C32.2301 50.0904 32.3046 50.2319 32.4073 50.3522C32.51 50.4725 32.6383 50.5685 32.7829 50.6333C32.9275 50.6981 33.0847 50.7301 33.2432 50.7269C33.4017 50.7236 33.5575 50.6853 33.6993 50.6147C34.0216 50.4025 34.3838 50.258 34.764 50.1898C35.7343 50.0694 36.7083 50.0243 37.6824 49.9717C37.7579 49.9717 37.89 50.1258 37.9164 50.2311C38.0184 50.6071 38.0599 51.0207 38.1694 51.4043C38.4846 52.638 38.6118 53.9118 38.5469 55.1832C38.5073 55.6523 38.5653 56.1245 38.7173 56.5703C38.8694 57.0161 39.1121 57.4258 39.4304 57.7739C39.504 57.8399 39.5909 57.8895 39.6853 57.9194C39.7797 57.9492 39.8795 57.9586 39.9778 57.9469C40.2045 57.8521 40.4198 57.7322 40.6196 57.5897C40.7722 57.5307 40.8989 57.4198 40.977 57.2766C41.0551 57.1333 41.0797 56.9671 41.0463 56.8076C40.9292 55.9653 40.8348 55.1193 40.7216 54.277C40.6461 53.6904 40.5743 53.1001 40.4724 52.5173C40.3704 51.9344 40.261 51.4118 40.1364 50.8628C40.0118 50.3138 40.0609 50.1747 40.6234 49.9566C40.7214 49.9203 40.8112 49.8651 40.8876 49.7941C40.9641 49.7231 41.0257 49.6378 41.0689 49.543C41.1237 49.2788 41.1237 49.0063 41.0689 48.7421C41.0198 48.3661 40.9707 47.9901 40.4799 47.8698C40.1854 47.765 39.911 47.6112 39.6682 47.4148C39.551 47.3305 39.4649 47.2103 39.4228 47.0726C39.2454 46.4409 39.1095 45.7979 38.9245 45.1738C38.5469 43.9066 38.1279 42.6545 37.7616 41.3873C37.6028 40.9014 37.5188 40.3943 37.5125 39.8833C37.5351 39.0636 37.5993 38.3116 37.0368 37.5633C36.9044 37.3604 36.7204 37.1962 36.5036 37.0872C36.2867 36.9782 36.0447 36.9284 35.8022 36.9429C35.5266 36.9429 35.2359 37.349 35.0207 37.6235C34.8517 37.8869 34.7124 38.1681 34.6054 38.462C34.4355 38.838 34.2996 39.214 34.0995 39.59C33.5634 40.5225 32.9669 41.4249 32.4534 42.3612C31.9853 43.211 31.5813 44.0946 31.132 44.9557C30.645 45.8882 30.1315 46.8094 29.6407 47.7419C29.4557 48.0991 29.3161 48.4939 29.1349 48.8399C28.8668 49.3625 28.5836 49.8777 28.3005 50.3928C28.0173 50.9079 27.7417 51.408 27.4737 51.9232C27.1565 52.5248 26.8054 53.1339 26.9677 53.8371C27.0979 54.1308 27.26 54.4094 27.451 54.668V54.668ZM32.1174 47.6855C32.5214 46.9034 32.9518 46.1364 33.3633 45.358C33.6842 44.7451 33.99 44.1247 34.3185 43.5193C34.6694 42.7771 35.1559 42.1065 35.7531 41.5415C35.8982 41.812 36.0244 42.0922 36.1307 42.38C36.4138 43.3125 36.6857 44.2601 36.9386 45.2001C37.0934 45.7716 37.2104 46.3544 37.335 46.9335C37.4105 47.2681 37.2784 47.4336 36.9235 47.4674C35.8551 47.5652 34.7904 47.6893 33.722 47.7871C33.4998 47.7776 33.2788 47.7499 33.0613 47.7043C32.461 47.6442 32.2345 47.8021 32.0344 48.3962C32.0193 48.4356 32.0003 48.4734 31.9777 48.509L31.8343 48.4639C31.911 48.1984 32.0056 47.9384 32.1174 47.6855V47.6855Z" fill="#093243"/>
<path d="M79.0117 21.2105C79.2595 21.674 79.5369 22.1211 79.8423 22.5491C80.3257 23.3148 81.0781 23.8737 81.9527 24.1171C82.971 24.5042 84.0667 24.646 85.1505 24.5307C86.0604 24.4217 86.9967 24.4781 87.8273 23.978C89.0401 23.2601 89.972 22.153 90.47 20.8383C90.6626 20.3495 90.8476 19.8531 90.9873 19.353C91.2402 18.5296 91.4932 17.7023 91.7084 16.8676C91.8858 16.1757 92.0255 15.4763 92.1425 14.7732C92.2973 13.867 92.4068 12.9496 92.5201 12.0396C92.5438 11.7426 92.5867 11.4475 92.6485 11.156C92.8021 10.6979 92.8523 10.2116 92.7955 9.73195C92.7387 9.25229 92.5764 8.791 92.32 8.38101C92.1539 8.13285 92.1237 7.65531 91.648 7.6854C91.312 7.70796 91.1949 7.54627 91.2478 7.2041H91.093C90.8978 7.54867 90.7505 7.91802 90.655 8.30205C90.5418 9.31728 90.5607 10.3476 90.4399 11.359C90.3039 12.5096 90.1038 13.6527 89.8698 14.7845C89.7263 15.4914 89.4167 16.1644 89.2657 16.8713C89.111 17.687 88.8119 18.4688 88.3823 19.1801C88.2764 19.3427 88.1843 19.5137 88.1066 19.6914C87.9055 20.2576 87.5472 20.7552 87.0734 21.1266C86.5996 21.498 86.0297 21.7279 85.4299 21.7896C84.7159 21.8667 83.9957 21.8667 83.2817 21.7896C82.9135 21.778 82.5515 21.6924 82.2174 21.538C81.8833 21.3835 81.5839 21.1635 81.3373 20.8909C80.6515 19.9982 80.2955 18.8973 80.3293 17.7738C80.3293 16.7322 80.4954 15.6944 80.5672 14.6566C80.6356 13.3218 80.865 12 81.2505 10.7198C81.366 10.4414 81.4176 10.1408 81.4015 9.83994C81.292 9.15184 81.1259 8.48254 80.4879 8.02005C79.8498 7.55755 79.2118 7.79068 79.1061 8.51638C78.989 9.32856 78.9362 10.1483 78.838 10.9605C78.7172 11.923 78.5775 12.8819 78.4605 13.8407C78.3306 14.5134 78.2486 15.1944 78.2151 15.8787C78.2244 16.9764 78.3 18.0726 78.4416 19.1613C78.5471 19.8649 78.7385 20.5531 79.0117 21.2105Z" fill="#093243"/>
<path d="M48.9141 25.3089C49.2917 25.6661 50.3299 25.7827 50.6546 25.3691C50.7797 25.2039 50.9468 25.0751 51.1386 24.9957C51.3304 24.9164 51.54 24.8895 51.7457 24.9179C52.5209 24.9147 53.2942 24.9941 54.0525 25.1547C54.7094 25.3277 55.3474 25.1923 55.5626 24.5418C55.9024 23.5191 55.0832 22.3647 54.2073 22.1467C53.5452 22.0203 52.8755 21.9374 52.2025 21.8985V21.9549H51.8854C51.0246 21.9549 50.6848 21.5789 50.8018 20.7178C50.8585 20.323 50.9642 19.9319 51.017 19.5334C51.1567 18.5144 51.3191 17.4954 51.3946 16.4726C51.4965 15.2732 51.5116 14.0624 51.5985 12.8629C51.6853 11.6635 51.9232 10.4865 51.9081 9.29835C51.9081 8.17032 52.2629 7.07612 51.9081 5.93681C51.7997 5.6006 51.646 5.28058 51.4512 4.9855C51.4072 4.92036 51.3502 4.86488 51.2839 4.82248C51.2175 4.78009 51.1431 4.75168 51.0653 4.739C50.9875 4.72631 50.9079 4.72964 50.8314 4.74875C50.755 4.76786 50.6832 4.80237 50.6206 4.85014C50.234 5.08249 49.9321 5.43182 49.7589 5.84715C49.5857 6.26249 49.5503 6.72207 49.6579 7.15885C49.79 7.76422 49.9486 8.3696 50.0354 8.9825C50.0428 9.31095 50.0112 9.6391 49.9411 9.96013L49.6013 13.0246C49.4842 14.0549 49.303 15.0889 49.2653 16.123C49.2121 17.5356 49.0352 18.941 48.7367 20.323C48.5932 20.9885 48.1175 21.515 48.0798 22.2407C48.0269 23.3725 47.9703 24.4554 48.9141 25.3089Z" fill="#093243"/>
<path d="M91.697 30.4309C91.3534 30.2016 90.6474 30.3332 90.4888 30.6791C90.3894 30.9166 90.3568 31.1766 90.3945 31.4311C90.4964 32.1418 90.655 32.8449 90.772 33.5518C90.8475 33.988 90.8966 34.4317 90.9532 34.8716C90.5191 34.3452 90.2284 33.7737 89.8206 33.2961C89.2014 32.5667 88.5257 31.8899 87.8423 31.2168C87.5363 30.927 87.1966 30.6745 86.8305 30.4648C86.7095 30.407 86.5762 30.3794 86.4421 30.3844C86.308 30.3894 86.1771 30.4268 86.0608 30.4934C85.9445 30.5601 85.8462 30.6539 85.7744 30.7668C85.7026 30.8797 85.6595 31.0084 85.6488 31.1416C85.5016 31.9688 86.0981 32.405 86.5398 32.8713C86.9815 33.3375 87.2269 33.8714 87.7781 34.2399C88.3293 34.6084 88.7182 35.2476 89.1788 35.7665C89.3288 35.9285 89.5256 36.0401 89.742 36.0859C89.9584 36.1317 90.1837 36.1094 90.3869 36.0222C90.621 35.9433 90.7342 35.5259 90.8702 35.3153C91.1193 35.6425 91.4214 36.0673 91.7498 36.4434C91.8295 36.5594 91.9421 36.6489 92.0734 36.7005C92.2046 36.7521 92.3483 36.7634 92.486 36.7329C92.6428 36.7122 92.7891 36.643 92.9042 36.535C93.0194 36.4271 93.0976 36.2859 93.1279 36.1313C93.2052 35.7387 93.2205 35.3366 93.1732 34.9393C93.0863 34.0369 92.9693 33.1382 92.8334 32.2433C92.7831 31.8785 92.6558 31.5283 92.46 31.216C92.2641 30.9036 92.0041 30.6361 91.697 30.4309V30.4309Z" fill="#093243"/>
<path d="M115.954 35.8643C116.165 36.0147 116.294 36.3192 116.611 36.2215C116.928 36.1237 117.366 35.9959 117.46 35.5296C117.619 34.6573 117.838 33.7887 117.913 32.8975C118.042 31.7695 118.083 30.6076 118.163 29.4608C118.117 28.6148 117.808 27.9944 116.928 27.765C116.898 27.765 116.86 27.765 116.845 27.7349C116.803 27.6766 116.749 27.6279 116.687 27.5922C116.625 27.5564 116.555 27.5344 116.484 27.5276C116.412 27.5209 116.34 27.5295 116.272 27.5529C116.204 27.5764 116.142 27.614 116.09 27.6635C115.907 27.8577 115.802 28.1119 115.795 28.3779C115.769 28.8103 115.89 29.2615 115.841 29.6902C115.694 30.931 115.958 32.2358 115.305 33.4052C115.297 33.4348 115.297 33.4658 115.305 33.4954C115.278 34.3565 115.086 35.2326 115.954 35.8643Z" fill="#093243"/>
<path d="M109.113 28.9336C109.26 29.5991 109.453 30.2572 109.543 30.9302C109.687 32.0131 109.592 33.1487 110.212 34.1226C110.394 34.4717 110.652 34.7761 110.967 35.0137C111.036 35.0683 111.117 35.1064 111.203 35.1251C111.289 35.1438 111.378 35.1425 111.464 35.1215C111.55 35.1004 111.629 35.0601 111.697 35.0036C111.765 34.9471 111.818 34.876 111.854 34.7956C111.956 34.5625 112.043 34.3218 112.137 34.0774C112.05 33.7428 111.944 33.4533 111.899 33.1524C111.71 31.795 111.491 30.4414 111.382 29.0802C111.336 28.5921 111.115 28.1369 110.759 27.798C110.453 27.4672 109.524 27.234 109.222 27.4521C108.845 27.7266 108.988 28.1553 109.022 28.5388C109.045 28.672 109.075 28.8038 109.113 28.9336V28.9336Z" fill="#093243"/>
<path d="M95.1705 37.2775C95.397 37.4467 95.5745 37.4843 95.6991 37.1797C95.9506 36.6575 96.1688 36.12 96.3522 35.5704C96.6203 34.5702 96.809 33.5474 97.028 32.5322C97.0469 32.4455 97.0469 32.3557 97.028 32.269C96.809 31.4493 96.5146 30.6597 95.6462 30.3213C95.3582 30.2291 95.0455 30.2521 94.7741 30.3852C94.608 30.4717 94.5212 30.8251 94.5098 31.0658C94.4834 31.6975 94.5589 32.3367 94.5098 32.9684C94.4532 33.7655 94.3173 34.5551 94.2154 35.3485C94.1096 36.2096 94.5174 36.7962 95.1705 37.2775Z" fill="#093243"/>
<path d="M104.888 33.2502C105.224 33.5811 105.764 33.7879 106.093 33.5849C106.523 33.3179 106.323 32.9457 106.259 32.5809C106.097 31.9074 105.78 31.2805 105.334 30.7498C105.144 30.502 105.008 30.2178 104.934 29.915C104.884 29.5241 104.711 29.159 104.44 28.8724C104.168 28.5858 103.812 28.3926 103.423 28.3207C102.77 28.2267 102.593 28.3207 102.582 29.257C102.695 29.4826 102.906 29.9 103.11 30.3173C103.62 31.3476 104.05 32.4155 104.888 33.2502Z" fill="#093243"/>
<path d="M115.282 69.0127C114.999 69.0127 114.806 69.2233 114.795 69.5466C114.795 69.7835 114.754 70.0166 114.731 70.2761C114.761 70.4603 114.731 70.7123 114.837 70.8551C115.033 71.0992 115.277 71.3013 115.554 71.4492C115.645 71.5019 115.909 71.3628 116.015 71.2387C116.358 70.8627 116.392 69.7158 116.052 69.3398C115.842 69.1448 115.569 69.0291 115.282 69.0127V69.0127Z" fill="#093243"/>
<path d="M100.041 75.8642C99.6404 75.8153 99.4932 75.9695 99.5498 76.3681C99.5727 76.4821 99.5649 76.6002 99.5271 76.7102C99.2629 77.3532 99.4592 77.9511 99.7235 78.5264C99.7612 78.6091 100.101 78.6429 100.124 78.6241C100.29 78.1767 100.701 77.7932 100.543 77.2479C100.467 76.9847 100.52 76.808 100.871 76.8381C100.758 76.3154 100.584 75.9281 100.041 75.8642Z" fill="#093243"/>
<path d="M42.7414 77.9655C42.7037 77.7361 42.6659 77.439 42.5111 77.315C42.4115 77.2375 42.2955 77.1836 42.1718 77.1576C42.0482 77.1315 41.9202 77.1339 41.7976 77.1646C41.6277 77.236 41.5258 77.5706 41.4918 77.8038C41.4673 78.1518 41.4673 78.5011 41.4918 78.8491C41.5107 79.0258 41.522 79.1912 41.5446 79.3492C41.548 79.4212 41.5696 79.4911 41.6075 79.5525C41.6455 79.6138 41.6985 79.6646 41.7615 79.6999C41.8246 79.7353 41.8956 79.754 41.968 79.7545C42.0403 79.755 42.1116 79.7371 42.1751 79.7026C42.4827 79.3979 42.6827 79.0021 42.7452 78.5746C42.7037 78.3678 42.7641 78.161 42.7414 77.9655Z" fill="#093243"/>
<path d="M58.2205 69.6146C57.843 69.4905 57.5976 69.6898 57.4126 69.9906C57.2848 70.1556 57.1723 70.3318 57.0765 70.517C57.0048 70.7163 56.9218 71.0058 57.0124 71.1412C57.2336 71.4205 57.487 71.6729 57.7675 71.8932C57.8428 71.7955 57.911 71.6925 57.9713 71.5849C58.0191 71.4723 58.0595 71.3568 58.0921 71.239L58.4697 71.4195C58.596 71.1052 58.6897 70.7789 58.7491 70.4456C58.7691 70.2678 58.7276 70.0886 58.6315 69.9375C58.5354 69.7865 58.3904 69.6725 58.2205 69.6146V69.6146Z" fill="#093243"/>
<path d="M73.7979 77.075C73.6317 76.6351 73.1976 76.4471 72.9408 76.699C72.7865 76.8199 72.6586 76.9709 72.565 77.1429C72.4715 77.3148 72.4143 77.504 72.397 77.6989C72.3796 77.8937 72.4025 78.0899 72.4643 78.2756C72.526 78.4612 72.6252 78.6323 72.7558 78.7784C73.0012 79.1092 73.2806 79.1356 73.5109 78.7784C73.6956 78.448 73.8534 78.1035 73.9828 77.7481L73.9111 77.703C73.8919 77.4908 73.854 77.2806 73.7979 77.075V77.075Z" fill="#093243"/>
<path d="M28.2588 69.9121C28.0399 70.0362 27.7529 70.1114 27.6132 70.2881C27.5482 70.41 27.5081 70.5434 27.4951 70.6808C27.4821 70.8182 27.4966 70.9568 27.5376 71.0885C27.5787 71.2203 27.6456 71.3427 27.7344 71.4486C27.8231 71.5545 27.9321 71.6419 28.055 71.7057C28.1411 71.7271 28.2311 71.728 28.3176 71.7084C28.4042 71.6889 28.4849 71.6493 28.5533 71.5929C28.6741 71.4899 28.7678 71.3592 28.8264 71.212C28.885 71.0648 28.9067 70.9057 28.8896 70.7482C28.8725 70.5908 28.8171 70.44 28.7283 70.3087C28.6394 70.1774 28.5197 70.0697 28.3797 69.9948L28.2588 69.9121Z" fill="#093243"/>
<path d="M13.2252 80.109C13.2204 80.0268 13.1993 79.9463 13.1629 79.8723C13.1266 79.7984 13.0759 79.7323 13.0137 79.6781C12.9515 79.6238 12.8791 79.5825 12.8007 79.5564C12.7222 79.5303 12.6394 79.52 12.5569 79.5261C12.4722 79.5231 12.3879 79.54 12.3109 79.5754C12.2339 79.6109 12.1664 79.6639 12.1138 79.7301C12.0612 79.7964 12.0251 79.8741 12.0083 79.9569C11.9915 80.0397 11.9945 80.1253 12.0171 80.2067V80.3834C12.0171 80.8647 12.4928 81.4137 12.8741 81.3987C13.161 81.3987 13.3724 80.8384 13.2818 80.327C13.2705 80.2518 13.2403 80.1842 13.2252 80.109Z" fill="#093243"/>
<path d="M82.4246 69.4043C82.5114 69.9721 82.8965 70.6339 83.2212 70.5925C83.2514 70.5925 83.2929 70.5925 83.3042 70.5624C83.5265 70.304 83.7016 70.0087 83.8215 69.6901C83.8819 69.3517 83.3307 68.8516 83.0362 68.8516C82.6775 68.8516 82.383 69.096 82.4246 69.4043Z" fill="#093243"/>
<path d="M132.449 72.1602L131.724 72.6527C131.915 73.0399 132.126 73.4165 132.358 73.7808C132.543 74.0477 132.781 73.98 132.909 73.6642C133.009 73.3979 133.018 73.1063 132.935 72.8345C132.852 72.5626 132.681 72.3256 132.449 72.1602V72.1602Z" fill="#093243"/>
</g>
<defs>
<clipPath id="clip0">
<rect width="133" height="81.3989" fill="white"/>
</clipPath>
</defs>
</svg>
