<svg width="280" height="204" viewBox="0 0 280 204" fill="none" xmlns="http://www.w3.org/2000/svg">
<g clip-path="url(#clip0)">
<path d="M162.023 146.07C155.404 150.314 149.638 154.307 144.022 158.025C136.301 163.124 127.866 167.075 118.986 169.752C101.643 174.623 88.1625 169.169 76.0201 157.35C66.3454 147.562 63.5204 135.07 62.1255 121.928C61.4568 116.612 61.6414 111.045 61.1457 104.76C58.085 106.768 54.9211 108.619 51.6667 110.304C47.0927 112.863 42.3094 115.038 37.3674 116.806C18.9974 122.897 4.80245 113.519 1.93163 93.9204C0.856844 84.929 2.48134 75.8236 6.60259 67.7394C12.3624 55.8772 20.101 45.0597 29.4936 35.7409C33.9615 31.4602 38.9056 27.6944 44.2313 24.5158C45.8111 23.5918 48.3248 24.231 50.5619 24.7216C51.8189 25.0411 52.753 26.6038 54.2636 27.7674C57.0817 25.9931 59.7401 23.9816 62.209 21.7556C71.227 13.1315 82.3895 7.78168 92.8719 1.71296C94.5697 0.550431 96.6284 0.0191642 98.6838 0.213373C100.739 0.407582 102.659 1.31467 104.104 2.77411C108.678 6.93469 112.909 11.4517 116.753 16.2815C122.3 23.1492 127.143 29.9941 132.413 36.7135C134.148 36.8943 135.898 36.552 137.433 35.7316C138.968 34.9113 140.217 33.6509 141.015 32.1161C151.971 16.0313 169.591 11.3091 186.762 7.40807C201.522 3.9861 212.5 12.7017 219.845 24.7829C223.455 30.6124 224.907 37.7653 227.087 44.245C228.14 47.1583 228.889 50.1707 229.323 53.2347C230.903 52.3107 232.033 52.2081 232.483 51.3867C240.694 41.6218 251.764 39.0553 264.045 38.2C268.94 37.671 273.885 38.5733 278.267 40.7957C282.649 43.018 286.276 46.4628 288.7 50.7035C293.923 58.8147 298.57 67.3252 297.244 77.5923C295.917 87.8594 288.894 91.5326 278.908 86.8893C278.957 85.1731 279.498 83.506 280.468 82.0822C281.438 80.6583 282.796 79.536 284.386 78.8466C285.84 78.1215 286.98 76.9023 287.599 75.4125C288.217 73.9227 288.272 72.2625 287.753 70.7359C286.133 64.4822 282.816 58.7855 278.16 54.2624C276.584 52.6351 274.466 51.6265 272.198 51.422C259.109 51.1365 243.992 52.596 235.02 68.3272C233.371 71.3389 231.318 73.7803 227.974 72.6964C225.207 71.6664 222.85 69.7823 221.251 67.3231C219.913 65.1898 220.582 62.0071 220.248 59.349C219.487 48.3176 217.446 37.6623 210.562 28.6613C208.182 25.3151 204.84 22.7544 200.97 21.3119C197.1 19.8694 192.88 19.6118 188.86 20.5726C177.229 22.5801 166.227 27.2309 156.721 34.1587C150.757 38.6611 145.739 44.2722 141.949 50.677C138.224 56.8258 134.707 56.7115 130.267 50.437C123.28 40.318 116.142 30.4729 108.854 20.9015C104.265 14.9008 100.367 13.5203 93.3212 17.8894C84.7578 23.0242 76.649 28.8666 69.0814 35.3541C62.1162 41.537 62.5198 42.1073 54.7938 37.2588C53.9405 37.5097 53.064 38.4567 52.2107 38.7076C38.1767 41.4566 31.1998 52.2368 23.8193 62.4467C18.8209 68.9585 15.133 76.3593 12.9559 84.247C12.6099 86.1864 11.8374 88.251 11.6413 89.9165C10.6147 99.636 16.7609 105.409 26.5051 104.61C37.1026 103.561 46.7661 100.949 54.4809 93.397C56.5105 91.6517 58.8169 90.0546 60.8465 88.3092C63.7525 85.617 66.4856 83.8945 70.2102 86.2447C72.5511 87.8532 75.4798 92.9643 74.1075 96.1242C69.6906 106.152 71.6046 116.385 72.9419 127.017C73.5261 133.591 75.9595 139.871 79.9661 145.148C83.9727 150.424 89.3926 154.486 95.6121 156.872C97.3805 157.778 99.3524 158.226 101.343 158.173C114.207 158.712 126.895 155.062 137.46 147.781C144.956 142.59 152.325 136.978 159.694 131.365C163.73 128.571 167.097 128.959 169.772 133.225C171.299 135.101 172.294 137.346 172.655 139.728C172.781 157.148 182.387 169.023 194.575 179.45C199.065 183.092 204.035 186.112 209.347 188.429C214.755 190.973 220.002 189.89 225.849 187.711C238.268 182.68 247.436 173.782 257.561 165.752C259.63 164.282 261.372 162.409 262.68 160.246C263.987 158.084 264.831 155.678 265.161 153.18C265.53 150.545 265.899 147.91 269.012 147.453C270.514 147.163 272.072 147.459 273.358 148.28C274.643 149.101 275.558 150.383 275.908 151.857C276.393 154.241 277.58 156.649 277.788 158.885C277.995 161.12 276.473 164.554 279.367 166.459C282.262 168.364 285.71 170.566 289.826 169.585C292.576 169.312 295.264 168.599 297.783 167.475C322.242 156.148 333.002 124.731 322.336 102.371C321.097 99.0823 319.02 96.1665 316.307 93.9058C313.593 91.6451 310.335 90.1165 306.849 89.4683C303.908 88.9548 300.668 88.9888 299.826 84.6424C303.182 81.1288 308.256 81.0148 312.396 79.338C313.391 79.2656 314.38 79.5447 315.187 80.1253C318.761 82.7492 323.189 85.1223 325.184 88.6702C330.131 96.633 334.501 104.995 334.455 114.886C334.547 120.601 334.789 126.043 334.881 131.758C335.261 141.523 330.487 149.588 325.586 157.231C319.186 167.612 311.148 176.408 299.455 180.765C295.469 182.613 291.063 183.395 286.676 183.032C282.289 182.67 278.076 181.176 274.454 178.7C272.07 176.496 269.932 174.044 268.078 171.387C257.676 179.27 247.551 187.3 237.15 195.183C232.413 199.136 226.548 201.53 220.371 202.028C214.195 202.527 208.015 201.107 202.693 197.966C186.021 189.58 173.277 175.136 167.131 157.661C165.816 154.831 163.971 151.01 162.023 146.07Z" fill="#F66526"/>
<path d="M83.3908 66.7488C80.381 68.323 77.9479 69.4981 75.088 70.7985C73.5853 69.4994 72.2177 68.0548 71.0059 66.4862C70.153 65.4737 69.5589 64.2731 69.2734 62.9857C68.9879 61.6984 69.0193 60.3623 69.3653 59.0895C69.7112 57.8168 70.3615 56.645 71.2612 55.6729C72.1609 54.7009 73.2836 53.9571 74.5348 53.5043C80.5313 51.0517 86.251 48.4509 93.5389 49.5234C100.262 50.1664 106.853 51.7885 113.096 54.3378C119.569 56.9128 125.583 60.4947 130.912 64.9477C135.549 68.7346 138.876 73.8596 140.426 79.6071C140.985 81.0044 141.124 82.5324 140.825 84.0062C140.526 85.4799 139.803 86.8365 138.742 87.9122C136.987 87.9861 135.274 87.376 133.969 86.2133C132.665 85.0507 131.873 83.4282 131.765 81.6945C131.304 78.6144 130.693 75.8081 126.219 74.8269L119.922 86.3257C112.035 86.3484 113.522 79.7092 111.147 74.895C109.775 78.055 108.979 80.8155 107.78 83.0058C105.681 86.8388 102.671 88.4131 99.9034 86.93C98.5033 86.1064 97.4398 84.8228 96.8983 83.303C96.3567 81.7832 96.3715 80.1236 96.94 78.6135C98.5084 73.788 100.504 68.837 102.349 64.1598C100.435 62.4258 98.3473 61.6614 97.1249 64.5476C95.9025 67.4337 95.3605 71.0385 94.2649 74.3468C93.8188 76.7342 92.9312 79.0199 91.6469 81.0889C90.9887 81.9028 90.163 82.5688 89.2246 83.0428C88.2862 83.5168 87.2565 83.7879 86.2041 83.838C85.5104 83.7848 84.8365 83.5837 84.229 83.2482C83.6215 82.9127 83.0948 82.4508 82.685 81.8947C82.2751 81.3385 81.9918 80.7011 81.8549 80.0263C81.7179 79.3515 81.7304 78.6552 81.8914 77.9856C82.3873 75.7725 83.16 73.7078 83.6559 71.4947C83.4518 69.9212 83.3632 68.335 83.3908 66.7488V66.7488Z" fill="#F66526"/>
<path d="M157.457 88.3786C161.285 83.3478 165.541 78.1916 169.092 73.0125C172.195 68.6548 175.447 64.0233 174.801 58.0113C174.155 51.9993 172.795 50.5618 166.787 49.1128C163.818 48.6829 160.974 47.6413 158.438 46.0553C157.675 45.5954 157.066 44.9227 156.688 44.1213C156.31 43.32 156.18 42.4257 156.314 41.5515C156.449 40.6773 156.841 39.8621 157.443 39.2081C158.044 38.554 158.828 38.0905 159.695 37.8759C162.778 36.6182 166.184 36.3614 169.423 37.1427C172.663 37.9239 175.567 39.7028 177.719 42.2228C188.731 54.1443 189.504 60.5786 183.461 72.9218C179.99 79.9147 174.985 86.4398 170.96 93.1362C170.66 93.6837 170.233 93.8093 169.934 94.3568C162.207 106.506 163.914 106.004 176.633 108.925C179.85 109.587 183.114 108.857 184.959 112.678C185.546 113.551 185.91 114.552 186.02 115.595C186.13 116.637 185.983 117.691 185.59 118.665C185.198 119.639 184.572 120.504 183.767 121.186C182.962 121.868 182.002 122.346 180.969 122.58C178.591 123.3 176.067 123.41 173.634 122.9C168.36 121.363 163.28 119.235 158.494 116.556C152.555 113.02 150.191 103.608 152.936 97.2882C154.308 94.1283 156.234 91.2648 157.883 88.2532C157.844 88.3258 157.776 88.3797 157.696 88.4032C157.616 88.4268 157.53 88.4179 157.457 88.3786Z" fill="#F66526"/>
<path d="M284.893 131.528C283.59 132.6 281.215 136.285 277.64 133.661C276.207 132.414 275.19 130.766 274.722 128.935C274.255 127.104 274.36 125.176 275.023 123.405C275.668 120.918 277.444 118.329 273.57 116.253C271.551 121.9 269.96 127.421 268.092 132.794C260.977 130.752 260.02 129.885 259.904 124.865C259.766 120.542 260.182 116.515 260.343 111.643C257.904 111 255.428 110.501 252.928 110.149C252.697 117.108 254.45 123.713 250.045 129.143C240.347 128.549 243.461 119.594 239.252 114.86C237.595 115.344 235.882 115.616 234.155 115.67C232.29 115.468 230.558 114.621 229.263 113.279C227.967 111.937 227.193 110.186 227.075 108.334C227.312 105.952 228.344 103.717 230.008 101.979C231.672 100.242 233.874 99.1024 236.266 98.7404C241.163 97.9593 246.126 97.6538 251.084 97.8282C258.607 98.1379 265.988 99.9548 272.781 103.169C279.573 106.383 285.636 110.927 290.602 116.527C292.418 118.848 293.765 121.493 294.568 124.319C295.606 126.999 296.344 130.228 293.334 131.802C291.904 132.452 289.114 131.665 284.893 131.528Z" fill="#F66526"/>
</g>
<defs>
<clipPath id="clip0">
<rect width="280" height="204" fill="white"/>
</clipPath>
</defs>
</svg>
