<svg width="1440" height="152" viewBox="0 0 1440 152" fill="none" xmlns="http://www.w3.org/2000/svg">
<path d="M0.5 58.5L0 60V152H1440V135.5L1439 134.5L1437.5 134L1436.5 134.5H1435L1434.5 134H1432L1431 133L1428 132.5L1426.5 132L1424.5 131.5L1423.5 132H1421.5L1420 131.5L1418.5 132L1416.5 131L1415.5 130.5L1414 131L1412 130L1411 129.5L1409.5 128V127.5L1407.5 127H1407L1405 126L1404.5 125H1403.5L1403 124.5L1401.5 124V123.5H1400.5L1400 123L1397.5 122.5L1396 122L1394 122.5L1393.5 123H1389L1386.5 123.5L1385 122H1381.5L1381 121.5H1377.5L1375 122L1372 122.5L1370 121.5H1367.5L1366 120.5L1365.5 121H1363.5L1362 121.5L1360.5 122.5L1359 121.5L1357.5 122.5L1354 123.5L1353 122L1350 121.5L1349 120.5H1347V121H1344L1342.5 120.5H1341V119.5H1339.5L1339 119H1329L1328 119.5H1325L1322.5 121L1321.5 122H1319L1318 123.5H1316L1313.5 124.5L1311.5 125.5L1310 124.5L1309 125L1306 125.5L1304.5 124.5H1301.5L1300.5 123.5L1299 123L1297 121.5L1296 122.5L1295 123L1294.5 124L1293 124.5L1292.5 125L1291.5 126V126.5H1286.5L1285.5 126L1283.5 126.5L1281 127L1280 126H1278L1277 125H1274.5L1274 124L1269.5 124.5L1268.5 125H1266.5V126H1262L1261 126.5H1258L1257 126H1254.5V125.5L1254 124.5H1253L1252 123.5V124L1251 124.5L1250 123.5H1247.5L1247 123H1244.5L1243.5 123.5L1241.5 124.5L1240 124L1239 125H1237L1236.5 125.5L1232 126L1231 125H1229L1228.5 126H1226L1225.5 125.5L1224.5 125V124L1222.5 124.5V123.5H1221H1220.5L1219.5 123H1218.5L1218 122H1203.5V122.5H1201.5V123.5H1200V124H1199.5L1198 125.5L1195.5 126.5H1193.5L1191 127L1189.5 127.5H1186.5L1185.39 128H1184L1181.5 129V129.5L1180 130.5V131L1177.5 131.5V132H1175.5V133L1175 134L1174 134.5V135H1173L1172.5 135.5H1170.5L1169.5 135H1166.5L1166 135.5H1165L1164.5 135H1162.5H1161L1159 135.5L1158.5 134.5L1156 134V135H1154L1153 134.5H1152L1151 133.5H1150L1149 134H1142L1142.5 134.5L1141.5 135L1140.5 135.5H1140V136.5H1139L1138.5 137.5L1137.5 138L1136.5 138.5L1135 139H1132L1131 140H1124.5L1120 140.5L1119 141H1111.5V140.5H1110.5L1109.5 140L1108.5 139.5L1107 138.5V138H1105.5L1104.5 137.5H1103L1102.5 136.5H1100V136H1098.5L1098 136.5H1093L1092.5 136H1091L1090.5 136.5H1086L1085 135.5H1080.5L1080 135H1076.5L1076 134.5L1074 134L1073.5 133.5L1072 133V132H1071L1070.5 131L1069.5 130.5H1069L1068 129.5V129H1066.5L1066 128H1065V127L1064 126H1059L1058 125H1055.5L1054.5 124.5L1054 125H1053L1052.5 124.5H1050.5L1050 125H1049V124.5H1048V124L1047 123H1045.5L1044.5 122H1043L1042.5 121.5H1041.5L1041 120.5H1039.5L1038.5 120V119L1037.5 118V117.5L1036.5 117V116L1035 115L1034.5 114.5H1032.5L1032 114L1031.5 113.5L1030.5 113L1030 112H1026L1025.5 111.5H1023.5L1023 111L1021.5 110.5L1020 109.5L1016 109L1015.5 108.5L1012 108L1011 107.5H1008L1007.5 107H1006V106.5L1005 105.5H1004V105L1003 104H1002L1001 103V102.5L1000.5 100.5L1000 100V99.5L999.5 99H996.5V98.5L995 97.5L995.5 96.5L994 96L994.5 95.5L994 94.5H993L993.5 93.5L992.5 92.5H992L991 92H990L989.5 91.5V90L988 90.5L986.5 90L985.5 91L984.5 90.5L983.5 91L982.5 90H980.5L980 89.5L979 89V88L977.5 88.5V89L976 89.5L974.5 89L974 88.5H972.5L972 88H971L970.5 87L969.5 87.5L968.5 87H967L966.5 86.5H964L959 86L958.5 85.5L958 85H957.5L956 84.5V84L955.5 83L955 82L953.5 82.5L953 82H952.5L951.5 81.5H950.5L949.5 81H948L946.5 80.5L946 79.5L944.5 78.5V78H943.5H941.5L938.5 77.5V77L936.5 76.5V76L935 75.5L934.5 75H933.5L932 74L928 74.5L927 73.5H925L923.5 72.5L922.5 72L922 71L921 70L920 70.5L919 68.5L918 68L917.5 66.5L915.5 65.5L915 65L913.5 64.5L912.5 63.5H911L910 62.5L908.5 62L908 61.5L907 61L906.5 60.5H904.5L903.5 59.5H902.5L902 60H900.5V59L900 58L899 57.5L898.5 56.5L897.5 55.5L896 56.5H895.5L895 57H894L893 56H892L890.5 55L887.5 55.5L886.5 54L887 52.5V52H885.5L884.5 51H883.5L883 49.5H882L881.5 48.5L880 48H879L878 47H877L876.5 46L875.5 45L874.5 45.5L873.5 44.5H870L867.5 44L865 44.5L862 44H860.5L860 43L859.5 41.5L858.5 41L858 39.5H857L856 38.5L854.5 38L852.5 38.5L852 37.5H851H849.5L848.5 37L847.5 36.5H846L845.5 36H844L843 35.5L842.5 35H841.5L841 34.5H840L839.5 33.5L838.5 33H837L836 32L835.5 32.5L833.5 30.5L831 29.5L830 29H829L828.5 28.5L827.5 28L827 27.5H826L825.5 26.5H823.5L823 26L822.5 26.5L821 25H818.5L818 24.5H817.5L817 24H816.5L815.5 23.5H814.5L813.5 23L812.5 23.5H811.5L810.5 23V22.5L809.5 22L809 21.5L808 21H807L805.5 20.5H804.5H804L803.5 20H801.5L800 19.5H799L798.5 19H797L796.5 18.5L796 18L795.5 18.5L794.5 18L792 17.5V17L791.5 16.5L791 16H790V15.5H788L787 15H785.5V14.5L784.5 14V13L784 12.5L783.5 11.5H782V10.5L781 11L779.5 10.5L778.5 10H777.5L776.5 9.5H775H774L774.5 10H772.5L772 11H771V10.5H767V10L766 9.5L765 9L764 8.5L763 9L762.5 8.5H761.5L760.5 9L760 8.5L758.5 8L757.5 7.5L756 6.5L754.5 7.5H753L751.5 8V9.5H750.5L747.5 10.5L744.5 10H743L742 11L741 10.5L739 9.5L735.5 10L734 9.5L732.5 9H729.5L729 8L728 7.5H727V7H726.5L723 6.5H721.5L717 6H715.5V7L714 7.5V6.5L713 6L712 5.5V5H711L710 4L706.5 2V1L705 1.5L702.5 0.5H701L699.5 0L699 0.5H698H697.5L696.5 1H693H690.5L689.5 1.5L688 2.5H686L684.5 4L683.5 4.5L682 4L680.5 4.5V5L679.5 5.5H671.5L669.5 7.5H661V8L660.5 8.5L660 9H659.5L658.5 9.5L658 10H656.5V10.5H654V11L653 11.5H648V11H647L646.5 10.5L646 11L645.5 11.5H639.5L638.5 10.5L638 11.5H637V13H636.5V13.5L635.5 14H633.5L632.5 13.5L631.5 13H630L629.5 13.5L627.5 14H623.5L622.5 13.5L619 13L618 14V15.5H617L616.5 14.5H615.5L615 15L614.5 16H613L612.5 17.5L612 18L610.5 18.5H608.5H607.5V19H607L606.5 19.5L606 20V19H604.5V18.5H603.5V18L603 17.5L602.5 17H601.5L601 16H599.5L599 15.5H598L597 14.5L596.5 15.5L595 15L594.5 16H594V16.5L593 17H589.5L589 16.5L588 17.5H584V18L583.5 18.5L583 19H581.5V20H580H579V20.5H578.5V21.5H575.5V21L574.5 20.5L574 21H573.5H573V22.5V23H571.5V23.5L567 24L566.5 24.5H565.5L565 25L564 24.5H563L563.5 26L561 27L560 28L558 29L554 29.5L549.5 30L547.5 29L546 28L545 27.5H543V26.5L542 26L540.5 27L539.5 27.5H538.5L536 26.5H531V25.5L529.5 25L528.5 24.5H525.5L524 25.5L522.5 26H522L521 25L520.5 26H517L516.5 25.5H515.5L515 24.5H513.5H512H511L510.5 25L510 25.5L509.5 25L507.5 25.5L507 26H506H504.5L503.5 26.5L503 27L502 27.5H499.5L499 28.5H498.5V29H497V29.5L496 30L495.5 30.5H493L491.5 31L490.5 32L489 32.5L487.5 33L486.5 34.5L483 34L482 34.5L480.5 34L479.5 35L478 35.5L476 35L475.5 34.5L474 34L473 35L471 34.5L469.5 35L469 34L467.5 33.5L467 33H465L464.5 32L462 32.5L459.5 31L459 31.5H456.5L456 32.5L455 33L454 33.5H452.5L451 34H450V36.5L449 36L446.5 37.5H444.5L443.5 38.5V39L441.5 39.5L440.5 40H436.5L434.5 42L433.5 41L431.5 42.5L430.5 43V44.5L428 45.5L426.5 46L425.5 47H423L421 47.5L418.5 48.5L418 49L416 50L415.5 49H414L413.5 47H412.5H411L409.5 48H408.5L407 49H404.5H403L400.5 50H398.5L397.5 51H396.5L395.5 52L394.5 52.5L392 53L391 53.5H389L388 54V55H387H385H383L382 54L379.5 54.5L379 53.5H378L377.5 53H375.5L375 52H373L372.5 51.5L371 50.5L369 48.5L367 47.5L363.5 47L362 46.5H360L357.5 45.5L356 45L354 44.5L351 45L349 44H347L345 42.5L339 43L337 42L335.5 42.5H331L329 41.5L327.5 42L325 40.5L322.5 39L318.5 39.5L316.5 41L315 42L313 44.5L308 45L306.5 44L304.5 45H302L300.5 43.5L299.5 44H295.5L292.5 43.5L291.5 43L290.5 43.5H285H282L279.5 42.5H276.5L272 41.5L270.5 40.5L268.5 40L266.5 39L265 40L263 39.5L259 40L257.5 38.5L254.5 37.5L251.5 38L249 36.5L247 35L243.5 35.5L241.5 37.5L238 38.5L236 39L233 40.5L230.5 41.5H227.5L226 42.5L221 42L218.5 42.5L216 43L212.5 43.5L211 44.5H206L203 45L200 43.5L194.5 44L187 43L185.5 44.5L183.5 45.5L181 45L178.5 43.5H172L171 45L169 46.5L165.5 47L160 47.5L152.5 47L147.5 46L145 45.5L143 46.5L141 47.5L138.5 47L135.5 48H133.5L131.5 47.5L127.5 46.5L126 47.5L123.5 48L121 46.5H119.5L118 45.5L115 44.5L114 43L110 43.5L108.5 44H106.5L104.5 45L101.5 46L98 45.5H95.5L93 44L89 43L87.5 44.5H84L82.5 46L79 48L77 49.5L74 50L71.5 49L70 48.5L67.5 50.5L64 51.5H63L60.5 52.5L55 53.5L49.5 52.5L48 51L47.5 52H43.5L42.5 53L41 54L40.5 55.5L39 56.5L38 54H34L31.5 53.5L28 54L25 52L24 51H23L21.5 49.5L20 49L19 49.5H18L17 50L15 50.5L13.5 51L12 52V53L10 53.5L9.5 54V54.5H8L7 55.5H5L4.5 56V56.5L3.5 57L2.5 57.5L1.5 58L0.5 58.5Z" fill="#F1EFEC"/>
</svg>
