<svg width="1440" height="152" viewBox="0 0 1440 152" fill="none" xmlns="http://www.w3.org/2000/svg">
<path d="M1439.5 93.5L1440 92L1440 0L-1.32883e-05 0.000125889L-1.18458e-05 16.5001L0.999988 17.5001L2.49999 18.0001L3.49999 17.5001L4.99999 17.5001L5.49999 18.0001L7.99999 18.0001L8.99999 19.0001L12 19.5001L13.5 20.0001L15.5 20.5001L16.5 20.0001L18.5 20.0001L20 20.5001L21.5 20.0001L23.5 21.0001L24.5 21.5001L26 21.0001L28 22.0001L29 22.5001L30.5 24.0001L30.5 24.5001L32.5 25.0001L33 25.0001L35 26.0001L35.5 27.0001L36.5 27.0001L37 27.5001L38.5 28.0001L38.5 28.5001L39.5 28.5001L40 29.0001L42.5 29.5001L44 30.0001L46 29.5001L46.5 29.0001L51 29.0001L53.5 28.5001L55 30.0001L58.5 30.0001L59 30.5001L62.5 30.5001L65 30.0001L68 29.5001L70 30.5001L72.5 30.5001L74 31.5001L74.5 31.0001L76.5 31.0001L78 30.5001L79.5 29.5001L81 30.5001L82.5 29.5001L86 28.5001L87 30.0001L90 30.5001L91 31.5001L93 31.5001L93 31.0001L96 31.0001L97.5 31.5001L99 31.5001L99 32.5001L100.5 32.5001L101 33.0001L111 33.0001L112 32.5001L115 32.5001L117.5 31.0001L118.5 30.0001L121 30.0001L122 28.5001L124 28.5001L126.5 27.5001L128.5 26.5001L130 27.5001L131 27.0001L134 26.5001L135.5 27.5001L138.5 27.5001L139.5 28.5001L141 29.0001L143 30.5001L144 29.5001L145 29.0001L145.5 28.0001L147 27.5001L147.5 27.0001L148.5 26.0001L148.5 25.5001L153.5 25.5001L154.5 26.0001L156.5 25.5001L159 25.0001L160 26.0001L162 26.0001L163 27.0001L165.5 27.0001L166 28.0001L170.5 27.5001L171.5 27.0001L173.5 27.0001L173.5 26.0001L178 26.0001L179 25.5001L182 25.5001L183 26.0001L185.5 26.0001L185.5 26.5001L186 27.5001L187 27.5001L188 28.5001L188 28.0001L189 27.5001L190 28.5001L192.5 28.5001L193 29.0001L195.5 29.0001L196.5 28.5001L198.5 27.5001L200 28.0001L201 27.0001L203 27.0001L203.5 26.5001L208 26.0001L209 27.0001L211 27.0001L211.5 26.0001L214 26.0001L214.5 26.5001L215.5 27.0001L215.5 28.0001L217.5 27.5001L217.5 28.5001L219 28.5001L219.5 28.5001L220.5 29.0001L221.5 29.0001L222 30.0001L236.5 30.0001L236.5 29.5001L238.5 29.5001L238.5 28.5001L240 28.5001L240 28.0001L240.5 28.0001L242 26.5001L244.5 25.5001L246.5 25.5001L249 25.0001L250.5 24.5001L253.5 24.5001L254.611 24.0001L256 24.0001L258.5 23.0001L258.5 22.5001L260 21.5001L260 21.0001L262.5 20.5001L262.5 20.0001L264.5 20.0001L264.5 19.0001L265 18.0001L266 17.5001L266 17.0001L267 17.0001L267.5 16.5001L269.5 16.5001L270.5 17.0001L273.5 17.0001L274 16.5001L275 16.5001L275.5 17.0001L277.5 17.0001L279 17.0001L281 16.5001L281.5 17.5001L284 18.0001L284 17.0001L286 17.0001L287 17.5001L288 17.5001L289 18.5001L290 18.5001L291 18.0001L298 18.0001L297.5 17.5001L298.5 17.0001L299.5 16.5001L300 16.5001L300 15.5001L301 15.5001L301.5 14.5001L302.5 14.0001L303.5 13.5001L305 13.0001L308 13.0001L309 12.0001L315.5 12.0001L320 11.5001L321 11.0001L328.5 11.0001L328.5 11.5001L329.5 11.5001L330.5 12.0001L331.5 12.5001L333 13.5001L333 14.0001L334.5 14.0001L335.5 14.5001L337 14.5001L337.5 15.5001L340 15.5001L340 16.0001L341.5 16.0001L342 15.5001L347 15.5001L347.5 16.0001L349 16.0001L349.5 15.5001L354 15.5001L355 16.5001L359.5 16.5001L360 17.0001L363.5 17.0001L364 17.5001L366 18.0001L366.5 18.5001L368 19.0001L368 20.0001L369 20.0001L369.5 21.0001L370.5 21.5001L371 21.5001L372 22.5001L372 23.0001L373.5 23.0001L374 24.0001L375 24.0001L375 25.0001L376 26.0001L381 26.0001L382 27.0001L384.5 27.0001L385.5 27.5001L386 27.0001L387 27.0001L387.5 27.5001L389.5 27.5001L390 27.0001L391 27.0001L391 27.5001L392 27.5001L392 28.0001L393 29.0001L394.5 29.0001L395.5 30.0001L397 30.0001L397.5 30.5001L398.5 30.5001L399 31.5001L400.5 31.5001L401.5 32.0001L401.5 33.0001L402.5 34.0001L402.5 34.5001L403.5 35.0001L403.5 36.0001L405 37.0001L405.5 37.5001L407.5 37.5001L408 38.0001L408.5 38.5001L409.5 39.0001L410 40.0001L414 40.0001L414.5 40.5001L416.5 40.5001L417 41.0001L418.5 41.5001L420 42.5001L424 43.0001L424.5 43.5001L428 44.0001L429 44.5001L432 44.5001L432.5 45.0001L434 45.0001L434 45.5001L435 46.5001L436 46.5001L436 47.0001L437 48.0001L438 48.0001L439 49.0001L439 49.5001L439.5 51.5001L440 52.0001L440 52.5001L440.5 53.0001L443.5 53.0001L443.5 53.5001L445 54.5001L444.5 55.5001L446 56.0001L445.5 56.5001L446 57.5001L447 57.5001L446.5 58.5001L447.5 59.5001L448 59.5001L449 60.0001L450 60.0001L450.5 60.5001L450.5 62.0001L452 61.5001L453.5 62.0001L454.5 61.0001L455.5 61.5001L456.5 61.0001L457.5 62.0001L459.5 62.0001L460 62.5001L461 63.0001L461 64.0001L462.5 63.5001L462.5 63.0001L464 62.5001L465.5 63.0001L466 63.5001L467.5 63.5001L468 64.0001L469 64.0001L469.5 65.0001L470.5 64.5001L471.5 65.0001L473 65.0001L473.5 65.5001L476 65.5001L481 66.0001L481.5 66.5001L482 67.0001L482.5 67.0001L484 67.5001L484 68.0001L484.5 69.0001L485 70.0001L486.5 69.5001L487 70.0001L487.5 70.0001L488.5 70.5001L489.5 70.5001L490.5 71.0001L492 71.0001L493.5 71.5001L494 72.5001L495.5 73.5001L495.5 74.0001L496.5 74.0001L498.5 74.0001L501.5 74.5001L501.5 75.0001L503.5 75.5001L503.5 76.0001L505 76.5001L505.5 77.0001L506.5 77.0001L508 78.0001L512 77.5001L513 78.5001L515 78.5001L516.5 79.5001L517.5 80.0001L518 81.0001L519 82.0001L520 81.5001L521 83.5001L522 84.0001L522.5 85.5001L524.5 86.5001L525 87.0001L526.5 87.5001L527.5 88.5001L529 88.5001L530 89.5001L531.5 90.0001L532 90.5001L533 91.0001L533.5 91.5001L535.5 91.5001L536.5 92.5001L537.5 92.5001L538 92.0001L539.5 92.0001L539.5 93.0001L540 94.0001L541 94.5001L541.5 95.5001L542.5 96.5001L544 95.5001L544.5 95.5001L545 95.0001L546 95.0001L547 96.0001L548 96.0001L549.5 97.0001L552.5 96.5001L553.5 98.0001L553 99.5001L553 100L554.5 100L555.5 101L556.5 101L557 102.5L558 102.5L558.5 103.5L560 104L561 104L562 105L563 105L563.5 106L564.5 107L565.5 106.5L566.5 107.5L570 107.5L572.5 108L575 107.5L578 108L579.5 108L580 109L580.5 110.5L581.5 111L582 112.5L583 112.5L584 113.5L585.5 114L587.5 113.5L588 114.5L589 114.5L590.5 114.5L591.5 115L592.5 115.5L594 115.5L594.5 116L596 116L597 116.5L597.5 117L598.5 117L599 117.5L600 117.5L600.5 118.5L601.5 119L603 119L604 120L604.5 119.5L606.5 121.5L609 122.5L610 123L611 123L611.5 123.5L612.5 124L613 124.5L614 124.5L614.5 125.5L616.5 125.5L617 126L617.5 125.5L619 127L621.5 127L622 127.5L622.5 127.5L623 128L623.5 128L624.5 128.5L625.5 128.5L626.5 129L627.5 128.5L628.5 128.5L629.5 129L629.5 129.5L630.5 130L631 130.5L632 131L633 131L634.5 131.5L635.5 131.5L636 131.5L636.5 132L638.5 132L640 132.5L641 132.5L641.5 133L643 133L643.5 133.5L644 134L644.5 133.5L645.5 134L648 134.5L648 135L648.5 135.5L649 136L650 136L650 136.5L652 136.5L653 137L654.5 137L654.5 137.5L655.5 138L655.5 139L656 139.5L656.5 140.5L658 140.5L658 141.5L659 141L660.5 141.5L661.5 142L662.5 142L663.5 142.5L665 142.5L666 142.5L665.5 142L667.5 142L668 141L669 141L669 141.5L673 141.5L673 142L674 142.5L675 143L676 143.5L677 143L677.5 143.5L678.5 143.5L679.5 143L680 143.5L681.5 144L682.5 144.5L684 145.5L685.5 144.5L687 144.5L688.5 144L688.5 142.5L689.5 142.5L692.5 141.5L695.5 142L697 142L698 141L699 141.5L701 142.5L704.5 142L706 142.5L707.5 143L710.5 143L711 144L712 144.5L713 144.5L713 145L713.5 145L717 145.5L718.5 145.5L723 146L724.5 146L724.5 145L726 144.5L726 145.5L727 146L728 146.5L728 147L729 147L730 148L733.5 150L733.5 151L735 150.5L737.5 151.5L739 151.5L740.5 152L741 151.5L742 151.5L742.5 151.5L743.5 151L747 151L749.5 151L750.5 150.5L752 149.5L754 149.5L755.5 148L756.5 147.5L758 148L759.5 147.5L759.5 147L760.5 146.5L768.5 146.5L770.5 144.5L779 144.5L779 144L779.5 143.5L780 143L780.5 143L781.5 142.5L782 142L783.5 142L783.5 141.5L786 141.5L786 141L787 140.5L792 140.5L792 141L793 141L793.5 141.5L794 141L794.5 140.5L800.5 140.5L801.5 141.5L802 140.5L803 140.5L803 139L803.5 139L803.5 138.5L804.5 138L806.5 138L807.5 138.5L808.5 139L810 139L810.5 138.5L812.5 138L816.5 138L817.5 138.5L821 139L822 138L822 136.5L823 136.5L823.5 137.5L824.5 137.5L825 137L825.5 136L827 136L827.5 134.5L828 134L829.5 133.5L831.5 133.5L832.5 133.5L832.5 133L833 133L833.5 132.5L834 132L834 133L835.5 133L835.5 133.5L836.5 133.5L836.5 134L837 134.5L837.5 135L838.5 135L839 136L840.5 136L841 136.5L842 136.5L843 137.5L843.5 136.5L845 137L845.5 136L846 136L846 135.5L847 135L850.5 135L851 135.5L852 134.5L856 134.5L856 134L856.5 133.5L857 133L858.5 133L858.5 132L860 132L861 132L861 131.5L861.5 131.5L861.5 130.5L864.5 130.5L864.5 131L865.5 131.5L866 131L866.5 131L867 131L867 129.5L867 129L868.5 129L868.5 128.5L873 128L873.5 127.5L874.5 127.5L875 127L876 127.5L877 127.5L876.5 126L879 125L880 124L882 123L886 122.5L890.5 122L892.5 123L894 124L895 124.5L897 124.5L897 125.5L898 126L899.5 125L900.5 124.5L901.5 124.5L904 125.5L909 125.5L909 126.5L910.5 127L911.5 127.5L914.5 127.5L916 126.5L917.5 126L918 126L919 127L919.5 126L923 126L923.5 126.5L924.5 126.5L925 127.5L926.5 127.5L928 127.5L929 127.5L929.5 127L930 126.5L930.5 127L932.5 126.5L933 126L934 126L935.5 126L936.5 125.5L937 125L938 124.5L940.5 124.5L941 123.5L941.5 123.5L941.5 123L943 123L943 122.5L944 122L944.5 121.5L947 121.5L948.5 121L949.5 120L951 119.5L952.5 119L953.5 117.5L957 118L958 117.5L959.5 118L960.5 117L962 116.5L964 117L964.5 117.5L966 118L967 117L969 117.5L970.5 117L971 118L972.5 118.5L973 119L975 119L975.5 120L978 119.5L980.5 121L981 120.5L983.5 120.5L984 119.5L985 119L986 118.5L987.5 118.5L989 118L990 118L990 115.5L991 116L993.5 114.5L995.5 114.5L996.5 113.5L996.5 113L998.5 112.5L999.5 112L1003.5 112L1005.5 110L1006.5 111L1008.5 109.5L1009.5 109L1009.5 107.5L1012 106.5L1013.5 106L1014.5 105L1017 105L1019 104.5L1021.5 103.5L1022 103L1024 102L1024.5 103L1026 103L1026.5 105L1027.5 105L1029 105L1030.5 104L1031.5 104L1033 103L1035.5 103L1037 103L1039.5 102L1041.5 102L1042.5 101L1043.5 101L1044.5 100L1045.5 99.5L1048 99L1049 98.5L1051 98.5L1052 98L1052 97L1053 97L1055 97L1057 97L1058 98L1060.5 97.5L1061 98.5L1062 98.5L1062.5 99L1064.5 99L1065 100L1067 100L1067.5 100.5L1069 101.5L1071 103.5L1073 104.5L1076.5 105L1078 105.5L1080 105.5L1082.5 106.5L1084 107L1086 107.5L1089 107L1091 108L1093 108L1095 109.5L1101 109L1103 110L1104.5 109.5L1109 109.5L1111 110.5L1112.5 110L1115 111.5L1117.5 113L1121.5 112.5L1123.5 111L1125 110L1127 107.5L1132 107L1133.5 108L1135.5 107L1138 107L1139.5 108.5L1140.5 108L1144.5 108L1147.5 108.5L1148.5 109L1149.5 108.5L1155 108.5L1158 108.5L1160.5 109.5L1163.5 109.5L1168 110.5L1169.5 111.5L1171.5 112L1173.5 113L1175 112L1177 112.5L1181 112L1182.5 113.5L1185.5 114.5L1188.5 114L1191 115.5L1193 117L1196.5 116.5L1198.5 114.5L1202 113.5L1204 113L1207 111.5L1209.5 110.5L1212.5 110.5L1214 109.5L1219 110L1221.5 109.5L1224 109L1227.5 108.5L1229 107.5L1234 107.5L1237 107L1240 108.5L1245.5 108L1253 109L1254.5 107.5L1256.5 106.5L1259 107L1261.5 108.5L1268 108.5L1269 107L1271 105.5L1274.5 105L1280 104.5L1287.5 105L1292.5 106L1295 106.5L1297 105.5L1299 104.5L1301.5 105L1304.5 104L1306.5 104L1308.5 104.5L1312.5 105.5L1314 104.5L1316.5 104L1319 105.5L1320.5 105.5L1322 106.5L1325 107.5L1326 109L1330 108.5L1331.5 108L1333.5 108L1335.5 107L1338.5 106L1342 106.5L1344.5 106.5L1347 108L1351 109L1352.5 107.5L1356 107.5L1357.5 106L1361 104L1363 102.5L1366 102L1368.5 103L1370 103.5L1372.5 101.5L1376 100.5L1377 100.5L1379.5 99.5L1385 98.5L1390.5 99.5L1392 101L1392.5 100L1396.5 100L1397.5 99L1399 98L1399.5 96.5L1401 95.5L1402 98L1406 98L1408.5 98.5L1412 98L1415 100L1416 101L1417 101L1418.5 102.5L1420 103L1421 102.5L1422 102.5L1423 102L1425 101.5L1426.5 101L1428 100L1428 99L1430 98.5L1430.5 98L1430.5 97.5L1432 97.5L1433 96.5L1435 96.5L1435.5 96L1435.5 95.5L1436.5 95L1437.5 94.5L1438.5 94L1439.5 93.5Z" fill="#F1EFEC"/>
</svg>
