<svg width="1440" height="76" viewBox="0 0 1440 76" fill="none" xmlns="http://www.w3.org/2000/svg">
<path d="M1439.5 46.75L1440 46V0H0V8.25L1 8.75L2.5 9L3.5 8.75H5L5.5 9H8L9 9.5L12 9.75L13.5 10L15.5 10.25L16.5 10H18.5L20 10.25L21.5 10L23.5 10.5L24.5 10.75L26 10.5L28 11L29 11.25L30.5 12V12.25L32.5 12.5H33L35 13L35.5 13.5H36.5L37 13.75L38.5 14V14.25H39.5L40 14.5L42.5 14.75L44 15L46 14.75L46.5 14.5H51L53.5 14.25L55 15H58.5L59 15.25H62.5L65 15L68 14.75L70 15.25H72.5L74 15.75L74.5 15.5H76.5L78 15.25L79.5 14.75L81 15.25L82.5 14.75L86 14.25L87 15L90 15.25L91 15.75H93V15.5H96L97.5 15.75H99V16.25H100.5L101 16.5H111L112 16.25H115L117.5 15.5L118.5 15H121L122 14.25H124L126.5 13.75L128.5 13.25L130 13.75L131 13.5L134 13.25L135.5 13.75H138.5L139.5 14.25L141 14.5L143 15.25L144 14.75L145 14.5L145.5 14L147 13.75L147.5 13.5L148.5 13V12.75H153.5L154.5 13L156.5 12.75L159 12.5L160 13H162L163 13.5H165.5L166 14L170.5 13.75L171.5 13.5H173.5V13H178L179 12.75H182L183 13H185.5V13.25L186 13.75H187L188 14.25V14L189 13.75L190 14.25H192.5L193 14.5H195.5L196.5 14.25L198.5 13.75L200 14L201 13.5H203L203.5 13.25L208 13L209 13.5H211L211.5 13H214L214.5 13.25L215.5 13.5V14L217.5 13.75V14.25H219H219.5L220.5 14.5H221.5L222 15H236.5V14.75H238.5V14.25H240V14H240.5L242 13.25L244.5 12.75H246.5L249 12.5L250.5 12.25H253.5L254.611 12H256L258.5 11.5V11.25L260 10.75V10.5L262.5 10.25V10H264.5V9.5L265 9L266 8.75V8.5H267L267.5 8.25H269.5L270.5 8.5H273.5L274 8.25H275L275.5 8.5H277.5H279L281 8.25L281.5 8.75L284 9V8.5H286L287 8.75H288L289 9.25H290L291 9H298L297.5 8.75L298.5 8.5L299.5 8.25H300V7.75H301L301.5 7.25L302.5 7L303.5 6.75L305 6.5H308L309 6H315.5L320 5.75L321 5.5H328.5V5.75H329.5L330.5 6L331.5 6.25L333 6.75V7H334.5L335.5 7.25H337L337.5 7.75H340V8H341.5L342 7.75H347L347.5 8H349L349.5 7.75H354L355 8.25H359.5L360 8.5H363.5L364 8.75L366 9L366.5 9.25L368 9.5V10H369L369.5 10.5L370.5 10.75H371L372 11.25V11.5H373.5L374 12H375V12.5L376 13H381L382 13.5H384.5L385.5 13.75L386 13.5H387L387.5 13.75H389.5L390 13.5H391V13.75H392V14L393 14.5H394.5L395.5 15H397L397.5 15.25H398.5L399 15.75H400.5L401.5 16V16.5L402.5 17V17.25L403.5 17.5V18L405 18.5L405.5 18.75H407.5L408 19L408.5 19.25L409.5 19.5L410 20H414L414.5 20.25H416.5L417 20.5L418.5 20.75L420 21.25L424 21.5L424.5 21.75L428 22L429 22.25H432L432.5 22.5H434V22.75L435 23.25H436V23.5L437 24H438L439 24.5V24.75L439.5 25.75L440 26V26.25L440.5 26.5H443.5V26.75L445 27.25L444.5 27.75L446 28L445.5 28.25L446 28.75H447L446.5 29.25L447.5 29.75H448L449 30H450L450.5 30.25V31L452 30.75L453.5 31L454.5 30.5L455.5 30.75L456.5 30.5L457.5 31H459.5L460 31.25L461 31.5V32L462.5 31.75V31.5L464 31.25L465.5 31.5L466 31.75H467.5L468 32H469L469.5 32.5L470.5 32.25L471.5 32.5H473L473.5 32.75H476L481 33L481.5 33.25L482 33.5H482.5L484 33.75V34L484.5 34.5L485 35L486.5 34.75L487 35H487.5L488.5 35.25H489.5L490.5 35.5H492L493.5 35.75L494 36.25L495.5 36.75V37H496.5H498.5L501.5 37.25V37.5L503.5 37.75V38L505 38.25L505.5 38.5H506.5L508 39L512 38.75L513 39.25H515L516.5 39.75L517.5 40L518 40.5L519 41L520 40.75L521 41.75L522 42L522.5 42.75L524.5 43.25L525 43.5L526.5 43.75L527.5 44.25H529L530 44.75L531.5 45L532 45.25L533 45.5L533.5 45.75H535.5L536.5 46.25H537.5L538 46H539.5V46.5L540 47L541 47.25L541.5 47.75L542.5 48.25L544 47.75H544.5L545 47.5H546L547 48H548L549.5 48.5L552.5 48.25L553.5 49L553 49.75V50H554.5L555.5 50.5H556.5L557 51.25H558L558.5 51.75L560 52H561L562 52.5H563L563.5 53L564.5 53.5L565.5 53.25L566.5 53.75H570L572.5 54L575 53.75L578 54H579.5L580 54.5L580.5 55.25L581.5 55.5L582 56.25H583L584 56.75L585.5 57L587.5 56.75L588 57.25H589H590.5L591.5 57.5L592.5 57.75H594L594.5 58H596L597 58.25L597.5 58.5H598.5L599 58.75H600L600.5 59.25L601.5 59.5H603L604 60L604.5 59.75L606.5 60.75L609 61.25L610 61.5H611L611.5 61.75L612.5 62L613 62.25H614L614.5 62.75H616.5L617 63L617.5 62.75L619 63.5H621.5L622 63.75H622.5L623 64H623.5L624.5 64.25H625.5L626.5 64.5L627.5 64.25H628.5L629.5 64.5V64.75L630.5 65L631 65.25L632 65.5H633L634.5 65.75H635.5H636L636.5 66H638.5L640 66.25H641L641.5 66.5H643L643.5 66.75L644 67L644.5 66.75L645.5 67L648 67.25V67.5L648.5 67.75L649 68H650V68.25H652L653 68.5H654.5V68.75L655.5 69V69.5L656 69.75L656.5 70.25H658V70.75L659 70.5L660.5 70.75L661.5 71H662.5L663.5 71.25H665H666L665.5 71H667.5L668 70.5H669V70.75H673V71L674 71.25L675 71.5L676 71.75L677 71.5L677.5 71.75H678.5L679.5 71.5L680 71.75L681.5 72L682.5 72.25L684 72.75L685.5 72.25H687L688.5 72V71.25H689.5L692.5 70.75L695.5 71H697L698 70.5L699 70.75L701 71.25L704.5 71L706 71.25L707.5 71.5H710.5L711 72L712 72.25H713V72.5H713.5L717 72.75H718.5L723 73H724.5V72.5L726 72.25V72.75L727 73L728 73.25V73.5H729L730 74L733.5 75V75.5L735 75.25L737.5 75.75H739L740.5 76L741 75.75H742H742.5L743.5 75.5H747H749.5L750.5 75.25L752 74.75H754L755.5 74L756.5 73.75L758 74L759.5 73.75V73.5L760.5 73.25H768.5L770.5 72.25H779V72L779.5 71.75L780 71.5H780.5L781.5 71.25L782 71H783.5V70.75H786V70.5L787 70.25H792V70.5H793L793.5 70.75L794 70.5L794.5 70.25H800.5L801.5 70.75L802 70.25H803V69.5H803.5V69.25L804.5 69H806.5L807.5 69.25L808.5 69.5H810L810.5 69.25L812.5 69H816.5L817.5 69.25L821 69.5L822 69V68.25H823L823.5 68.75H824.5L825 68.5L825.5 68H827L827.5 67.25L828 67L829.5 66.75H831.5H832.5V66.5H833L833.5 66.25L834 66V66.5H835.5V66.75H836.5V67L837 67.25L837.5 67.5H838.5L839 68H840.5L841 68.25H842L843 68.75L843.5 68.25L845 68.5L845.5 68H846V67.75L847 67.5H850.5L851 67.75L852 67.25H856V67L856.5 66.75L857 66.5H858.5V66H860H861V65.75H861.5V65.25H864.5V65.5L865.5 65.75L866 65.5H866.5H867V64.75V64.5H868.5V64.25L873 64L873.5 63.75H874.5L875 63.5L876 63.75H877L876.5 63L879 62.5L880 62L882 61.5L886 61.25L890.5 61L892.5 61.5L894 62L895 62.25H897V62.75L898 63L899.5 62.5L900.5 62.25H901.5L904 62.75H909V63.25L910.5 63.5L911.5 63.75H914.5L916 63.25L917.5 63H918L919 63.5L919.5 63H923L923.5 63.25H924.5L925 63.75H926.5H928H929L929.5 63.5L930 63.25L930.5 63.5L932.5 63.25L933 63H934H935.5L936.5 62.75L937 62.5L938 62.25H940.5L941 61.75H941.5V61.5H943V61.25L944 61L944.5 60.75H947L948.5 60.5L949.5 60L951 59.75L952.5 59.5L953.5 58.75L957 59L958 58.75L959.5 59L960.5 58.5L962 58.25L964 58.5L964.5 58.75L966 59L967 58.5L969 58.75L970.5 58.5L971 59L972.5 59.25L973 59.5H975L975.5 60L978 59.75L980.5 60.5L981 60.25H983.5L984 59.75L985 59.5L986 59.25H987.5L989 59H990V57.75L991 58L993.5 57.25H995.5L996.5 56.75V56.5L998.5 56.25L999.5 56H1003.5L1005.5 55L1006.5 55.5L1008.5 54.75L1009.5 54.5V53.75L1012 53.25L1013.5 53L1014.5 52.5H1017L1019 52.25L1021.5 51.75L1022 51.5L1024 51L1024.5 51.5H1026L1026.5 52.5H1027.5H1029L1030.5 52H1031.5L1033 51.5H1035.5H1037L1039.5 51H1041.5L1042.5 50.5H1043.5L1044.5 50L1045.5 49.75L1048 49.5L1049 49.25H1051L1052 49V48.5H1053H1055H1057L1058 49L1060.5 48.75L1061 49.25H1062L1062.5 49.5H1064.5L1065 50H1067L1067.5 50.25L1069 50.75L1071 51.75L1073 52.25L1076.5 52.5L1078 52.75H1080L1082.5 53.25L1084 53.5L1086 53.75L1089 53.5L1091 54H1093L1095 54.75L1101 54.5L1103 55L1104.5 54.75H1109L1111 55.25L1112.5 55L1115 55.75L1117.5 56.5L1121.5 56.25L1123.5 55.5L1125 55L1127 53.75L1132 53.5L1133.5 54L1135.5 53.5H1138L1139.5 54.25L1140.5 54H1144.5L1147.5 54.25L1148.5 54.5L1149.5 54.25H1155H1158L1160.5 54.75H1163.5L1168 55.25L1169.5 55.75L1171.5 56L1173.5 56.5L1175 56L1177 56.25L1181 56L1182.5 56.75L1185.5 57.25L1188.5 57L1191 57.75L1193 58.5L1196.5 58.25L1198.5 57.25L1202 56.75L1204 56.5L1207 55.75L1209.5 55.25H1212.5L1214 54.75L1219 55L1221.5 54.75L1224 54.5L1227.5 54.25L1229 53.75H1234L1237 53.5L1240 54.25L1245.5 54L1253 54.5L1254.5 53.75L1256.5 53.25L1259 53.5L1261.5 54.25H1268L1269 53.5L1271 52.75L1274.5 52.5L1280 52.25L1287.5 52.5L1292.5 53L1295 53.25L1297 52.75L1299 52.25L1301.5 52.5L1304.5 52H1306.5L1308.5 52.25L1312.5 52.75L1314 52.25L1316.5 52L1319 52.75H1320.5L1322 53.25L1325 53.75L1326 54.5L1330 54.25L1331.5 54H1333.5L1335.5 53.5L1338.5 53L1342 53.25H1344.5L1347 54L1351 54.5L1352.5 53.75H1356L1357.5 53L1361 52L1363 51.25L1366 51L1368.5 51.5L1370 51.75L1372.5 50.75L1376 50.25H1377L1379.5 49.75L1385 49.25L1390.5 49.75L1392 50.5L1392.5 50H1396.5L1397.5 49.5L1399 49L1399.5 48.25L1401 47.75L1402 49H1406L1408.5 49.25L1412 49L1415 50L1416 50.5H1417L1418.5 51.25L1420 51.5L1421 51.25H1422L1423 51L1425 50.75L1426.5 50.5L1428 50V49.5L1430 49.25L1430.5 49V48.75H1432L1433 48.25H1435L1435.5 48V47.75L1436.5 47.5L1437.5 47.25L1438.5 47L1439.5 46.75Z" fill="#F1EFEC"/>
</svg>
