<svg width="1440" height="103" viewBox="0 0 1440 103" fill="none" xmlns="http://www.w3.org/2000/svg">
<path d="M0.629514 39.6414L0 40.6579L0 103L1813 103V91.8191L1811.74 91.1414L1809.85 90.8026L1808.59 91.1414H1806.7L1806.08 90.8026H1802.93L1801.67 90.125L1797.89 89.7862L1796 89.4474L1793.48 89.1086L1792.23 89.4474H1789.71L1787.82 89.1086L1785.93 89.4474L1783.41 88.7697L1782.15 88.4309L1780.27 88.7697L1777.75 88.0921L1776.49 87.7533L1774.6 86.7368V86.398L1772.08 86.0592H1771.45L1768.93 85.3816L1768.3 84.7039H1767.05L1766.42 84.3651L1764.53 84.0263V83.6875H1763.27L1762.64 83.3487L1759.49 83.0099L1757.6 82.6711L1755.08 83.0099L1754.46 83.3487H1748.79L1745.64 83.6875L1743.75 82.6711H1739.35L1738.72 82.3322H1734.31L1731.16 82.6711L1727.39 83.0099L1724.87 82.3322H1721.72L1719.83 81.6546L1719.2 81.9934H1716.68L1714.8 82.3322L1712.91 83.0099L1711.02 82.3322L1709.13 83.0099L1704.72 83.6875L1703.46 82.6711L1699.69 82.3322L1698.43 81.6546H1695.91V81.9934H1692.13L1690.24 81.6546H1688.36V80.977H1686.47L1685.84 80.6382L1673.25 80.6382L1671.99 80.977H1668.21L1665.06 81.9934L1663.81 82.6711H1660.66L1659.4 83.6875H1656.88L1653.73 84.3651L1651.21 85.0428L1649.33 84.3651L1648.07 84.7039L1644.29 85.0428L1642.4 84.3651H1638.62L1637.37 83.6875L1635.48 83.3487L1632.96 82.3322L1631.7 83.0099L1630.44 83.3487L1629.81 84.0263L1627.92 84.3651L1627.29 84.7039L1626.03 85.3816V85.7204H1619.74L1618.48 85.3816L1615.96 85.7204L1612.81 86.0592L1611.56 85.3816H1609.04L1607.78 84.7039H1604.63L1604 84.0263L1598.34 84.3651L1597.08 84.7039H1594.56V85.3816H1588.89L1587.63 85.7204H1583.86L1582.6 85.3816H1579.45V85.0428L1578.82 84.3651H1577.56L1576.3 83.6875V84.0263L1575.04 84.3651L1573.78 83.6875H1570.64L1570.01 83.3487H1566.86L1565.6 83.6875L1563.08 84.3651L1561.19 84.0263L1559.94 84.7039H1557.42L1556.79 85.0428L1551.12 85.3816L1549.86 84.7039H1547.35L1546.72 85.3816H1543.57L1542.94 85.0428L1541.68 84.7039V84.0263L1539.16 84.3651V83.6875H1537.27H1536.64L1535.38 83.3487H1534.13L1533.5 82.6711H1515.24V83.0099H1512.72V83.6875H1510.83V84.0263H1510.2L1508.32 85.0428L1505.17 85.7204H1502.65L1499.5 86.0592L1497.61 86.398H1493.84L1492.44 86.7368H1490.69L1487.54 87.4145V87.7533L1485.65 88.4309V88.7697L1482.51 89.1086V89.4474H1479.99V90.125L1479.36 90.8026L1478.1 91.1414V91.4803H1476.84L1476.21 91.8191H1473.69L1472.43 91.4803H1468.66L1468.03 91.8191H1466.77L1466.14 91.4803H1463.62H1461.73L1459.21 91.8191L1458.58 91.1414L1455.44 90.8026V91.4803H1452.92L1451.66 91.1414L1450.4 91.1414L1449.14 90.4638H1447.88L1446.62 90.8026H1437.81L1438.44 91.1414L1437.18 91.4803L1435.92 91.8191H1435.29V92.4967H1434.03L1433.4 93.1743L1432.14 93.5132L1430.89 93.852L1429 94.1908H1425.22L1423.96 94.8684H1415.78L1410.11 95.2072L1408.85 95.5461H1399.41V95.2072H1398.15L1396.89 94.8684L1395.63 94.5296L1393.74 93.852V93.5132H1391.86L1390.6 93.1743H1388.71L1388.08 92.4967H1384.93V92.1579H1383.04L1382.41 92.4967H1376.12L1375.49 92.1579H1373.6L1372.97 92.4967H1367.3L1366.05 91.8191H1360.38L1359.75 91.4803H1355.34L1354.71 91.1414L1352.2 90.8026L1351.57 90.4638L1349.68 90.125V89.4474H1348.42L1347.79 88.7697L1346.53 88.4309H1345.9L1344.64 87.7533V87.4145H1342.75L1342.12 86.7368H1340.86V86.0592L1339.61 85.3816L1333.31 85.3816L1332.05 84.7039H1328.9L1327.64 84.3651L1327.02 84.7039H1325.76L1325.13 84.3651H1322.61L1321.98 84.7039H1320.72V84.3651H1319.46V84.0263L1318.2 83.3487H1316.31L1315.05 82.6711H1313.17L1312.54 82.3322H1311.28L1310.65 81.6546H1308.76L1307.5 81.3158V80.6382L1306.24 79.9605V79.6217L1304.98 79.2829V78.6053L1303.09 77.9276L1302.46 77.5888H1299.95L1299.32 77.25L1298.69 76.9112L1297.43 76.5724L1296.8 75.8947H1291.76L1291.13 75.5559H1288.61L1287.99 75.2171L1286.1 74.8783L1284.21 74.2007L1279.17 73.8618L1278.54 73.523L1274.14 73.1842L1272.88 72.8454H1269.1L1268.47 72.5066H1266.58V72.1678L1265.32 71.4901H1264.06V71.1513L1262.8 70.4737H1261.55L1260.29 69.7961V69.4572L1259.66 68.102L1259.03 67.7632V67.4243L1258.4 67.0855H1254.62V66.7467L1252.73 66.0691L1253.36 65.3914L1251.47 65.0526L1252.1 64.7138L1251.47 64.0362H1250.21L1250.84 63.3586L1249.58 62.6809H1248.96L1247.7 62.3421L1246.44 62.3421L1245.81 62.0033V60.9868L1243.92 61.3257L1242.03 60.9868L1240.77 61.6645L1239.51 61.3257L1238.25 61.6645L1236.99 60.9868H1234.48L1233.85 60.648L1232.59 60.3092V59.6316L1230.7 59.9704V60.3092L1228.81 60.648L1226.92 60.3092L1226.29 59.9704H1224.4L1223.77 59.6316H1222.52L1221.89 58.9539L1220.63 59.2928L1219.37 58.9539H1217.48L1216.85 58.6151H1213.7L1207.41 58.2763L1206.78 57.9375L1206.15 57.5987H1205.52L1203.63 57.2599V56.9211L1203 56.2434L1202.37 55.5658L1200.48 55.9046L1199.85 55.5658H1199.22L1197.96 55.227H1196.71L1195.45 54.8882H1193.56L1191.67 54.5493L1191.04 53.8717L1189.15 53.1941V52.8553H1187.89H1185.37L1181.6 52.5164V52.1776L1179.08 51.8388V51.5L1177.19 51.1612L1176.56 50.8224H1175.3L1173.41 50.1447L1168.38 50.4836L1167.12 49.8059H1164.6L1162.71 49.1283L1161.45 48.7895L1160.82 48.1118L1159.56 47.4342L1158.31 47.773L1157.05 46.4178L1155.79 46.0789L1155.16 45.0625L1152.64 44.3849L1152.01 44.0461L1150.12 43.7072L1148.86 43.0296H1146.97L1145.72 42.352L1143.83 42.0132L1143.2 41.6743L1141.94 41.3355L1141.31 40.9967H1138.79L1137.53 40.3191H1136.27L1135.64 40.6579H1133.75V39.9803L1133.12 39.3026L1131.87 38.9638L1131.24 38.2862L1129.98 37.6086L1128.09 38.2862H1127.46L1126.83 38.625H1125.57L1124.31 37.9474H1123.05L1121.16 37.2697L1117.39 37.6086L1116.13 36.5921L1116.76 35.5757V35.2368H1114.87L1113.61 34.5592H1112.35L1111.72 33.5428H1110.46L1109.83 32.8651L1107.94 32.5263H1106.69L1105.43 31.8487H1104.17L1103.54 31.1711L1102.28 30.4934L1101.02 30.8322L1099.76 30.1546H1095.35L1092.21 29.8158L1089.06 30.1546L1085.28 29.8158H1083.39L1082.76 29.1382L1082.13 28.1217L1080.88 27.7829L1080.25 26.7664H1078.99L1077.73 26.0888L1075.84 25.75L1073.32 26.0888L1072.69 25.4112H1071.43H1069.54L1068.29 25.0724L1067.03 24.7336H1065.14L1064.51 24.3947H1062.62L1061.36 24.0559L1060.73 23.7171H1059.47L1058.84 23.3783H1057.58L1056.95 22.7007L1055.69 22.3618H1053.81L1052.55 21.6842L1051.92 22.023L1049.4 20.6678L1046.25 19.9901L1044.99 19.6513H1043.73L1043.1 19.3125L1041.85 18.9737L1041.22 18.6349H1039.96L1039.33 17.9572H1036.81L1036.18 17.6184L1035.55 17.9572L1033.66 16.9408H1030.51L1029.88 16.602L1029.26 16.602L1028.63 16.2632H1028L1026.74 15.9243H1025.48L1024.22 15.5855L1022.96 15.9243L1021.7 15.9243L1020.44 15.5855V15.2467L1019.18 14.9079L1018.55 14.5691L1017.29 14.2303H1016.04L1014.15 13.8914H1012.89H1012.26L1011.63 13.5526H1009.11L1007.22 13.2138H1005.96L1005.33 12.875H1003.45L1002.82 12.5362L1002.19 12.1974L1001.56 12.5362L1000.3 12.1974L997.15 11.8586V11.5197L996.52 11.1809L995.891 10.8421H994.632V10.5033L992.114 10.5033L990.855 10.1645H988.966V9.82566L987.707 9.48684V8.80921L987.078 8.47039L986.448 7.79276H984.56V7.11513L983.301 7.45395L981.412 7.11513L980.153 6.77632H978.894L977.635 6.4375H975.746L974.487 6.4375L975.117 6.77632H972.599L971.969 7.45395H970.71V7.11513L965.674 7.11513V6.77632L964.415 6.4375L963.156 6.09868L961.897 5.75987L960.638 6.09868L960.009 5.75987H958.75L957.491 6.09868L956.861 5.75987L954.973 5.42105L953.714 5.08224L951.825 4.4046L949.936 5.08224H948.048L946.159 5.42105V6.4375H944.9L941.123 7.11513L937.346 6.77632H935.458L934.199 7.45395L932.94 7.11513L930.422 6.4375L926.015 6.77632L924.126 6.4375L922.238 6.09868H918.461L917.831 5.42105L916.572 5.08224H915.313V4.74342H914.684L910.277 4.4046L908.388 4.4046L902.723 4.06579H900.834V4.74342L898.946 5.08224V4.4046L897.687 4.06579L896.428 3.72697V3.38816H895.169L893.91 2.71053L889.503 1.35526V0.677632L887.615 1.01645L884.467 0.338816L882.578 0.338816L880.69 0L880.06 0.338816L878.801 0.338816L878.172 0.338816L876.913 0.677632L872.506 0.677632L869.359 0.677632L868.1 1.01645L866.211 1.69408L863.693 1.69408L861.805 2.71053L860.545 3.04934L858.657 2.71053L856.768 3.04934V3.38816L855.509 3.72697L845.437 3.72697L842.919 5.08224L832.217 5.08224V5.42105L831.588 5.75987L830.958 6.09868L830.329 6.09868L829.07 6.4375L828.44 6.77632H826.552V7.11513H823.404V7.45395L822.145 7.79276L815.85 7.79276V7.45395H814.591L813.961 7.11513L813.332 7.45395L812.702 7.79276L805.148 7.79276L803.889 7.11513L803.26 7.79276H802.001V8.80921H801.371V9.14803L800.112 9.48684H797.594L796.335 9.14803L795.076 8.80921H793.187L792.558 9.14803L790.04 9.48684H785.004L783.745 9.14803L779.338 8.80921L778.079 9.48684V10.5033H776.82L776.191 9.82566L774.932 9.82566L774.302 10.1645L773.673 10.8421H771.784L771.154 11.8586L770.525 12.1974L768.636 12.5362H766.118H764.859V12.875H764.23L763.6 13.2138L762.971 13.5526V12.875L761.082 12.875V12.5362H759.823V12.1974L759.194 11.8586L758.564 11.5197H757.305L756.676 10.8421H754.787L754.158 10.5033H752.899L751.64 9.82566L751.01 10.5033L749.122 10.1645L748.492 10.8421H747.862V11.1809L746.603 11.5197H742.197L741.567 11.1809L740.308 11.8586H735.272V12.1974L734.643 12.5362L734.013 12.875L732.125 12.875V13.5526H730.236H728.977V13.8914H728.348V14.5691H724.57V14.2303L723.311 13.8914L722.682 14.2303H722.052H721.423V15.2467V15.5855H719.534V15.9243L713.869 16.2632L713.239 16.602H711.98L711.351 16.9408L710.092 16.602H708.833L709.462 17.6184L706.315 18.2961L705.056 18.9737L702.537 19.6513L697.501 19.9901L691.836 20.3289L689.318 19.6513L687.429 18.9737L686.17 18.6349H683.652V17.9572L682.393 17.6184L680.504 18.2961L679.245 18.6349H677.986L674.839 17.9572H668.544V17.2796L666.655 16.9408L665.396 16.602H661.619L659.731 17.2796L657.842 17.6184H657.212L655.953 16.9408L655.324 17.6184L650.917 17.6184L650.288 17.2796H649.029L648.399 16.602H646.511H644.622H643.363L642.734 16.9408L642.104 17.2796L641.475 16.9408L638.957 17.2796L638.327 17.6184H637.068H635.18L633.92 17.9572L633.291 18.2961L632.032 18.6349H628.884L628.255 19.3125H627.625V19.6513H625.737V19.9901L624.478 20.3289L623.848 20.6678L620.701 20.6678L618.812 21.0066L617.553 21.6842L615.665 22.023L613.776 22.3618L612.517 23.3783L608.11 23.0395L606.851 23.3783L604.963 23.0395L603.704 23.7171L601.815 24.0559L599.297 23.7171L598.668 23.3783L596.779 23.0395L595.52 23.7171L593.002 23.3783L591.114 23.7171L590.484 23.0395L588.595 22.7007L587.966 22.3618H585.448L584.818 21.6842L581.671 22.023L578.523 21.0066L577.894 21.3454H574.746L574.117 22.023L572.858 22.3618L571.599 22.7007H569.71L567.821 23.0395H566.562V24.7336L565.303 24.3947L562.156 25.4112H559.638L558.379 26.0888V26.4276L555.861 26.7664L554.602 27.1053H549.566L547.048 28.4605L545.789 27.7829L543.27 28.7993L542.011 29.1382V30.1546L538.864 30.8322L536.975 31.1711L535.716 31.8487H532.569L530.051 32.1875L526.903 32.8651L526.274 33.2039L523.756 33.8816L523.126 33.2039H521.237L520.608 31.8487H519.349H517.46L515.572 32.5263H514.313L512.424 33.2039H509.277H507.388L504.241 33.8816H501.723L500.464 34.5592H499.204L497.945 35.2368L496.686 35.5757L493.539 35.9145L492.28 36.2533H489.762L488.503 36.5921V37.2697H487.244H484.726H482.208L480.949 36.5921L477.801 36.9309L477.172 36.2533H475.912L475.283 35.9145H472.765L472.135 35.2368H469.617L468.988 34.898L467.099 34.2204L464.581 32.8651L462.063 32.1875L457.657 31.8487L455.768 31.5099H453.25L450.102 30.8322L448.214 30.4934L445.696 30.1546L441.919 30.4934L439.401 29.8158H436.883L434.365 28.7993L426.81 29.1382L424.292 28.4605L422.404 28.7993L416.738 28.7993L414.22 28.1217L412.332 28.4605L409.184 27.4441L406.036 26.4276L401 26.7664L398.482 27.7829L396.594 28.4605L394.076 30.1546L387.781 30.4934L385.892 29.8158L383.374 30.4934H380.226L378.338 29.477L377.079 29.8158H372.043L368.266 29.477L367.007 29.1382L365.748 29.477L358.823 29.477H355.046L351.898 28.7993H348.121L342.456 28.1217L340.567 27.4441L338.049 27.1053L335.531 26.4276L333.642 27.1053L331.124 26.7664L326.088 27.1053L324.2 26.0888L320.423 25.4112L316.645 25.75L313.498 24.7336L310.98 23.7171L306.573 24.0559L304.055 25.4112L299.649 26.0888L297.131 26.4276L293.353 27.4441L290.206 28.1217H286.429L284.54 28.7993L278.245 28.4605L275.098 28.7993L271.95 29.1382L267.543 29.477L265.655 30.1546H259.36L255.583 30.4934L251.806 29.477L244.881 29.8158L235.438 29.1382L233.55 30.1546L231.032 30.8322L227.884 30.4934L224.736 29.477L216.553 29.477L215.294 30.4934L212.776 31.5099L208.369 31.8487L201.444 32.1875L192.002 31.8487L185.707 31.1711L182.559 30.8322L180.041 31.5099L177.523 32.1875L174.375 31.8487L170.598 32.5263H168.08L165.562 32.1875L160.526 31.5099L158.637 32.1875L155.49 32.5263L152.342 31.5099H150.454L148.565 30.8322L144.788 30.1546L143.529 29.1382L138.493 29.477L136.605 29.8158H134.086L131.568 30.4934L127.791 31.1711L123.385 30.8322H120.237L117.09 29.8158L112.053 29.1382L110.165 30.1546H105.758L103.87 31.1711L99.4632 32.5263L96.9451 33.5428L93.1681 33.8816L90.0205 33.2039L88.1319 32.8651L84.9844 34.2204L80.5778 34.898H79.3187L76.1712 35.5757L69.2465 36.2533L62.3219 35.5757L60.4333 34.5592L59.8038 35.2368H54.7677L53.5087 35.9145L51.6201 36.5921L50.9906 37.6086L49.1021 38.2862L47.8431 36.5921H42.8069L39.6594 36.2533L35.2528 36.5921L31.4757 35.2368L30.2167 34.5592L28.9576 34.5592L27.0691 33.5428L25.1806 33.2039L23.9215 33.5428H22.6625L21.4035 33.8816L18.8854 34.2204L16.9969 34.5592L15.1083 35.2368V35.9145L12.5903 36.2533L11.9608 36.5921V36.9309H10.0722L8.81319 37.6086H6.29514L5.66562 37.9474V38.2862L4.4066 38.625L3.14757 38.9638L1.88854 39.3026L0.629514 39.6414Z" fill="#F1EFEC"/>
</svg>
