<svg width="26" height="15" viewBox="0 0 26 15" fill="none" xmlns="http://www.w3.org/2000/svg">
<path fill-rule="evenodd" clip-rule="evenodd" d="M17.4664 0.957495C16.7923 0.475981 15.8555 0.632119 15.374 1.30624C14.8925 1.98036 15.0486 2.91718 15.7227 3.3987C16.6438 4.05662 17.632 4.72983 18.6472 5.3849C17.6582 5.34725 16.371 5.31329 14.9385 5.29414C10.5748 5.23583 4.5638 5.30897 1.51282 5.90428C0.699727 6.06294 0.169198 6.85069 0.32785 7.66379C0.486503 8.47688 1.27426 9.00741 2.08735 8.84876C4.77723 8.3239 10.463 8.2346 14.8985 8.29388C16.3615 8.31343 17.6554 8.34848 18.6178 8.38598C18.4791 8.47418 18.3231 8.5678 18.1475 8.67014C18.0592 8.72164 17.964 8.7764 17.8642 8.83376L17.8642 8.83377C17.5605 9.00837 17.2151 9.207 16.8949 9.41074C16.0629 9.94005 14.9695 10.7571 14.5217 12.1004C14.2598 12.8863 14.6845 13.7358 15.4704 13.9978C16.2563 14.2597 17.1058 13.835 17.3678 13.0491C17.4665 12.7528 17.7664 12.412 18.5053 11.9419C18.7641 11.7772 19.0228 11.6284 19.3088 11.4639L19.3088 11.4639C19.4206 11.3996 19.5366 11.3329 19.6583 11.262C20.0597 11.028 20.518 10.7504 20.925 10.4249C21.9525 9.60287 22.7845 8.96393 23.7112 8.65504L23.7167 8.65332L23.7326 8.64853C23.7468 8.64433 23.7647 8.63926 23.7886 8.63268L23.8312 8.62101C23.8718 8.6099 23.9256 8.59522 23.9694 8.58277L23.9705 8.58248C24.0805 8.55126 24.3339 8.47936 24.5706 8.35435C24.6864 8.29319 24.9164 8.15979 25.1189 7.91592C25.3553 7.63129 25.5708 7.1637 25.4641 6.59661C25.3726 6.11005 25.0868 5.80443 24.9321 5.66379C24.7627 5.50982 24.5828 5.4022 24.4441 5.32875C22.1375 4.1076 19.6229 2.49781 17.4664 0.957495ZM23.0459 7.98317L23.0407 7.98027C23.0443 7.98218 23.046 7.98316 23.0459 7.98317Z" fill="#093243"/>
</svg>
