<svg width="136" height="136" viewBox="0 0 136 136" fill="none" xmlns="http://www.w3.org/2000/svg">
<path d="M21.4574 45.818C21.0565 46.2385 20.6751 46.7031 20.3885 47.2125C20.1726 47.5963 20.4232 47.2182 20.5089 47.078C20.9738 46.3172 21.95 45.6142 22.2218 44.7988" stroke="#093243" stroke-width="4" stroke-linecap="round" stroke-linejoin="round"/>
<path d="M19.8006 47.347C19.1158 48.4974 18.2629 49.5349 17.7621 50.787" stroke="#093243" stroke-width="2" stroke-linecap="round" stroke-linejoin="round"/>
<path d="M21.075 45.9454C20.1161 47.1581 17.1788 50.7335 18.272 49.6403" stroke="#093243" stroke-width="2" stroke-linecap="round" stroke-linejoin="round"/>
<path d="M21.9665 44.4165C20.3364 45.7285 18.9278 47.3496 17.6912 48.9395C17.4257 49.2809 17.0056 49.6384 16.8135 50.0225C16.6331 50.3834 16.3291 51.0515 16.0349 51.3037C15.6772 51.6103 15.4686 52.2522 15.1501 52.6415C14.8693 52.9847 14.6286 53.4033 14.3927 53.774C13.8567 54.6163 13.584 55.6405 13.0478 56.4921C12.4793 57.395 12.0613 58.6686 11.8021 59.7056C11.1998 62.1148 11.0093 64.511 11.0093 66.9963C11.0093 68.3068 10.9361 69.4122 11.2004 70.7336C11.5117 72.2901 11.8517 73.8232 12.2126 75.3699C12.5278 76.7208 13.0254 77.9046 13.6141 79.1355C14.2657 80.498 15.2511 81.553 16.1057 82.7738C16.9152 83.9303 17.783 85.081 18.7813 86.0794C19.7841 87.0822 20.8202 88.0192 21.8391 89.0098C22.6247 89.7736 23.6197 90.3516 24.3873 91.1191C24.791 91.5228 25.534 91.8337 25.534 92.4498" stroke="#093243" stroke-width="2" stroke-linecap="round" stroke-linejoin="round"/>
<path d="M26.5534 44.0342C25.6655 44.9222 24.6042 45.6493 23.8778 46.6815C23.4259 47.3237 22.6582 47.9294 22.0941 48.4936C21.3291 49.2585 20.7883 50.3338 19.9918 51.0418C19.5656 51.4206 19.4042 51.9975 19.0929 52.4503C18.7301 52.978 18.2198 53.8537 18.0453 54.4818C17.751 55.5414 17.1216 56.6814 16.6155 57.667C16.0237 58.8195 15.4665 59.9315 15.0229 61.1637C14.24 63.3383 14.1947 65.9977 14.1947 68.2986C14.1947 72.3047 14.8569 76.4846 16.4881 80.1548C16.7759 80.8024 17.2519 81.6547 17.6985 82.2004C18.2083 82.8236 18.4759 83.7071 18.9088 84.3947C19.3053 85.0243 19.502 85.9107 20.1192 86.3908C20.947 87.0346 21.3195 87.6103 21.9667 88.5001" stroke="#093243" stroke-width="2" stroke-linecap="round" stroke-linejoin="round"/>
<path d="M13.0482 62.636C13.0639 61.532 13.2586 60.6358 13.5861 59.5923C13.8136 58.8676 14.5494 56.7111 14.2939 57.4264C14.0092 58.2238 13.6798 59.0604 13.2747 59.8047C12.466 61.2904 13.0432 59.4797 13.2464 58.8703C13.6843 57.5566 14.1375 56.2234 15.0159 55.133C15.8942 54.0428 15.4648 55.2094 15.2 55.8904C14.9896 56.4312 14.7568 56.9801 14.4284 57.4618C14.3043 57.6438 14.8809 56.4868 14.9098 56.4283C15.7174 54.7933 16.5751 53.1654 17.4509 51.5655C17.8637 50.8112 17.6343 51.2934 17.5075 51.7071C17.3838 52.1107 17.0954 53.4808 16.5732 53.5758C16.4568 53.5969 17.0229 52.449 17.0262 52.4433C17.4162 51.7493 17.8727 51.0985 18.3286 50.4472C18.9274 49.5917 20.8129 47.0899 20.2185 47.9485C19.7817 48.5794 19.2501 49.1221 18.8453 49.7818C18.0131 51.1379 17.3474 52.5918 16.5024 53.9439C15.7355 55.1708 15.0224 56.3768 14.5912 57.7661C14.2693 58.8033 14.2205 59.9222 14.0674 60.9938C13.7294 63.3602 14.4559 59.388 13.8126 61.999C13.4914 63.3026 13.1271 64.5921 12.7933 65.892C12.4879 67.0816 12.6659 64.9747 12.6659 64.6604C12.6659 63.4095 12.4112 65.0995 12.3545 65.4602C12.2442 66.1624 11.8584 68.2562 11.9227 67.5483C11.9423 67.3335 12.3734 65.856 12.4677 66.1256C12.8036 67.0852 12.3219 68.335 12.3403 69.3321C12.3478 69.7338 12.6914 69.525 12.765 69.8275C12.9667 70.6566 12.7607 71.6824 12.6943 72.5173C12.6497 73.0777 12.8679 72.8989 12.9491 73.0694C13.2825 73.7695 13.2887 74.9668 13.1048 75.7025C12.9985 76.1277 12.835 74.9873 12.8004 74.8319C12.7117 74.4325 13.0223 75.6203 13.1048 76.0211C13.2228 76.5942 13.1275 77.3089 13.6215 77.7269C13.9229 77.982 14.1458 78.2092 14.3223 78.5622" stroke="#093243" stroke-width="2" stroke-linecap="round" stroke-linejoin="round"/>
<path d="M22.7312 44.2891C23.6687 43.3516 24.7228 42.3377 25.9164 41.7409" stroke="#093243" stroke-width="2" stroke-linecap="round" stroke-linejoin="round"/>
<path d="M21.585 44.7987C22.3609 43.5751 23.797 42.6051 25.025 41.8683" stroke="#093243" stroke-width="2" stroke-linecap="round" stroke-linejoin="round"/>
<path d="M21.4574 45.0536C22.9458 42.6492 25.8136 41.6274 27.8278 39.8369C27.884 39.787 28.4315 39.4587 28.1818 39.6316C27.8014 39.895 27.4378 40.1875 27.0634 40.4598C26.5459 40.8361 25.8091 41.2987 25.223 41.5499C23.7049 42.2005 22.792 43.8276 21.33 44.5157C20.7925 44.7686 22.1783 43.6841 22.6041 43.2699C23.2596 42.632 24.0035 42.0776 24.6709 41.4578C25.6718 40.5284 26.8722 39.6234 28.019 38.8813C29.2322 38.0963 30.5545 37.4124 31.8058 36.6729C32.9539 35.9945 34.3293 35.2371 35.6069 34.8538C37.1084 34.4033 38.527 33.6398 40.0662 33.332C41.4787 33.0495 42.8739 32.66 44.2637 32.2844C46.7206 31.6203 49.2221 30.8819 51.7808 30.6493C51.9973 30.6296 53.3548 30.5289 52.4816 30.5289C51.6119 30.5289 50.7942 30.7018 49.9334 30.7767C48.2557 30.9226 46.5281 31.4245 44.9007 31.8314C43.6806 32.1364 42.5331 32.6069 41.3332 32.9497C40.5585 33.1711 39.4888 33.5201 38.9125 34.0964" stroke="#093243" stroke-width="2" stroke-linecap="round" stroke-linejoin="round"/>
<path d="M24.8977 44.5439C26.1419 43.4743 27.5062 42.4752 28.9748 41.7409" stroke="#093243" stroke-width="2" stroke-linecap="round" stroke-linejoin="round"/>
<path d="M22.4766 45.9454C24.6392 43.8221 27.3215 41.9545 30.0787 40.6862C30.6106 40.4415 30.7983 40.3305 30.2768 40.7216C29.8598 41.0343 29.4122 41.2859 29.0028 41.6134C28.1046 42.3319 27.1273 43.0673 26.129 43.6378C25.0222 44.2703 28.2535 42.2285 29.3142 41.5214C30.2926 40.8691 25.7024 44.5118 26.497 43.6449C27.7233 42.3071 29.5964 41.6881 30.8856 40.4668C31.7875 39.6123 33.124 39.1006 34.1699 38.4282C35.7172 37.4335 37.6268 36.8979 39.2804 36.0711C40.7484 35.3372 42.3801 34.7382 43.9521 34.2237C45.6123 33.6804 47.3811 33.0382 49.098 32.6948C50.6278 32.3888 52.0828 31.8411 53.6211 31.5481C55.0252 31.2806 56.4015 30.8426 57.7973 30.5571C58.0203 30.5115 59.5425 30.4014 58.583 30.4014C57.5829 30.4014 56.603 30.5106 55.603 30.5288C52.805 30.5797 50.0987 31.4513 47.3851 31.994C44.4863 32.5738 41.4385 33.3427 38.7283 34.5351C37.5762 35.0421 36.4606 35.6342 35.3166 36.1631C34.7956 36.4041 34.0909 36.7195 35.0193 36.2622C35.7052 35.9244 35.9099 35.9804 35.0901 36.2906C34.208 36.6243 33.3156 36.9572 32.4499 37.3311C31.5962 37.6997 32.2341 37.4183 32.6481 37.232C33.2846 36.9455 32.2551 37.7833 32.1597 37.8549C31.9663 37.9999 31.0289 38.7901 31.0342 38.7892C31.2482 38.7535 31.6174 38.241 31.5934 38.4565C31.5544 38.8074 30.6954 39.2803 30.4326 39.4192C30.3104 39.4837 29.6802 39.6609 29.7955 39.6032C30.0359 39.483 30.1612 39.5348 30.3759 39.3201" stroke="#093243" stroke-width="2" stroke-linecap="round" stroke-linejoin="round"/>
<path d="M49.2321 31.2934C50.0154 30.7574 50.8621 30.5789 51.7802 30.4015C52.0558 30.3483 52.8014 30.3978 52.9269 30.1467" stroke="#093243" stroke-width="2" stroke-linecap="round" stroke-linejoin="round"/>
<path d="M46.1748 32.3126C47.9243 31.7295 49.8366 31.506 51.5119 30.8545C52.1976 30.5878 53.2233 30.3143 53.9468 30.2741C54.7368 30.2302 55.5053 29.7645 56.2897 29.7645C56.9277 29.7645 55.0239 29.9258 54.3927 30.0193C53.7941 30.108 53.1632 30.2741 52.5595 30.2741C50.1113 30.2741 43.0514 32.5805 45.3821 31.8313C46.1288 31.5913 46.9417 31.4229 47.6471 31.1023C48.141 30.8778 48.8002 30.9488 49.3034 30.72C49.6653 30.5555 50.5572 30.4015 50.9527 30.4015C51.5423 30.4015 52.3034 30.1332 52.8638 29.9626C53.7521 29.6923 54.7536 29.7514 55.6314 29.4813C56.5341 29.2036 57.4819 29.3798 58.4061 29.2477C59.6082 29.076 60.8446 29.1274 62.0727 29.1274C63.3999 29.1274 64.7026 29 66.0224 29C67.0427 29 68.0578 29.1274 69.0448 29.1274C69.4507 29.1274 70.0383 29.1864 70.4534 29.2619C70.9974 29.3608 71.6332 29.2815 72.1593 29.4459C72.8623 29.6656 73.8765 29.7436 74.5871 29.7645C75.6045 29.7944 76.6659 30.0193 77.6449 30.0193C78.8023 30.0193 80.0706 30.3729 81.2124 30.536C81.5948 30.5906 82.1404 30.729 82.4865 30.8828C82.8686 31.0526 83.3883 30.9482 83.7889 31.0669C84.2564 31.2054 84.7542 31.1957 85.2258 31.3004C85.7216 31.4106 86.1715 31.625 86.691 31.6827C87.6023 31.7839 88.4765 32.2002 89.3029 32.5675C90.1083 32.9254 90.8633 33.3392 91.66 33.7141C92.1118 33.9268 92.6972 34.1659 93.1889 34.2238C93.5468 34.2659 93.8287 34.5639 94.2082 34.606C94.4087 34.6283 94.7385 34.8868 94.916 34.9882C95.5023 35.3233 94.3097 34.6385 94.0737 34.5352C93.4375 34.2569 92.818 33.8869 92.1625 33.6575C91.4678 33.4144 90.6953 33.3783 89.9966 33.1337C88.7213 32.6874 87.3645 32.4757 86.054 32.1569C84.8399 31.8616 83.3458 31.4208 82.1043 31.4208C80.9977 31.4208 79.9012 30.9111 78.7916 30.9111C77.0716 30.9111 75.3664 30.3221 73.6386 30.2741C72.3106 30.2372 70.9218 29.9354 69.6111 29.7715C68.1534 29.5893 66.5687 29.7645 65.0951 29.7645C62.2834 29.7645 59.6222 29.9024 56.8772 30.4015" stroke="#093243" stroke-width="2" stroke-linecap="round" stroke-linejoin="round"/>
<path d="M109.969 43.4486C110.612 44.2973 111.745 44.7062 112.374 45.5859C112.754 46.1183 113.267 46.5224 113.58 47.0922C113.862 47.6036 114.331 48.111 114.677 48.5893C115.536 49.7783 116.172 51.1425 116.952 52.3849C117.641 53.4811 118.403 54.4532 118.882 55.6784C119.304 56.7563 119.628 57.7297 119.836 58.8706C120.08 60.2138 120.665 61.4751 120.955 62.809C121.206 63.9627 121.163 65.2336 121.163 66.4157C121.163 67.2667 121.111 68.077 121.08 68.9216C121.035 70.1294 120.963 71.2878 120.683 72.4685C120.388 73.7141 120.068 74.9648 119.735 76.1996C119.024 78.8288 117.635 81.1911 116.142 83.4546C115.726 84.0849 115.287 84.7115 114.843 85.3201C114.337 86.0128 113.773 86.5887 113.203 87.2225C112.219 88.3153 111.233 89.4582 110.135 90.4562C109.017 91.4727 107.875 92.4381 106.653 93.3213C106.02 93.7779 105.45 94.279 104.847 94.7723C103.919 95.5314 102.979 96.2836 102.009 97.011" stroke="#093243" stroke-width="2" stroke-linecap="round" stroke-linejoin="round"/>
<path d="M114.198 47.6772C114.499 47.9788 114.943 48.2611 115.193 48.6077C115.398 48.8929 115.589 49.1889 115.814 49.4645C116.405 50.1863 117.065 50.9065 117.597 51.6755C118.096 52.3968 118.624 53.1224 119.131 53.8543C119.683 54.651 120.085 55.5372 120.66 56.3049C121.365 57.2445 121.63 58.4796 122.157 59.5339C122.475 60.1683 122.735 60.7758 122.95 61.4501C123.162 62.1169 123.201 62.8806 123.484 63.5138C123.725 64.0528 123.822 64.839 123.917 65.4208C124.062 66.3045 124.094 67.1908 124.23 68.074C124.358 68.9067 124.503 69.8004 124.378 70.6444C124.231 71.6316 123.952 72.5942 123.816 73.5832C123.613 75.0505 123.19 76.5765 122.738 77.9869C122.258 79.4816 121.674 80.8547 121.043 82.2892C120.55 83.4083 119.999 84.5601 119.338 85.5873C118.611 86.7192 117.745 87.6682 116.915 88.7196C115.91 89.9925 114.519 90.9685 113.378 92.1099C112.956 92.5313 112.479 92.8698 112.005 93.2154C111.325 93.7119 110.711 94.3056 110.01 94.7723C108.804 95.5765 107.673 96.4242 106.422 97.1584C105.15 97.9053 103.564 98.2548 102.424 99.1668" stroke="#093243" stroke-width="2" stroke-linecap="round" stroke-linejoin="round"/>
<path d="M108.311 93.8603C108.85 93.1143 109.559 92.2838 110.467 92.0361" stroke="#093243" stroke-width="2" stroke-linecap="round" stroke-linejoin="round"/>
<path d="M110.301 92.4507C109.634 93.1924 107.715 95.4746 108.449 94.7999C109.025 94.2711 109.518 93.5999 110.034 93.0127C110.661 92.2976 111.279 91.5637 111.784 90.7556C111.802 90.7272 112.15 90.1278 111.959 90.4976C111.889 90.633 111.77 90.7749 111.978 90.5898C112.497 90.1268 112.891 89.4813 113.267 88.9038C113.531 88.4984 114.141 87.2109 114.06 87.6878C113.943 88.3692 113.546 89.0412 113.3 89.6823C113.168 90.0243 113.099 90.1703 113.309 89.7514C113.749 88.8703 114.071 87.9429 114.488 87.0521C114.501 87.0247 115.217 85.6097 115.142 86.2276C115.075 86.7801 114.952 87.379 115.045 87.9365C115.126 88.4194 115.492 87.4132 115.497 87.4022C115.875 86.4347 116.123 85.4202 116.501 84.4541C116.884 83.475 116.741 85.4641 116.856 85.2925C117.125 84.8888 117.157 84.2367 117.27 83.777C117.302 83.6474 117.623 82.1856 117.841 82.7037C118.028 83.1464 117.974 83.6357 117.929 84.0994C117.912 84.2704 117.815 84.6045 118.026 84.2883C118.407 83.7158 118.525 83.002 118.717 82.3536C118.728 82.3167 119.103 81.2064 119.076 81.7134C119.06 82.0245 118.44 84.4213 118.261 84.2422C118.07 84.0515 118.033 83.7663 118.095 83.5144C118.149 83.2922 118.286 83.0939 118.159 83.4684C117.779 84.594 116.009 87.6991 116.45 86.5961C116.592 86.2418 117.151 85.8367 117.381 85.5228C117.818 84.9272 118.144 84.2601 118.509 83.6204C119.131 82.5326 120.002 81.2253 120.002 79.9307" stroke="#093243" stroke-width="2" stroke-linecap="round" stroke-linejoin="round"/>
<path d="M121.328 75.4533C121.056 76.7068 119.913 80.3806 120.352 79.1752C120.834 77.8485 121.365 76.4872 121.973 75.2138C122.086 74.9765 122.437 74.3249 122.452 74.5873C122.471 74.9146 122.291 75.2622 122.337 75.5823C122.461 76.4477 122.647 73.8608 122.756 72.9935C122.771 72.8739 123.169 71.5656 122.784 71.5656C122.662 71.5656 122.814 71.9924 122.821 71.6669C122.836 70.9022 122.664 70.1533 122.664 69.396C122.664 69.1576 122.802 69.5785 122.903 69.2993C123.346 68.0757 122.624 67.0052 122.756 65.8169C122.84 65.0639 122.604 64.1352 122.388 63.4124C122.257 62.9755 122.272 62.4288 122.074 62.0213C121.799 61.4554 121.619 60.9886 121.494 60.363" stroke="#093243" stroke-width="2" stroke-linecap="round" stroke-linejoin="round"/>
<path d="M79.2081 105.551C80.9197 105.105 82.6323 104.654 84.3488 104.224" stroke="#093243" stroke-width="2" stroke-linecap="round" stroke-linejoin="round"/>
<path d="M77.3007 105.966C77.8512 105.658 78.4953 105.524 79.1063 105.385C79.6085 105.271 80.1669 105.072 80.6817 105.054C81.8899 105.01 83.0193 104.351 84.2009 104.16C85.2767 103.986 86.2924 103.696 87.3148 103.331C87.7287 103.183 88.1478 103.059 88.5585 102.898C89.0481 102.706 89.5684 102.346 90.0694 102.235C90.7627 102.08 91.3553 101.679 91.9764 101.369C92.7087 101.002 93.5596 100.709 94.3164 100.392C95.8798 99.7364 97.2827 98.8578 98.8583 98.2132C99.5983 97.9105 100.385 97.7051 101.134 97.3841C101.846 97.0787 102.56 96.7354 103.253 96.3891C104.119 95.9559 104.91 95.3879 105.772 94.9427C106.059 94.7946 106.372 94.7237 106.652 94.5604C106.694 94.536 107.284 94.1745 107.136 94.3715C106.725 94.9197 106.132 95.3782 105.574 95.7672C104.41 96.5801 103.297 97.4832 102.092 98.2362C101.331 98.7115 100.482 99.0151 99.7335 99.5168C98.9903 100.015 96.512 101.07 97.3428 100.737C98.0458 100.456 98.7105 100.139 99.388 99.7932C100.038 99.4614 100.846 99.0047 101.585 98.9226C102.068 98.8689 101.528 99.3163 101.387 99.4569C100.931 99.9129 102.103 99.2441 102.258 99.1667" stroke="#093243" stroke-width="2" stroke-linecap="round" stroke-linejoin="round"/>
<path d="M104.745 97.2596C104.26 98.3644 102.842 98.5923 102.009 99.3325C101.412 99.8634 100.366 100.211 99.6046 100.429C98.3577 100.785 97.1466 101.287 95.938 101.719C94.7972 102.126 93.5616 102.437 92.474 102.981C89.6595 104.388 86.3905 104.601 83.3351 105.219C82.7774 105.332 82.2396 105.37 81.6952 105.551C81.31 105.679 80.9329 105.764 80.5298 105.804C79.7304 105.884 78.9248 105.993 78.1299 106.113C77.3924 106.224 76.5969 106.297 75.8498 106.297C75.6386 106.297 74.7886 106.413 74.7305 106.297" stroke="#093243" stroke-width="2" stroke-linecap="round" stroke-linejoin="round"/>
<path d="M42.809 102.152C44.2417 102.619 45.7473 103.072 47.2495 103.312C48.2496 103.472 49.2381 103.872 50.2298 104.096C51.4574 104.373 52.7026 104.504 53.9194 104.846C55.0081 105.153 56.107 105.226 57.1715 105.634C58.2344 106.041 59.4882 106.218 60.617 106.362C62.7347 106.631 64.8623 106.878 67.0014 106.878C68.9374 106.878 70.8608 107.126 72.787 107.126C73.8393 107.126 74.922 106.821 75.9699 106.717C76.8423 106.629 77.6862 106.604 78.5495 106.426C79.9394 106.14 81.3825 106.082 82.755 105.717C83.528 105.512 84.3553 105.66 85.1135 105.385C85.7046 105.172 86.3375 105.173 86.9238 104.966C87.5164 104.757 88.1215 104.542 88.7433 104.455C89.4794 104.351 90.1726 104.015 90.899 103.856C91.5883 103.705 92.2911 103.545 92.889 103.147" stroke="#093243" stroke-width="2" stroke-linecap="round" stroke-linejoin="round"/>
<path d="M51.183 104.224C52.5643 104.52 53.8728 104.556 55.2964 104.556C56.1242 104.556 56.9931 104.482 57.8161 104.575C58.4555 104.647 59.0849 104.845 59.7277 104.883C61.171 104.968 62.5735 105.385 64.0346 105.385C65.6657 105.385 67.2968 105.551 68.9266 105.551C69.919 105.551 70.8994 105.385 71.893 105.385C73.0086 105.385 74.1657 105.41 75.2741 105.339C76.3022 105.274 77.331 105.162 78.3603 105.137C79.4273 105.11 80.4332 104.767 81.4926 104.717C82.561 104.668 83.6001 104.264 84.6341 104.022C85.8408 103.739 87.0411 103.421 88.2271 103.064C91.65 102.031 95.1085 101.091 98.361 99.5813" stroke="#093243" stroke-width="2" stroke-linecap="round" stroke-linejoin="round"/>
<path d="M92.2256 103.81C93.3693 103.003 94.7693 102.864 96.0074 102.271C97.0285 101.783 98.0573 101.351 99.1259 100.972C99.8388 100.72 100.469 100.214 101.125 99.8485C102.242 99.225 103.34 98.6265 104.414 97.923" stroke="#093243" stroke-width="2" stroke-linecap="round" stroke-linejoin="round"/>
<path d="M27.1265 55.3335C26.5064 55.7174 26.2941 56.1084 26.043 56.7782" stroke="#093243" stroke-width="2" stroke-linecap="round" stroke-linejoin="round"/>
<path d="M26.9458 54.4305C25.8368 55.8945 25.1399 57.5674 25.1399 59.417C25.1399 59.8542 25.0966 60.3171 25.1449 60.7514C25.1869 61.1299 25.3751 61.4788 25.4158 61.845C25.5145 62.7335 26.0548 63.5624 26.3589 64.3733C26.6883 65.2517 27.1657 65.9377 27.8288 66.6007C28.4915 67.2635 29.4317 67.4791 30.2668 67.7946C31.1057 68.1115 31.9603 68.3434 32.8603 68.4217C33.353 68.4645 33.8468 68.5535 34.3452 68.512C34.852 68.4698 35.3078 68.2101 35.8 68.1608C36.0459 68.1362 37.1495 67.7797 37.1495 67.5237C37.1495 67.2339 37.0868 66.9042 37.0542 66.6107C36.9971 66.0968 36.9267 65.993 36.4321 66.2094C35.8553 66.4617 34.7678 66.2596 34.1496 66.2596C33.3676 66.2596 32.6149 66.4402 31.8219 66.4402C31.5396 66.4402 30.7076 66.2773 30.9791 66.3549C31.7574 66.5772 32.3571 67.1018 33.2215 67.1575C33.7621 67.1924 34.2832 66.9129 34.8018 66.987C35.091 67.0283 34.8084 67.0673 34.6914 67.0722C34.3208 67.088 33.9802 67.3331 33.6229 67.3331C33.3541 67.3331 33.0671 67.1854 32.8102 67.1174C32.3477 66.995 31.8712 66.9276 31.4106 66.8013C30.5359 66.5617 30.0129 65.7978 29.2735 65.3566C28.7765 65.06 28.4727 64.7727 28.22 64.2329C28.198 64.1858 27.847 63.3131 27.7786 63.3901C27.654 63.5302 28.068 64.3619 28.1297 64.4937C28.4176 65.1087 28.9278 65.5903 29.3839 66.079" stroke="#093243" stroke-width="2" stroke-linecap="round" stroke-linejoin="round"/>
<path d="M28.3006 63.7312C28.5495 64.3868 28.8716 65.0217 29.4042 65.497C29.6819 65.7447 30.0425 65.9177 30.232 66.2545C30.4299 66.6063 29.9597 66.0185 29.9259 65.9685C29.606 65.4948 29.2825 65.0327 28.9277 64.584C28.4121 63.9319 27.8517 63.2312 27.6685 62.4068C27.4527 61.4358 27.3073 60.5047 27.3073 59.5072C27.3073 59.2497 27.3073 58.9922 27.3073 58.7347C27.3073 58.4818 27.21 59.2314 27.1769 59.4821C27.0853 60.1753 27.0414 61.001 27.1668 61.6944C27.2442 62.1221 27.4778 63.4049 27.3926 62.9787C27.2992 62.5116 27.0832 62.0731 26.9561 61.6142C26.7379 60.8262 26.735 59.9783 26.6953 59.1661C26.6567 58.3784 26.7881 57.6301 27.1719 56.9337C27.3349 56.6378 27.5861 56.3853 27.6685 56.0558" stroke="#093243" stroke-width="2" stroke-linecap="round" stroke-linejoin="round"/>
<path d="M26.946 58.5842C26.8001 57.1497 27.583 55.8703 28.5714 54.882" stroke="#093243" stroke-width="2" stroke-linecap="round" stroke-linejoin="round"/>
<path d="M27.1262 56.4171C27.4536 55.3882 27.8337 54.7163 28.571 53.9791" stroke="#093243" stroke-width="2" stroke-linecap="round" stroke-linejoin="round"/>
<path d="M27.0358 55.2431C27.5068 53.8853 28.5259 52.7978 29.8852 52.3084C30.2462 52.1785 30.6312 52.0855 31.0039 51.9924C31.3062 51.9168 31.6826 51.733 31.9821 51.7215C32.5028 51.7015 33.0059 51.4506 33.5422 51.4506C34.1843 51.4506 34.8279 51.5409 35.4535 51.5409C35.6888 51.5409 36.1119 51.4664 36.3364 51.561C36.5487 51.6503 36.7791 51.7215 37.0137 51.7215C37.6448 51.7215 37.0442 52.8378 36.9485 53.1462C36.8792 53.3693 36.8782 53.5659 36.8782 53.7984C36.8782 54.0275 36.963 54.1464 36.7428 54.0241C36.2462 53.7482 35.486 53.7984 34.9368 53.7984C33.9561 53.7984 32.9795 54.1081 32.0021 54.1595C31.1833 54.2026 30.0402 54.545 29.3384 54.9722C28.7313 55.3417 28.0744 55.6758 27.8685 56.417C27.7714 56.7665 27.6203 57.0915 27.5073 57.4303C27.3872 57.7908 27.4047 58.2014 27.2715 58.5741C27.1299 58.9706 27.6427 57.8178 27.8484 57.4504C27.9254 57.313 28.3921 56.0942 28.1193 56.6879C27.9998 56.948 27.9356 57.2287 27.8484 57.5006C27.831 57.555 27.7189 57.9881 27.7782 57.7113C27.9613 56.857 28.4411 56.1997 28.9421 55.504C29.5224 54.698 30.0241 53.9127 30.9988 53.5776C31.8946 53.2697 30.9016 53.5317 30.5574 53.6178" stroke="#093243" stroke-width="2" stroke-linecap="round" stroke-linejoin="round"/>
<path d="M29.6547 53.979C30.1919 53.5586 30.7346 53.1773 31.4205 53.0459C32.1099 52.9139 32.8588 53.076 33.5575 53.076C34.3653 53.076 33.2488 53.0744 33.0659 53.076C32.8965 53.0775 32.0606 53.1433 32.1178 53.1111C32.9759 52.6284 33.945 52.4578 34.922 52.5543C35.2964 52.5913 35.7248 52.795 36.0658 52.6245" stroke="#093243" stroke-width="2" stroke-linecap="round" stroke-linejoin="round"/>
<path d="M48.5269 53.2567C46.9112 53.2567 45.8607 54.2136 44.8749 55.3787C43.8145 56.6319 43.9227 58.1358 43.7211 59.6478C43.6137 60.4535 43.8396 61.3123 44.0572 62.0958C44.2763 62.8844 44.7272 63.6515 45.1909 64.3182C46.0459 65.5472 47.5745 66.7923 49.159 66.4402C50.0239 66.248 50.6068 65.5633 51.2158 64.9753C51.8583 64.355 52.4745 63.735 52.8612 62.9185C53.6188 61.3193 54.0052 59.7878 53.8495 57.9973C53.7732 57.1197 53.336 56.3233 52.8612 55.6044C52.3467 54.8253 51.5707 54.3643 50.8045 53.8888C50.3411 53.6012 49.9285 53.3192 49.4099 53.1463C49.0268 53.0186 48.5763 53.1664 48.1658 53.1664" stroke="#093243" stroke-width="2" stroke-linecap="round" stroke-linejoin="round"/>
<path d="M48.9784 51.2701C48.5498 51.3537 48.1844 51.2864 47.7594 51.3604C47.3773 51.4268 46.9614 51.557 46.5855 51.6714C45.7833 51.9156 45.0304 52.166 44.2879 52.5744C42.991 53.2877 41.6142 54.5552 41.0322 55.9455C40.3794 57.5049 39.8629 59.5495 40.3299 61.2229C40.9285 63.3681 41.5857 65.7327 43.3348 67.2126C44.6576 68.332 46.2498 68.826 47.9651 68.7878C49.6999 68.7493 51.5174 68.4029 52.9716 67.4334C54.6809 66.2938 56.098 64.6177 56.7892 62.6978C57.159 61.6704 57.0034 60.7356 57.1504 59.6778C57.2987 58.6097 56.7912 57.5283 56.2975 56.6027C55.8199 55.7071 55.3025 54.7949 54.5769 54.0693C53.9413 53.4337 53.0516 53.1052 52.3897 52.5142C51.947 52.119 51.0047 51.9022 50.4282 51.9022C50.1923 51.9022 50.0211 51.8443 49.7961 51.8068C49.6585 51.7839 50.5316 52.0813 50.7492 52.1781C51.685 52.594 52.2238 53.0585 52.8612 53.8486C53.2343 54.311 53.6497 54.7378 53.9949 55.2231C54.1354 55.4206 54.2571 55.6254 54.3361 55.8552C54.364 55.9365 54.3103 56.106 54.3963 56.106C54.5534 56.106 53.9623 54.5354 54.3963 55.6445C54.8914 56.9099 55.6858 58.3006 55.821 59.6678C55.9622 61.0961 55.1072 59.4892 54.8678 59.0959C54.7053 58.8289 54.7599 59.2195 54.7775 59.3266C54.882 59.9631 55.1282 60.5823 55.2992 61.2028C55.3565 61.4105 55.6728 62.2894 55.2992 62.4068C55.0167 62.4956 54.7022 61.9455 54.5769 61.7847C54.4494 61.6212 54.1198 61.1514 54.0551 61.6042C53.983 62.1092 54.0282 62.6712 54.1254 63.1693C54.2618 63.8687 53.8683 64.0288 53.2324 63.691C52.4404 63.2703 52.6965 65.0014 52.5351 65.4318C52.328 65.9842 51.817 66.2957 51.281 66.395C50.9956 66.4478 50.7311 66.4476 50.5185 66.6709C50.3306 66.8682 50.197 67.03 49.9265 67.1123C49.2023 67.3327 48.7526 67.6529 47.945 67.5237C47.2401 67.4109 46.5917 67.05 45.9133 66.8464C45.3704 66.6836 45.0497 66.0566 44.599 65.7227C44.0146 65.2898 43.8597 64.7593 43.5605 64.1124C43.1936 63.319 42.4713 62.8408 42.186 61.9954C41.9791 61.3825 41.5961 60.5814 41.574 59.9387C41.5514 59.2839 41.525 58.4087 41.6843 57.7715C42.0363 56.3637 43.0431 55.3092 43.9217 54.2298C44.1932 53.8963 44.4413 53.6061 44.8448 53.4372C45.1714 53.3005 45.4156 52.9995 45.7277 52.8954" stroke="#093243" stroke-width="2" stroke-linecap="round" stroke-linejoin="round"/>
<path d="M71.1013 51.9022C70.9527 52.2829 70.6982 52.8453 70.6498 53.2567C70.626 53.4587 70.4967 53.8926 70.3789 54.0693" stroke="#093243" stroke-width="2" stroke-linecap="round" stroke-linejoin="round"/>
<path d="M61.6204 53.6178C61.4193 53.8738 61.0786 54.756 61.0786 54.4304" stroke="#093243" stroke-width="2" stroke-linecap="round" stroke-linejoin="round"/>
<path d="M62.0715 53.1664C61.2246 54.2504 60.4841 55.4213 60.8976 56.8686C61.2984 58.2714 62.1091 59.3677 63.3356 60.0491C64.4011 60.641 65.7619 60.9609 66.9074 61.2882C67.1411 61.3549 67.5065 61.3972 67.69 61.544C67.7576 61.5981 67.9004 61.652 67.986 61.6995C68.1336 61.7815 68.1358 61.9187 68.2569 62.0156C68.6072 62.2958 68.7535 63.3273 68.7535 63.7513C68.7535 65.0695 68.1971 66.5304 66.6315 66.5304C66.0233 66.5304 65.3827 66.7103 64.7804 66.7963C64.0149 66.9057 63.2072 66.3498 62.4326 66.3498C62.1162 66.3498 61.7887 66.1516 61.4845 66.084C61.2863 66.0399 61.285 65.9495 61.1484 65.8281C61.0647 65.7538 60.9921 66.274 60.9879 66.3498C60.9671 66.7231 60.6367 67.1005 60.6367 67.4786C60.6367 67.9116 61.8535 68.1062 62.1567 68.201C62.6394 68.3518 63.1256 68.3195 63.6065 68.4468C64.1815 68.599 64.8108 68.6976 65.4075 68.6976C66.1904 68.6976 66.9654 68.6439 67.71 68.4468C69.483 67.9775 70.3325 66.325 71.1464 64.8599C71.3444 64.5036 71.2979 64.0186 71.2116 63.6409C71.1133 63.2109 71.1885 62.8055 71.0561 62.3818C70.7815 61.5032 70.0743 60.9637 69.5662 60.2297C68.4354 58.5963 65.8483 59.2825 64.6449 57.8117C64.1571 57.2155 64.058 56.4956 64.058 55.7399C64.058 55.1765 64.28 54.2988 64.6901 53.8887C65.2093 53.3695 65.9392 52.9235 66.6967 52.8955C67.506 52.8655 68.2325 53.0957 68.9792 53.2617C69.2919 53.3312 69.4923 53.59 69.7468 53.2366C69.9436 52.9632 70.0186 52.5987 70.1029 52.3035C70.2627 51.7445 68.6007 51.8119 68.3522 51.8119C67.5388 51.8119 66.7152 51.9342 65.884 51.9022C65.2634 51.8783 64.2711 52.0784 63.6517 52.3537C62.6543 52.7969 61.8909 53.4732 61.8909 54.6563C61.8909 55.0793 61.8532 55.5258 61.9109 55.9455C61.9777 56.4315 62.7347 57.7231 62.5731 57.2599C62.0943 55.8872 62.6178 54.7811 63.155 53.5276" stroke="#093243" stroke-width="2" stroke-linecap="round" stroke-linejoin="round"/>
<path d="M63.336 53.076C62.6138 54.8374 61.3079 58.0993 63.9229 58.8952C65.2264 59.2919 66.5454 59.6545 67.8509 60.0741C69.3458 60.5546 69.6486 61.8669 69.9077 63.2596C69.9829 63.6637 69.983 64.2491 69.9077 64.6542C69.7772 65.3558 69.2847 65.8564 68.9345 66.4401" stroke="#093243" stroke-width="2" stroke-linecap="round" stroke-linejoin="round"/>
<path d="M67.5796 67.3431C67.2277 67.9061 66.7442 67.9903 66.2251 68.3364" stroke="#093243" stroke-width="2" stroke-linecap="round" stroke-linejoin="round"/>
<path d="M65.5029 53.5275C66.2557 53.6744 67.04 53.6178 67.8055 53.6178C68.3832 53.6178 69.2823 53.6134 69.8372 53.7984" stroke="#093243" stroke-width="2" stroke-linecap="round" stroke-linejoin="round"/>
<path d="M76.6093 51.3603C76.4083 52.4157 76.4287 53.6501 76.4287 54.7214C76.4287 55.2993 76.4436 55.8795 76.4287 56.4571C76.4131 57.0668 76.2481 57.6492 76.2481 58.2631C76.2481 58.9141 76.1699 59.556 76.1578 60.2095C76.1508 60.5905 76.0068 60.9482 75.9823 61.3282C75.9625 61.6343 76.0675 61.9132 76.0675 62.2161C76.0675 62.6519 75.9199 63.0632 75.892 63.4954C75.871 63.821 75.9094 64.149 75.8669 64.4736C75.7798 65.1375 75.8081 65.8656 75.6361 66.5103C75.5463 66.8471 75.7064 67.2187 75.7064 67.5638C75.7064 67.888 75.7189 68.1557 76.0675 68.1557C76.73 68.1557 77.4155 67.9751 78.0541 67.9751C78.6101 67.9751 78.5056 66.5112 78.5056 66.0989C78.5056 65.3515 78.5857 64.6115 78.5959 63.8716C78.6034 63.3267 78.5959 62.7812 78.5959 62.2362C78.5959 61.9173 78.6697 61.5401 78.5056 61.253C78.4012 61.0702 78.2414 61.7349 78.2347 61.7647C78.1055 62.339 78.0137 62.9246 77.9187 63.5054C77.7789 64.3595 77.5682 65.2324 77.3718 66.0739C77.3106 66.3365 76.9381 67.3657 76.8852 66.5203C76.8415 65.8212 76.9904 65.0961 77.0608 64.4034C77.1658 63.3714 77.3066 62.3603 77.5123 61.3433C77.6812 60.5083 77.7715 59.6842 77.8936 58.845C77.9222 58.6479 77.8735 59.5432 77.8785 59.6778C77.883 59.798 77.9638 60.894 77.9638 60.5306C77.9638 59.9024 77.9571 59.2703 78.0992 58.6544C78.2411 58.0398 78.322 58.6471 78.325 58.9253C78.3297 59.3672 78.3188 59.7944 78.2397 60.2296C78.1866 60.5216 78.3687 59.6498 78.4153 59.3567C78.4855 58.9147 78.3444 57.6017 78.5106 58.0173C78.8129 58.7729 78.402 59.9499 78.33 60.7413C78.2504 61.6168 78.4399 59.9387 78.4604 59.758C78.5354 59.0987 78.6132 58.4328 78.6661 57.7715C78.6991 57.3593 78.7771 56.1438 78.8668 56.5474C78.9252 56.8105 79.0653 57.3845 78.937 57.6411C78.8857 57.7437 78.5739 56.7668 78.5608 56.6879C78.5323 56.5169 78.4345 55.4093 78.7564 55.3736C78.7928 55.3695 78.4086 56.5475 78.3651 56.6327C78.3245 56.7123 77.9144 57.4424 77.8936 57.3501C77.7721 56.8122 78.0102 56.0584 78.0992 55.5241C78.1477 55.2333 78.3704 54.3668 78.3049 55.193C78.2731 55.595 78.276 56.366 78.014 56.703C77.7744 57.0109 77.9741 55.9112 78.0742 55.5341C78.182 55.1275 78.3482 54.7742 78.6862 54.5208" stroke="#093243" stroke-width="2" stroke-linecap="round" stroke-linejoin="round"/>
<path d="M79.5896 54.4305C79.6182 55.5323 80.0905 56.4016 80.312 57.4505C80.4144 57.9356 80.4753 58.4255 80.6732 58.8852C80.7917 59.1607 80.951 59.3963 81.0344 59.6879C81.2091 60.2994 81.2584 60.9234 81.4357 61.534C81.6264 62.191 81.8121 62.8378 81.9825 63.5005C82.2034 64.3596 82.5375 65.1961 82.8403 66.0288C83.0166 66.5135 83.4724 67.1058 83.4724 67.614" stroke="#093243" stroke-width="2" stroke-linecap="round" stroke-linejoin="round"/>
<path d="M83.7433 67.2528C84.0377 67.4251 85.5635 68.037 85.8201 67.5237" stroke="#093243" stroke-width="2" stroke-linecap="round" stroke-linejoin="round"/>
<path d="M77.3317 51.2701C78.0922 51.5346 78.7716 51.6379 79.564 51.5058C80.116 51.4138 79.2018 51.8695 79.0473 51.9022C78.5298 52.0114 76.9827 52.1644 77.5022 52.2633C78.1335 52.3836 79.2903 52.3709 79.7697 52.8503C79.9111 52.9917 79.248 53.1061 79.2179 53.1111C78.7207 53.194 78.2207 53.1424 77.723 53.0961C77.1162 53.0396 78.1612 53.4015 78.3249 53.4322C78.6156 53.4867 79.5035 53.3469 79.2079 53.3469C78.6545 53.3469 79.2279 53.3168 79.4988 53.2566" stroke="#093243" stroke-width="2" stroke-linecap="round" stroke-linejoin="round"/>
<path d="M80.5823 51.541C80.9016 53.4567 81.215 55.5158 81.9367 57.32" stroke="#093243" stroke-width="2" stroke-linecap="round" stroke-linejoin="round"/>
<path d="M80.6729 52.173C80.8768 53.8234 81.5836 55.3232 82.1226 56.8835C82.4628 57.8682 83.1109 59.8483 83.1109 59.8483" stroke="#093243" stroke-width="2" stroke-linecap="round" stroke-linejoin="round"/>
<path d="M81.3054 51.3603C81.9221 54.2755 82.9983 57.0213 83.7886 59.8784C84.0203 60.7162 84.2796 61.5662 84.4257 62.4268C84.5121 62.9354 84.5532 63.4491 84.6515 63.9569C84.729 64.3576 84.9074 64.6979 84.9173 65.1157C84.9227 65.3415 84.745 64.5967 84.7167 64.5238C84.3585 63.6005 83.8044 62.7829 83.3973 61.8851C83.076 61.1763 82.8978 60.4187 82.6398 59.6878C82.6019 59.5805 82.065 58.7302 82.0429 58.83C81.9685 59.1645 82.3554 59.9215 82.4392 60.2296C82.712 61.2337 82.9069 62.3268 83.3823 63.2596C83.7659 64.0125 84.2674 64.6888 84.6464 65.4468" stroke="#093243" stroke-width="2" stroke-linecap="round" stroke-linejoin="round"/>
<path d="M84.8265 66.0789C85.2083 65.0844 85.493 64.0643 85.875 63.074C86.1543 62.3498 86.5946 61.6107 86.7228 60.8416" stroke="#093243" stroke-width="2" stroke-linecap="round" stroke-linejoin="round"/>
<path d="M85.0076 66.4402C85.6997 65.5593 85.872 64.4937 86.4523 63.5506" stroke="#093243" stroke-width="2" stroke-linecap="round" stroke-linejoin="round"/>
<path d="M85.5487 67.4334C86.3636 65.3723 87.09 63.2812 87.8764 61.2029C88.1171 60.5668 88.2313 59.8679 88.5285 59.2565C88.8134 58.6704 89.096 58.1154 89.3211 57.5007C89.5347 56.9174 89.7272 56.3368 89.9733 55.7649C90.1169 55.4313 90.4442 54.7596 90.3345 54.4305" stroke="#093243" stroke-width="2" stroke-linecap="round" stroke-linejoin="round"/>
<path d="M85.8202 62.467C86.0233 61.0247 86.6808 59.726 87.265 58.4036C87.3758 58.1526 88.202 56.3268 88.0776 56.3268" stroke="#093243" stroke-width="2" stroke-linecap="round" stroke-linejoin="round"/>
<path d="M85.5487 62.1058C85.5753 61.1739 85.8609 60.3486 86.1858 59.4821C86.519 58.5937 86.7946 57.6434 87.1791 56.7782C87.5886 55.8568 87.9254 54.8812 88.368 53.979C88.683 53.3368 88.8893 52.5348 89.2961 51.9473C89.3658 51.8466 89.6121 51.126 89.6121 51.4506" stroke="#093243" stroke-width="2" stroke-linecap="round" stroke-linejoin="round"/>
<path d="M88.6193 55.4238C89.1093 54.8457 89.5488 54.2526 90.1543 53.7984" stroke="#093243" stroke-width="2" stroke-linecap="round" stroke-linejoin="round"/>
<path d="M89.8835 52.173C90.5653 52.0724 91.2488 52.0045 91.9303 51.9072C91.9927 51.8982 91.6271 51.8161 91.5591 51.7918C91.2452 51.6797 90.9342 51.5647 90.6059 51.5008C90.0789 51.3983 89.8177 51.4506 90.5257 51.4506C90.9848 51.4506 92.3594 51.5409 91.9002 51.5409C91.5101 51.5409 91.1193 51.5236 90.7364 51.6112C90.7031 51.6188 91.4453 51.5409 91.6694 51.5409C92.2571 51.5409 92.8294 51.6312 93.4052 51.6312" stroke="#093243" stroke-width="2" stroke-linecap="round" stroke-linejoin="round"/>
<path d="M91.4186 52.8954C91.2867 53.621 91.3283 54.3577 91.3283 55.0926C91.3283 55.397 91.3283 55.7013 91.3283 56.0056C91.3283 56.2532 91.3277 55.51 91.3082 55.2632C91.251 54.5382 91.1477 53.8365 91.1477 53.1061C91.1477 52.4049 91.291 54.5011 91.3684 55.198C91.3845 55.3425 91.4692 56.8833 91.6494 56.3919C91.9654 55.53 92.1656 54.6515 92.3216 53.7482C92.3572 53.542 92.3584 53.1443 92.4821 52.9656C92.6554 52.7153 92.5022 53.5742 92.5022 53.8786C92.5022 54.5074 92.5022 55.1361 92.5022 55.7649C92.5022 56.2836 92.3807 56.9856 92.5473 57.4855C92.6714 57.8578 92.6743 56.7089 92.6878 56.3167C92.7151 55.5235 92.7816 54.7275 92.9035 53.9438C92.9516 53.6349 92.7987 52.7706 92.9988 53.0108C93.2651 53.3303 93.044 54.5746 93.044 54.9722C93.044 56.6308 92.8634 58.2815 92.8634 59.9386C92.8634 60.5239 92.8634 61.1091 92.8634 61.6944C92.8634 61.8906 92.9454 62.8117 92.8634 62.6476" stroke="#093243" stroke-width="2" stroke-linecap="round" stroke-linejoin="round"/>
<path d="M91.5988 56.1462C91.5133 57.2237 91.3949 58.3108 91.5587 59.3869C91.5659 59.4345 91.6891 60.1909 91.6891 59.8484" stroke="#093243" stroke-width="2" stroke-linecap="round" stroke-linejoin="round"/>
<path d="M91.3279 55.4237C90.9772 56.5414 91.1473 57.8071 91.1473 58.9654C91.1473 59.9232 91.207 60.8645 91.2376 61.8148C91.2768 63.0297 91.5085 64.2184 91.5085 65.4418C91.5085 66.1612 91.4662 66.8953 91.5085 67.6139C91.54 68.1498 92.8136 67.7945 93.0887 67.7945C93.3295 67.7945 93.5703 67.7945 93.8111 67.7945C94.4497 67.7945 93.7066 66.6157 93.6807 66.2143C93.5681 64.4701 92.9828 62.6143 93.2944 60.8617C93.4206 60.1517 93.3145 59.3565 93.3145 58.6343C93.3145 57.8501 93.3145 57.0658 93.3145 56.2816C93.3145 55.2985 93.1108 54.3568 93.1339 53.3669C93.1387 53.1608 93.2242 52.5487 93.2242 52.7549C93.2242 53.1397 93.1958 53.5067 93.1539 53.8887C93.0432 54.8993 93.0561 56.0136 93.0436 57.029C93.0191 59.0116 93.1339 60.9782 93.1339 62.9586C93.1339 63.6645 93.1024 64.3836 93.0385 65.0856C93.0107 65.3923 92.9533 65.6775 92.9533 65.9886C92.9533 66.077 92.9953 66.6195 92.9332 66.3297C92.8103 65.7561 92.7428 65.2023 92.7024 64.614C92.6605 64.0038 92.503 63.2159 92.7024 62.6175C92.8189 62.2679 92.854 63.3427 92.863 63.7111C92.8768 64.2788 93.0332 64.8029 93.1339 65.3565C93.1686 65.5473 93.4653 67.0751 93.5853 66.3849C93.7171 65.6272 93.6756 64.8594 93.6756 64.0923C93.6756 63.4463 93.7659 62.7983 93.7659 62.1459C93.7659 61.464 93.6756 60.8034 93.6756 60.1192C93.6756 57.6764 93.3145 55.243 93.3145 52.8051" stroke="#093243" stroke-width="2" stroke-linecap="round" stroke-linejoin="round"/>
<path d="M99.5453 51.0895C99.4527 51.6353 99.3647 52.1616 99.3647 52.7149" stroke="#093243" stroke-width="2" stroke-linecap="round" stroke-linejoin="round"/>
<path d="M99.4553 51.3603C99.4553 53.1759 99.5047 54.9962 99.5456 56.7983C99.5942 58.936 99.8165 61.0696 99.8165 63.2094C99.8165 64.1527 99.7519 65.1035 99.7262 66.0287C99.7176 66.3393 99.5614 67.6851 99.9068 67.7042C100.266 67.7242 101.3 68.263 101.151 67.5036C100.748 65.4446 100.875 63.4787 100.985 61.3884C101.076 59.6636 100.724 57.9127 100.945 56.1863C101.095 55.0208 101.171 53.8417 101.171 52.6697C101.171 52.2376 100.974 51.6223 100.584 51.4055C100.442 51.3267 101.296 51.4429 101.512 51.4506C101.764 51.4596 101.894 51.745 101.984 51.9473C102.194 52.4212 101.984 53.0371 101.984 53.5476C101.984 54.569 101.893 55.5782 101.893 56.5976C101.893 58.4997 101.776 60.3778 101.888 62.2814C101.956 63.4344 102.074 64.5609 102.074 65.7227C102.074 66.3832 102.074 67.0437 102.074 67.7042" stroke="#093243" stroke-width="2" stroke-linecap="round" stroke-linejoin="round"/>
<path d="M104.241 52.3537C103.799 52.2612 103.405 52.115 102.987 51.9523C102.623 51.8108 103.567 51.9925 103.729 51.9925C103.917 51.9925 104.473 51.9022 103.96 51.9022C103.472 51.9022 103.01 51.7865 102.53 51.7266C102.091 51.6717 101.46 51.4933 102.345 51.6513C103.1 51.7863 103.794 51.6659 104.542 51.7416C104.728 51.7605 105.6 51.8487 105.144 51.9925C104.444 52.2127 103.698 52.261 102.997 52.4841C102.666 52.5892 103.82 52.6132 103.985 52.6195C104.128 52.625 105.491 52.4949 105.084 52.6697C104.539 52.9029 103.715 52.9368 103.122 52.9807C102.611 53.0186 103.11 53.1075 103.358 53.1463C103.949 53.2386 104.639 53.3618 105.234 53.2767C105.784 53.1981 106.284 53.1663 106.839 53.1663C107.523 53.1663 108.207 53.1663 108.891 53.1663C108.991 53.1663 109.117 53.2272 109.117 53.1663C109.117 52.8879 109.207 52.625 109.207 52.3537C109.207 52.036 109.195 51.7476 109.207 51.4306C109.217 51.1766 109.155 51.1466 108.936 51.25C108.511 51.4515 107.685 51.541 107.216 51.541C106.493 51.541 105.771 51.541 105.048 51.541C104.648 51.541 104.263 51.6313 103.88 51.6313C103.344 51.6313 102.592 51.4696 102.164 51.8119" stroke="#093243" stroke-width="2" stroke-linecap="round" stroke-linejoin="round"/>
<path d="M102.615 58.223C103.359 58.2352 104.096 58.3847 104.832 58.4036C105.316 58.416 105.835 58.5811 106.317 58.4738C106.718 58.3847 107.161 58.4939 107.582 58.4939C107.837 58.4939 108.091 58.4154 108.304 58.4036C108.621 58.386 108.769 58.3522 108.755 58.6946C108.742 59.0423 108.68 59.4007 108.665 59.7581C108.662 59.8407 108.596 60.7744 108.485 60.7313C108.078 60.5732 107.756 60.5708 107.316 60.5708C106.439 60.5708 105.461 60.3773 104.602 60.6159C104.181 60.7328 103.594 60.6992 103.162 60.656C102.817 60.6216 101.8 60.5506 102.139 60.4754C103.205 60.2384 104.21 59.6678 105.319 59.6678C105.419 59.6678 106.148 59.6745 105.695 59.6678C105.108 59.659 104.514 59.5896 103.929 59.5323C103.825 59.5221 102.799 59.5312 103.197 59.5975C103.825 59.7021 104.504 59.7419 105.138 59.7079C105.681 59.6788 107.312 59.6678 106.769 59.6678" stroke="#093243" stroke-width="2" stroke-linecap="round" stroke-linejoin="round"/>
<path d="M103.699 65.6274C104.26 65.7343 104.742 65.8894 105.284 66.0589C105.857 66.238 104.084 65.9987 103.483 65.9987C103.132 65.9987 101.978 66.1708 102.926 66.3498C103.832 66.5209 104.792 66.4401 105.71 66.4401C106.482 66.4401 104.187 66.7253 103.458 66.9769C103.438 66.9836 102.748 67.2486 102.766 67.2729C102.906 67.4666 103.563 67.4876 103.769 67.5237C103.975 67.5598 105.598 67.614 104.762 67.614C104.25 67.614 103.752 67.7043 103.247 67.7043C102.912 67.7043 103.22 67.7904 103.378 67.8147C104.01 67.9119 104.635 68.0213 105.274 67.93C105.877 67.8439 106.488 67.8626 107.08 67.9702C107.42 68.032 107.85 67.9884 108.193 67.9752C108.536 67.962 108.865 67.9752 109.207 67.9752C109.692 67.9752 109.478 66.2303 109.478 65.8532C109.478 65.2998 108.799 65.6274 108.484 65.6274C107.789 65.6274 107.1 65.808 106.408 65.808C105.703 65.808 105.038 65.9886 104.331 65.9886C103.944 65.9886 103.585 65.8983 103.197 65.8983C103.083 65.8983 102.399 65.769 102.73 65.8582C103.978 66.1942 105.404 66.3217 106.698 66.3498C106.971 66.3558 108.234 66.4994 108.033 66.8013" stroke="#093243" stroke-width="2" stroke-linecap="round" stroke-linejoin="round"/>
<path d="M47.1789 74.9104C47.025 75.324 47.1013 75.5837 47.1013 75.9959" stroke="#093243" stroke-width="2" stroke-linecap="round" stroke-linejoin="round"/>
<path d="M47.2572 74.6777C47.2908 76.0554 47.3347 77.4393 47.3347 78.8259C47.3347 80.3282 47.3347 81.8468 47.3347 83.3618C47.3347 84.9833 47.4898 86.6171 47.4898 88.2466C47.4898 88.8974 47.4123 89.5263 47.4123 90.1677C47.4123 90.3415 47.339 91.2338 47.4123 91.2705" stroke="#093243" stroke-width="2" stroke-linecap="round" stroke-linejoin="round"/>
<path d="M47.722 74.7554C48.2003 74.6119 48.6258 74.7554 49.1177 74.7554C49.4168 74.7554 49.6178 74.8003 49.8931 74.9104" stroke="#093243" stroke-width="2" stroke-linecap="round" stroke-linejoin="round"/>
<path d="M50.2804 74.7552C50.2804 75.6403 50.5387 76.5411 50.3967 77.4216C50.2984 78.0312 50.2804 78.7497 50.2804 79.3643C50.2804 80.7323 50.2804 82.0977 50.2804 83.4565C50.2804 85.8618 50.1253 88.2448 50.1253 90.6502C50.1253 90.9828 50.0117 91.0379 49.6945 91.0379C49.5386 91.0379 48.9827 91.1989 48.8847 91.1412C48.682 91.022 48.8109 90.2282 48.8244 90.0557C48.8902 89.2147 49.0126 88.3813 49.0355 87.5358C49.082 85.8131 49.2724 84.095 49.2724 82.371C49.2724 81.4638 49.4584 80.5843 49.505 79.6831C49.5387 79.0312 49.5023 78.3972 49.6213 77.749C49.7664 76.9588 49.6906 76.2669 49.6601 75.4875C49.6471 75.157 49.4892 75.3674 49.4102 75.5478C49.1134 76.2263 48.9622 76.8403 48.9622 77.581C48.9622 78.385 48.8048 79.2407 48.9622 80.0277" stroke="#093243" stroke-width="2" stroke-linecap="round" stroke-linejoin="round"/>
<path d="M50.4358 76.306C51.1466 76.306 51.8573 76.306 52.5681 76.306C53.1664 76.306 53.9568 76.2681 54.528 76.4438C55.5718 76.765 56.1735 78.027 56.1735 79.0801C56.1735 80.255 55.1432 81.3223 54.08 81.5957C53.3053 81.7949 52.5999 81.8111 51.797 81.8111C51.6944 81.8111 50.8 81.9561 50.9183 82.104C51.1837 82.4357 52.0207 82.3538 52.3743 82.3538C52.892 82.3538 53.3461 82.1101 53.8431 82.048C54.2091 82.0022 54.6522 81.9605 55.0062 81.8498C55.6796 81.6394 56.6432 81.6524 57.1987 81.208C57.2853 81.1388 57.4892 81.1516 57.6036 81.0788C57.7098 81.0113 57.8029 80.944 57.9138 80.8806C58.1646 80.7373 58.4683 80.3567 58.6073 80.1096C58.8361 79.7028 58.848 79.3005 58.9476 78.8647C59.0634 78.358 58.8437 77.9009 58.8098 77.4087C58.7648 76.7568 57.7325 75.8969 57.2246 75.5737C56.4852 75.1032 55.461 74.7798 54.5797 74.7553C53.8828 74.7359 53.1268 74.6002 52.4173 74.6002C52.0469 74.6002 51.6764 74.6002 51.306 74.6002C51.1084 74.6002 50.1236 74.7546 50.3583 74.8328" stroke="#093243" stroke-width="2" stroke-linecap="round" stroke-linejoin="round"/>
<path d="M56.329 76.4612C56.2256 75.5447 56.3049 76.3417 56.3463 76.7369C56.3763 77.0237 56.4449 77.3479 56.734 77.0987C56.92 76.9383 57.225 76.8277 57.225 77.1676C57.225 77.3314 57.0408 78.2061 57.0613 78.1928C57.1641 78.1263 57.8142 77.4869 57.6902 77.9516C57.5973 78.3002 57.1687 78.7925 57.2336 79.1577C57.2611 79.3121 57.5712 79.3874 57.4749 79.5626C57.3487 79.792 57.1279 79.9303 57.0269 80.1829" stroke="#093243" stroke-width="2" stroke-linecap="round" stroke-linejoin="round"/>
<path d="M50.9009 83.8271C51.6225 83.5455 52.3167 83.4394 53.0891 83.4394C53.7634 83.4394 54.3178 83.7308 54.9715 83.8314C55.5107 83.9143 56.0131 84.4782 56.3456 84.8523C56.7202 85.2737 56.7518 85.9066 56.8669 86.4245C56.9584 86.8367 56.6112 87.5784 56.3629 87.8977C56.0265 88.3302 55.541 88.8336 55.0275 89.0048C54.3613 89.2269 53.6678 89.4872 52.9556 89.4872C52.5863 89.4872 52.243 89.6423 51.8744 89.6423C51.5604 89.6423 51.4358 89.5183 51.1335 89.7198" stroke="#093243" stroke-width="2" stroke-linecap="round" stroke-linejoin="round"/>
<path d="M47.722 91.0379C48.6213 91.0379 49.4987 91.193 50.397 91.193C51.171 91.193 51.9449 91.193 52.7188 91.193C53.5066 91.193 54.4044 91.298 55.1655 90.9776C55.7445 90.7338 56.4872 90.8767 57.0609 90.5899C57.8404 90.2001 58.4437 89.4472 58.926 88.7506C59.411 88.0501 59.7262 86.8259 59.4688 86.0023C59.1892 85.1077 58.5912 84.111 57.7242 83.6547C57.3219 83.443 56.8611 83.3631 56.4664 83.1292C56.0984 82.9111 54.8153 82.7415 55.2431 82.7415" stroke="#093243" stroke-width="2" stroke-linecap="round" stroke-linejoin="round"/>
<path d="M57.8022 85.6103C57.1628 84.6034 57.6363 85.4451 57.7677 85.9636C57.9753 86.7824 57.6418 85.5652 57.6126 85.5457C57.5042 85.4735 57.7524 85.7657 57.8194 85.8774C58.0148 86.2031 58.1199 86.554 58.1726 86.9285C58.2582 87.5362 58.2258 87.2264 57.8453 87.0534C57.5896 86.9372 57.3973 88.049 57.3757 88.169C57.3698 88.2022 57.2536 88.8202 57.2422 88.8152C57.2106 88.8011 57.1665 88.6065 57.1647 88.6084C56.9506 88.8225 56.8586 89.2283 56.6779 89.4785C56.4784 89.7548 56.1029 89.7132 55.8638 89.9524" stroke="#093243" stroke-width="2" stroke-linecap="round" stroke-linejoin="round"/>
<path d="M64.4698 75.2981C64.4698 75.449 64.5248 76.7544 64.4698 76.0131C64.4565 75.8332 64.4133 75.5382 64.332 75.3756C64.332 75.3755 64.2958 75.9537 64.332 76.1165C64.3943 76.3969 64.3355 76.6902 64.3966 76.9651C64.4581 77.2419 64.4698 77.4846 64.4698 77.7749C64.4698 77.9856 64.3769 78.5271 64.4871 78.6924C64.6371 78.9175 64.4602 79.2371 64.5646 79.485C64.6885 79.7792 64.6249 80.1713 64.6249 80.4887C64.6249 83.4814 64.78 86.4819 64.78 89.4829C64.78 89.9666 64.8575 90.4296 64.8575 90.9216C64.8575 91.5119 65.7427 91.193 66.0981 91.193C66.2778 91.193 66.5554 91.1378 66.7184 91.2102C66.7608 91.2291 66.9423 91.3615 66.9036 91.2533C66.7851 90.9213 66.6674 90.5977 66.6021 90.2496C66.4549 89.4645 66.2532 88.7114 66.2532 87.9106C66.2532 87.2927 66.3574 90.3535 66.1756 89.7629C66.0525 89.3628 66.0684 88.8659 66.1067 88.4534C66.1279 88.2253 66.3934 87.7413 66.5806 88.1432C66.6651 88.3248 66.7499 88.9261 66.7141 88.7291C66.6363 88.3013 66.5929 87.867 66.5289 87.4368C66.2848 85.7979 66.0454 84.1542 66.0206 82.4917C65.9985 81.012 65.5376 79.5615 65.4046 78.098C65.3673 77.6874 65.4415 77.2671 65.396 76.8574C65.3793 76.7076 65.2949 76.6017 65.34 76.4439C65.3822 76.2962 65.528 76.0826 65.3227 76.151" stroke="#093243" stroke-width="2" stroke-linecap="round" stroke-linejoin="round"/>
<path d="M64.7028 75.0654C65.5187 75.3265 66.2583 75.3756 67.1064 75.3756" stroke="#093243" stroke-width="2" stroke-linecap="round" stroke-linejoin="round"/>
<path d="M67.1836 75.5306C67.1836 77.0991 67.4162 78.653 67.4162 80.2173C67.4162 81.5912 67.381 83.0124 67.2568 84.3784C67.1882 85.1338 67.1061 85.8205 67.1061 86.5839C67.1061 87.2663 67.1836 87.9324 67.1836 88.617C67.1836 89.1126 67.1334 89.6241 67.2439 90.1074C67.3208 90.4436 67.144 90.9009 67.3387 91.193" stroke="#093243" stroke-width="2" stroke-linecap="round" stroke-linejoin="round"/>
<path d="M66.2534 76.5387C66.2033 77.1212 66.1708 77.6665 66.2534 78.2445" stroke="#093243" stroke-width="2" stroke-linecap="round" stroke-linejoin="round"/>
<path d="M64.4695 75.6083C64.4368 77.0146 64.2369 78.4153 64.2369 79.8124C64.2369 80.3222 64.2369 80.8319 64.2369 81.3416C64.2369 82.0364 64.3838 82.9261 64.1982 83.5945C64.0024 84.2994 64.1714 85.2078 64.1594 85.9378C64.1452 86.8057 64.0819 87.6569 64.0819 88.5267C64.0819 89.1047 63.9288 89.9246 64.0991 90.478C64.1541 90.6568 64.1462 91.471 64.2369 91.4256" stroke="#093243" stroke-width="2" stroke-linecap="round" stroke-linejoin="round"/>
<path d="M76.9143 78.0506C77.6905 77.2744 78.6994 76.82 79.7444 76.6161C80.2664 76.467 81.0657 76.7027 81.532 76.965C81.8393 77.1379 82.2718 77.392 82.4969 77.6672C82.7929 78.0289 82.9353 78.4512 83.1948 78.8259C83.6382 79.4664 84.0584 80.4241 84.0864 81.208C84.1153 82.0159 84.3769 82.8344 84.2243 83.6547C84.0723 84.4716 83.9408 85.2416 83.6987 86.0282C83.4833 86.7283 83.2507 87.6781 82.7209 88.2078C81.7558 89.1729 80.1731 89.8758 78.814 89.2718C78.5014 89.1328 78.1568 89.0055 77.8448 88.8668C77.5159 88.7207 77.234 88.4662 76.9143 88.3241C76.2993 88.0507 76.0344 87.0359 75.747 86.502C75.4183 85.8915 75.1945 84.8481 75.1698 84.1544C75.1416 83.3657 75.0508 82.518 75.2301 81.7335C75.5144 80.4897 76.0094 78.9554 76.9143 78.0506Z" stroke="#093243" stroke-width="2" stroke-linecap="round" stroke-linejoin="round"/>
<path d="M78.3485 74.8329C77.703 74.9558 76.9699 75.1259 76.4876 75.6082C76.084 76.0119 75.5758 76.2324 75.1695 76.6162C74.8142 76.9518 74.4908 77.3297 74.1228 77.6242C73.7716 77.9051 73.5786 78.2932 73.2742 78.5977C73.1997 78.6722 73.2176 78.8436 73.1708 78.9423C73.1121 79.0662 73.0028 79.1361 72.9382 79.2524C72.8041 79.4938 72.6385 79.9195 72.6108 80.1829C72.5511 80.7501 72.2727 81.2971 72.1499 81.8499C72.0158 82.4533 72.0853 83.0869 71.9733 83.6892C71.8999 84.0838 71.9352 84.287 72.0508 84.6627C72.1378 84.9453 72.0098 85.2513 72.1284 85.5329C72.4917 86.3957 72.9059 87.2517 73.3259 88.0916C73.7387 88.9173 74.4292 89.5223 75.0532 90.1463C75.4903 90.5834 76.099 90.9134 76.6427 91.193C77.1912 91.4751 77.9176 91.7358 78.5466 91.7358C79.3473 91.7358 79.9206 91.5592 80.6746 91.3653C80.9693 91.2895 81.2574 91.1557 81.5275 91.0207C81.7434 90.9128 82.0062 91.0613 82.0702 90.8053" stroke="#093243" stroke-width="2" stroke-linecap="round" stroke-linejoin="round"/>
<path d="M75.1697 88.7118C75.533 89.48 75.8785 89.6446 76.505 90.1247C76.8421 90.383 77.0777 90.6805 77.4958 90.788C77.8644 90.8828 78.1901 91.0808 78.5813 91.0206C78.9462 90.9645 79.2973 90.9603 79.6668 90.9603" stroke="#093243" stroke-width="2" stroke-linecap="round" stroke-linejoin="round"/>
<path d="M72.9987 83.9046C73.3249 84.8705 73.5858 85.756 74.2048 86.5667C74.2622 86.6418 74.9604 87.5248 74.8035 87.2473C74.2905 86.3396 73.7797 85.2863 73.6189 84.2492C73.5658 83.9066 73.5451 83.5617 73.5414 83.2154C73.5414 83.2154 73.52 82.7921 73.5845 82.8751C73.6337 82.9383 73.9205 83.5865 73.9205 83.2542C73.9205 82.5453 73.6002 81.8591 73.6189 81.1478C73.622 81.0316 74.0861 81.2039 74.2306 81.1478C74.5718 81.0151 74.5243 80.1737 74.5494 79.8727" stroke="#093243" stroke-width="2" stroke-linecap="round" stroke-linejoin="round"/>
<path d="M74.4723 79.4075C74.5248 78.9351 74.4364 78.6399 74.8772 78.5374C75.1656 78.4703 75.2807 78.2559 75.4027 78.0119" stroke="#093243" stroke-width="2" stroke-linecap="round" stroke-linejoin="round"/>
<path d="M76.8757 76.151C77.3382 76.0724 77.8067 75.9027 78.2671 75.8451C78.4594 75.8211 78.6235 75.8726 78.8141 75.8408" stroke="#093243" stroke-width="2" stroke-linecap="round" stroke-linejoin="round"/>
<path d="M79.0466 74.8329C79.3053 74.8833 80.0856 74.9879 79.822 74.9879C79.5805 74.9879 78.8764 75.1175 79.0983 75.0224C79.6259 74.7963 80.4795 74.7773 81.0281 75.0267C82.7914 75.8282 84.4817 76.929 84.8618 79.0198C85.0324 79.9579 85.4109 80.8168 85.5769 81.7508C85.8035 83.0256 85.4225 84.2839 85.1548 85.5156C84.9559 86.4303 84.3395 87.2221 83.8711 87.9968C83.4547 88.6855 82.6953 89.2184 82.3807 89.9524" stroke="#093243" stroke-width="2" stroke-linecap="round" stroke-linejoin="round"/>
<path d="M79.7449 91.5031C80.9858 91.9874 82.8773 91.5522 83.8931 90.7622C84.6698 90.1581 85.4126 89.3667 86.0081 88.5568C86.6701 87.6565 87.3657 86.6892 87.4942 85.5328C87.6275 84.3331 87.7336 83.0771 87.5717 81.8628C87.4122 80.6663 86.6615 79.4579 86.1028 78.3995C85.5081 77.2726 84.5265 76.2975 83.3891 75.7288C83.0631 75.5658 82.6727 75.2776 82.3036 75.2248C82.1401 75.2015 81.5572 75.085 81.5282 75.143" stroke="#093243" stroke-width="2" stroke-linecap="round" stroke-linejoin="round"/>
<path d="M86.4901 81.5785C86.3749 82.5871 86.4547 83.6373 86.292 84.6369C86.1968 85.2217 86.1616 85.8983 85.9818 86.4633C85.7388 87.227 85.0377 87.5847 84.7068 88.2467" stroke="#093243" stroke-width="2" stroke-linecap="round" stroke-linejoin="round"/>
</svg>
