<svg width="136" height="136" viewBox="0 0 136 136" fill="none" xmlns="http://www.w3.org/2000/svg">
<path d="M25.7405 68.8347C26.2736 69.2663 29.6144 71.5844 29.6144 72.2356C29.6144 72.4689 26.5422 69.7134 26.2728 69.367" stroke="#093243" stroke-width="3" stroke-linecap="round" stroke-linejoin="round"/>
<path d="M31.0638 73.3593C32.2038 74.1953 33.267 75.0997 34.3611 75.9912C35.446 76.8753 34.6892 76.6748 33.9323 76.0504C32.318 74.7186 28.1941 69.9573 29.6739 71.4371C31.3006 73.0638 32.775 74.8497 34.6125 76.2278C36.5733 77.6985 30.8148 73.1279 28.9346 71.5554C28.2085 70.9481 25.8419 68.2609 27.6482 70.6091C28.5373 71.7649 29.4862 72.8463 30.5167 73.8768C31.7297 75.0898 31.1898 74.5694 30.2358 73.729C28.7448 72.4155 27.5185 70.8938 26.214 69.4262C26.0708 69.2651 26.851 70.338 26.9237 70.4317C27.1902 70.7751 28.8163 72.0425 28.8163 72.4426C28.8163 72.555 28.6401 72.303 28.5502 72.2356C27.9333 71.7729 27.3119 71.3176 26.7019 70.8457C26.184 70.4451 25.2085 69.9805 25.2085 69.2192C25.2085 68.663 25.4098 67.5035 25.9034 67.1196C27.6216 65.7833 31.3235 68.8357 32.2467 69.9585C34.2742 72.4244 36.4196 74.7043 38.516 77.1002C39.316 78.0144 40.2384 78.9445 40.9114 79.9539C41.5804 80.9574 39.6118 79.7956 39.2553 79.6286C37.3902 78.7551 35.5179 77.4561 33.8288 76.2574C33.2231 75.8275 29.1503 72.2147 31.4187 74.4831C32.484 75.5483 33.6568 76.5011 34.7308 77.5586C35.0356 77.8588 35.8593 79.0378 36.3277 79.0963C37.0896 79.1916 35.2079 78.0435 34.6125 77.5586C33.1171 76.3407 31.6214 75.0809 30.0584 73.9508C27.4775 72.0846 30.5294 74.95 31.1969 75.7251C32.493 77.2302 34.2995 78.5342 35.9728 79.5991C36.8865 80.1805 38.1556 81.2477 38.7822 82.0831C39.1161 82.5283 39.5515 82.8085 39.8468 83.3252C40.1335 83.8269 40.6088 82.544 40.7783 82.4084C41.2606 82.0226 40.9114 79.8575 40.9114 79.2738C40.9114 78.7006 40.4062 75.4107 40.3791 77.2037C40.3697 77.8255 40.1129 80.8845 40.1129 78.6528C40.1129 76.4183 41.2443 69.8209 40.6304 71.9694C40.1635 73.6038 40.329 76.5407 39.3736 77.8543C38.7234 78.7483 39.6949 75.6668 39.8468 74.5718C39.9019 74.1743 40.2318 70.5824 40.8522 70.5204C40.941 70.5115 40.1712 78.6089 40.1277 79.3921C40.04 80.9705 40.4599 78.9176 40.5269 78.564C40.882 76.6919 41.0704 74.6115 41.976 72.9009C42.0887 72.688 42.8329 71.6406 42.7153 72.5313C42.4892 74.2435 42.1464 75.9159 42.0351 77.6473C41.9611 78.7984 41.8993 82.2582 41.976 81.1072C42.0592 79.8595 42.427 78.6805 42.7153 77.4699C42.916 76.6267 43.0406 75.7934 43.0406 74.9266C43.0406 73.7931 42.7496 77.1788 42.4935 78.2831C42.172 79.6693 41.5939 81.0452 41.4585 82.4676C41.3814 83.2771 41.5759 81.2496 41.5768 81.2403C41.7439 79.5024 41.6474 77.7599 41.769 76.0208C41.8948 74.2214 42.5193 72.5391 42.7153 70.757C42.8612 69.4302 43.0321 68.1408 43.2476 66.8238C43.2764 66.6479 43.3244 65.5733 43.3067 66.3507C43.2373 69.4052 41.7937 72.4509 40.941 75.3407C40.6858 76.2052 40.5458 78.8129 40.2608 77.9578C40.0052 77.1912 40.3652 75.7149 40.3939 74.9119C40.5316 71.0541 41.3246 66.9115 42.3013 63.1864C42.3722 62.916 43.55 59.2173 43.5729 60.3179C43.594 61.3327 43.2619 62.3262 43.0406 63.3047C42.3238 66.4735 41.5374 69.5288 41.1775 72.7679C40.87 75.5357 41.1775 72.3214 41.1775 71.378C41.1775 67.4976 41.9849 63.3927 42.7153 59.5786C43.6486 54.7049 45.2274 50.0701 47.299 45.5614C49.9964 39.6906 51.6604 33.4486 55.4905 28.1137C58.1886 24.3557 62.0331 18.7985 67.3194 18.7985C69.3709 18.7985 71.4013 18 73.5296 18C75.5775 18 77.6398 18.3045 79.5624 19.0646C83.2425 20.5195 86.7538 23.7183 88.5523 27.3153C89.448 29.1066 90.3066 30.7755 90.6667 32.7566C90.9878 34.5226 91.3139 35.0874 89.6169 35.8912C89.0076 36.1799 86.8151 36.864 86.6745 36.2313C86.2777 34.4456 85.4412 32.7774 85.0332 30.9822C84.7947 29.9326 83.6568 27.2687 82.5639 26.783C82.0957 26.5749 81.7767 26.106 81.3071 25.9254C80.3069 25.5407 79.3891 25.5337 78.3795 25.2452C67.8236 22.2292 58.9485 31.9621 54.7512 40.3566C52.9681 43.9228 51.4252 47.6866 49.9753 51.4019C48.7501 54.5414 48.4187 57.9081 47.299 61.0572C46.8154 62.4173 46.7835 63.9451 46.5005 65.36C46.2357 66.684 45.7021 67.991 45.7021 69.3671C45.7021 71.2983 45.0575 73.3871 44.6966 75.2815C44.6904 75.3141 44.3435 77.2973 44.1052 76.6418C43.4453 74.8271 44.0076 72.5433 44.2383 70.6978C44.5059 68.5569 44.3338 66.398 44.5783 64.2511C44.8284 62.0562 45.1881 59.8989 45.4951 57.7156C46.7117 49.0641 49.7034 41.0615 54.3076 33.6733C54.8559 32.7936 54.5155 33.3749 54.3372 33.9099C53.8096 35.4927 53.3004 37.0841 52.7846 38.671C52.6206 39.1757 52.1058 40.1564 52.6664 39.0703C53.5315 37.3941 54.2802 35.6986 55.2983 34.1021C56.6507 31.9813 60.4852 25.5797 59.6898 27.9659C59.6601 28.0549 58.9779 29.6358 58.8026 29.3853C58.5114 28.9694 59.7884 27.0326 59.9855 26.7238C60.3994 26.0754 61.8866 24.3119 61.4789 24.9643C61.3875 25.1105 60.6925 25.8062 60.503 25.5409C59.5985 24.2746 64.7429 22.0218 65.6042 22.0218C66.1412 22.0218 66.1168 22.2226 66.2548 21.6078C66.3443 21.209 66.8448 19.6996 67.4673 20.5136C67.7988 20.9472 68.166 24.2287 67.2603 23.323C66.9894 23.0521 66.9157 22.7248 66.7132 22.4211C66.3102 21.8166 65.2138 23.6313 65.1015 23.7962C64.2704 25.0168 63.699 26.5886 62.647 27.6406C62.4637 27.8238 63.6255 26.1889 63.8447 25.9697C65.9948 23.8196 68.5414 21.9334 70.809 19.8926C71.214 19.5281 69.0858 23.8854 70.2471 22.0218C70.885 20.9982 72.7257 16.8367 73.5148 19.73C74.1206 21.9513 74.0099 20.9313 75.3927 19.8778C77.016 18.641 77.0824 20.4998 77.1079 21.874C77.1468 23.9769 78.0484 20.4238 78.4977 20.5136C79.2193 20.658 78.7301 23.5596 79.3849 23.5596C80.4572 23.5596 80.7631 21.973 81.7507 23.5892C82.1151 24.1855 82.4036 27.2581 83.2293 26.7238C83.4873 26.5569 83.8968 25.8432 84.0869 26.3098C84.3758 27.019 84.7501 27.6953 85.0924 28.3799C85.6225 29.4401 86.5791 30.3538 87.4582 31.1449C88.1294 31.749 86.3686 27.704 86.7041 28.5425C87.4884 30.5032 89.3508 32.5813 89.3508 34.7675" stroke="#093243" stroke-width="3" stroke-linecap="round" stroke-linejoin="round"/>
<path d="M87.2212 37.6951C90.4677 38.6306 95.1831 39.8666 97.3349 42.8111C99.0274 45.1272 99.8496 48.8587 98.8727 51.5941C98.1478 53.6237 97.8224 55.8724 95.738 56.7988C93.2932 57.8854 96.0315 53.2235 96.2703 52.7179C97.2697 50.6014 97.2921 47.9136 97.0688 45.6797C96.8676 43.6678 94.6513 42.1976 93.3426 40.8889C92.0489 39.5952 90.3117 38.8544 89.0842 37.6951C88.5219 37.1641 87.9324 37.093 87.4282 36.6897C86.5846 36.0148 86.9653 37.6656 88.1527 37.6656C88.9892 37.6656 90.4768 37.6009 91.3169 37.4142C91.6452 37.3413 90.2241 35.9106 90.001 35.8469C88.749 35.4892 91.2781 35.532 91.7457 35.699C92.6969 36.0387 93.7981 36.1985 94.7917 36.3792C95.6079 36.5276 96.9557 37.5434 97.7489 37.9761C98.8527 38.5781 99.7695 39.3608 100.647 40.2384C102.156 41.7473 104.019 44.019 104.24 46.2267C104.515 48.9771 103.969 51.5424 102.126 53.6494C101.368 54.5156 99.8121 55.8753 98.7987 56.3257C98.0093 56.6765 98.3528 56.4306 98.8135 55.8821C99.8102 54.6956 100.181 53.1102 100.662 51.668C101.304 49.7429 102.099 46.7403 100.381 45.2509C98.7207 43.812 97.1949 42.4747 95.3536 41.303C93.5213 40.137 99.4192 43.1443 100.884 44.7481C101.597 45.5297 101.829 50.4704 100.529 50.4704" stroke="#093243" stroke-width="3" stroke-linecap="round" stroke-linejoin="round"/>
<path d="M97.8675 56.3257C98.6911 55.1204 99.2315 54.0091 99.7306 52.6587C99.8795 52.2557 100.135 51.1569 99.8489 52.2595C99.7101 52.7946 99.5882 53.3324 99.4644 53.8712C99.3951 54.1729 98.9657 54.9116 99.2427 54.7731C100.023 54.3829 100.255 52.2004 100.47 51.5054C101.197 49.1512 99.9772 55.561 100.396 53.3832C100.435 53.1786 100.505 51.499 100.366 51.6533C99.6157 52.4874 99.8855 53.8888 99.1983 54.7288C98.2011 55.9475 99.0705 50.6385 98.3703 52.2891C97.8911 53.4184 97.5147 54.6065 96.9656 55.7047C96.7523 56.1312 97.3546 54.067 97.4535 53.812C97.5149 53.654 98.3052 51.4012 98.2816 52.3926C98.2626 53.1879 98.0214 54.3523 97.7345 55.0984C97.2802 56.2796 98.7327 56.5918 96.8029 56.5918C95.4467 56.5918 95.5513 57.7687 96.8029 57.9078C98.1398 58.0563 98.2292 57.7616 96.8621 57.6564C96.1366 57.6006 97.1997 58.013 97.6162 58.3514C98.4153 59.0006 99.0015 60.0806 99.7306 60.8502C101.95 63.1926 103.603 68.5467 101.061 71.2301C99.8523 72.5063 98.7631 74.0546 96.8029 74.1578C95.4531 74.2288 93.8348 74.7904 92.5445 74.2169C92.0225 73.9849 90.6565 73.9479 90.0752 73.9064C88.8785 73.8209 87.6243 73.9177 86.4822 73.5663C85.8962 73.386 85.2856 73.2396 84.6931 73.1079C84.2465 73.0087 83.6048 72.583 83.2293 72.5609C82.666 72.5277 82.0274 71.926 81.4993 72.0433C80.9411 72.1674 79.9141 72.2731 80.686 72.8862C81.6826 73.6775 82.4603 74.6404 83.3771 75.5033C84.4486 76.5117 85.0927 76.7214 86.4231 77.3516C89.5292 78.8229 94.5246 79.7563 97.6014 77.5586C99.7108 76.0519 101.982 74.5988 102.599 71.8216C102.928 70.3396 103.457 69.2079 103.457 67.6075C103.457 65.6459 103.212 64.4983 102.658 62.6541C102.085 60.7434 100.42 58.905 98.666 57.9817C98.4883 57.8882 96.9819 57.3903 97.7345 57.3903C98.9915 57.3903 99.8604 58.4371 101.061 58.7802C102.86 59.2941 104.454 62.6641 105.054 64.251C105.75 66.0936 106.48 69.3366 105.586 71.2301C104.285 73.9852 103.35 76.6107 100.795 78.4753C99.5252 79.4021 98.719 79.8889 97.3352 80.4271C95.7459 81.0452 94.4468 80.5762 92.8107 80.5454C91.077 80.5127 90.0271 80.3662 88.5671 79.3625C88.1284 79.0609 87.6743 78.8112 87.2215 78.5345C86.696 78.2133 85.2078 77.5136 85.8021 77.3516C87.79 76.8094 93.9338 76.5932 91.8939 76.3018C90.9326 76.1644 89.8152 76.2613 88.8628 76.42C88.5634 76.4699 87.6917 76.9404 88.3453 76.7601C90.3247 76.2141 92.2789 76.5831 94.2449 76.1391C96.0068 75.7413 97.9243 74.6333 99.1983 73.3593C101.237 71.3208 101.4 68.6826 101.801 66.0254C102.215 63.2827 101.222 60.7504 99.7306 58.514C99.2058 57.7268 98.9181 57.0805 98.2963 56.4588C97.5989 55.7613 100.159 57.1445 101.002 57.6564C102.322 58.4575 103.182 60.4938 103.989 61.8557C105.02 63.5947 105.163 66.3782 104.521 68.3025" stroke="#093243" stroke-width="3" stroke-linecap="round" stroke-linejoin="round"/>
<path d="M59.4139 74.463C58.8383 74.463 58.2492 74.4257 57.68 74.5206C56.9741 74.6383 56.2821 74.3343 55.5878 74.4886C54.6261 74.7023 53.4711 75.8191 53.3165 76.8239C53.2406 77.3169 53.8613 78.0079 54.2826 78.1484C55.4615 78.5413 56.9855 78.2456 58.1727 78.0332C58.6524 77.9473 59.1097 77.9356 59.593 77.918C60.1989 77.896 60.7552 77.4514 61.3077 77.2398C62.3743 76.8314 63.6961 76.4931 64.8203 76.3057C65.5589 76.1826 66.236 75.7218 66.9637 75.5251C67.5052 75.3788 67.0627 74.8489 67.0213 74.4758C66.9825 74.1263 66.6356 73.7441 66.2727 73.6824C65.2121 73.5023 63.733 73.5337 62.7153 73.8872C61.7009 74.2396 60.8872 74.3479 59.817 74.3479C58.7904 74.3479 57.6198 74.773 56.8546 75.4931C56.5518 75.7781 57.463 75.8326 57.5904 75.8386C58.6309 75.8882 59.6565 75.9623 60.6935 76.0754C61.0598 76.1153 61.4259 76.1637 61.794 76.1841C61.8989 76.1899 62.1754 76.1802 62.1011 76.2545C61.7295 76.6261 61.1467 76.797 60.6807 76.9967" stroke="#093243" stroke-width="3" stroke-linecap="round" stroke-linejoin="round"/>
<path d="M66.208 87.8223C65.6636 86.6682 65.6583 85.4382 65.8369 84.1882C65.9364 83.4915 66.1382 82.6799 66.0864 81.9808C66.0193 81.0738 65.7235 80.1997 65.5746 79.3064C65.4955 78.8319 65.2073 78.3575 65.1715 77.8924C65.1579 77.7158 65.1006 77.498 65.0052 77.7901C64.8066 78.3973 64.7753 79.0502 64.7364 79.6839C64.6581 80.96 65.0476 82.2183 64.8836 83.4972C64.6727 85.1419 65.0563 86.8514 65.0563 88.5133C65.0563 88.9048 65.0413 89.2994 65.0563 89.6906C65.0807 90.3236 65.7947 90.3264 66.2656 90.4136C66.9213 90.535 67.4022 90.6683 67.3021 89.9273C67.0825 88.3025 67.1767 86.5055 67.3341 84.8792C67.4517 83.6636 67.5495 82.4464 67.6796 81.2323C67.7884 80.2166 68.0018 79.0378 67.9291 78.0204C67.8542 76.9713 67.7052 75.9796 67.7052 74.9237" stroke="#093243" stroke-width="3" stroke-linecap="round" stroke-linejoin="round"/>
<path d="M70.4692 87.5921C71.2781 87.5921 72.1245 87.4252 72.9261 87.5025C73.514 87.5591 74.0688 87.8242 74.6536 87.912C75.5206 88.042 74.0608 87.9027 73.9114 87.8864C72.8073 87.7654 71.6972 87.6046 70.5844 87.5921C69.8013 87.5833 69.6955 87.7742 69.0872 88.0783C68.3693 88.4373 67.5659 88.5822 66.7967 88.8077C66.5255 88.8872 66.6903 88.8583 66.8607 88.8845C67.4132 88.9695 67.9573 89.1014 68.5114 89.1788C69.9896 89.3852 71.4895 89.307 72.9773 89.3196C73.9016 89.3273 74.8239 89.471 75.7413 89.5755C76.5531 89.668 76.1229 89.5556 75.6005 89.5499C73.1544 89.523 70.6689 89.4855 68.2299 89.6906C68.1841 89.6945 66.9289 89.9892 66.9758 90.0361C67.1241 90.1844 67.5383 90.2364 67.718 90.2921C68.2961 90.4711 68.8711 90.6688 69.4583 90.8167C70.6932 91.1277 71.8806 90.9436 73.1308 90.9319C73.8991 90.9247 74.6103 91.0615 75.3702 91.1366C76.4255 91.241 77.5513 91.047 78.6205 91.047C79.2263 91.047 79.7663 90.8524 80.3735 90.8167C80.7234 90.7961 79.8666 90.5121 79.8617 90.5096C78.8284 89.993 77.9455 89.1043 76.829 88.7693C76.5743 88.6929 75.5881 88.7642 75.447 88.5134C75.3306 88.3065 76.9878 88.2838 77.0977 88.2831C77.5134 88.2801 79.0368 88.0316 79.3754 88.3086C79.435 88.3573 78.8543 88.6286 78.7612 88.6286C78.1259 88.6286 78.5268 86.1382 78.5053 85.7878C78.4106 84.2451 78.2818 82.615 78.5053 81.0787C78.6302 80.2198 78.6385 79.3507 78.7868 78.4939C78.9057 77.8069 79.1067 77.0203 79.1067 76.3313C79.1067 75.5694 78.9311 73.9396 80.2328 74.3735C80.642 74.5099 80.6055 75.1115 80.5783 75.4356C80.4791 76.6145 80.2352 77.767 80.1688 78.9546C80.1016 80.1562 80.1846 81.3529 80.028 82.5503C79.9525 83.128 79.7514 83.6932 79.8233 84.2778C79.9156 85.0279 79.848 85.7837 79.9385 86.53C80.0308 87.2921 79.8758 88.0223 79.9385 88.7821C79.9559 88.9931 80.4153 90.8447 80.5143 90.7655C81.1093 90.2895 80.9744 88.7242 81.0901 88.0655C81.2766 87.0041 81.41 86.0824 81.41 84.9944C81.41 83.2451 81.2949 81.5101 81.2949 79.7607C81.2949 78.7738 81.4534 77.877 81.5252 76.9072C81.5712 76.2862 82.6932 77.648 82.8816 77.8029C84.105 78.8088 85.2412 79.7358 86.938 79.7607C87.787 79.7732 88.6402 79.952 89.4717 80.1318C90.4411 80.3414 91.7401 79.8959 92.5812 79.4152" stroke="#093243" stroke-width="3" stroke-linecap="round" stroke-linejoin="round"/>
<path d="M44.3263 105.097C44.5426 106.78 44.4833 108.748 45.0173 110.35C45.1486 110.744 45.2095 111.624 45.478 111.892" stroke="#093243" stroke-width="1.5" stroke-linecap="round" stroke-linejoin="round"/>
<path d="M38.6837 100.606C40.1051 100.897 41.5656 100.837 42.9449 101.182" stroke="#093243" stroke-width="1.5" stroke-linecap="round" stroke-linejoin="round"/>
<path d="M43.1745 103.485C42.6256 102.147 43.2412 104.805 43.2385 104.726C43.2095 103.885 42.9252 103.051 43.085 102.193C43.1068 102.075 43.2807 101.604 43.149 101.489C43.1431 101.484 43.0594 102.894 43.0594 102.999C43.0594 104.843 43.2897 106.671 43.2897 108.514C43.2897 110.614 43.1745 112.71 43.1745 114.797C43.1745 115.174 43.1692 118.658 43.1042 118.687C42.5711 118.924 41.9054 118.798 41.3383 118.975C40.9269 119.104 40.3144 119.263 39.8859 119.263C38.7487 119.263 40.5274 119.378 40.8072 119.378C41.7191 119.378 42.5906 119.474 43.4945 119.493C45.2026 119.53 46.8374 118.867 48.5874 118.917C49.0869 118.932 49.7078 119.061 50.1997 119.173C50.8014 119.311 51.0832 119.269 50.3149 119.653C49.7562 119.932 48.8031 120.009 48.1843 120.063C47.8392 120.093 47.48 120.079 47.1414 120.011C46.7891 119.941 46.4992 120.11 46.1689 120.063C45.7391 120.001 45.2705 119.812 44.8445 119.717C44.5234 119.646 44.2645 119.511 43.9551 119.404C43.1982 119.142 43.4362 118.8 43.6352 118.086C43.7801 117.566 43.8477 117.024 43.9807 116.499C44.1503 115.83 44.211 115.635 44.211 116.46C44.211 116.597 44.1843 118.406 44.3262 118.406C44.4655 118.406 44.5059 115.964 44.5054 115.846C44.4993 114.623 44.3262 113.411 44.3262 112.187C44.3262 110.803 44.3671 114.956 44.499 116.333C44.5384 116.744 44.6743 118.751 44.8381 117.254C45.0216 115.576 45.0756 113.841 45.126 112.155C45.1669 110.782 45.2996 113.619 45.3115 113.812C45.3883 115.051 45.593 116.299 45.593 117.542C45.593 119.265 45.593 110.649 45.593 112.372C45.593 114.325 46.0293 120.167 46.0537 118.214C46.0895 115.35 46.1777 112.445 45.9641 109.589C45.8666 108.284 46.1459 107.073 46.1689 105.788C46.1714 105.644 46.2595 104.586 46.1433 104.534C46.095 104.513 45.7104 109.383 45.7082 109.73C45.7012 110.863 45.8306 114.197 45.4779 113.121C44.8559 111.222 44.9655 108.818 45.03 106.85C45.0608 105.913 45.499 103.127 45.3563 104.054C45.0697 105.917 45.0172 107.797 45.0172 109.678C45.0172 110.064 44.9832 111.22 45.0236 110.837C45.0892 110.213 45.1159 109.588 45.126 108.962C45.1446 107.811 45.1324 106.658 45.1324 105.507C45.1324 104.757 45.2823 103.777 45.0684 103.044C44.9577 102.664 44.8847 103.815 44.8445 104.208C44.7627 105.007 44.7051 105.809 44.6141 106.607C44.576 106.942 44.4542 107.942 44.4542 107.605C44.4542 107.066 44.5362 106.514 44.5565 105.974C44.5971 104.9 44.6582 103.828 44.7229 102.756C44.7462 102.37 44.8504 101.233 44.7229 101.598C44.3683 102.611 44.4414 103.908 44.4414 104.969C44.4414 106.313 44.4414 102.282 44.4414 100.939C44.4414 100.546 43.6671 99.9277 43.2897 99.9277C42.5222 99.9277 41.5699 99.8696 40.7561 100.056C40.2593 100.169 39.9653 100.03 39.4892 100.03C39.0721 100.03 39.8212 100.029 39.8859 100.03C40.6672 100.041 41.3933 100.279 42.1636 100.35C42.9945 100.426 43.8384 100.361 44.6717 100.376C45.0077 100.381 45.321 100.544 45.657 100.465C45.8445 100.421 45.9696 100.364 46.1689 100.376C46.3803 100.388 46.0683 101.648 46.0537 101.834C45.9872 102.683 45.9385 103.523 45.9385 104.374C45.9385 104.786 46.1114 103.568 46.1625 103.159C46.1841 102.986 46.413 102.011 46.2137 102.653C46.1111 102.984 45.9826 103.316 45.9577 103.664C45.9494 103.78 46.0409 103.441 46.0409 103.325C46.0409 102.497 45.3912 100.855 46.5144 100.606C47.3417 100.422 48.2088 100.454 49.048 100.58C49.3573 100.627 50.262 100.631 49.9822 100.491C49.6447 100.322 48.8711 100.6 48.4978 100.606C48.0758 100.613 47.6531 100.606 47.231 100.606C47.0418 100.606 47.8889 100.606 48.0115 100.606C49.1312 100.606 50.2377 100.742 51.3514 100.721C51.7994 100.713 52.2304 100.606 52.6822 100.606C53.1569 100.606 53.5726 100.723 54.0578 100.663C54.603 100.597 55.2712 100.493 55.7853 100.721C56.3331 100.965 56.8681 101.552 57.3336 101.93C58.1789 102.617 59.2048 103.205 59.9889 103.946C60.3415 104.279 59.6785 102.894 59.5026 102.704C59.1185 102.291 59.0927 101.748 58.7476 101.297C58.1697 100.541 57.4881 100.085 56.4699 100.216C54.9273 100.413 53.431 100.491 51.8696 100.491C51.235 100.491 50.6136 100.606 49.9758 100.606C49.737 100.606 48.8356 100.526 48.9329 100.721" stroke="#093243" stroke-width="1.5" stroke-linecap="round" stroke-linejoin="round"/>
<path d="M52.1581 109.934C51.2253 109.934 50.4106 110.054 49.5093 110.254C48.9023 110.389 48.2533 110.155 47.641 110.165C47.4405 110.168 46.0745 110.318 46.451 110.254C47.6874 110.044 48.9703 109.819 50.2259 109.819C50.8487 109.819 52.1977 109.625 52.6188 110.19C53.033 110.747 53.0465 111.496 53.4825 112.046C53.5729 112.16 54.0253 112.561 54.0008 112.532C53.6598 112.127 53.5375 111.522 53.3098 111.054C53.2617 110.955 52.8167 110.307 53.105 110.766C53.4127 111.256 53.7393 111.774 54.1095 112.218C54.4596 112.639 54.6637 112.767 54.7366 112.097C54.8219 111.312 54.6315 110.431 54.4614 109.666C54.3734 109.27 54.1287 108.901 54.1287 108.488C54.1287 107.892 54.1159 107.351 54.1159 106.767C54.1159 106.275 54.0731 106.522 53.8856 106.85C53.5264 107.479 53.0848 108.07 52.7531 108.712C52.7319 108.753 52.4551 109.441 52.6188 109.423C52.9326 109.388 53.3592 108.665 53.5785 108.456C54.1634 107.899 53.1753 110.076 53.3801 110.03C54.2102 109.846 54.3463 106.819 54.3463 107.669C54.3463 108.982 54.3463 110.283 54.3463 111.591C54.3463 111.945 54.3651 113.197 54.3463 113.159" stroke="#093243" stroke-width="1.5" stroke-linecap="round" stroke-linejoin="round"/>
<path d="M66.554 101.412C66.1495 101.739 65.5606 102.103 65.5175 102.679C65.462 103.419 65.3573 104.147 65.4087 104.893C65.4357 105.283 65.7655 105.58 65.9526 105.904C66.1601 106.262 65.991 105.305 65.991 105.245C65.991 104.8 66.3753 103.347 65.9206 103.044C65.73 102.916 65.6705 104.054 65.6582 104.176C65.5524 105.235 66.9671 107.376 68.0512 107.605C68.5847 107.718 68.4053 107.64 68.1407 107.375C67.4611 106.695 66.6035 105.861 66.2789 104.937C65.9453 103.988 66.3834 104.512 66.8739 105.008C67.5444 105.685 68.1684 106.93 69.0685 107.324C69.2567 107.406 68.2045 105.903 68.0767 105.724C67.3124 104.656 67.1106 103.306 67.3666 102.026C67.5228 101.245 67.7916 101.157 68.4862 101.041C68.9516 100.963 68.5296 101.444 68.3967 101.7C67.9425 102.576 68.0222 103.71 68.1855 104.649C68.2564 105.057 68.7497 107.668 69.5867 107.529C69.6432 107.519 68.6299 104.668 68.5246 104.394C68.16 103.441 68.5382 103.865 68.9981 104.458C69.7963 105.485 70.6812 106.449 71.5957 107.375C71.7789 107.561 72.7981 108.281 72.0436 108.009C70.9108 107.599 70.2311 106.464 69.1388 106.044C69.1215 106.038 68.872 105.938 69.0749 105.955C69.655 106.002 70.2539 106.471 70.7064 106.786C71.7501 107.514 72.6987 108.326 73.8863 108.821C73.9536 108.849 74.3918 109.038 73.9886 108.987C73.2927 108.9 72.5742 108.51 71.954 108.207C71.0184 107.749 70.0186 107.39 69.1068 106.889C68.4602 106.533 70.2304 107.827 70.3417 107.913C71.3248 108.669 72.3925 109.329 73.368 110.088C74.0456 110.615 71.87 109.238 71.0711 108.923C70.2518 108.601 69.4316 108.594 68.8061 107.919C68.3594 107.436 68.0278 107.303 67.4369 107.055C67.3856 107.034 66.9293 106.725 67.1554 106.876C67.7394 107.265 68.3154 107.691 68.9277 108.034C69.8523 108.553 70.8115 109.034 71.7749 109.474C72.4575 109.786 73.0266 110.275 73.6879 110.625C75.4142 111.539 76.677 112.752 77.8147 114.311C78.5117 115.266 78.1041 117.156 77.3157 117.945C76.7458 118.515 75.2079 118.706 74.4429 118.508C73.3374 118.221 72.269 118.178 71.1734 117.83C70.4963 117.614 69.8935 117.462 69.2284 117.19C68.3584 116.834 67.6627 116.244 67.0147 115.578C66.6499 115.203 65.8875 112.913 65.0056 113.165C64.0661 113.434 64.9312 115.648 65.0312 116.128C65.2167 117.018 65.2202 117.915 65.3767 118.802C65.5067 119.539 65.849 119.702 66.6052 119.724C67.4632 119.748 68.3195 119.941 69.1772 119.775C69.7535 119.663 69.8246 119.582 69.318 119.263C68.8001 118.937 68.1835 118.908 67.6801 118.546C67.1095 118.136 66.4757 117.686 65.9398 117.247C65.8687 117.189 65.863 117.115 65.863 117.03C65.863 116.841 66.0197 117.375 66.1189 117.535C66.2173 117.695 67.0095 118.535 66.9379 118.361C66.5959 117.53 66.3017 116.671 65.9334 115.853C65.6857 115.302 66.7965 116.697 67.245 117.1C68.0399 117.816 68.6977 118.47 69.7914 118.623C70.6161 118.738 71.4788 118.825 72.3123 118.802C72.5284 118.796 73.6565 118.437 72.9777 118.713C72.2812 118.996 71.5998 118.936 70.8855 118.751C70.4641 118.642 70.0735 118.572 69.6379 118.572C68.7156 118.572 69.3266 118.814 69.8874 118.962C71.812 119.472 73.6749 119.263 75.6394 119.263C76.4704 119.263 77.2976 119.078 78.1218 119.033C78.6269 119.004 79.0895 118.737 79.5678 118.687C80.0874 118.632 80.6053 117.917 81.001 117.593C81.3575 117.301 81.7688 116.63 81.8647 116.198C82.1691 114.828 82.415 113.603 81.5001 112.417C80.4714 111.083 79.0841 109.998 77.5204 109.359C76.9363 109.12 76.2613 108.901 75.7097 108.604C75.1699 108.313 74.5285 108.28 73.9886 108.034C73.0691 107.616 72.1403 107.181 71.1862 106.85C71.0157 106.791 70.8875 106.696 70.7 106.71C70.5817 106.718 70.8866 106.856 70.9815 106.927C71.4441 107.274 71.8722 107.629 72.3763 107.919C73.3372 108.471 74.4111 108.963 75.0251 109.934C75.2187 110.241 75.4562 111.086 75.9273 111.086C75.9406 111.086 75.697 110.888 75.6841 110.875C75.3387 110.529 75.0126 110.165 74.6668 109.819C74.1022 109.255 75.0878 109.843 75.2683 110.024C75.7138 110.47 76.114 110.959 76.4903 111.464C76.6851 111.725 76.9758 112.597 77.0341 112.276C77.0769 112.041 77.0325 111.742 77.0086 111.508C77.0046 111.469 76.8975 110.691 76.983 110.728C77.324 110.874 77.5225 112.519 77.6612 112.897C77.874 113.477 78.3168 111.468 78.4161 111.214C78.5063 110.984 78.5172 111.209 78.5057 111.304C78.423 111.989 78.4189 112.677 78.3522 113.364C78.3031 113.868 77.928 115.318 78.6465 114.234C78.7682 114.05 79.7276 112.263 79.4271 113.121C79.1692 113.856 77.8897 115.758 78.4929 115.264C78.5974 115.178 79.6232 114.104 79.7214 114.387C79.8214 114.677 79.0245 115.775 79.747 115.053C79.968 114.832 80.7985 113.934 80.47 114.797C80.3178 115.196 80.107 115.551 79.8685 115.904C79.8454 115.938 79.4514 116.492 79.7342 116.217C79.9379 116.019 80.8232 115.165 80.7451 115.29C80.4671 115.734 80.1861 116.17 79.8685 116.588C79.7846 116.699 79.0943 117.353 79.0943 117.484C79.0943 117.675 79.3923 117.244 79.5422 117.126C79.7074 116.995 79.8554 116.909 79.9709 116.729C80.2009 116.371 80.168 115.922 80.31 115.526C80.5 114.996 81.3356 113.86 80.374 113.62" stroke="#093243" stroke-width="1.5" stroke-linecap="round" stroke-linejoin="round"/>
<path d="M69.5477 101.067C69.3652 101.217 67.5837 102.523 68.4088 101.514C68.6196 101.257 68.8306 100.902 69.1254 100.734C69.3599 100.6 68.5956 100.851 68.3448 100.951C67.9564 101.107 66.2188 101.848 67.4811 101.175C67.8061 101.002 68.1446 100.713 68.5112 100.631C68.7886 100.57 69.0842 100.74 69.3749 100.715C69.5996 100.695 70.15 100.368 70.0339 100.561C69.8726 100.83 69.1675 100.889 68.9079 100.926C68.6642 100.961 67.9469 101.124 68.1785 101.041C68.7702 100.828 69.3395 100.544 69.9508 100.388C71.145 100.084 72.2623 100.491 73.4505 100.491C74.6462 100.491 71.056 100.673 69.8932 100.951C69.2571 101.104 68.6184 101.261 69.682 101.009C70.7463 100.757 71.9974 100.491 73.0922 100.491C73.5636 100.491 74.1353 100.667 74.6214 100.727C75.0544 100.782 75.4927 100.946 75.8882 101.124C76.8333 101.549 77.75 101.852 78.3259 102.794C78.5131 103.1 78.9521 104.637 79.2792 104.637C80.0045 104.637 79.7975 103.055 79.7975 102.576C79.7975 101.733 79.6197 101.135 78.9913 100.606C78.7339 100.389 77.9502 100.42 77.6093 100.382C77.132 100.329 76.727 100.219 76.2529 100.12C75.7872 100.022 75.3829 99.8794 74.9093 99.7933C74.5362 99.7255 74.2091 99.6845 73.8088 99.6845C73.6898 99.6845 72.9006 99.6845 73.3482 99.6845C73.5508 99.6845 74.1586 99.6845 73.956 99.6845C72.944 99.6845 71.8729 99.5606 70.9297 100.004C70.7557 100.086 71.2078 100.008 71.2368 100.004C72.1074 99.8939 72.9772 99.9149 73.8536 99.9149C74.4594 99.9149 76.7548 99.7503 77.1487 100.44C77.4939 101.044 77.9354 101.623 78.4155 102.103" stroke="#093243" stroke-width="1.5" stroke-linecap="round" stroke-linejoin="round"/>
<path d="M88.6655 106.479C88.5619 106.997 87.6653 109.931 88.1409 110.248C88.2105 110.294 88.1262 110.081 88.1153 109.998C88.0726 109.675 88.0768 109.333 88.1409 109.013C88.2799 108.318 88.5961 107.643 88.8063 106.966C88.8892 106.699 88.7541 106.972 88.7167 107.068C88.5129 107.592 88.4352 108.113 88.4352 108.674C88.4352 109.669 88.4231 110.69 88.7807 111.636C89.0318 112.301 89.0981 112.988 89.4141 113.62C89.6315 114.054 89.998 114.457 90.2779 114.861C90.847 115.683 91.6743 116.428 92.4596 117.017C92.7313 117.221 93.0542 117.381 93.2978 117.625C93.3841 117.711 92.8626 117.554 92.8115 117.535C92.3525 117.371 91.8833 117.49 91.4231 117.356C90.0203 116.947 88.77 116.055 88.0001 114.771C87.4125 113.792 86.6055 112.959 86.247 111.841C85.9393 110.882 86.0165 109.944 86.1831 108.968C86.4423 107.45 85.8522 108.704 85.7352 109.423C85.6342 110.043 85.7581 110.573 85.8759 111.176C85.9352 111.478 85.915 111.58 85.7864 111.24C85.2827 109.906 85.5413 109.042 86.0103 107.753C86.3346 106.861 86.6196 105.853 87.3987 105.238C87.6438 105.045 88.78 104.048 88.0129 104.784C87.3321 105.437 86.9834 106.399 86.7333 107.286C86.6781 107.481 86.1971 109.459 86.5286 108.962C87.435 107.602 87.6961 105.888 88.7039 104.592C88.7459 104.538 88.39 104.998 88.32 105.123C87.7367 106.163 87.3314 107.279 87.1684 108.463C86.9979 109.701 86.9927 111.09 87.3347 112.302C87.3426 112.33 87.9451 113.603 88.0641 113.338C88.3414 112.722 87.8018 111.483 87.6354 110.9C87.4399 110.216 86.997 109.46 87.2963 110.657C87.5799 111.792 87.904 112.931 88.4352 113.978C88.562 114.228 89.3756 115.079 89.1902 114.925C87.7712 113.742 87.0176 111.754 86.6501 109.998C86.5923 109.722 86.4902 109.426 86.4902 109.141C86.4902 108.996 86.6015 108.834 86.5733 108.693C86.5539 108.596 86.1001 109.586 86.0807 109.755C85.8897 111.42 85.9079 113.478 87.0916 114.81C87.4528 115.216 86.5336 113.865 86.375 113.345C86.1626 112.648 85.9474 111.867 85.9079 111.137C85.8872 110.754 86.173 109.714 85.9015 109.986C85.6508 110.236 85.7829 111.192 85.7864 111.496C85.7983 112.53 86.3103 113.632 86.9636 114.426C87.3149 114.852 87.8687 115.327 88.3264 115.642C88.882 116.023 89.3433 116.703 89.8172 117.19C90.3032 117.689 91.9673 118.931 91.5319 118.386C91.2605 118.047 90.739 117.796 90.393 117.535C89.8953 117.16 89.4279 116.745 88.9215 116.384C88.3826 115.999 88.1699 115.26 87.629 114.835C87.2518 114.539 86.981 114.14 86.7333 113.735C86.608 113.53 86.5985 113.726 86.6629 113.869C86.8694 114.328 87.0662 114.803 87.3411 115.226C87.7622 115.873 88.4029 116.299 89.0174 116.729C90.1014 117.488 91.1962 117.822 92.3509 118.399C93.5045 118.976 94.8176 119.839 96.1514 119.839C96.7946 119.839 97.1551 119.895 96.3305 119.5C95.9955 119.339 95.6727 119.415 95.3196 119.352C94.8662 119.272 94.4365 119.11 93.9888 119.007C93.5305 118.902 92.7619 118.828 92.5236 118.399C92.1798 117.78 94.188 118.366 94.3535 118.399C95.3113 118.591 96.2456 118.805 97.2135 118.943C98.2092 119.085 99.088 118.802 100.073 118.802C101.022 118.802 101.964 118.606 102.921 118.572C103.296 118.558 103.729 118.254 104.034 118.06C104.227 117.937 104.969 117.365 104.674 117.791C104.42 118.158 103.794 118.599 103.343 118.681C102.211 118.886 100.839 118.89 99.6831 118.917C98.6965 118.941 97.7429 119.033 96.7528 119.033C96.0338 119.033 96.7803 119.334 97.0791 119.372C97.5066 119.425 97.9649 119.378 98.3971 119.378C100.283 119.378 101.992 118.698 103.752 118.111" stroke="#093243" stroke-width="1.5" stroke-linecap="round" stroke-linejoin="round"/>
<path d="M94.9999 100.836C94.0704 100.855 92.7506 101.194 92.0312 101.809C91.9238 101.9 91.167 102.796 91.4553 102.538C91.8272 102.206 92.2956 101.901 92.7222 101.642C92.835 101.574 93.7988 100.873 93.3876 101.067C92.954 101.271 92.559 101.488 92.1463 101.732C91.5686 102.073 90.9905 102.521 90.3932 102.82C89.7667 103.133 89.2794 103.806 88.7809 104.291C88.6453 104.423 88.158 104.978 88.2051 104.931C88.666 104.47 89.0945 103.97 89.5615 103.511C89.6475 103.426 90.4546 102.772 90.1629 102.909C89.7542 103.101 89.3603 103.339 89.0112 103.626C88.3282 104.187 87.7713 104.819 87.2198 105.507C87.0498 105.719 86.8879 105.954 86.6951 106.147C86.4968 106.345 87.0519 105.714 87.2262 105.494C88.315 104.121 89.5369 103.163 90.9947 102.18C91.4826 101.851 91.8605 101.578 91.1674 102.193C90.068 103.167 89.0903 104.343 88.2946 105.577C87.8915 106.203 88.1726 106.25 88.6146 105.763C89.3314 104.972 89.8586 104.032 90.6172 103.274C90.766 103.125 91.5918 102.464 91.5193 102.532C90.9398 103.07 90.4514 103.719 89.9198 104.304C89.5397 104.722 89.1539 105.139 88.8129 105.59C88.677 105.77 88.4482 106.385 88.4482 106.159C88.4482 105.743 89.1209 105.103 89.3567 104.816C90.2345 103.746 91.3119 102.861 92.575 102.282C94.0508 101.606 95.5111 101.287 97.0473 100.811C97.2516 100.747 98.4844 100.51 97.7639 100.695C97.2985 100.815 96.8613 100.83 96.3819 100.836C95.9005 100.843 95.4666 101.043 94.9999 101.067C94.216 101.106 94.813 100.885 95.2558 100.721C96.0726 100.419 96.9703 100.125 97.8535 100.286C99.3406 100.556 100.998 100.851 102.371 101.502C102.824 101.717 103.092 101.923 103.497 102.218C103.851 102.477 104.04 102.957 104.38 103.248C104.59 103.428 104.643 103.971 104.789 104.227C104.9 104.422 105.122 104.039 105.122 103.933C105.122 103.614 105.019 103.299 105.019 102.973C105.019 102.633 105.01 101.995 104.847 101.7C104.721 101.473 104.95 101.246 104.898 101.009C104.849 100.788 104.552 100.756 104.386 100.663C104.04 100.471 103.394 100.454 102.998 100.382C102.491 100.29 101.958 100.208 101.449 100.152C100.53 100.049 99.6176 100.03 98.6852 100.03" stroke="#093243" stroke-width="1.5" stroke-linecap="round" stroke-linejoin="round"/>
</svg>
