<svg width="32" height="32" viewBox="0 0 32 32" fill="none" xmlns="http://www.w3.org/2000/svg">
<path d="M15.9987 9.83594C12.5934 9.83594 9.83472 12.5959 9.83472 15.9999C9.83472 19.4053 12.5934 22.1653 15.9987 22.1653C19.4014 22.1653 22.1627 19.4053 22.1627 15.9999C22.1627 12.5959 19.4014 9.83594 15.9987 9.83594ZM15.9987 20.0053C13.7867 20.0053 11.9934 18.2119 11.9934 16.0013C11.9934 13.7893 13.7867 11.9973 15.9987 11.9973C18.2107 11.9973 20.0014 13.7893 20.0014 16.0013C20.0014 18.2119 18.2107 20.0053 15.9987 20.0053Z" fill="#F1EFEC"/>
<path d="M22.408 11.0468C23.2019 11.0468 23.8454 10.4033 23.8454 9.60945C23.8454 8.81563 23.2019 8.17212 22.408 8.17212C21.6142 8.17212 20.9707 8.81563 20.9707 9.60945C20.9707 10.4033 21.6142 11.0468 22.408 11.0468Z" fill="#F1EFEC"/>
<path d="M27.3774 8.14793C26.752 6.53593 25.4787 5.26126 23.8667 4.63859C22.9347 4.28793 21.9494 4.09993 20.952 4.07859C19.668 4.02259 19.2614 4.00659 16.0054 4.00659C12.7494 4.00659 12.332 4.00659 11.0587 4.07859C10.064 4.09859 9.07869 4.28659 8.14669 4.63859C6.53335 5.26126 5.26002 6.53593 4.63602 8.14793C4.28535 9.08126 4.09735 10.0653 4.07735 11.0626C4.02002 12.3453 4.00269 12.7519 4.00269 16.0093C4.00269 19.2653 4.00269 19.6799 4.07735 20.9559C4.09735 21.9533 4.28535 22.9373 4.63602 23.8719C5.26135 25.4826 6.53469 26.7573 8.14802 27.3813C9.07602 27.7439 10.0614 27.9493 11.0614 27.9813C12.3454 28.0373 12.752 28.0546 16.008 28.0546C19.264 28.0546 19.6814 28.0546 20.9547 27.9813C21.9507 27.9613 22.936 27.7719 23.8694 27.4226C25.4814 26.7973 26.7547 25.5239 27.38 23.9119C27.7307 22.9786 27.9187 21.9946 27.9387 20.9973C27.996 19.7146 28.0134 19.3079 28.0134 16.0506C28.0134 12.7933 28.0134 12.3799 27.9387 11.1039C27.9214 10.0933 27.7347 9.09193 27.3774 8.14793ZM25.7534 20.8573C25.744 21.6253 25.6054 22.3866 25.3387 23.1079C24.932 24.1573 24.104 24.9866 23.056 25.3893C22.3427 25.6546 21.5907 25.7933 20.8294 25.8039C19.5627 25.8626 19.2054 25.8773 15.9574 25.8773C12.7067 25.8773 12.3747 25.8773 11.084 25.8039C10.3254 25.7946 9.57069 25.6546 8.85869 25.3893C7.80669 24.9879 6.97335 24.1586 6.56669 23.1079C6.30535 22.3959 6.16402 21.6426 6.15202 20.8826C6.09469 19.6159 6.08135 19.2586 6.08135 16.0106C6.08135 12.7613 6.08135 12.4293 6.15202 11.1373C6.16135 10.3693 6.30002 9.60926 6.56669 8.88793C6.97335 7.83592 7.80669 7.00793 8.85869 6.60526C9.57069 6.34126 10.3254 6.20126 11.084 6.19059C12.352 6.13326 12.708 6.11726 15.9574 6.11726C19.2067 6.11726 19.54 6.11726 20.8294 6.19059C21.5907 6.19993 22.3427 6.33993 23.056 6.60526C24.104 7.00926 24.932 7.83859 25.3387 8.88793C25.6 9.59993 25.7414 10.3533 25.7534 11.1133C25.8107 12.3813 25.8254 12.7373 25.8254 15.9866C25.8254 19.2346 25.8254 19.5839 25.768 20.8586H25.7534V20.8573Z" fill="#F1EFEC"/>
</svg>
