<svg width="32" height="32" viewBox="0 0 32 32" fill="none" xmlns="http://www.w3.org/2000/svg">
<path fill-rule="evenodd" clip-rule="evenodd" d="M17.173 3.68555C15.4464 3.68555 13.4404 4.07839 12.3319 5.96283C11.8545 6.77439 11.4436 7.7742 11.2655 8.81424C11.0878 9.85233 11.1336 10.9862 11.6437 12.0064C11.7742 12.2674 11.8707 12.5458 11.9863 12.8791C12.0393 13.0319 12.0963 13.1963 12.1624 13.3758C12.3511 13.8883 12.6106 14.5026 13.0683 14.9857C13.7407 15.6955 14.7565 16.3465 15.8026 16.5458C17.4236 16.8545 18.8075 15.7109 19.4221 14.5586C20.2478 13.0103 20.9808 11.5053 21.2851 9.6289C21.3178 9.42729 21.3567 9.23102 21.3989 9.01853L21.3989 9.01852C21.4188 8.91816 21.4394 8.81418 21.4604 8.7043C21.5229 8.3778 21.5842 8.02055 21.6108 7.65493C21.6648 6.91319 21.5793 6.08616 21.048 5.30313C20.421 4.37907 19.3889 4.28237 18.6484 4.31532C18.417 4.32561 18.1843 4.35003 17.9658 4.37763C17.9131 3.98684 17.5782 3.68555 17.173 3.68555ZM13.711 6.77406C14.1911 5.95782 14.9721 5.54294 15.9608 5.37633C15.9922 5.78937 16.3373 6.11471 16.7584 6.11471C17.0862 6.11471 17.4527 6.06339 17.7671 6.01936L17.79 6.01615C18.1239 5.96939 18.4289 5.92667 18.7195 5.91374C19.3392 5.88617 19.5929 6.00828 19.724 6.20153C19.9835 6.58383 20.0536 7.00878 20.015 7.53882C19.9954 7.8091 19.9484 8.09269 19.8889 8.40362C19.8724 8.49004 19.8543 8.58107 19.8358 8.67479L19.8357 8.67501C19.7909 8.9011 19.743 9.14277 19.7057 9.37278C19.4462 10.973 18.8229 12.282 18.0103 13.8057C17.5798 14.6128 16.773 15.1018 16.102 14.974C15.4531 14.8504 14.7236 14.4065 14.2298 13.8853C14.0118 13.6552 13.8429 13.3091 13.6639 12.823C13.6232 12.7124 13.5803 12.589 13.535 12.4583L13.535 12.4583L13.535 12.4583C13.4051 12.084 13.2547 11.6507 13.0748 11.2908C12.7626 10.6664 12.7023 9.90349 12.8426 9.0843C12.9825 8.26705 13.3139 7.44908 13.711 6.77406ZM17.2076 19.9606L17.208 19.9606H17.2081C18.2075 19.8218 19.1406 19.6922 20.0866 19.6922C21.301 19.6922 22.2558 19.8731 23.326 20.3488C23.5838 20.4634 23.8816 20.7518 24.2032 21.2137C24.4689 21.5954 24.6957 22.0114 24.907 22.3988C24.9441 22.4669 24.9808 22.5341 25.0171 22.6001C25.585 23.6328 26.0513 24.946 26.3469 26.1284C26.3771 26.2491 26.4584 26.5881 26.5151 26.8824C26.5317 26.9686 26.5442 27.0412 26.5528 27.0983C26.4662 27.4529 26.6322 27.8329 26.9725 28.003C27.0639 28.0487 27.2131 28.1019 27.4007 28.088C27.6025 28.0731 27.7727 27.986 27.8952 27.8722C28.0937 27.6879 28.1374 27.4644 28.1472 27.4145L28.1475 27.4129C28.1754 27.2706 28.1653 27.1342 28.1608 27.077C28.1489 26.9258 28.1173 26.7414 28.0862 26.58C28.0216 26.2444 27.9324 25.8734 27.8991 25.7403C27.5806 24.4661 27.0712 23.015 26.419 21.8291C26.388 21.7728 26.3552 21.7124 26.3206 21.6488L26.3198 21.6473C26.1107 21.2632 25.8367 20.7597 25.5163 20.2995C25.1516 19.7757 24.6463 19.1847 23.9758 18.8867C22.6778 18.3098 21.4979 18.0922 20.0866 18.0922C19.0215 18.0922 17.9709 18.2386 16.9821 18.3764L16.9815 18.3765C16.843 18.3958 16.7057 18.415 16.5697 18.4335C16.0788 18.5004 15.581 18.5404 15.0564 18.5824L15.0563 18.5824L15.0488 18.583C14.5289 18.6247 13.9826 18.6687 13.4354 18.7447C11.7905 18.9732 9.71884 19.4441 8.4717 21.107C7.04169 23.0137 6.46265 25.7051 6.02622 27.7417C5.93365 28.1738 6.20882 28.599 6.64084 28.6916C7.07286 28.7842 7.49813 28.509 7.59071 28.077C8.04446 25.9594 8.57118 23.641 9.7517 22.067C10.573 20.9719 12.0289 20.5554 13.6555 20.3295C14.1495 20.2609 14.6502 20.2202 15.1767 20.1779L15.2045 20.1757C15.7151 20.1348 16.2507 20.0918 16.7859 20.0188C16.9279 19.9995 17.0684 19.9799 17.2076 19.9606ZM26.5666 27.2201C26.5665 27.2198 26.5663 27.2164 26.5663 27.2101C26.5667 27.2171 26.5668 27.2203 26.5666 27.2201Z" fill="#093243"/>
<path d="M12.3319 5.96283L12.5474 6.08958L12.3319 5.96283ZM11.2655 8.81424L11.5119 8.85643L11.2655 8.81424ZM11.6437 12.0064L11.4201 12.1182V12.1182L11.6437 12.0064ZM11.9863 12.8791L12.2225 12.7972H12.2225L11.9863 12.8791ZM12.1624 13.3758L11.9278 13.4622H11.9278L12.1624 13.3758ZM13.0683 14.9857L12.8868 15.1577L13.0683 14.9857ZM15.8026 16.5458L15.7558 16.7913L15.8026 16.5458ZM19.4221 14.5586L19.6426 14.6763L19.4221 14.5586ZM21.2851 9.6289L21.5319 9.66892V9.66892L21.2851 9.6289ZM21.3989 9.01853L21.1548 8.96429L21.1536 8.9699L21.3989 9.01853ZM21.3989 9.01852L21.643 9.07277L21.6441 9.06716L21.3989 9.01852ZM21.4604 8.7043L21.2149 8.65732V8.65732L21.4604 8.7043ZM21.6108 7.65493L21.8602 7.67307V7.67307L21.6108 7.65493ZM21.048 5.30313L20.8411 5.4435V5.4435L21.048 5.30313ZM18.6484 4.31532L18.6595 4.56507L18.6484 4.31532ZM17.9658 4.37763L17.718 4.41104C17.7364 4.54706 17.8609 4.64286 17.9971 4.62566L17.9658 4.37763ZM15.9608 5.37633L16.21 5.35734C16.2047 5.2873 16.1701 5.22272 16.1148 5.17944C16.0595 5.13615 15.9885 5.11813 15.9192 5.12981L15.9608 5.37633ZM13.711 6.77406L13.4955 6.6473L13.711 6.77406ZM17.7671 6.01936L17.7324 5.77177L17.7324 5.77177L17.7671 6.01936ZM17.79 6.01615L17.8246 6.26374L17.8246 6.26374L17.79 6.01615ZM18.7195 5.91374L18.7306 6.16349L18.7195 5.91374ZM19.724 6.20153L19.9309 6.06115V6.06115L19.724 6.20153ZM20.015 7.53882L19.7657 7.52068L20.015 7.53882ZM19.8889 8.40362L19.6434 8.35664V8.35664L19.8889 8.40362ZM19.8358 8.67479L20.0807 8.72472L20.081 8.72338L19.8358 8.67479ZM19.8357 8.67501L19.5908 8.62509L19.5905 8.62642L19.8357 8.67501ZM19.7057 9.37278L19.9525 9.4128L19.7057 9.37278ZM18.0103 13.8057L18.2309 13.9233L18.0103 13.8057ZM16.102 14.974L16.0552 15.2196L16.102 14.974ZM14.2298 13.8853L14.0483 14.0573L14.2298 13.8853ZM13.6639 12.823L13.4293 12.9094V12.9094L13.6639 12.823ZM13.535 12.4583L13.7712 12.3763L13.7696 12.3719L13.535 12.4583ZM13.535 12.4583L13.7696 12.3719L13.7691 12.3705L13.535 12.4583ZM13.535 12.4583L13.2987 12.5403L13.3009 12.5461L13.535 12.4583ZM13.0748 11.2908L12.8512 11.4026L13.0748 11.2908ZM12.8426 9.0843L13.089 9.1265V9.1265L12.8426 9.0843ZM17.208 19.9606V19.7106C17.1965 19.7106 17.185 19.7114 17.1736 19.7129L17.208 19.9606ZM17.2076 19.9606L17.242 20.2082L17.242 20.2082L17.2076 19.9606ZM17.2081 19.9606V20.2106C17.2196 20.2106 17.231 20.2098 17.2424 20.2082L17.2081 19.9606ZM23.326 20.3488L23.2244 20.5772L23.326 20.3488ZM24.2032 21.2137L24.4083 21.0709L24.2032 21.2137ZM24.907 22.3988L24.6875 22.5185L24.907 22.3988ZM25.0171 22.6001L25.2361 22.4797L25.2361 22.4797L25.0171 22.6001ZM26.5151 26.8824L26.7606 26.8352V26.8352L26.5151 26.8824ZM26.5528 27.0983L26.7957 27.1577C26.8034 27.1261 26.8048 27.0933 26.8 27.0611L26.5528 27.0983ZM26.9725 28.003L26.8607 28.2266H26.8607L26.9725 28.003ZM27.4007 28.088L27.4191 28.3373H27.4191L27.4007 28.088ZM27.8952 27.8722L28.0653 28.0554L27.8952 27.8722ZM28.1472 27.4145L27.9018 27.3664L27.9018 27.3665L28.1472 27.4145ZM28.1475 27.4129L27.9021 27.3648L27.9021 27.3648L28.1475 27.4129ZM28.1608 27.077L27.9116 27.0967L28.1608 27.077ZM28.0862 26.58L28.3317 26.5327L28.0862 26.58ZM27.8991 25.7403L27.6566 25.8009L27.8991 25.7403ZM26.419 21.8291L26.6381 21.7086L26.638 21.7086L26.419 21.8291ZM26.3206 21.6488L26.1008 21.768L26.101 21.7683L26.3206 21.6488ZM26.3198 21.6473L26.5395 21.5282L26.5393 21.5278L26.3198 21.6473ZM25.5163 20.2995L25.7215 20.1567L25.5163 20.2995ZM23.9758 18.8867L24.0773 18.6582L23.9758 18.8867ZM16.9821 18.3764L17.0163 18.6241L17.0166 18.624L16.9821 18.3764ZM16.9815 18.3765L16.9473 18.1289L16.947 18.1289L16.9815 18.3765ZM16.5697 18.4335L16.6035 18.6812L16.5697 18.4335ZM15.0564 18.5824L15.0748 18.8318L15.0764 18.8316L15.0564 18.5824ZM15.0563 18.5824L15.0379 18.3331L15.0364 18.3332L15.0563 18.5824ZM15.0488 18.583L15.0288 18.3338L15.0288 18.3338L15.0488 18.583ZM13.4354 18.7447L13.4698 18.9923H13.4698L13.4354 18.7447ZM8.4717 21.107L8.6717 21.257H8.6717L8.4717 21.107ZM6.02622 27.7417L6.27067 27.7941L6.02622 27.7417ZM6.64084 28.6916L6.69322 28.4471L6.64084 28.6916ZM7.59071 28.077L7.83516 28.1294H7.83516L7.59071 28.077ZM9.7517 22.067L9.5517 21.917H9.5517L9.7517 22.067ZM13.6555 20.3295L13.6211 20.0819H13.6211L13.6555 20.3295ZM15.1767 20.1779L15.1967 20.4271H15.1967L15.1767 20.1779ZM15.2045 20.1757L15.1845 19.9265H15.1845L15.2045 20.1757ZM16.7859 20.0188L16.7521 19.7711H16.7521L16.7859 20.0188ZM26.5666 27.2201L26.3443 27.3343L26.3451 27.3359L26.5666 27.2201ZM26.5663 27.2101L26.8158 27.1941C26.8071 27.0593 26.6929 26.9557 26.5579 26.9602C26.4229 26.9648 26.3159 27.0758 26.3163 27.2109L26.5663 27.2101ZM12.5474 6.08958C13.586 4.32392 15.4712 3.93555 17.173 3.93555V3.43555C15.4217 3.43555 13.2947 3.83287 12.1164 5.83607L12.5474 6.08958ZM11.5119 8.85643C11.6841 7.85121 12.0825 6.87982 12.5474 6.08958L12.1164 5.83607C11.6264 6.66897 11.2032 7.69719 11.0191 8.77204L11.5119 8.85643ZM11.8673 11.8946C11.3881 10.9363 11.34 9.8604 11.5119 8.85643L11.0191 8.77204C10.8355 9.84426 10.879 11.0361 11.4201 12.1182L11.8673 11.8946ZM12.2225 12.7972C12.1081 12.4673 12.0064 12.1728 11.8673 11.8946L11.4201 12.1182C11.542 12.362 11.6334 12.6243 11.7501 12.961L12.2225 12.7972ZM12.397 13.2895C12.3319 13.1124 12.2756 12.9502 12.2225 12.7972L11.7501 12.961C11.8031 13.1137 11.8608 13.2801 11.9278 13.4622L12.397 13.2895ZM13.2498 14.8138C12.8294 14.3701 12.5841 13.7975 12.397 13.2895L11.9278 13.4622C12.1182 13.9791 12.3917 14.6351 12.8868 15.1577L13.2498 14.8138ZM15.8494 16.3002C14.8654 16.1127 13.8943 15.4941 13.2498 14.8138L12.8868 15.1577C13.5871 15.8968 14.6476 16.5803 15.7558 16.7913L15.8494 16.3002ZM19.2015 14.441C18.6148 15.541 17.3206 16.5804 15.8494 16.3002L15.7558 16.7913C17.5266 17.1286 19.0002 15.8809 19.6426 14.6763L19.2015 14.441ZM21.0383 9.58888C20.741 11.4222 20.0251 12.8966 19.2015 14.441L19.6426 14.6763C20.4705 13.1241 21.2206 11.5885 21.5319 9.66892L21.0383 9.58888ZM21.1536 8.9699C21.1116 9.18165 21.0718 9.38222 21.0383 9.58888L21.5319 9.66892C21.5638 9.47235 21.6018 9.28039 21.6441 9.06717L21.1536 8.9699ZM21.1548 8.96429L21.1548 8.9643L21.6429 9.07277L21.6429 9.07275L21.1548 8.96429ZM21.2149 8.65732C21.194 8.76624 21.1736 8.86943 21.1536 8.96989L21.6441 9.06716C21.664 8.96689 21.6848 8.86211 21.706 8.75129L21.2149 8.65732ZM21.3615 7.63679C21.336 7.98753 21.2769 8.33328 21.2149 8.65732L21.706 8.75129C21.7689 8.42231 21.8325 8.05357 21.8602 7.67307L21.3615 7.63679ZM20.8411 5.4435C21.3299 6.16384 21.4131 6.92798 21.3615 7.63679L21.8602 7.67307C21.9165 6.89839 21.8288 6.00848 21.2549 5.16275L20.8411 5.4435ZM18.6595 4.56507C19.3823 4.53291 20.2919 4.63416 20.8411 5.4435L21.2549 5.16275C20.55 4.12397 19.3955 4.03183 18.6373 4.06557L18.6595 4.56507ZM17.9971 4.62566C18.2124 4.59847 18.4377 4.57494 18.6595 4.56507L18.6373 4.06557C18.3964 4.07628 18.1562 4.10159 17.9345 4.1296L17.9971 4.62566ZM17.173 3.93555C17.4514 3.93555 17.6818 4.14261 17.718 4.41104L18.2135 4.34422C18.1443 3.83106 17.7051 3.43555 17.173 3.43555V3.93555ZM15.9192 5.12981C14.8825 5.30451 14.0242 5.74853 13.4955 6.6473L13.9265 6.90081C14.358 6.16712 15.0617 5.78137 16.0023 5.62286L15.9192 5.12981ZM16.7584 5.86471C16.469 5.86471 16.2316 5.64105 16.21 5.35734L15.7115 5.39532C15.7528 5.93768 16.2056 6.36471 16.7584 6.36471V5.86471ZM17.7324 5.77177C17.4142 5.81635 17.0656 5.86471 16.7584 5.86471V6.36471C17.1069 6.36471 17.4912 6.31044 17.8018 6.26694L17.7324 5.77177ZM17.7553 5.76857L17.7324 5.77177L17.8018 6.26694L17.8246 6.26374L17.7553 5.76857ZM18.7084 5.66399C18.4037 5.67754 18.0865 5.72219 17.7553 5.76857L17.8246 6.26374C18.1613 6.21659 18.4541 6.1758 18.7306 6.16349L18.7084 5.66399ZM19.9309 6.06115C19.7233 5.75517 19.3501 5.63543 18.7084 5.66399L18.7306 6.16349C19.3283 6.1369 19.4625 6.26138 19.5172 6.3419L19.9309 6.06115ZM20.2644 7.55696C20.3054 6.99359 20.2327 6.50592 19.9309 6.06115L19.5172 6.3419C19.7342 6.66174 19.8018 7.02398 19.7657 7.52068L20.2644 7.55696ZM20.1345 8.45061C20.1944 8.13728 20.2436 7.84216 20.2644 7.55696L19.7657 7.52068C19.7471 7.77604 19.7024 8.0481 19.6434 8.35664L20.1345 8.45061ZM20.081 8.72338C20.0995 8.62984 20.1178 8.53797 20.1345 8.4506L19.6434 8.35664C19.627 8.4421 19.6091 8.53231 19.5905 8.6262L20.081 8.72338ZM20.0807 8.72494L20.0807 8.72472L19.5908 8.62486L19.5908 8.62509L20.0807 8.72494ZM19.9525 9.4128C19.989 9.18785 20.036 8.95052 20.081 8.72361L19.5905 8.62642C19.5459 8.85168 19.4971 9.0977 19.459 9.33277L19.9525 9.4128ZM18.2309 13.9233C19.0455 12.3959 19.686 11.0562 19.9525 9.4128L19.459 9.33277C19.2065 10.8898 18.6003 12.1682 17.7897 13.688L18.2309 13.9233ZM16.0552 15.2196C16.8721 15.3752 17.7701 14.7874 18.2309 13.9233L17.7897 13.688C17.3896 14.4382 16.6738 14.8284 16.1488 14.7284L16.0552 15.2196ZM14.0483 14.0573C14.5701 14.608 15.3443 15.0842 16.0552 15.2196L16.1488 14.7284C15.5618 14.6166 14.8771 14.2051 14.4113 13.7134L14.0483 14.0573ZM13.4293 12.9094C13.6096 13.3992 13.7927 13.7875 14.0483 14.0573L14.4113 13.7134C14.2309 13.523 14.0761 13.2191 13.8985 12.7366L13.4293 12.9094ZM13.2988 12.5403C13.3439 12.6704 13.3876 12.7961 13.4293 12.9094L13.8985 12.7366C13.8587 12.6286 13.8167 12.5076 13.7712 12.3763L13.2988 12.5403ZM13.3004 12.5447L13.3004 12.5447L13.7696 12.3719L13.7696 12.3719L13.3004 12.5447ZM13.3009 12.5461L13.3009 12.5461L13.7691 12.3705L13.7691 12.3705L13.3009 12.5461ZM12.8512 11.4026C13.0225 11.7452 13.1677 12.1625 13.2988 12.5402L13.7712 12.3763C13.6425 12.0056 13.4869 11.5561 13.2984 11.179L12.8512 11.4026ZM12.5962 9.0421C12.45 9.89561 12.5081 10.7165 12.8512 11.4026L13.2984 11.179C13.0171 10.6164 12.9546 9.91137 13.089 9.1265L12.5962 9.0421ZM13.4955 6.6473C13.0859 7.34367 12.7421 8.19005 12.5962 9.0421L13.089 9.1265C13.223 8.34405 13.5419 7.5545 13.9265 6.90081L13.4955 6.6473ZM17.1736 19.7129L17.1732 19.713L17.242 20.2082L17.2425 20.2082L17.1736 19.7129ZM17.2081 19.7106H17.208V20.2106H17.2081V19.7106ZM20.0866 19.4422C19.1203 19.4422 18.1699 19.5746 17.1737 19.7129L17.2424 20.2082C18.245 20.069 19.1608 19.9422 20.0866 19.9422V19.4422ZM23.4275 20.1203C22.3217 19.6289 21.3318 19.4422 20.0866 19.4422V19.9422C21.2703 19.9422 22.1899 20.1174 23.2244 20.5772L23.4275 20.1203ZM24.4083 21.0709C24.0802 20.5995 23.75 20.2636 23.4275 20.1203L23.2244 20.5772C23.4177 20.6631 23.683 20.9041 23.998 21.3565L24.4083 21.0709ZM25.1265 22.2792C24.9163 21.8937 24.6831 21.4656 24.4083 21.0709L23.998 21.3565C24.2546 21.7252 24.4751 22.1291 24.6875 22.5185L25.1265 22.2792ZM25.2361 22.4797C25.2001 22.4141 25.1636 22.3473 25.1265 22.2791L24.6875 22.5185C24.7246 22.5865 24.7614 22.6542 24.798 22.7206L25.2361 22.4797ZM26.5894 26.0677C26.2902 24.871 25.8172 23.5362 25.2361 22.4797L24.798 22.7206C25.3528 23.7293 25.8123 25.021 26.1043 26.189L26.5894 26.0677ZM26.7606 26.8352C26.7027 26.5344 26.6201 26.1904 26.5894 26.0677L26.1043 26.189C26.134 26.3078 26.2142 26.6418 26.2696 26.9297L26.7606 26.8352ZM26.8 27.0611C26.7908 26.9998 26.7776 26.9237 26.7606 26.8352L26.2696 26.9297C26.2857 27.0135 26.2976 27.0826 26.3056 27.1356L26.8 27.0611ZM27.0843 27.7794C26.8507 27.6626 26.7361 27.4014 26.7957 27.1577L26.3099 27.039C26.1963 27.5045 26.4138 28.0032 26.8607 28.2266L27.0843 27.7794ZM27.3822 27.8387C27.2524 27.8483 27.1487 27.8116 27.0843 27.7794L26.8607 28.2266C26.9791 28.2858 27.1738 28.3555 27.4191 28.3373L27.3822 27.8387ZM27.725 27.6891C27.6398 27.7682 27.5218 27.8284 27.3822 27.8387L27.4191 28.3373C27.6832 28.3178 27.9056 28.2038 28.0653 28.0554L27.725 27.6891ZM27.9018 27.3665C27.8946 27.4034 27.8634 27.5605 27.725 27.6891L28.0653 28.0554C28.3239 27.8152 28.3802 27.5255 28.3925 27.4625L27.9018 27.3665ZM27.9021 27.3648L27.9018 27.3664L28.3925 27.4626L28.3928 27.461L27.9021 27.3648ZM27.9116 27.0967C27.9159 27.1512 27.923 27.2584 27.9021 27.3648L28.3928 27.461C28.4277 27.2828 28.4148 27.1172 28.41 27.0574L27.9116 27.0967ZM27.8407 26.6272C27.8715 26.7873 27.9008 26.9602 27.9116 27.0967L28.41 27.0574C28.3969 26.8914 28.363 26.6955 28.3317 26.5327L27.8407 26.6272ZM27.6566 25.8009C27.6894 25.9321 27.7774 26.2981 27.8407 26.6272L28.3317 26.5327C28.2659 26.1907 28.1754 25.8148 28.1416 25.6797L27.6566 25.8009ZM26.1999 21.9495C26.839 23.1115 27.3416 24.5411 27.6566 25.8009L28.1416 25.6797C27.8195 24.3911 27.3035 22.9185 26.6381 21.7086L26.1999 21.9495ZM26.101 21.7683C26.1355 21.8318 26.1687 21.8927 26.1999 21.9496L26.638 21.7086C26.6074 21.6529 26.5748 21.593 26.5401 21.5293L26.101 21.7683ZM26.1 21.7665L26.1008 21.768L26.5403 21.5296L26.5395 21.5282L26.1 21.7665ZM25.3111 20.4424C25.6225 20.8896 25.8903 21.3812 26.1002 21.7668L26.5393 21.5278C26.331 21.1451 26.0509 20.6299 25.7215 20.1567L25.3111 20.4424ZM23.8742 19.1151C24.4804 19.3845 24.9533 19.9283 25.3111 20.4424L25.7215 20.1567C25.3499 19.623 24.8122 18.9848 24.0773 18.6582L23.8742 19.1151ZM20.0866 18.3422C21.4671 18.3422 22.6118 18.554 23.8742 19.1151L24.0773 18.6582C22.7437 18.0655 21.5287 17.8422 20.0866 17.8422V18.3422ZM17.0166 18.624C18.008 18.4859 19.0417 18.3422 20.0866 18.3422V17.8422C19.0014 17.8422 17.9338 17.9914 16.9475 18.1288L17.0166 18.624ZM17.0158 18.6242L17.0163 18.6241L16.9478 18.1288L16.9473 18.1289L17.0158 18.6242ZM16.6035 18.6812C16.7399 18.6626 16.8776 18.6434 17.016 18.6241L16.947 18.1289C16.8084 18.1482 16.6715 18.1673 16.536 18.1858L16.6035 18.6812ZM15.0764 18.8316C15.5997 18.7897 16.1046 18.7492 16.6035 18.6812L16.536 18.1858C16.0531 18.2516 15.5623 18.2911 15.0364 18.3332L15.0764 18.8316ZM15.0748 18.8318L15.0748 18.8318L15.0379 18.3331L15.0379 18.3331L15.0748 18.8318ZM15.0688 18.8322L15.0763 18.8316L15.0364 18.3332L15.0288 18.3338L15.0688 18.8322ZM13.4698 18.9923C14.0087 18.9175 14.5479 18.874 15.0688 18.8322L15.0288 18.3338C14.51 18.3755 13.9565 18.4199 13.401 18.4971L13.4698 18.9923ZM8.6717 21.257C9.85235 19.6828 11.8279 19.2204 13.4698 18.9923L13.401 18.4971C11.7531 18.726 9.58534 19.2055 8.2717 20.957L8.6717 21.257ZM6.27067 27.7941C6.70973 25.7452 7.2806 23.1118 8.6717 21.257L8.2717 20.957C6.80277 22.9155 6.21556 25.665 5.78177 27.6894L6.27067 27.7941ZM6.69322 28.4471C6.39621 28.3835 6.20703 28.0911 6.27067 27.7941L5.78177 27.6894C5.66027 28.2564 6.02143 28.8145 6.58846 28.936L6.69322 28.4471ZM7.34626 28.0246C7.28261 28.3216 6.99024 28.5108 6.69322 28.4471L6.58846 28.936C7.15549 29.0576 7.71365 28.6964 7.83516 28.1294L7.34626 28.0246ZM9.5517 21.917C8.33212 23.5431 7.79722 25.9201 7.34626 28.0246L7.83516 28.1294C8.29171 25.9988 8.81023 23.7389 9.9517 22.217L9.5517 21.917ZM13.6211 20.0819C11.9919 20.3081 10.4396 20.7331 9.5517 21.917L9.9517 22.217C10.7064 21.2107 12.066 20.8027 13.6899 20.5771L13.6211 20.0819ZM15.1567 19.9287C14.6313 19.9709 14.1234 20.0121 13.6211 20.0819L13.6899 20.5771C14.1755 20.5097 14.6691 20.4694 15.1967 20.4271L15.1567 19.9287ZM15.1845 19.9265L15.1567 19.9287L15.1967 20.4271L15.2244 20.4249L15.1845 19.9265ZM16.7521 19.7711C16.2249 19.843 15.6961 19.8855 15.1845 19.9265L15.2244 20.4249C15.734 20.384 16.2765 20.3406 16.8197 20.2665L16.7521 19.7711ZM17.1732 19.713C17.034 19.7323 16.8938 19.7518 16.7521 19.7711L16.8197 20.2665C16.962 20.2471 17.1028 20.2276 17.242 20.2082L17.1732 19.713ZM26.789 27.1058C26.7956 27.1187 26.7998 27.1297 26.8022 27.1363C26.8047 27.1433 26.8065 27.1493 26.8076 27.1535C26.8099 27.1618 26.8113 27.1684 26.812 27.1721C26.8135 27.1796 26.8142 27.1855 26.8146 27.188C26.8153 27.1936 26.8156 27.1979 26.8158 27.1994C26.8161 27.2032 26.8162 27.2059 26.8162 27.2067C26.8163 27.2089 26.8163 27.2099 26.8163 27.2093L26.3163 27.2109C26.3163 27.2166 26.3164 27.2224 26.3167 27.228C26.3168 27.2305 26.317 27.2345 26.3173 27.2392C26.3175 27.2412 26.3179 27.2458 26.3186 27.2517C26.319 27.2543 26.3198 27.2603 26.3212 27.2678C26.322 27.2716 26.3234 27.2783 26.3256 27.2865C26.3271 27.2919 26.3325 27.3114 26.3443 27.3343L26.789 27.1058ZM26.3168 27.2261C26.3169 27.2276 26.3168 27.2269 26.3168 27.2246C26.3168 27.224 26.3166 27.22 26.3167 27.2146C26.3168 27.2139 26.3169 27.2037 26.3184 27.191C26.3188 27.1872 26.3197 27.1803 26.3214 27.1716C26.3225 27.1662 26.3266 27.1453 26.3374 27.1204C26.3425 27.1087 26.3553 27.0812 26.3808 27.0529C26.4066 27.0242 26.4666 26.9724 26.5607 26.9701C26.6537 26.9679 26.7154 27.0158 26.7416 27.0415C26.7681 27.0674 26.7824 27.0931 26.7882 27.1042L26.3451 27.3359C26.3509 27.347 26.3652 27.3727 26.3917 27.3986C26.4179 27.4243 26.4796 27.4722 26.5726 27.47C26.6667 27.4678 26.7267 27.4159 26.7525 27.3873C26.778 27.3589 26.7908 27.3314 26.7959 27.3197C26.8068 27.2948 26.8109 27.2739 26.8119 27.2684C26.8137 27.2597 26.8146 27.2527 26.815 27.2489C26.8165 27.2361 26.8166 27.2257 26.8166 27.2246C26.8168 27.2184 26.8166 27.2132 26.8166 27.211C26.8164 27.2053 26.8161 27.1996 26.8158 27.1941L26.3168 27.2261Z" fill="#093243"/>
</svg>
