<svg width="32" height="32" viewBox="0 0 32 32" fill="none" xmlns="http://www.w3.org/2000/svg">
<path fill-rule="evenodd" clip-rule="evenodd" d="M3.95311 5.54139C4.27269 5.54583 4.62427 5.55072 4.98428 5.53327C5.0404 7.10891 5.37774 8.73353 5.73636 10.168C6.07825 11.5355 6.30924 12.929 6.54521 14.3525C6.63549 14.8972 6.72651 15.4462 6.82474 15.9999L6.82891 16.0234C7.13076 17.7247 7.45215 19.5363 7.97435 21.2521C8.14211 21.8033 8.34229 22.3878 8.58878 22.9416C8.5912 22.951 8.59469 22.965 8.59929 22.9844L8.60674 23.0161L8.60675 23.0161L8.60676 23.0162L8.60677 23.0162C8.6196 23.071 8.63808 23.15 8.65837 23.2241C8.68164 23.3091 8.72127 23.4423 8.7857 23.5697C8.81813 23.6338 8.87316 23.7298 8.96086 23.823C9.04883 23.9164 9.20994 24.0487 9.4511 24.0925C9.7371 24.1445 10.0206 24.1404 10.2424 24.1315C10.3296 24.128 10.4048 24.1241 10.4727 24.1205L10.4732 24.1205C10.6036 24.1137 10.7076 24.1083 10.8188 24.1099C11.6506 24.1221 12.4623 24.1224 13.2971 24.1099C14.8002 24.0873 16.3038 24.018 17.7928 23.9493L17.793 23.9493L18.2811 23.9269C19.9347 23.8513 21.5715 23.7827 23.203 23.7827C23.6448 23.7827 24.003 23.4245 24.003 22.9827C24.003 22.5409 23.6448 22.1827 23.203 22.1827C21.531 22.1827 19.8613 22.2529 18.208 22.3285L17.7212 22.3509C16.2284 22.4197 14.7499 22.4879 13.273 22.5101C12.4546 22.5224 11.6588 22.5221 10.8423 22.5101C10.6758 22.5076 10.485 22.5175 10.3293 22.5255L10.3286 22.5255L10.3277 22.5256C10.2726 22.5284 10.222 22.531 10.1783 22.5328L10.1362 22.5343L10.1311 22.515L10.1265 22.4982C10.1173 22.465 10.0975 22.3955 10.0647 22.3226C9.84915 21.8437 9.66632 21.3162 9.50502 20.7862C9.01318 19.1701 8.70628 17.4459 8.40014 15.7204C8.30896 15.2065 8.22195 14.6815 8.13393 14.1506L8.13393 14.1505L8.13392 14.1505C7.89435 12.7052 7.64734 11.215 7.28858 9.77992C7.26282 9.67688 7.23732 9.57338 7.21216 9.46949C8.90712 9.2649 10.7076 9.31655 12.5002 9.36798H12.5002C12.7322 9.37463 12.9641 9.38129 13.1957 9.38738L13.6808 9.40031L13.6809 9.40031H13.6809H13.6809C14.8815 9.4325 16.0911 9.46493 17.3075 9.46493C17.8468 9.46493 18.3906 9.44063 18.9133 9.41728L18.9137 9.41726C19.0645 9.41052 19.2135 9.40387 19.3601 9.39789C20.0278 9.3707 20.6655 9.35647 21.2938 9.39943C21.4577 9.41064 21.6222 9.42205 21.7872 9.4335L21.788 9.43356C23.0801 9.52322 24.4031 9.61503 25.7282 9.6272C25.6967 9.71931 25.6681 9.8105 25.6426 9.89966C25.3772 10.8285 25.0659 11.7381 24.7386 12.6733C24.5774 13.1339 24.4636 13.6024 24.3604 14.0276L24.3604 14.0277L24.3507 14.0676C24.2417 14.5167 24.1422 14.9196 24.0044 15.3035C23.8698 15.6786 23.7779 16.0559 23.6983 16.3966L23.6665 16.5336C23.5975 16.8307 23.5358 17.0967 23.4559 17.3582C23.4297 17.4438 23.3996 17.5247 23.3603 17.6301L23.3547 17.645C19.2414 18.3277 15.0684 18.8283 10.9304 18.8283C10.4886 18.8283 10.1304 19.1865 10.1304 19.6283C10.1304 20.0701 10.4886 20.4283 10.9304 20.4283C15.1792 20.4283 19.4358 19.9162 23.5798 19.2295L23.5986 19.2344L23.6035 19.2356C23.6457 19.2465 23.8116 19.2893 24.0009 19.2633C24.1185 19.2472 24.2886 19.1993 24.4458 19.0646C24.6093 18.9245 24.691 18.7488 24.7247 18.5973C24.7438 18.5111 24.7757 18.4152 24.8247 18.2826L24.8508 18.2125L24.8508 18.2124C24.8922 18.1018 24.9442 17.9627 24.9861 17.8257C25.0833 17.5075 25.1585 17.183 25.2263 16.89L25.2564 16.7604C25.3353 16.4226 25.4097 16.1244 25.5103 15.8441C25.6813 15.3676 25.7991 14.8835 25.9055 14.4452L25.9073 14.438C26.0163 13.9892 26.1139 13.5871 26.2488 13.2018C26.5769 12.2643 26.9018 11.3166 27.181 10.3392C27.2609 10.0598 27.3818 9.76156 27.5184 9.52079L27.5385 9.49652C27.5707 9.45748 27.6261 9.39046 27.6757 9.32166C27.7005 9.28729 27.7334 9.23963 27.7644 9.18509C27.786 9.14694 27.8493 9.03402 27.8767 8.88356C27.891 8.80492 27.9077 8.65269 27.8499 8.47527C27.7827 8.26903 27.6358 8.0959 27.4378 7.9969C27.2671 7.91157 27.11 7.90653 27.0264 7.91011C26.9369 7.91394 26.8631 7.93099 26.8159 7.94411C26.5783 8.01012 26.3409 8.02856 26.0209 8.02856C24.6572 8.02856 23.2915 7.9339 21.8968 7.83724L21.8957 7.83715C21.7318 7.8258 21.5676 7.81442 21.4029 7.80316C20.6836 7.75397 19.9741 7.77156 19.295 7.79922C19.134 7.80578 18.9756 7.81284 18.8191 7.81982C18.3031 7.84283 17.8075 7.86493 17.3075 7.86493C16.1141 7.86493 14.9271 7.83312 13.7243 7.80089L13.2378 7.78793C13.0094 7.78192 12.7779 7.77519 12.5436 7.76837L12.5428 7.76835L12.5425 7.76834C10.725 7.71544 8.74706 7.65788 6.87203 7.89964C6.69427 6.94718 6.57622 5.9916 6.57612 5.08423C6.57631 5.08225 6.5773 5.0737 6.58166 5.05418C6.58447 5.0416 6.58674 5.03243 6.59052 5.01716L6.59054 5.01711L6.59054 5.0171L6.59054 5.01707L6.59727 4.98983L6.5976 4.98847L6.5976 4.98846L6.5976 4.98845L6.59761 4.98844C6.60348 4.96444 6.61682 4.90999 6.62552 4.8501C6.63318 4.7974 6.65019 4.6633 6.61272 4.50408C6.56668 4.30847 6.44406 4.10295 6.22378 3.9711C6.04007 3.86115 5.86212 3.84809 5.7748 3.84679C5.67867 3.84536 5.59287 3.85793 5.53302 3.86881C5.06561 3.95379 4.59996 3.94816 4.05288 3.94155H4.05287H4.05287H4.05287C3.89809 3.93967 3.73679 3.93772 3.56709 3.93772C3.12526 3.93772 2.76709 4.29589 2.76709 4.73772C2.76709 5.17955 3.12526 5.53772 3.56709 5.53772C3.68887 5.53772 3.81814 5.53952 3.95311 5.54139ZM27.4952 9.5494C27.4944 9.55045 27.494 9.55092 27.4941 9.55084L27.4999 9.54342L27.4952 9.5494ZM10.0049 25.0407C10.467 24.7439 11.0106 24.7449 11.5266 24.9292C11.747 25.0079 11.9114 25.1733 11.9954 25.3733C12.1072 25.3735 12.2209 25.3972 12.3292 25.4472C12.8355 25.6809 13.3102 25.9686 13.7164 26.534C13.8401 26.7063 13.9248 26.9094 13.9435 27.1364C13.9618 27.3585 13.9126 27.55 13.8521 27.6964C13.7622 27.9138 13.6017 28.1172 13.5338 28.2032L13.525 28.2144L13.512 28.231C13.089 28.7864 12.4193 29.1695 11.7334 29.2694C11.0248 29.3727 10.2023 29.1764 9.67362 28.4323C9.442 28.1063 9.30554 27.7085 9.24168 27.3329C9.1772 26.9537 9.17596 26.5346 9.27039 26.1448C9.36266 25.7639 9.57145 25.3192 10.0049 25.0407ZM11.2561 26.4828C11.1673 26.4827 11.0769 26.4676 10.9885 26.436C10.9312 26.4156 10.8918 26.4069 10.8665 26.4036C10.8551 26.4255 10.8397 26.4625 10.8254 26.5215C10.7907 26.6647 10.7843 26.8607 10.819 27.0647C10.8543 27.2724 10.9214 27.426 10.9779 27.5056C11.0796 27.6487 11.2401 27.7244 11.5028 27.6861C11.7882 27.6446 12.0782 27.4728 12.2392 27.2615C12.0948 27.1242 11.9185 27.0198 11.6587 26.8999C11.4696 26.8126 11.3307 26.6609 11.2561 26.4828ZM10.8291 26.4032C10.8289 26.4029 10.8318 26.4021 10.8384 26.4018L10.8338 26.403C10.8309 26.4035 10.8293 26.4035 10.8291 26.4032ZM21.7302 24.3918C21.704 24.3918 21.6716 24.3906 21.6341 24.3891C21.3309 24.3771 20.6889 24.3516 20.1753 24.8792C19.6349 25.4342 19.3143 26.2878 19.4033 27.0892C19.4921 27.888 20.0222 28.4426 20.5843 28.7481C21.1405 29.0505 21.8286 29.1711 22.4501 29.0436C23.2517 28.8792 23.8454 28.2945 24.1377 27.6412C24.294 27.2919 24.3945 26.9076 24.291 26.4917C24.2009 26.1298 23.9741 25.8527 23.8307 25.6776L23.8221 25.667C23.5423 25.3251 23.0383 25.2747 22.6963 25.5545C22.3544 25.8343 22.304 26.3383 22.5838 26.6802C22.658 26.771 22.699 26.8246 22.7249 26.8641C22.7173 26.8897 22.7032 26.9298 22.6772 26.9878C22.5555 27.2599 22.337 27.4335 22.1286 27.4763C21.9062 27.5219 21.6007 27.4795 21.3484 27.3424C21.1019 27.2084 21.0085 27.047 20.9936 26.9125C20.9603 26.6136 21.0958 26.2273 21.3216 25.9954L21.3223 25.9947C21.3437 25.9915 21.3805 25.9887 21.4522 25.9887C21.4881 25.9888 21.526 25.9894 21.5736 25.9902L21.574 25.9902L21.5743 25.9902C21.62 25.991 21.6738 25.9918 21.7302 25.9918C22.1721 25.9918 22.5302 25.6337 22.5302 25.1918C22.5302 24.75 22.1721 24.3918 21.7302 24.3918Z" fill="#093243"/>
<path d="M4.98428 5.53327L5.23412 5.52437C5.23174 5.45755 5.2027 5.39447 5.15348 5.34922C5.10425 5.30397 5.03896 5.28032 4.97218 5.28356L4.98428 5.53327ZM3.95311 5.54139L3.95659 5.29142L3.95311 5.54139ZM5.73636 10.168L5.49382 10.2286V10.2286L5.73636 10.168ZM6.54521 14.3525L6.79184 14.3116L6.54521 14.3525ZM6.82474 15.9999L7.0709 15.9562L7.0709 15.9562L6.82474 15.9999ZM6.82891 16.0234L6.58275 16.0671L6.58275 16.0671L6.82891 16.0234ZM7.97435 21.2521L7.73518 21.3248L7.97435 21.2521ZM8.58878 22.9416L8.8309 22.8794C8.82743 22.8659 8.82284 22.8527 8.81718 22.84L8.58878 22.9416ZM8.59929 22.9844L8.84266 22.9272L8.84254 22.9267L8.59929 22.9844ZM8.60674 23.0161L8.36334 23.0733L8.36421 23.0767L8.60674 23.0161ZM8.60675 23.0161L8.85088 22.9619L8.84929 22.9555L8.60675 23.0161ZM8.60676 23.0162L8.36263 23.0704L8.36423 23.0768L8.60676 23.0162ZM8.60677 23.0162L8.85022 22.9592L8.8493 22.9556L8.60677 23.0162ZM8.65837 23.2241L8.8995 23.1581L8.8995 23.1581L8.65837 23.2241ZM8.7857 23.5697L8.5626 23.6825H8.5626L8.7857 23.5697ZM8.96086 23.823L8.77884 23.9943L8.77884 23.9943L8.96086 23.823ZM9.4511 24.0925L9.40638 24.3385H9.40638L9.4511 24.0925ZM10.2424 24.1315L10.2525 24.3813H10.2525L10.2424 24.1315ZM10.4727 24.1205L10.4604 23.8708L10.4597 23.8709L10.4727 24.1205ZM10.4732 24.1205L10.4855 24.3702L10.4862 24.3701L10.4732 24.1205ZM10.8188 24.1099L10.8225 23.8599H10.8225L10.8188 24.1099ZM13.2971 24.1099L13.3008 24.3599L13.2971 24.1099ZM17.7928 23.9493L17.7851 23.6994L17.7813 23.6996L17.7928 23.9493ZM17.793 23.9493L17.8006 24.1992L17.8044 24.1991L17.793 23.9493ZM18.2811 23.9269L18.2697 23.6771L18.2696 23.6771L18.2811 23.9269ZM18.208 22.3285L18.1966 22.0788L18.1966 22.0788L18.208 22.3285ZM17.7212 22.3509L17.7097 22.1012H17.7097L17.7212 22.3509ZM13.273 22.5101L13.2768 22.76L13.273 22.5101ZM10.8423 22.5101L10.8386 22.76H10.8386L10.8423 22.5101ZM10.3293 22.5255L10.3164 22.2758L10.3155 22.2759L10.3293 22.5255ZM10.3286 22.5255L10.3406 22.7752L10.3423 22.7751L10.3286 22.5255ZM10.3277 22.5256L10.3157 22.2759L10.3149 22.2759L10.3277 22.5256ZM10.1783 22.5328L10.1875 22.7826L10.1884 22.7826L10.1783 22.5328ZM10.1362 22.5343L9.89446 22.598C9.92427 22.7111 10.0285 22.7884 10.1454 22.7841L10.1362 22.5343ZM10.1311 22.515L10.3729 22.4513L10.3723 22.4492L10.1311 22.515ZM10.1265 22.4982L10.3677 22.4325L10.3674 22.4314L10.1265 22.4982ZM10.0647 22.3226L10.2926 22.22L10.2926 22.22L10.0647 22.3226ZM9.50502 20.7862L9.74419 20.7134L9.50502 20.7862ZM8.40014 15.7204L8.6463 15.6767L8.40014 15.7204ZM8.13393 14.1506L7.88567 14.1816L7.8873 14.1914L8.13393 14.1506ZM8.13393 14.1505L8.3823 14.1195L8.38019 14.1074L8.13393 14.1505ZM8.13392 14.1505L7.88728 14.1914L7.88766 14.1936L8.13392 14.1505ZM7.28858 9.77992L7.53112 9.71929H7.53112L7.28858 9.77992ZM7.21216 9.46949L7.18221 9.22129C7.11131 9.22984 7.04746 9.26831 7.00676 9.32698C6.96605 9.38565 6.95238 9.45893 6.96919 9.52833L7.21216 9.46949ZM12.5002 9.36798L12.493 9.61798H12.5002V9.36798ZM12.5002 9.36798L12.5074 9.11798H12.5002V9.36798ZM13.1957 9.38738L13.2023 9.13747L13.2022 9.13747L13.1957 9.38738ZM13.6808 9.40031L13.6741 9.65022L13.676 9.65026L13.6808 9.40031ZM13.6809 9.40031L13.6761 9.65031H13.6809V9.40031ZM13.6809 9.40031L13.6876 9.15031H13.6809V9.40031ZM18.9133 9.41728L18.9021 9.16753L18.9021 9.16753L18.9133 9.41728ZM18.9137 9.41726L18.9249 9.66701L18.9249 9.66701L18.9137 9.41726ZM19.3601 9.39789L19.3499 9.1481H19.3499L19.3601 9.39789ZM21.2938 9.39943L21.2767 9.64885L21.2938 9.39943ZM21.7872 9.4335L21.7699 9.6829L21.7699 9.6829L21.7872 9.4335ZM21.788 9.43356L21.8053 9.18416L21.8053 9.18415L21.788 9.43356ZM25.7282 9.6272L25.9648 9.7082C25.9908 9.63222 25.9787 9.54835 25.9323 9.48279C25.8859 9.41723 25.8108 9.37795 25.7305 9.37721L25.7282 9.6272ZM25.6426 9.89966L25.883 9.96834V9.96834L25.6426 9.89966ZM24.7386 12.6733L24.5026 12.5907V12.5907L24.7386 12.6733ZM24.3604 14.0276L24.603 14.0883L24.6034 14.0866L24.3604 14.0276ZM24.3604 14.0277L24.1179 13.9671L24.1175 13.9688L24.3604 14.0277ZM24.3507 14.0676L24.5937 14.1266L24.5937 14.1266L24.3507 14.0676ZM24.0044 15.3035L23.7691 15.2191L23.7691 15.2191L24.0044 15.3035ZM23.6983 16.3966L23.4549 16.3398L23.4548 16.34L23.6983 16.3966ZM23.6665 16.5336L23.423 16.477L23.4229 16.4771L23.6665 16.5336ZM23.4559 17.3582L23.695 17.4313L23.695 17.4313L23.4559 17.3582ZM23.3603 17.6301L23.5945 17.7174L23.5945 17.7174L23.3603 17.6301ZM23.3547 17.645L23.3956 17.8916C23.4839 17.8769 23.5576 17.8162 23.5889 17.7323L23.3547 17.645ZM23.5798 19.2295L23.6425 18.9875C23.6087 18.9787 23.5734 18.9771 23.5389 18.9829L23.5798 19.2295ZM23.5986 19.2344L23.5359 19.4764L23.5365 19.4765L23.5986 19.2344ZM23.6035 19.2356L23.666 18.9936L23.6657 18.9935L23.6035 19.2356ZM24.0009 19.2633L24.0349 19.511H24.0349L24.0009 19.2633ZM24.4458 19.0646L24.6085 19.2544L24.4458 19.0646ZM24.7247 18.5973L24.9687 18.6515L24.9687 18.6515L24.7247 18.5973ZM24.8247 18.2826L24.5904 18.1953L24.5901 18.1961L24.8247 18.2826ZM24.8508 18.2125L24.6172 18.1235L24.6165 18.1252L24.8508 18.2125ZM24.8508 18.2124L25.0844 18.3014L25.085 18.3L24.8508 18.2124ZM24.9861 17.8257L25.2251 17.8988L25.2251 17.8988L24.9861 17.8257ZM25.2263 16.89L24.9828 16.8334L24.9828 16.8336L25.2263 16.89ZM25.2564 16.7604L25.013 16.7036L25.0129 16.7039L25.2564 16.7604ZM25.5103 15.8441L25.7456 15.9286V15.9286L25.5103 15.8441ZM25.9055 14.4452L25.6626 14.3862L25.6626 14.3862L25.9055 14.4452ZM25.9073 14.438L26.1502 14.4971L26.1502 14.497L25.9073 14.438ZM26.2488 13.2018L26.4847 13.2844V13.2844L26.2488 13.2018ZM27.181 10.3392L26.9407 10.2705V10.2705L27.181 10.3392ZM27.5184 9.52079L27.3257 9.36149C27.3165 9.37271 27.3082 9.38472 27.301 9.39738L27.5184 9.52079ZM27.5385 9.49652L27.7312 9.65582L27.7312 9.65576L27.5385 9.49652ZM27.6757 9.32166L27.473 9.17531L27.473 9.17531L27.6757 9.32166ZM27.7644 9.18509L27.547 9.06164L27.547 9.06164L27.7644 9.18509ZM27.8767 8.88356L28.1226 8.92833V8.92833L27.8767 8.88356ZM27.8499 8.47527L28.0876 8.39782V8.39782L27.8499 8.47527ZM27.4378 7.9969L27.5496 7.77329V7.77329L27.4378 7.9969ZM27.0264 7.91011L27.0371 8.15988H27.0371L27.0264 7.91011ZM26.8159 7.94411L26.8828 8.18499L26.8828 8.18499L26.8159 7.94411ZM21.8968 7.83724L21.9141 7.58783L21.9141 7.58783L21.8968 7.83724ZM21.8957 7.83715L21.8784 8.08656L21.8784 8.08656L21.8957 7.83715ZM21.4029 7.80316L21.3858 8.05257H21.3858L21.4029 7.80316ZM19.295 7.79922L19.2848 7.54943L19.295 7.79922ZM18.8191 7.81982L18.8302 8.06957L18.8191 7.81982ZM13.7243 7.80089L13.731 7.55098L13.731 7.55098L13.7243 7.80089ZM13.2378 7.78793L13.2444 7.53802L13.2443 7.53802L13.2378 7.78793ZM12.5436 7.76837L12.5509 7.51847L12.5508 7.51847L12.5436 7.76837ZM12.5428 7.76835L12.5353 8.01823L12.5357 8.01824L12.5428 7.76835ZM12.5425 7.76834L12.55 7.51845L12.5498 7.51844L12.5425 7.76834ZM6.87203 7.89964L6.62627 7.94551C6.6506 8.07586 6.77248 8.16455 6.904 8.14759L6.87203 7.89964ZM6.57612 5.08423L6.32722 5.06086C6.32649 5.06863 6.32612 5.07644 6.32612 5.08426L6.57612 5.08423ZM6.58166 5.05418L6.33767 4.99968L6.33767 4.99969L6.58166 5.05418ZM6.59052 5.01716L6.83318 5.07731L6.83319 5.07728L6.59052 5.01716ZM6.59054 5.01711L6.34876 4.95343L6.34788 4.95698L6.59054 5.01711ZM6.59054 5.0171L6.83236 5.08078L6.83367 5.07528L6.59054 5.0171ZM6.59054 5.01707L6.34781 4.95721L6.34741 4.95889L6.59054 5.01707ZM6.59727 4.98983L6.83999 5.0497L6.8401 5.04926L6.59727 4.98983ZM6.5976 4.98847L6.35617 4.92328L6.35476 4.92904L6.5976 4.98847ZM6.5976 4.98846L6.83896 5.05364L6.83907 5.05321L6.5976 4.98846ZM6.5976 4.98845L6.83909 5.05321L6.83985 5.05022L6.5976 4.98845ZM6.59761 4.98844L6.83987 5.05021L6.84043 5.04791L6.59761 4.98844ZM6.62552 4.8501L6.87293 4.88605L6.87293 4.88605L6.62552 4.8501ZM6.61272 4.50408L6.36937 4.56135V4.56135L6.61272 4.50408ZM6.22378 3.9711L6.35217 3.75659L6.35217 3.75659L6.22378 3.9711ZM5.7748 3.84679L5.77852 3.59682L5.7748 3.84679ZM5.53302 3.86881L5.4883 3.62284L5.4883 3.62284L5.53302 3.86881ZM4.05288 3.94155L4.0559 3.69155H4.05288V3.94155ZM4.05287 3.94155L4.04985 4.19155H4.05287V3.94155ZM27.4941 9.55084L27.6548 9.74237C27.6683 9.73102 27.6806 9.71826 27.6915 9.70432L27.4941 9.55084ZM27.4952 9.5494L27.2989 9.39447L27.2969 9.39716L27.4952 9.5494ZM27.4999 9.54342L27.6973 9.6969C27.7818 9.58819 27.7625 9.43158 27.6541 9.34664C27.5457 9.2617 27.389 9.28042 27.3037 9.38851L27.4999 9.54342ZM11.5266 24.9292L11.6107 24.6938H11.6107L11.5266 24.9292ZM10.0049 25.0407L10.14 25.2511L10.0049 25.0407ZM11.9954 25.3733L11.7648 25.47C11.8037 25.5628 11.8945 25.6232 11.9951 25.6233L11.9954 25.3733ZM12.3292 25.4472L12.2244 25.6741L12.2244 25.6741L12.3292 25.4472ZM13.7164 26.534L13.5133 26.6799L13.7164 26.534ZM13.9435 27.1364L14.1927 27.1158V27.1158L13.9435 27.1364ZM13.8521 27.6964L14.0831 27.7919V27.7919L13.8521 27.6964ZM13.5338 28.2032L13.3376 28.0483L13.3375 28.0484L13.5338 28.2032ZM13.525 28.2144L13.3286 28.0597L13.3277 28.0609L13.525 28.2144ZM13.512 28.231L13.3147 28.0775L13.3132 28.0795L13.512 28.231ZM11.7334 29.2694L11.6974 29.022H11.6974L11.7334 29.2694ZM9.67362 28.4323L9.87742 28.2875H9.87742L9.67362 28.4323ZM9.24168 27.3329L9.48814 27.291V27.291L9.24168 27.3329ZM9.27039 26.1448L9.51336 26.2037L9.27039 26.1448ZM10.9885 26.436L10.9044 26.6714L10.9044 26.6715L10.9885 26.436ZM11.2561 26.4828L11.4867 26.3862C11.4478 26.2935 11.3572 26.233 11.2566 26.2328L11.2561 26.4828ZM10.8665 26.4036L10.8989 26.1557C10.7947 26.1421 10.6931 26.1951 10.6446 26.2884L10.8665 26.4036ZM10.8254 26.5215L11.0684 26.5804L11.0684 26.5804L10.8254 26.5215ZM10.819 27.0647L10.5726 27.1066L10.819 27.0647ZM10.9779 27.5056L11.1817 27.3608L11.1817 27.3608L10.9779 27.5056ZM11.5028 27.6861L11.4667 27.4387H11.4667L11.5028 27.6861ZM12.2392 27.2615L12.4381 27.4131C12.5154 27.3116 12.5039 27.1682 12.4115 27.0803L12.2392 27.2615ZM11.6587 26.8999L11.5539 27.1269L11.5539 27.1269L11.6587 26.8999ZM10.8384 26.4018L10.8971 26.6449C11.0217 26.6148 11.1034 26.4953 11.0862 26.3683C11.069 26.2413 10.9585 26.1478 10.8304 26.152L10.8384 26.4018ZM10.8291 26.4032L10.6112 26.5257L10.6113 26.526L10.8291 26.4032ZM10.8338 26.403L10.8804 26.6489L10.8924 26.646L10.8338 26.403ZM21.6341 24.3891L21.644 24.1393H21.644L21.6341 24.3891ZM20.1753 24.8792L20.3544 25.0536V25.0536L20.1753 24.8792ZM19.4033 27.0892L19.6518 27.0616L19.4033 27.0892ZM20.5843 28.7481L20.7037 28.5285L20.5843 28.7481ZM22.4501 29.0436L22.5003 29.2885L22.4501 29.0436ZM24.1377 27.6412L24.3659 27.7433L24.1377 27.6412ZM24.291 26.4917L24.0484 26.5521H24.0484L24.291 26.4917ZM23.8307 25.6776L23.6373 25.8359L23.6373 25.8359L23.8307 25.6776ZM23.8221 25.667L23.6286 25.8254L23.6286 25.8254L23.8221 25.667ZM22.5838 26.6802L22.7772 26.5219L22.7772 26.5219L22.5838 26.6802ZM22.7249 26.8641L22.9645 26.9355C22.9856 26.8649 22.9744 26.7886 22.9339 26.7269L22.7249 26.8641ZM22.6772 26.9878L22.9054 27.0899L22.6772 26.9878ZM22.1286 27.4763L22.0783 27.2314H22.0783L22.1286 27.4763ZM21.3484 27.3424L21.4678 27.1228L21.3484 27.3424ZM20.9936 26.9125L20.7451 26.9402L20.7451 26.9402L20.9936 26.9125ZM21.3216 25.9954L21.1428 25.8207L21.1425 25.821L21.3216 25.9954ZM21.3223 25.9947L21.2857 25.7474C21.2316 25.7554 21.1817 25.7809 21.1435 25.82L21.3223 25.9947ZM21.4522 25.9887L21.4522 26.2387H21.4522L21.4522 25.9887ZM21.5736 25.9902L21.5695 26.2401L21.5702 26.2402L21.5736 25.9902ZM21.574 25.9902L21.5777 25.7402L21.5775 25.7402L21.574 25.9902ZM21.5743 25.9902L21.5785 25.7402L21.578 25.7402L21.5743 25.9902ZM4.97218 5.28356C4.62113 5.30057 4.27713 5.29587 3.95659 5.29142L3.94964 5.79137C4.26824 5.79579 4.6274 5.80086 4.99638 5.78297L4.97218 5.28356ZM5.97889 10.1073C5.62151 8.67784 5.28929 7.07347 5.23412 5.52437L4.73444 5.54216C4.7915 7.14436 5.13397 8.78922 5.49382 10.2286L5.97889 10.1073ZM6.79184 14.3116C6.55616 12.8899 6.32364 11.4864 5.97889 10.1073L5.49382 10.2286C5.83285 11.5847 6.06231 12.9682 6.29857 14.3934L6.79184 14.3116ZM7.0709 15.9562C6.97295 15.4042 6.88216 14.8565 6.79184 14.3116L6.29857 14.3934C6.38882 14.9378 6.48006 15.4883 6.57859 16.0436L7.0709 15.9562ZM7.07506 15.9797L7.0709 15.9562L6.57859 16.0436L6.58275 16.0671L7.07506 15.9797ZM8.21351 21.1793C7.69642 19.4802 7.37736 17.6836 7.07506 15.9797L6.58275 16.0671C6.88415 17.7659 7.20788 19.5923 7.73518 21.3248L8.21351 21.1793ZM8.81718 22.84C8.57646 22.2991 8.37969 21.7253 8.21351 21.1793L7.73518 21.3248C7.90452 21.8813 8.10812 22.4765 8.36037 23.0433L8.81718 22.84ZM8.84254 22.9267C8.83758 22.9058 8.83371 22.8903 8.8309 22.8794L8.34665 23.0039C8.34868 23.0118 8.3518 23.0242 8.35603 23.0421L8.84254 22.9267ZM8.85011 22.9589L8.84266 22.9272L8.35591 23.0415L8.36337 23.0733L8.85011 22.9589ZM8.84929 22.9555L8.84928 22.9555L8.36421 23.0767L8.36421 23.0768L8.84929 22.9555ZM8.85081 22.9619L8.8508 22.9619L8.3627 23.0704L8.36271 23.0704L8.85081 22.9619ZM8.8493 22.9556L8.8493 22.9555L8.36423 23.0768L8.36423 23.0768L8.8493 22.9556ZM8.8995 23.1581C8.88063 23.0892 8.86316 23.0146 8.85019 22.9592L8.36335 23.0732C8.37605 23.1274 8.39553 23.2108 8.41724 23.2901L8.8995 23.1581ZM9.0088 23.4569C8.95601 23.3525 8.92164 23.239 8.8995 23.1581L8.41724 23.2901C8.44165 23.3793 8.48653 23.5321 8.5626 23.6825L9.0088 23.4569ZM9.14288 23.6516C9.07762 23.5823 9.03526 23.5092 9.0088 23.4569L8.5626 23.6825C8.601 23.7585 8.66869 23.8773 8.77884 23.9943L9.14288 23.6516ZM9.49582 23.8466C9.32464 23.8154 9.20859 23.7214 9.14288 23.6516L8.77884 23.9943C8.88908 24.1114 9.09524 24.2819 9.40638 24.3385L9.49582 23.8466ZM10.2324 23.8817C10.0142 23.8904 9.7535 23.8934 9.49582 23.8466L9.40638 24.3385C9.72071 24.3956 10.027 24.3903 10.2525 24.3813L10.2324 23.8817ZM10.4597 23.8709C10.3917 23.8744 10.3179 23.8783 10.2324 23.8817L10.2525 24.3813C10.3413 24.3777 10.4178 24.3737 10.4858 24.3702L10.4597 23.8709ZM10.4608 23.8708L10.4604 23.8708L10.485 24.3702L10.4855 24.3702L10.4608 23.8708ZM10.8225 23.8599C10.7014 23.8581 10.5891 23.8641 10.4601 23.8708L10.4862 24.3701C10.6182 24.3633 10.7137 24.3584 10.8151 24.3599L10.8225 23.8599ZM13.2933 23.8599C12.4611 23.8724 11.6519 23.8721 10.8225 23.8599L10.8151 24.3599C11.6493 24.3721 12.4635 24.3724 13.3008 24.3599L13.2933 23.8599ZM17.7813 23.6996C16.2916 23.7683 14.7919 23.8374 13.2933 23.8599L13.3008 24.3599C14.8085 24.3372 16.3159 24.2677 17.8043 24.1991L17.7813 23.6996ZM17.7853 23.6994L17.7851 23.6994L17.8005 24.1992L17.8006 24.1992L17.7853 23.6994ZM18.2696 23.6771L17.7815 23.6996L17.8044 24.1991L18.2926 24.1766L18.2696 23.6771ZM23.203 23.5327C21.5652 23.5327 19.9232 23.6015 18.2697 23.6771L18.2925 24.1766C19.9462 24.101 21.5778 24.0327 23.203 24.0327V23.5327ZM23.753 22.9827C23.753 23.2865 23.5067 23.5327 23.203 23.5327V24.0327C23.7829 24.0327 24.253 23.5626 24.253 22.9827H23.753ZM23.203 22.4327C23.5067 22.4327 23.753 22.679 23.753 22.9827H24.253C24.253 22.4028 23.7829 21.9327 23.203 21.9327V22.4327ZM18.2195 22.5783C19.8728 22.5027 21.5373 22.4327 23.203 22.4327V21.9327C21.5247 21.9327 19.8498 22.0032 18.1966 22.0788L18.2195 22.5783ZM17.7327 22.6007L18.2195 22.5783L18.1966 22.0788L17.7097 22.1012L17.7327 22.6007ZM13.2768 22.76C14.7582 22.7378 16.2405 22.6694 17.7327 22.6007L17.7097 22.1012C16.2162 22.17 14.7417 22.238 13.2692 22.2601L13.2768 22.76ZM10.8386 22.76C11.6575 22.7721 12.4558 22.7724 13.2768 22.76L13.2692 22.2601C12.4535 22.2724 11.6601 22.2721 10.846 22.2601L10.8386 22.76ZM10.3422 22.7752C10.4997 22.767 10.6819 22.7577 10.8386 22.76L10.846 22.2601C10.6697 22.2575 10.4703 22.2679 10.3164 22.2758L10.3422 22.7752ZM10.3423 22.7751L10.3431 22.7751L10.3155 22.2759L10.3148 22.2759L10.3423 22.7751ZM10.3398 22.7753L10.3406 22.7752L10.3165 22.2758L10.3157 22.2759L10.3398 22.7753ZM10.1884 22.7826C10.2337 22.7807 10.2859 22.7781 10.3406 22.7752L10.3149 22.2759C10.2594 22.2788 10.2102 22.2813 10.1683 22.283L10.1884 22.7826ZM10.1454 22.7841L10.1875 22.7826L10.1692 22.2829L10.127 22.2845L10.1454 22.7841ZM9.88937 22.5788L9.89446 22.598L10.3779 22.4706L10.3728 22.4513L9.88937 22.5788ZM9.88534 22.564L9.88992 22.5808L10.3723 22.4492L10.3677 22.4325L9.88534 22.564ZM9.83668 22.4252C9.86141 22.4802 9.8772 22.5347 9.88563 22.5651L10.3674 22.4314C10.3574 22.3953 10.3335 22.3109 10.2926 22.22L9.83668 22.4252ZM9.26586 20.859C9.42875 21.3942 9.61512 21.9328 9.83668 22.4252L10.2926 22.22C10.0832 21.7545 9.90388 21.2381 9.74419 20.7134L9.26586 20.859ZM8.15398 15.7641C8.45964 17.4868 8.76889 19.2261 9.26586 20.859L9.74419 20.7134C9.25747 19.1142 8.95292 17.405 8.6463 15.6767L8.15398 15.7641ZM7.8873 14.1914C7.97527 14.7222 8.06251 15.2485 8.15398 15.7641L8.6463 15.6767C8.55541 15.1644 8.46863 14.6409 8.38057 14.1097L7.8873 14.1914ZM7.88586 14.1815L7.88586 14.1816L8.382 14.1195L8.382 14.1195L7.88586 14.1815ZM7.88766 14.1936L7.88767 14.1936L8.38019 14.1074L8.38018 14.1074L7.88766 14.1936ZM7.04605 9.84056C7.40194 11.2641 7.64743 12.7443 7.88729 14.1914L8.38056 14.1096C8.14128 12.666 7.89274 11.1658 7.53112 9.71929L7.04605 9.84056ZM6.96919 9.52833C6.9945 9.63286 7.02015 9.73696 7.04605 9.84056L7.53112 9.71929C7.5055 9.6168 7.48014 9.5139 7.45514 9.41064L6.96919 9.52833ZM12.5074 9.11808C10.7187 9.06677 8.89898 9.01407 7.18221 9.22129L7.24212 9.71768C8.91526 9.51573 10.6966 9.56634 12.493 9.61787L12.5074 9.11808ZM12.5002 9.11798H12.5002V9.61798H12.5002V9.11798ZM13.2022 9.13747C12.9711 9.13138 12.7395 9.12474 12.5074 9.11808L12.493 9.61787C12.725 9.62453 12.9572 9.63119 13.1891 9.63729L13.2022 9.13747ZM13.6874 9.15039L13.2023 9.13747L13.189 9.63729L13.6741 9.65022L13.6874 9.15039ZM13.6857 9.15035L13.6856 9.15035L13.676 9.65026L13.6761 9.65026L13.6857 9.15035ZM13.6809 9.15031H13.6809V9.65031H13.6809V9.15031ZM13.6809 9.15031H13.6809V9.65031H13.6809V9.15031ZM17.3075 9.21493C16.095 9.21493 14.8887 9.1826 13.6876 9.1504L13.6742 9.65022C14.8743 9.68239 16.0872 9.71493 17.3075 9.71493V9.21493ZM18.9021 9.16753C18.3785 9.19092 17.8403 9.21493 17.3075 9.21493V9.71493C17.8533 9.71493 18.4027 9.69034 18.9244 9.66703L18.9021 9.16753ZM18.9026 9.16751L18.9021 9.16753L18.9244 9.66703L18.9249 9.66701L18.9026 9.16751ZM19.3499 9.1481C19.2027 9.1541 19.0532 9.16078 18.9026 9.16751L18.9249 9.66701C19.0757 9.66027 19.2242 9.65363 19.3703 9.64769L19.3499 9.1481ZM21.3108 9.15001C20.6683 9.10608 20.0194 9.12083 19.3499 9.1481L19.3703 9.64769C20.0363 9.62056 20.6626 9.60686 21.2767 9.64885L21.3108 9.15001ZM21.8045 9.1841C21.6395 9.17265 21.4749 9.16123 21.3108 9.15001L21.2767 9.64885C21.4405 9.66005 21.6048 9.67145 21.7699 9.6829L21.8045 9.1841ZM21.8053 9.18415L21.8045 9.1841L21.7699 9.6829L21.7707 9.68296L21.8053 9.18415ZM25.7305 9.37721C24.4142 9.36512 23.0986 9.2739 21.8053 9.18416L21.7707 9.68296C23.0615 9.77253 24.3921 9.86494 25.7259 9.87719L25.7305 9.37721ZM25.883 9.96834C25.9073 9.88339 25.9346 9.79631 25.9648 9.7082L25.4917 9.5462C25.4588 9.6423 25.4289 9.73761 25.4022 9.83098L25.883 9.96834ZM24.9745 12.7559C25.302 11.8204 25.6154 10.9047 25.883 9.96834L25.4022 9.83098C25.139 10.7522 24.8298 11.6559 24.5026 12.5907L24.9745 12.7559ZM24.6034 14.0866C24.707 13.6598 24.818 13.203 24.9745 12.7559L24.5026 12.5907C24.3367 13.0647 24.2203 13.5451 24.1175 13.9687L24.6034 14.0866ZM24.603 14.0883L24.603 14.0883L24.1179 13.967L24.1179 13.9671L24.603 14.0883ZM24.5937 14.1266L24.6034 14.0867L24.1175 13.9688L24.1078 14.0087L24.5937 14.1266ZM24.2397 15.388C24.3827 14.9896 24.4851 14.574 24.5937 14.1266L24.1078 14.0087C23.9983 14.4595 23.9017 14.8496 23.7691 15.2191L24.2397 15.388ZM23.9418 16.4535C24.0212 16.1133 24.1104 15.7483 24.2397 15.388L23.7691 15.2191C23.6291 15.6089 23.5345 15.9986 23.4549 16.3398L23.9418 16.4535ZM23.91 16.5902L23.9418 16.4533L23.4548 16.34L23.423 16.477L23.91 16.5902ZM23.695 17.4313C23.7778 17.1602 23.8414 16.8856 23.91 16.5901L23.4229 16.4771C23.3536 16.7758 23.2938 17.0333 23.2168 17.2851L23.695 17.4313ZM23.5945 17.7174C23.6332 17.6136 23.6662 17.5254 23.695 17.4313L23.2168 17.2851C23.1933 17.3622 23.1659 17.4358 23.126 17.5427L23.5945 17.7174ZM23.5889 17.7323L23.5945 17.7174L23.126 17.5427L23.1205 17.5576L23.5889 17.7323ZM10.9304 19.0783C15.0877 19.0783 19.2758 18.5755 23.3956 17.8916L23.3138 17.3983C19.2071 18.08 15.0491 18.5783 10.9304 18.5783V19.0783ZM10.3804 19.6283C10.3804 19.3245 10.6267 19.0783 10.9304 19.0783V18.5783C10.3505 18.5783 9.88041 19.0484 9.88041 19.6283H10.3804ZM10.9304 20.1783C10.6267 20.1783 10.3804 19.932 10.3804 19.6283H9.88041C9.88041 20.2082 10.3505 20.6783 10.9304 20.6783V20.1783ZM23.5389 18.9829C19.4016 19.6685 15.1599 20.1783 10.9304 20.1783V20.6783C15.1984 20.6783 19.4701 20.164 23.6207 19.4761L23.5389 18.9829ZM23.6614 18.9924L23.6425 18.9875L23.5171 19.4715L23.5359 19.4764L23.6614 18.9924ZM23.6657 18.9935L23.6608 18.9922L23.5365 19.4765L23.5414 19.4778L23.6657 18.9935ZM23.9668 19.0156C23.8284 19.0347 23.7022 19.0029 23.666 18.9936L23.5411 19.4777C23.5891 19.4901 23.7948 19.544 24.0349 19.511L23.9668 19.0156ZM24.2831 18.8748C24.1724 18.9696 24.0521 19.0039 23.9668 19.0156L24.0349 19.511C24.1849 19.4904 24.4047 19.4291 24.6085 19.2544L24.2831 18.8748ZM24.4806 18.5431C24.4564 18.6523 24.398 18.7763 24.2831 18.8748L24.6085 19.2544C24.8205 19.0727 24.9256 18.8453 24.9687 18.6515L24.4806 18.5431ZM24.5901 18.1961C24.5407 18.33 24.5037 18.4393 24.4806 18.5431L24.9687 18.6515C24.984 18.5829 25.0108 18.5004 25.0592 18.3692L24.5901 18.1961ZM24.6165 18.1252L24.5904 18.1953L25.0589 18.3699L25.0851 18.2997L24.6165 18.1252ZM24.6172 18.1234L24.6172 18.1235L25.0844 18.3015L25.0844 18.3014L24.6172 18.1234ZM24.747 17.7527C24.7077 17.8811 24.6584 18.0132 24.6167 18.1248L25.085 18.3C25.1259 18.1904 25.1807 18.0442 25.2251 17.8988L24.747 17.7527ZM24.9828 16.8336C24.9146 17.1277 24.8413 17.444 24.747 17.7527L25.2251 17.8988C25.3253 17.571 25.4023 17.2382 25.4699 16.9464L24.9828 16.8336ZM25.0129 16.7039L24.9828 16.8334L25.4698 16.9465L25.4999 16.817L25.0129 16.7039ZM25.275 15.7597C25.169 16.0548 25.0919 16.3654 25.013 16.7036L25.4999 16.8173C25.5786 16.4798 25.6503 16.194 25.7456 15.9286L25.275 15.7597ZM25.6626 14.3862C25.5558 14.8261 25.4409 15.2976 25.275 15.7597L25.7456 15.9286C25.9218 15.4377 26.0424 14.9409 26.1485 14.5042L25.6626 14.3862ZM25.6644 14.379L25.6626 14.3862L26.1485 14.5042L26.1502 14.4971L25.6644 14.379ZM26.0128 13.1192C25.8732 13.5182 25.7727 13.9327 25.6644 14.379L26.1502 14.497C26.2598 14.0457 26.3547 13.656 26.4847 13.2844L26.0128 13.1192ZM26.9407 10.2705C26.6636 11.2403 26.3408 12.1821 26.0128 13.1192L26.4847 13.2844C26.813 12.3465 27.14 11.3928 27.4214 10.4079L26.9407 10.2705ZM27.301 9.39738C27.1533 9.65764 27.0252 9.97467 26.9407 10.2705L27.4214 10.4079C27.4965 10.145 27.6102 9.86549 27.7358 9.64419L27.301 9.39738ZM27.3458 9.33723L27.3257 9.36149L27.7111 9.68008L27.7312 9.65582L27.3458 9.33723ZM27.473 9.17531C27.4287 9.23668 27.3783 9.29791 27.3458 9.33729L27.7312 9.65576C27.7632 9.61705 27.8234 9.54425 27.8784 9.46801L27.473 9.17531ZM27.547 9.06164C27.5222 9.1052 27.4951 9.14472 27.473 9.17531L27.8784 9.46802C27.906 9.42986 27.9445 9.37405 27.9817 9.30853L27.547 9.06164ZM27.6307 8.83878C27.6111 8.94684 27.5649 9.03009 27.547 9.06164L27.9817 9.30853C28.0072 9.26378 28.0875 9.1212 28.1226 8.92833L27.6307 8.83878ZM27.6122 8.55272C27.6524 8.67613 27.641 8.78258 27.6307 8.83879L28.1226 8.92833C28.141 8.82727 28.163 8.62925 28.0876 8.39782L27.6122 8.55272ZM27.326 8.22051C27.4635 8.28929 27.5655 8.40942 27.6122 8.55272L28.0876 8.39782C27.9999 8.12864 27.808 7.90252 27.5496 7.77329L27.326 8.22051ZM27.0371 8.15988C27.0972 8.1573 27.2072 8.16113 27.326 8.22051L27.5496 7.77329C27.327 7.662 27.1227 7.65576 27.0157 7.66034L27.0371 8.15988ZM26.8828 8.18499C26.919 8.17493 26.9729 8.16263 27.0371 8.15988L27.0157 7.66034C26.9008 7.66526 26.8072 7.68705 26.749 7.70323L26.8828 8.18499ZM26.0209 8.27856C26.3498 8.27856 26.6132 8.25987 26.8828 8.18499L26.749 7.70323C26.5433 7.76036 26.3321 7.77856 26.0209 7.77856V8.27856ZM21.8795 8.08664C23.2727 8.1832 24.6471 8.27856 26.0209 8.27856V7.77856C24.6673 7.77856 23.3103 7.6846 21.9141 7.58783L21.8795 8.08664ZM21.8784 8.08656L21.8796 8.08664L21.9141 7.58783L21.9129 7.58775L21.8784 8.08656ZM21.3858 8.05257C21.5504 8.06382 21.7145 8.0752 21.8784 8.08656L21.9129 7.58775C21.7491 7.5764 21.5848 7.56501 21.42 7.55374L21.3858 8.05257ZM19.3052 8.04901C19.9825 8.02143 20.6808 8.00436 21.3858 8.05257L21.42 7.55374C20.6865 7.50359 19.9658 7.52169 19.2848 7.54943L19.3052 8.04901ZM18.8302 8.06957C18.9868 8.06259 19.1448 8.05555 19.3052 8.04901L19.2848 7.54943C19.1233 7.55601 18.9644 7.56309 18.8079 7.57007L18.8302 8.06957ZM17.3075 8.11493C17.814 8.11493 18.3151 8.09254 18.8302 8.06957L18.8079 7.57007C18.291 7.59312 17.801 7.61493 17.3075 7.61493V8.11493ZM13.7176 8.0508C14.9199 8.08302 16.1102 8.11493 17.3075 8.11493V7.61493C16.118 7.61493 14.9344 7.58323 13.731 7.55098L13.7176 8.0508ZM13.2311 8.03784L13.7176 8.0508L13.731 7.55098L13.2444 7.53802L13.2311 8.03784ZM12.5364 8.01826C12.7705 8.02508 13.0024 8.03183 13.2312 8.03785L13.2443 7.53802C13.0164 7.53202 12.7852 7.52529 12.5509 7.51847L12.5364 8.01826ZM12.5357 8.01824L12.5365 8.01827L12.5508 7.51847L12.55 7.51845L12.5357 8.01824ZM12.535 8.01822L12.5353 8.01823L12.5503 7.51846L12.55 7.51845L12.535 8.01822ZM6.904 8.14759C8.75614 7.90878 10.7141 7.96523 12.5352 8.01823L12.5498 7.51844C10.7359 7.46565 8.73799 7.40698 6.84006 7.65169L6.904 8.14759ZM6.32612 5.08426C6.32622 6.01218 6.44683 6.98405 6.62627 7.94551L7.11778 7.85377C6.9417 6.91031 6.82621 5.97102 6.82612 5.0842L6.32612 5.08426ZM6.33767 4.99969C6.33185 5.02574 6.32869 5.0452 6.32722 5.06086L6.82503 5.1076C6.82444 5.11384 6.82384 5.11739 6.82384 5.1174C6.82382 5.11752 6.82427 5.11484 6.82564 5.10868L6.33767 4.99969ZM6.34787 4.95701C6.34414 4.97205 6.3412 4.98388 6.33767 4.99968L6.82564 5.10868C6.82773 5.09932 6.82934 5.09281 6.83318 5.07731L6.34787 4.95701ZM6.34788 4.95698L6.34786 4.95703L6.83319 5.07728L6.8332 5.07723L6.34788 4.95698ZM6.34878 4.95342L6.34878 4.95343L6.83229 5.08078L6.8323 5.08077L6.34878 4.95342ZM6.34741 4.95889L6.34741 4.95891L6.83367 5.07528L6.83368 5.07526L6.34741 4.95889ZM6.35454 4.92996L6.34782 4.95721L6.83327 5.07694L6.83999 5.0497L6.35454 4.92996ZM6.35476 4.92904L6.35443 4.9304L6.8401 5.04926L6.84043 5.0479L6.35476 4.92904ZM6.35625 4.92328L6.35624 4.92329L6.83895 5.05365L6.83896 5.05364L6.35625 4.92328ZM6.35613 4.9237L6.35613 4.92371L6.83907 5.05321L6.83907 5.0532L6.35613 4.9237ZM6.35536 4.92667L6.35535 4.92668L6.83985 5.05022L6.83986 5.05021L6.35536 4.92667ZM6.37812 4.81415C6.37129 4.86118 6.36052 4.90556 6.35478 4.92896L6.84043 5.04791C6.84645 5.02333 6.86235 4.95879 6.87293 4.88605L6.37812 4.81415ZM6.36937 4.56135C6.39615 4.67517 6.38416 4.77259 6.37812 4.81415L6.87293 4.88605C6.8822 4.82221 6.90423 4.65143 6.85607 4.44681L6.36937 4.56135ZM6.09539 4.18562C6.24999 4.27815 6.33664 4.42229 6.36937 4.56135L6.85607 4.44681C6.79673 4.19465 6.63814 3.92774 6.35217 3.75659L6.09539 4.18562ZM5.77108 4.09676C5.83805 4.09776 5.96549 4.10787 6.09539 4.18562L6.35217 3.75659C6.11466 3.61443 5.88619 3.59842 5.77852 3.59682L5.77108 4.09676ZM5.57774 4.11478C5.62996 4.10528 5.69791 4.09567 5.77108 4.09676L5.77852 3.59682C5.65943 3.59505 5.55577 3.61057 5.4883 3.62284L5.57774 4.11478ZM4.04985 4.19153C4.59216 4.19809 5.08248 4.20482 5.57774 4.11478L5.4883 3.62284C5.04873 3.70276 4.60776 3.69824 4.0559 3.69156L4.04985 4.19153ZM4.05287 4.19155H4.05288V3.69155H4.05287V4.19155ZM4.05287 4.19155H4.05287V3.69155H4.05287V4.19155ZM4.05287 4.19155H4.05287V3.69155H4.05287V4.19155ZM3.56709 4.18772C3.73505 4.18772 3.89489 4.18965 4.04985 4.19153L4.05589 3.69156C3.90129 3.68969 3.73853 3.68772 3.56709 3.68772V4.18772ZM3.01709 4.73772C3.01709 4.43397 3.26333 4.18772 3.56709 4.18772V3.68772C2.98719 3.68772 2.51709 4.15782 2.51709 4.73772H3.01709ZM3.56709 5.28772C3.26333 5.28772 3.01709 5.04148 3.01709 4.73772H2.51709C2.51709 5.31762 2.98719 5.78772 3.56709 5.78772V5.28772ZM3.95659 5.29142C3.82199 5.28955 3.69093 5.28772 3.56709 5.28772V5.78772C3.68681 5.78772 3.81428 5.78949 3.94964 5.79137L3.95659 5.29142ZM27.3335 9.35931C27.3375 9.35594 27.3465 9.34856 27.3589 9.34057C27.363 9.33796 27.4021 9.31124 27.4597 9.30323C27.4929 9.29862 27.5574 9.29683 27.6238 9.33709C27.6951 9.38036 27.726 9.44594 27.7372 9.49248C27.7544 9.56401 27.7339 9.62175 27.733 9.62463C27.7247 9.65148 27.7133 9.67106 27.7127 9.67214C27.7094 9.67805 27.7066 9.68256 27.7053 9.68465C27.7025 9.6891 27.7001 9.69247 27.6993 9.69366C27.6982 9.69527 27.6973 9.69654 27.6967 9.6973C27.6949 9.69986 27.6935 9.70162 27.6935 9.70164L27.2969 9.39716C27.2961 9.39823 27.2941 9.40075 27.2919 9.40379C27.2918 9.40403 27.2876 9.40967 27.283 9.41694C27.2817 9.41906 27.2788 9.42359 27.2755 9.42951C27.2749 9.43061 27.2636 9.4502 27.2553 9.47706C27.2544 9.47995 27.2339 9.53769 27.251 9.60922C27.2622 9.65576 27.2931 9.72134 27.3645 9.76461C27.4309 9.80488 27.4954 9.80308 27.5285 9.79847C27.5862 9.79046 27.6253 9.76374 27.6293 9.76113C27.6418 9.75314 27.6508 9.74576 27.6548 9.74237L27.3335 9.35931ZM27.3026 9.38995L27.2968 9.39737L27.6915 9.70432L27.6973 9.6969L27.3026 9.38995ZM27.6914 9.70431L27.6961 9.69833L27.3037 9.38851L27.299 9.39449L27.6914 9.70431ZM11.6107 24.6938C11.0442 24.4915 10.4149 24.4802 9.8698 24.8304L10.14 25.2511C10.5191 25.0075 10.977 24.9984 11.4425 25.1647L11.6107 24.6938ZM12.2259 25.2766C12.116 25.0146 11.8999 24.7971 11.6107 24.6938L11.4425 25.1647C11.594 25.2188 11.7069 25.3321 11.7648 25.47L12.2259 25.2766ZM12.4339 25.2202C12.2923 25.1548 12.1429 25.1235 11.9957 25.1233L11.9951 25.6233C12.0716 25.6234 12.1495 25.6396 12.2244 25.6741L12.4339 25.2202ZM13.9194 26.3882C13.4782 25.774 12.9608 25.4634 12.4339 25.2202L12.2244 25.6741C12.7102 25.8984 13.1421 26.1631 13.5133 26.6799L13.9194 26.3882ZM14.1927 27.1158C14.1697 26.838 14.066 26.5924 13.9194 26.3882L13.5133 26.6799C13.6141 26.8202 13.6798 26.9807 13.6943 27.1569L14.1927 27.1158ZM14.0831 27.7919C14.1546 27.6189 14.215 27.3872 14.1927 27.1158L13.6943 27.1569C13.7086 27.3298 13.6706 27.481 13.621 27.6009L14.0831 27.7919ZM13.7301 28.3581C13.7961 28.2744 13.9782 28.0458 14.0831 27.7919L13.621 27.6009C13.5462 27.7819 13.4073 27.96 13.3376 28.0483L13.7301 28.3581ZM13.7213 28.3692L13.7302 28.358L13.3375 28.0484L13.3286 28.0597L13.7213 28.3692ZM13.7093 28.3846L13.7223 28.368L13.3277 28.0609L13.3148 28.0775L13.7093 28.3846ZM11.7695 29.5168C12.5178 29.4078 13.2468 28.9916 13.7109 28.3826L13.3132 28.0795C12.9311 28.5811 12.3207 28.9312 11.6974 29.022L11.7695 29.5168ZM9.46982 28.5771C10.0657 29.4158 10.9922 29.63 11.7695 29.5168L11.6974 29.022C11.0573 29.1153 10.3388 28.9369 9.87742 28.2875L9.46982 28.5771ZM8.99521 27.3748C9.06353 27.7766 9.21083 28.2126 9.46983 28.5771L9.87742 28.2875C9.67317 28 9.54754 27.6404 9.48814 27.291L8.99521 27.3748ZM9.02741 26.086C8.92365 26.5143 8.92609 26.9683 8.99521 27.3748L9.48814 27.291C9.42831 26.9392 9.42827 26.5549 9.51336 26.2037L9.02741 26.086ZM9.8698 24.8304C9.36255 25.1563 9.12823 25.6698 9.02741 26.086L9.51336 26.2037C9.59709 25.858 9.78036 25.4821 10.14 25.2511L9.8698 24.8304ZM10.9044 26.6715C11.0201 26.7128 11.1387 26.7326 11.2557 26.7328L11.2566 26.2328C11.1958 26.2327 11.1338 26.2224 11.0726 26.2006L10.9044 26.6715ZM10.834 26.6515C10.8379 26.652 10.8598 26.6555 10.9044 26.6714L11.0726 26.2006C11.0027 26.1756 10.9456 26.1619 10.8989 26.1557L10.834 26.6515ZM11.0684 26.5804C11.0787 26.5379 11.0876 26.5203 11.0883 26.5189L10.6446 26.2884C10.6226 26.3307 10.6007 26.3871 10.5824 26.4626L11.0684 26.5804ZM11.0655 27.0228C11.0355 26.8462 11.043 26.685 11.0684 26.5804L10.5824 26.4626C10.5384 26.6443 10.5332 26.8752 10.5726 27.1066L11.0655 27.0228ZM11.1817 27.3608C11.1525 27.3196 11.0963 27.2042 11.0655 27.0228L10.5726 27.1066C10.6124 27.3406 10.6903 27.5323 10.7741 27.6504L11.1817 27.3608ZM11.4667 27.4387C11.3651 27.4536 11.3038 27.4433 11.2675 27.4297C11.2341 27.4172 11.2071 27.3966 11.1817 27.3608L10.7741 27.6504C10.8504 27.7577 10.9546 27.8465 11.0924 27.8981C11.2275 27.9485 11.3778 27.957 11.5388 27.9335L11.4667 27.4387ZM12.0404 27.11C11.9203 27.2676 11.6895 27.4063 11.4667 27.4387L11.5388 27.9335C11.8869 27.8828 12.2361 27.678 12.4381 27.4131L12.0404 27.11ZM11.5539 27.1269C11.8044 27.2425 11.9518 27.3332 12.067 27.4427L12.4115 27.0803C12.2378 26.9152 12.0327 26.7972 11.7634 26.6729L11.5539 27.1269ZM11.0255 26.5794C11.1233 26.8129 11.3058 27.0124 11.5539 27.1269L11.7634 26.6729C11.6333 26.6128 11.5381 26.5089 11.4867 26.3862L11.0255 26.5794ZM10.8304 26.152C10.8191 26.1523 10.8037 26.1534 10.7863 26.1566C10.7795 26.1578 10.7618 26.1612 10.7407 26.1692C10.7336 26.1719 10.7045 26.1829 10.6738 26.2073C10.6592 26.2188 10.6244 26.2487 10.601 26.3008C10.572 26.3655 10.5684 26.4496 10.6112 26.5257L11.0471 26.2808C11.0898 26.3569 11.0862 26.4409 11.0572 26.5055C11.0339 26.5576 10.9991 26.5874 10.9846 26.5989C10.9541 26.6232 10.9252 26.634 10.9185 26.6366C10.898 26.6443 10.8814 26.6475 10.8762 26.6484C10.8618 26.651 10.8511 26.6516 10.8465 26.6517L10.8304 26.152ZM10.8924 26.646L10.8971 26.6449L10.7798 26.1588L10.7751 26.16L10.8924 26.646ZM10.6113 26.526C10.6566 26.6063 10.7287 26.6327 10.7421 26.6376C10.7665 26.6467 10.7869 26.6499 10.7963 26.6512C10.8166 26.6539 10.833 26.6535 10.8402 26.6532C10.8571 26.6525 10.8711 26.6503 10.8804 26.6486L10.7871 26.1574C10.7935 26.1561 10.8053 26.1542 10.8206 26.1536C10.8271 26.1533 10.8428 26.1529 10.8627 26.1556C10.8719 26.1568 10.8922 26.16 10.9164 26.169C10.9289 26.1736 10.9483 26.182 10.9697 26.1965C10.9905 26.2107 11.0224 26.237 11.0469 26.2805L10.6113 26.526ZM21.6242 24.6389C21.66 24.6403 21.6979 24.6418 21.7302 24.6418V24.1418C21.71 24.1418 21.6833 24.1408 21.644 24.1393L21.6242 24.6389ZM20.3544 25.0536C20.785 24.6113 21.3223 24.6269 21.6242 24.6389L21.644 24.1393C21.3394 24.1272 20.5928 24.092 19.9961 24.7048L20.3544 25.0536ZM19.6518 27.0616C19.5715 26.3388 19.8631 25.5582 20.3544 25.0536L19.9961 24.7048C19.4067 25.3102 19.0571 26.2368 19.1549 27.1168L19.6518 27.0616ZM20.7037 28.5285C20.1902 28.2494 19.729 27.7559 19.6518 27.0616L19.1549 27.1168C19.2552 28.02 19.8542 28.6359 20.4649 28.9678L20.7037 28.5285ZM22.3998 28.7987C21.8408 28.9134 21.2125 28.8051 20.7037 28.5285L20.4649 28.9678C21.0686 29.296 21.8164 29.4288 22.5003 29.2885L22.3998 28.7987ZM23.9095 27.5391C23.6437 28.1333 23.1084 28.6534 22.3998 28.7987L22.5003 29.2885C23.395 29.105 24.0472 28.4558 24.3659 27.7433L23.9095 27.5391ZM24.0484 26.5521C24.1327 26.8907 24.055 27.2138 23.9095 27.5391L24.3659 27.7433C24.533 27.3699 24.6563 26.9244 24.5336 26.4313L24.0484 26.5521ZM23.6373 25.8359C23.7827 26.0136 23.9735 26.2512 24.0484 26.5521L24.5336 26.4313C24.4283 26.0083 24.1655 25.6918 24.0242 25.5192L23.6373 25.8359ZM23.6286 25.8254L23.6373 25.8359L24.0242 25.5192L24.0155 25.5087L23.6286 25.8254ZM22.8546 25.748C23.0897 25.5556 23.4362 25.5903 23.6286 25.8254L24.0156 25.5087C23.6484 25.0599 22.9868 24.9938 22.538 25.361L22.8546 25.748ZM22.7772 26.5219C22.5849 26.2868 22.6195 25.9403 22.8546 25.748L22.538 25.361C22.0892 25.7282 22.0231 26.3897 22.3903 26.8385L22.7772 26.5219ZM22.9339 26.7269C22.9001 26.6755 22.8518 26.613 22.7772 26.5219L22.3903 26.8385C22.4643 26.929 22.4978 26.9738 22.5159 27.0013L22.9339 26.7269ZM22.9054 27.0899C22.935 27.0239 22.9532 26.9734 22.9645 26.9355L22.4853 26.7927C22.4814 26.8061 22.4713 26.8358 22.449 26.8857L22.9054 27.0899ZM22.1788 27.7212C22.4788 27.6596 22.7565 27.4228 22.9054 27.0899L22.449 26.8857C22.3545 27.097 22.1953 27.2074 22.0783 27.2314L22.1788 27.7212ZM21.229 27.5621C21.5289 27.7251 21.8942 27.7795 22.1788 27.7212L22.0783 27.2314C21.9182 27.2642 21.6724 27.234 21.4678 27.1228L21.229 27.5621ZM20.7451 26.9402C20.7713 27.1759 20.9305 27.3998 21.229 27.5621L21.4678 27.1228C21.2734 27.0171 21.2457 26.918 21.242 26.8849L20.7451 26.9402ZM21.1425 25.821C20.8674 26.1036 20.7032 26.5629 20.7451 26.9402L21.242 26.8849C21.2175 26.6642 21.3242 26.3511 21.5007 26.1698L21.1425 25.821ZM21.1435 25.82L21.1428 25.8207L21.5004 26.1701L21.5011 26.1694L21.1435 25.82ZM21.4523 25.7387C21.3762 25.7387 21.3252 25.7416 21.2857 25.7474L21.3588 26.242C21.3623 26.2415 21.3848 26.2387 21.4522 26.2387L21.4523 25.7387ZM21.5778 25.7402C21.5307 25.7394 21.4907 25.7388 21.4523 25.7387L21.4522 26.2387C21.4856 26.2388 21.5213 26.2393 21.5695 26.2401L21.5778 25.7402ZM21.5775 25.7402L21.5771 25.7402L21.5702 26.2402L21.5706 26.2402L21.5775 25.7402ZM21.578 25.7402L21.5777 25.7402L21.5704 26.2402L21.5707 26.2402L21.578 25.7402ZM21.7302 25.7418C21.6762 25.7418 21.6243 25.741 21.5785 25.7402L21.5701 26.2402C21.6157 26.2409 21.6714 26.2418 21.7302 26.2418V25.7418ZM22.2802 25.1918C22.2802 25.4956 22.034 25.7418 21.7302 25.7418V26.2418C22.3101 26.2418 22.7802 25.7717 22.7802 25.1918H22.2802ZM21.7302 24.6418C22.034 24.6418 22.2802 24.8881 22.2802 25.1918H22.7802C22.7802 24.6119 22.3101 24.1418 21.7302 24.1418V24.6418Z" fill="#093243"/>
</svg>
