<svg width="32" height="32" viewBox="0 0 32 32" fill="none" xmlns="http://www.w3.org/2000/svg">
<path d="M26.1774 10.6626C26.1947 10.896 26.1947 11.128 26.1947 11.36C26.1947 18.46 20.7907 26.6413 10.9147 26.6413C7.87208 26.6413 5.04541 25.76 2.66675 24.2293C3.09875 24.2786 3.51475 24.296 3.96408 24.296C6.47475 24.296 8.78541 23.448 10.6321 22.0013C8.27075 21.952 6.29208 20.4053 5.60941 18.2773C5.94141 18.3266 6.27475 18.36 6.62408 18.36C7.10541 18.36 7.58941 18.2933 8.03875 18.1773C5.57608 17.6786 3.73208 15.5173 3.73208 12.9066V12.84C4.44808 13.2386 5.27875 13.488 6.15875 13.5213C4.71208 12.5586 3.76408 10.912 3.76408 9.04931C3.76408 8.05198 4.02941 7.13731 4.49475 6.33998C7.13875 9.59731 11.1134 11.7266 15.5694 11.96C15.4867 11.56 15.4361 11.1453 15.4361 10.7293C15.4361 7.76931 17.8307 5.35864 20.8067 5.35864C22.3534 5.35864 23.7494 6.00664 24.7307 7.05464C25.9441 6.82131 27.1067 6.37198 28.1387 5.75731C27.7401 7.00398 26.8907 8.05198 25.7774 8.71731C26.8587 8.59998 27.9067 8.30131 28.8694 7.88531C28.1388 8.94931 27.2254 9.89731 26.1774 10.6626Z" fill="#F1EFEC"/>
</svg>
