<svg width="498" height="126" viewBox="0 0 498 126" fill="none" xmlns="http://www.w3.org/2000/svg">
<path d="M95.0173 62.0666C97.3799 61.1206 99.9406 60.7496 102.481 60.9848C105.021 61.2201 107.466 62.0548 109.607 63.418C112.059 64.3977 114.668 64.9465 117.314 65.0395C120.342 65.5801 123.37 65.5801 126.949 66.1207L126.949 58.0126C126.673 51.2559 126.123 44.7694 125.848 38.0127C125.572 33.6884 129.426 31.5261 133.555 33.1477C135.455 33.8234 137.036 35.1593 138 36.9025C138.963 38.6457 139.243 40.6752 138.785 42.6071C136.033 53.4179 137.684 64.4991 137.409 75.3099C137.134 84.7693 137.409 94.2287 137.134 103.688C137.134 108.012 135.482 109.634 132.179 109.634C131.407 109.638 130.643 109.482 129.937 109.177C129.23 108.872 128.597 108.425 128.078 107.865C127.558 107.304 127.165 106.642 126.923 105.923C126.681 105.203 126.596 104.442 126.673 103.688C126.673 95.8503 126.949 87.7421 126.949 79.9043L126.949 76.1205C111.534 76.661 104.652 75.0395 96.3936 68.8234C96.1078 69.6085 95.9229 70.4257 95.8431 71.2558C96.5027 81.3865 98.5393 91.385 101.899 100.985C103 103.958 103.826 106.931 101.349 109.364C99.4216 111.256 91.9893 110.175 90.3377 107.742C89.0685 105.497 88.3167 103.006 88.1355 100.445L84.8323 62.6071C84.557 58.2828 84.2817 53.9587 84.2817 49.6344C84.2817 46.1209 84.557 42.337 82.0796 39.0938C81.295 38.1543 80.9137 36.9519 81.0165 35.7412C81.1192 34.5305 81.6979 33.4064 82.63 32.6073C83.4769 31.6035 84.6202 30.8825 85.9021 30.5437C87.184 30.2048 88.5414 30.2649 89.7871 30.7155C97.2194 33.148 98.5958 37.2019 96.9442 44.4992C95.8798 50.3029 95.2359 56.1735 95.0173 62.0666Z" fill="#F76526"/>
<path d="M217.455 88.1696C210.546 87.6222 204.743 92.8226 198.386 88.7172C195.688 93.8784 194.267 99.6007 194.241 105.413C194.432 106.603 194.171 107.823 193.507 108.834C192.844 109.845 191.825 110.576 190.648 110.886C188.944 111.438 187.113 111.473 185.389 110.985C183.665 110.497 182.128 109.51 180.976 108.149C179.317 105.686 177.936 103.223 180.147 100.486C184.568 94.7383 186.227 87.6224 188.161 80.78C190.925 70.927 193.965 61.3475 196.452 51.4945C198.11 44.9258 199.492 38.0837 200.597 31.2414C200.681 30.431 200.947 29.6492 201.375 28.9535C201.803 28.2577 202.382 27.6653 203.071 27.2195C203.759 26.7737 204.54 26.4857 205.355 26.3765C206.17 26.2674 206.999 26.3397 207.783 26.5884C209.772 27.3146 211.547 28.5209 212.946 30.0981C214.345 31.6752 215.326 33.5734 215.797 35.6204C217.732 45.4734 219.113 55.3262 221.324 65.1792C223.535 75.0322 227.128 84.3378 229.891 93.9171C230.665 96.5854 231.038 99.3521 230.997 102.128C230.997 104.318 230.168 106.507 227.404 106.781C224.641 107.055 221.877 106.781 220.772 103.77C220.272 102.16 219.902 100.512 219.666 98.8438C219.117 95.2501 218.379 91.6872 217.455 88.1696ZM208.888 53.4106L206.677 53.4106L200.045 76.6746C206.401 79.4115 208.888 79.4116 213.863 76.401C212.204 69.0112 210.546 61.074 208.888 53.4106Z" fill="#F76526"/>
<path d="M7.36926e-07 63.5298C0.591098 54.6199 3.83821 46.0942 9.31999 39.0584C15.5834 30.7653 22.4554 22.953 29.8788 15.6866C35.7291 10.3788 41.9591 5.508 48.5189 1.11344C51.8083 -1.08626 60.5801 1.66336 62.2248 5.23788C62.6838 6.00889 62.9474 6.8809 62.9929 7.77773C63.0384 8.67455 62.8642 9.56895 62.4856 10.3827C62.1071 11.1964 61.5356 11.9048 60.8212 12.4459C60.1067 12.987 59.271 13.3443 58.3871 13.4868C49.0671 15.4115 42.2142 20.9107 35.9095 27.5098C29.6048 34.1089 23.5742 40.4332 18.0918 47.5822C7.94944 61.0554 9.86826 73.7036 19.4624 86.077C26.3153 95.1507 35.9095 101.475 45.2295 108.074C47.4552 109.759 49.5618 111.596 51.5341 113.573C54.2753 116.323 53.453 119.622 52.3565 122.922C51.2601 125.672 45.5036 126.221 42.4883 123.747C41.4456 122.942 40.6015 121.907 40.0212 120.722C37.0059 114.398 31.5236 110.273 26.3153 106.149C16.9953 98.725 8.49766 90.4764 4.11177 78.928C2.74118 73.9787 1.64471 68.7541 7.36926e-07 63.5298Z" fill="#F76526"/>
<path d="M423.466 78.1662C425.372 85.8363 422.105 90.4932 414.754 91.5889C412.576 91.8629 410.671 92.1369 407.948 92.4109C408.7 94.194 409.336 96.024 409.854 97.8895C410.37 100.237 410.734 102.616 410.943 105.012C411.215 108.299 408.22 108.573 406.587 109.942C403.592 112.134 400.325 113.777 397.33 116.243C389.435 122.817 380.995 117.612 376.095 112.408C373.059 108.945 370.904 104.794 369.813 100.309C368.722 95.8239 368.729 91.1396 369.833 86.658C371.931 75.693 376.19 65.2614 382.357 55.9778C386.713 49.4034 391.069 43.103 395.697 36.5286C396.271 35.3431 397.236 34.3947 398.428 33.8452C399.619 33.2957 400.963 33.1793 402.231 33.5155C405.77 34.6112 409.582 35.9806 410.671 40.0896C411.033 41.5777 410.846 43.1477 410.145 44.5079C409.444 45.8681 408.277 46.9263 406.859 47.4859C396.786 52.6906 391.341 61.7305 387.257 71.8659C384.979 77.0501 382.98 82.3536 381.268 87.7538C380.362 90.2431 379.991 92.8973 380.178 95.5414C380.366 98.1855 381.109 100.759 382.357 103.094C384.262 106.929 386.44 107.751 390.252 105.833C391.341 105.285 392.43 104.464 393.519 103.916C400.053 100.903 400.597 97.8892 395.425 92.1367C394.336 90.767 392.702 89.6715 392.158 88.3019C389.98 83.645 392.158 80.6316 397.33 80.6316C398.419 80.6316 399.508 81.1794 400.597 80.9055C406.315 80.6316 411.76 80.0836 417.477 79.8097C419.346 78.8685 421.381 78.3099 423.466 78.1662Z" fill="#F76526"/>
<path d="M314.799 82.1518C319.535 71.4642 321.206 59.933 330.398 52.9016C335.134 56.2767 335.97 58.2453 334.02 63.3079C332.07 68.3705 329.841 73.152 328.17 78.2146C327.227 81.9068 326.575 85.6686 326.22 89.4647C326.097 91.6386 325.818 93.8004 325.384 95.9334C325.205 96.652 324.866 97.3198 324.393 97.8859C323.919 98.452 323.323 98.9017 322.652 99.2002C321.98 99.4986 321.25 99.638 320.516 99.608C319.783 99.5781 319.066 99.3793 318.42 99.0271C314.634 97.6937 311.398 95.1196 309.228 91.7146C304.771 84.9645 299.2 79.3394 294.186 73.1518C291.679 70.058 289.729 66.683 285.829 64.7142C283.601 74.5581 281.372 84.1209 279.701 93.6836C279.33 97.045 279.237 100.432 279.422 103.809C279.422 107.184 278.308 108.871 274.965 109.153C272.975 109.549 270.91 109.266 269.095 108.35C267.28 107.434 265.818 105.936 264.937 104.09C264.134 102.601 263.835 100.888 264.087 99.2125C264.338 97.5366 265.126 95.9896 266.33 94.8083C267.966 92.1611 269.012 89.1859 269.394 86.0895C271.344 74.558 273.294 63.0268 274.965 51.4953C275.522 47.5578 277.194 45.8701 281.094 46.4326C282.857 46.6626 284.547 47.287 286.041 48.2602C287.535 49.2333 288.795 50.5306 289.729 52.0577C296.693 61.0579 303.935 69.7768 311.178 78.4957C312.165 79.9178 313.391 81.1549 314.799 82.1518Z" fill="#F76526"/>
<path d="M471.469 58.0644C460.762 55.0704 459.156 51.2599 464.242 43.3668C469.328 43.639 474.682 44.1835 480.035 44.1835C482.445 44.1835 484.586 43.3668 486.995 43.3668C488.993 43.2164 490.999 43.4948 492.885 44.1835C496.9 46.0887 498.774 49.3548 497.703 52.3487C496.9 54.7983 493.688 56.4314 489.672 56.1593C487.263 55.8871 484.854 56.1593 481.106 56.1593C485.925 61.6028 482.98 66.2298 481.642 71.1289C482.676 71.8777 483.659 72.6958 484.586 73.5782C487.263 77.3887 486.192 81.1994 481.909 84.7377C480.117 86.3391 478.757 88.3804 477.961 90.6673C477.164 92.9542 476.957 95.4104 477.358 97.8019C478.162 100.796 481.374 102.973 486.46 102.157C487.811 102.042 489.17 102.254 490.426 102.774C491.682 103.295 492.799 104.109 493.688 105.151C494.667 106.001 495.334 107.164 495.577 108.45C495.82 109.736 495.626 111.068 495.026 112.227C494.39 113.34 493.431 114.224 492.281 114.76C491.131 115.296 489.845 115.457 488.601 115.221C481.331 114.695 474.321 112.256 468.257 108.145C464.777 105.967 463.706 101.885 464.777 97.2577C465.58 93.7194 466.116 90.181 466.651 86.9149C459.423 83.1044 457.014 80.3829 458.353 76.5724C460.226 71.1289 464.777 73.8504 468.525 73.5782C472.272 69.3323 470.666 63.5079 471.469 58.0644Z" fill="#F76526"/>
</svg>
