<svg width="361" height="97" viewBox="0 0 361 97" fill="none" xmlns="http://www.w3.org/2000/svg">
<path d="M302.38 5.6046C265.04 5.6046 227.922 2.69978 190.579 2.62182C134.104 2.50392 71.3581 -3.03251 20.2842 21.2918C1.02945 30.462 -1.66253 45.5325 9.84342 61.2832C20.5484 75.9374 40.0903 84.3879 59.129 88.6805C74.6281 92.1751 90.7176 93.1604 106.664 93.8728C134.273 95.1062 162.201 95.5789 189.801 93.9833C229.861 91.6673 269.888 85.1594 309.254 78.6275C323.297 76.2973 342.165 74.5018 354.129 66.8068C362.031 61.7245 359.012 53.4611 354.259 47.474C340.197 29.759 314.081 20.6299 290.966 14.7739C228.488 -1.05463 160.33 3.61608 95.769 3.61608" stroke="#F66526" stroke-width="4" stroke-linecap="round" stroke-linejoin="round"/>
</svg>
