<svg width="554" height="111" viewBox="0 0 554 111" fill="none" xmlns="http://www.w3.org/2000/svg">
<path d="M464.684 6.14722C407.1 6.14722 349.86 2.80512 292.272 2.71542C205.18 2.57977 108.417 -3.79009 29.6546 24.196C-0.0388524 34.7466 -4.19025 52.0858 13.5535 70.2075C30.0621 87.0677 60.1982 96.7904 89.5586 101.729C113.46 105.75 138.272 106.884 162.863 107.703C205.44 109.122 248.509 109.666 291.072 107.83C352.85 105.166 414.577 97.678 475.284 90.1628C496.941 87.4819 526.039 85.4161 544.489 76.5627C556.675 70.7153 552.018 61.2079 544.689 54.3195C523.003 33.9378 482.729 23.4344 447.082 16.6968C350.733 -1.51446 245.625 3.85936 146.062 3.85936" stroke="#F66526" stroke-width="4" stroke-linecap="round" stroke-linejoin="round"/>
</svg>
