<svg width="421" height="479" viewBox="0 0 421 479" fill="none" xmlns="http://www.w3.org/2000/svg">
<path d="M35.4999 226.529C43.1344 226.299 50.7242 225.276 58.1474 223.478C67.0986 220.363 75.7231 216.377 83.8969 211.58C160.333 168.682 238.129 176.012 314.234 210.922C373.885 238.189 424.867 279.029 474.82 320.484C490.648 334.095 489.59 352.205 474.54 366.796C468.359 372.259 461.584 377.014 454.344 380.968C376.548 424.931 284.718 436.96 198.223 414.519C167.15 406.997 138.03 392.956 112.795 373.326C87.5591 353.696 66.7846 328.926 51.8479 300.658C46.7418 292.506 42.1494 284.042 38.0973 275.318C33.1817 260.078 27.6501 243.807 35.4999 226.529ZM69.1879 270.016C95.446 325.635 134.705 360.898 189.227 377.247C269.878 401.049 347.501 388.205 422.481 354.568C431.736 349.326 440.556 343.351 448.858 336.702C420.69 316.484 394.784 297.712 369.086 278.115C321.596 240.782 267.282 223.608 208.629 216.721C189.681 214.852 170.554 217.213 152.628 223.631C122.607 234.736 94.4666 250.379 69.1879 270.016Z" fill="#204554"/>
<path d="M127.385 49.243C139.747 41.8526 150.239 45.3684 154.343 53.4028C171.38 83.0714 186.564 113.149 201.955 142.403C203.246 146.376 203.093 150.676 201.524 154.547C200.897 160.515 189.156 165.436 185.047 160.901C177.553 153.514 171.124 145.121 165.944 135.963C157.967 114.235 146.909 93.7668 133.107 75.1866C129.412 69.0054 129.635 57.6861 127.385 49.243Z" fill="#204554"/>
<path d="M403.572 82.0036C421.897 78.7397 431.146 87.1957 433.184 99.9611C435.034 113.92 433.847 128.113 429.704 141.571C425.562 155.029 418.561 167.433 409.181 177.935C407.441 179.519 405.336 180.649 403.054 181.222C400.772 181.795 398.383 181.794 396.101 181.22C393.82 180.645 391.716 179.515 389.977 177.93C388.238 176.345 386.918 174.353 386.136 172.134C384.338 167.268 383.849 162.015 384.719 156.9L403.572 82.0036Z" fill="#204554"/>
<path d="M276.791 71.0942C300.866 76.279 311.548 89.4697 309.454 111.697C307.523 130.344 304.329 148.839 299.896 167.054C298.86 171.169 292.881 177.54 289.589 176.711C283.323 175.578 277.65 172.292 273.548 167.422C271.824 165.358 270.565 162.949 269.859 160.354C269.152 157.76 269.015 155.042 269.455 152.39C276.695 130.582 271.376 109.989 269.764 88.579C269.361 83.2265 274.31 77.4713 276.791 71.0942Z" fill="#204554"/>
<path d="M191.433 285.035C196.814 267.135 203.633 250.473 223.812 246.8C232.382 244.636 241.381 244.862 249.832 247.452C258.283 250.043 265.863 254.898 271.749 261.492C278.133 267.686 281.831 276.14 282.048 285.033C282.265 293.925 278.982 302.547 272.907 309.045C263.507 318.513 252.654 326.416 240.759 332.458C219.746 342.922 188.7 320.23 190.178 296.973C190.391 292.65 191.22 289.357 191.433 285.035Z" fill="#204554"/>
</svg>
