<svg width="1440" height="23" viewBox="0 0 1440 23" fill="none" xmlns="http://www.w3.org/2000/svg">
<g clip-path="url(#clip0)">
<g opacity="0.5">
<path opacity="0.6" d="M50.7191 5.0928C47.4157 8.08753 46.5899 10.9824 45.1034 13.9772C43.782 13.5779 42.2955 13.478 41.8 12.9789C39.9832 11.2819 38.3315 9.48506 36.3495 7.38875C32.7158 9.18559 33.5416 11.9807 30.7338 13.9772C29.7034 13.5842 28.8064 13.0759 28.0911 12.4798C25.7787 10.3835 23.7967 8.18736 21.6496 6.09105C18.8417 6.2907 18.181 7.28894 17.3552 8.28718C16.199 9.98419 15.0428 11.781 13.7215 13.6777C8.93164 12.38 9.09681 9.18559 5.29795 7.48858C1.16876 8.68647 0.508081 11.781 -3.45595 13.5779C-4.66838 13.0582 -5.77692 12.4552 -6.7593 11.781C-8.57615 10.1838 -10.0627 8.58666 -12.2098 6.59017C-14.0267 8.38701 -15.5132 9.98419 -17.4952 11.9807C-18.1559 11.1821 -19.1469 10.683 -18.9817 10.2837C-17.5255 7.82549 -15.8154 5.42499 -13.8615 3.09632C-8.74131 4.69351 -8.08065 8.08753 -4.11662 10.084C0.177742 8.68648 1.66425 5.19263 7.27996 4.29421C8.76647 5.8914 10.253 7.38876 12.235 9.28542C14.8777 6.68999 17.19 4.39402 19.8327 1.89841C21.0755 2.2718 22.195 2.77925 23.1361 3.39578C25.1181 5.19262 26.9349 7.18911 29.2473 9.48507L32.5506 6.49034L35.5236 3.79508C39.9832 4.6935 39.4877 7.5884 42.9562 8.98594C47.0854 7.08928 45.7641 3.09631 50.8843 1C55.3438 5.49209 61.6202 9.08576 62.2808 14.3765C60.7943 15.3747 59.6382 15.0752 58.9775 14.1768C57.491 12.2801 56.5 10.3835 55.0135 8.48682C53.8573 7.48858 52.3708 6.59017 50.7191 5.0928Z" fill="#F1EFEC"/>
<path opacity="0.6" d="M204.667 12.6916C202.492 12.5981 201.99 11.9439 202.659 11.1028C204.5 8.76636 206.508 6.52337 208.683 4C210.021 4.37383 211.36 4.56075 212.029 5.12149C213.77 6.5886 215.335 8.11843 216.714 9.70094C217.718 9.04674 218.554 8.57945 219.224 8.11216C220.73 6.89721 222.235 5.68224 223.909 4.46729C224.186 4.30488 224.53 4.18283 224.911 4.11179C225.291 4.04075 225.698 4.02289 226.094 4.05977C226.49 4.09664 226.864 4.18713 227.183 4.32333C227.502 4.45954 227.756 4.63732 227.924 4.84113C228.928 6.33646 229.765 7.92523 230.936 9.79439C231.951 9.37157 232.903 8.90269 233.78 8.39252C235.453 7.08411 236.959 5.68225 238.967 4.09346C240.306 4.84113 241.477 5.21496 241.979 5.77571C243.317 6.99066 244.321 8.39253 245.827 9.98132C246.945 9.52345 247.957 8.98976 248.839 8.39252C250.345 7.17757 251.516 5.86916 254.36 5.21496C257.707 6.33645 257.372 8.76635 260.216 10.2617C261.302 9.74864 262.31 9.18595 263.228 8.57945C264.901 7.27104 266.24 5.86916 268.08 4.18691C269.251 4.84112 270.255 5.12149 270.59 5.58878C272.263 7.73832 273.769 9.98131 275.108 12.2243C275.117 12.4298 275.029 12.6331 274.853 12.8136C274.677 12.9942 274.418 13.1455 274.104 13.2523C273.752 13.2845 273.393 13.2763 273.048 13.2281C272.703 13.1798 272.379 13.0927 272.096 12.972C270.757 11.5701 269.586 10.0748 268.415 8.48598C264.399 9.7944 264.567 12.972 259.38 13.7196C258.376 12.8785 257.205 12.0374 256.368 11.1963C255.531 10.3551 254.862 9.60749 253.858 8.57945C252.828 9.06089 251.876 9.59257 251.014 10.1682C249.341 11.2897 248.672 12.8785 245.827 13.6262C242.146 12.4112 242.313 9.70094 239.302 8.20561C235.119 9.42056 235.621 12.8785 231.271 14C227.255 12.3178 228.259 9.1402 224.578 7.17758C222.403 9.1402 220.228 11.0094 217.718 13.1589C216.553 12.6987 215.487 12.1657 214.539 11.5701C213.033 10.4486 211.694 9.14019 209.687 7.55141C208.515 8.76636 207.512 9.60749 206.675 10.4486C206.073 11.2145 205.403 11.9631 204.667 12.6916V12.6916Z" fill="#F1EFEC"/>
<path opacity="0.6" d="M966.14 12.6916C963.965 12.5981 963.463 11.9439 964.132 11.1028C965.973 8.76636 967.981 6.52337 970.156 4C971.494 4.37383 972.833 4.56075 973.502 5.12149C975.243 6.5886 976.808 8.11843 978.187 9.70094C979.191 9.04674 980.028 8.57945 980.697 8.11216C982.203 6.89721 983.709 5.68224 985.382 4.46729C985.659 4.30488 986.003 4.18283 986.384 4.11179C986.765 4.04075 987.171 4.02289 987.567 4.05977C987.963 4.09664 988.337 4.18713 988.656 4.32333C988.975 4.45954 989.23 4.63732 989.397 4.84113C990.401 6.33646 991.238 7.92523 992.409 9.79439C993.425 9.37157 994.376 8.90269 995.253 8.39252C996.927 7.08411 998.432 5.68225 1000.44 4.09346C1001.78 4.84113 1002.95 5.21496 1003.45 5.77571C1004.79 6.99066 1005.79 8.39253 1007.3 9.98132C1008.42 9.52345 1009.43 8.98976 1010.31 8.39252C1011.82 7.17757 1012.99 5.86916 1015.83 5.21496C1019.18 6.33645 1018.85 8.76635 1021.69 10.2617C1022.78 9.74864 1023.78 9.18595 1024.7 8.57945C1026.37 7.27104 1027.71 5.86916 1029.55 4.18691C1030.72 4.84112 1031.73 5.12149 1032.06 5.58878C1033.74 7.73832 1035.24 9.98131 1036.58 12.2243C1036.59 12.4298 1036.5 12.6331 1036.33 12.8136C1036.15 12.9942 1035.89 13.1455 1035.58 13.2523C1035.23 13.2845 1034.87 13.2763 1034.52 13.2281C1034.18 13.1798 1033.85 13.0927 1033.57 12.972C1032.23 11.5701 1031.06 10.0748 1029.89 8.48598C1025.87 9.7944 1026.04 12.972 1020.85 13.7196C1019.85 12.8785 1018.68 12.0374 1017.84 11.1963C1017 10.3551 1016.34 9.60749 1015.33 8.57945C1014.3 9.06089 1013.35 9.59257 1012.49 10.1682C1010.81 11.2897 1010.14 12.8785 1007.3 13.6262C1003.62 12.4112 1003.79 9.70094 1000.77 8.20561C996.592 9.42056 997.094 12.8785 992.744 14C988.728 12.3178 989.732 9.1402 986.051 7.17758C983.876 9.1402 981.701 11.0094 979.191 13.1589C978.026 12.6987 976.96 12.1657 976.012 11.5701C974.506 10.4486 973.168 9.14019 971.16 7.55141C969.989 8.76636 968.985 9.60749 968.148 10.4486C967.546 11.2145 966.876 11.9631 966.14 12.6916V12.6916Z" fill="#F1EFEC"/>
<path opacity="0.6" d="M151.925 13C146.815 10.9 146.32 7.3 142.035 5.3C139.892 7.2 137.914 9.1 135.606 11.2C134.511 10.7436 133.514 10.2061 132.639 9.59999C130.99 7.99999 129.507 6.39999 127.858 4.59999C123.078 6.79999 123.078 10.7 118.792 12.6C114.671 11.9 115.33 9 111.869 7.8C110.88 9.4 109.726 11 108.902 12.4C107.088 12.9 106.264 12.3 105.605 11.6C103.83 9.51149 101.489 7.61854 98.6815 6C97.0331 7.8 95.5495 9.5 93.9011 11C93.659 11.1646 93.3409 11.2811 92.9882 11.3346C92.6354 11.3881 92.2643 11.3761 91.923 11.3C91.4285 11.1 90.934 10.4 91.2637 10.1C93.2418 7.49999 95.3847 4.99999 97.6924 2.09999C98.7392 2.55574 99.6815 3.09378 100.495 3.7C102.308 5.2 104.121 6.69999 106.099 8.39999C109.396 6.89999 108.242 3.4 113.187 3.3C115.99 4.9 114.012 7.8 118.462 8.7C122.254 6.5 122.748 2.5 128.023 1C131.65 2.7 130.496 5.7 134.617 7C135.521 6.58826 136.35 6.1189 137.089 5.59999C138.243 4.69999 139.067 3.7 140.221 2.8C140.511 2.53209 140.917 2.31733 141.393 2.17889C141.87 2.04046 142.4 1.98362 142.926 2.0145C143.452 2.04537 143.954 2.16279 144.378 2.3541C144.802 2.5454 145.131 2.8033 145.331 3.09999C146.65 4.59999 147.969 6.2 149.288 7.7C149.617 8.1 150.112 8.5 150.277 8.7C153.409 8.5 153.079 7 154.233 6.2C155.254 5.27119 156.412 4.4009 157.694 3.59999C158.108 3.43813 158.583 3.34386 159.074 3.32634C159.565 3.30882 160.055 3.36864 160.497 3.5C163.629 5.4 166.761 7.4 167.09 10.3C166.967 10.6854 166.745 11.0566 166.431 11.4C161.98 10.8 162.475 7.4 158.683 6.2C156.541 8.5 154.398 10.7 151.925 13Z" fill="#F1EFEC"/>
<path opacity="0.6" d="M913.398 13C908.288 10.9 907.793 7.3 903.508 5.3C901.365 7.2 899.387 9.1 897.079 11.2C895.984 10.7436 894.987 10.2061 894.112 9.59999C892.463 7.99999 890.98 6.39999 889.331 4.59999C884.551 6.79999 884.551 10.7 880.265 12.6C876.144 11.9 876.803 9 873.342 7.8C872.353 9.4 871.199 11 870.375 12.4C868.561 12.9 867.737 12.3 867.078 11.6C865.303 9.51149 862.963 7.61854 860.155 6C858.506 7.8 857.023 9.5 855.374 11C855.132 11.1646 854.814 11.2811 854.461 11.3346C854.109 11.3881 853.737 11.3761 853.396 11.3C852.902 11.1 852.407 10.4 852.737 10.1C854.715 7.49999 856.858 4.99999 859.166 2.09999C860.212 2.55574 861.155 3.09378 861.968 3.7C863.781 5.2 865.594 6.69999 867.572 8.39999C870.869 6.89999 869.715 3.4 874.661 3.3C877.463 4.9 875.485 7.8 879.935 8.7C883.727 6.5 884.221 2.5 889.496 1C893.123 2.7 891.969 5.7 896.09 7C896.994 6.58826 897.823 6.1189 898.562 5.59999C899.716 4.69999 900.541 3.7 901.694 2.8C901.985 2.53209 902.39 2.31733 902.866 2.17889C903.343 2.04046 903.873 1.98362 904.399 2.0145C904.925 2.04537 905.427 2.16279 905.851 2.3541C906.275 2.5454 906.604 2.8033 906.804 3.09999C908.123 4.59999 909.442 6.2 910.761 7.7C911.09 8.1 911.585 8.5 911.75 8.7C914.882 8.5 914.552 7 915.706 6.2C916.727 5.27119 917.886 4.4009 919.167 3.59999C919.581 3.43813 920.056 3.34386 920.547 3.32634C921.038 3.30882 921.528 3.36864 921.97 3.5C925.102 5.4 928.234 7.4 928.563 10.3C928.44 10.6854 928.218 11.0566 927.904 11.4C923.453 10.8 923.948 7.4 920.157 6.2C918.014 8.5 915.871 10.7 913.398 13Z" fill="#F1EFEC"/>
<path opacity="0.6" d="M323.704 10.0549C322.042 12.033 320.713 13.3187 319.217 15C318.386 14.2088 317.888 13.8132 317.888 13.4176C317.888 10.9451 320.048 8.86813 321.71 6.79121C322.042 6.49451 323.206 6.09892 323.704 6.19782C324.634 6.37461 325.448 6.7205 326.031 7.18683C327.36 8.57144 327.36 10.2528 330.185 11.3407C332.512 10.3517 333.343 8.57143 335.171 7.28572C337.165 5.8022 339.326 5.90111 340.655 7.58242C341.163 8.46379 341.774 9.32301 342.483 10.1539C343.227 10.6976 344.062 11.1947 344.976 11.6374C346.472 10.055 347.801 8.67034 349.131 7.38462C350.46 6.09891 352.454 6 353.95 7.48352C355.113 8.57143 356.11 9.65935 357.274 10.6484C357.44 10.7473 357.772 10.7472 358.437 10.9451C361.594 9.95604 362.758 7.08792 367.411 6.59341C368.74 7.87913 370.236 9.16484 371.566 10.3517C375.72 9.65935 375.554 6.0989 380.872 6C382.977 8.02277 384.125 10.3463 384.196 12.7253C382.035 13.4176 381.371 12.8242 380.872 12.3297C380.041 11.4396 379.21 10.3517 378.213 9.16484L372.064 14.1099C367.411 13.9121 368.242 11.044 365.251 9.85715C363.256 11.4396 361.262 13.022 358.936 14.8022C356.11 12.9231 353.618 11.3407 351.125 9.75824C348.133 11.3407 348.632 14.2088 344.145 14.9011C340.489 13.9121 340.323 11.2418 337.165 9.75824C333.343 10.7473 333.841 14.011 329.521 15C328.434 14.3198 327.435 13.5925 326.529 12.8242C325.865 12.2703 325.034 11.4791 323.704 10.0549Z" fill="#F1EFEC"/>
<path opacity="0.6" d="M1085.18 10.0549C1083.52 12.033 1082.19 13.3187 1080.69 15C1079.86 14.2088 1079.36 13.8132 1079.36 13.4176C1079.36 10.9451 1081.52 8.86813 1083.18 6.79121C1083.52 6.49451 1084.68 6.09892 1085.18 6.19782C1086.11 6.37461 1086.92 6.7205 1087.5 7.18683C1088.83 8.57144 1088.83 10.2528 1091.66 11.3407C1093.99 10.3517 1094.82 8.57143 1096.64 7.28572C1098.64 5.8022 1100.8 5.90111 1102.13 7.58242C1102.64 8.46379 1103.25 9.32301 1103.96 10.1539C1104.7 10.6976 1105.54 11.1947 1106.45 11.6374C1107.94 10.055 1109.27 8.67034 1110.6 7.38462C1111.93 6.09891 1113.93 6 1115.42 7.48352C1116.59 8.57143 1117.58 9.65935 1118.75 10.6484C1118.91 10.7473 1119.25 10.7472 1119.91 10.9451C1123.07 9.95604 1124.23 7.08792 1128.88 6.59341C1130.21 7.87913 1131.71 9.16484 1133.04 10.3517C1137.19 9.65935 1137.03 6.0989 1142.35 6C1144.45 8.02277 1145.6 10.3463 1145.67 12.7253C1143.51 13.4176 1142.84 12.8242 1142.35 12.3297C1141.51 11.4396 1140.68 10.3517 1139.69 9.16484L1133.54 14.1099C1128.88 13.9121 1129.71 11.044 1126.72 9.85715C1124.73 11.4396 1122.74 13.022 1120.41 14.8022C1117.58 12.9231 1115.09 11.3407 1112.6 9.75824C1109.61 11.3407 1110.11 14.2088 1105.62 14.9011C1101.96 13.9121 1101.8 11.2418 1098.64 9.75824C1094.82 10.7473 1095.31 14.011 1090.99 15C1089.91 14.3198 1088.91 13.5925 1088 12.8242C1087.34 12.2703 1086.51 11.4791 1085.18 10.0549Z" fill="#F1EFEC"/>
<path opacity="0.6" d="M72.5352 11C73.1643 11.0909 73.7933 11.1818 74.003 11.3636C74.2126 11.5455 73.5836 11.8182 73.3739 12C72.7449 11.9091 72.1159 11.8182 71.9062 11.6364C72.0638 11.4153 72.2747 11.202 72.5352 11V11Z" fill="#F1EFEC"/>
<path opacity="0.6" d="M834.008 11C834.637 11.0909 835.266 11.1818 835.476 11.3636C835.686 11.5455 835.057 11.8182 834.847 12C834.218 11.9091 833.589 11.8182 833.379 11.6364C833.537 11.4153 833.748 11.202 834.008 11V11Z" fill="#F1EFEC"/>
<path opacity="0.6" d="M947.374 12C948.003 12.0909 948.632 12.1818 948.842 12.3636C949.051 12.5455 948.422 12.8182 948.212 13C947.583 12.9091 946.954 12.8182 946.745 12.6364C946.902 12.4153 947.113 12.202 947.374 12V12Z" fill="#F1EFEC"/>
<path opacity="0.6" d="M290.492 9C290.854 9.41143 291.08 9.88312 291.151 10.375C291.151 10.5 290.492 10.75 289.999 11C289.67 10.625 289.341 10.125 289.012 9.75C289.437 9.43024 289.94 9.17562 290.492 9V9Z" fill="#F1EFEC"/>
<path opacity="0.6" d="M1051.97 9C1052.33 9.41143 1052.55 9.88312 1052.62 10.375C1052.62 10.5 1051.97 10.75 1051.47 11C1051.14 10.625 1050.81 10.125 1050.48 9.75C1050.91 9.43024 1051.41 9.17562 1051.97 9V9Z" fill="#F1EFEC"/>
<path opacity="0.6" d="M398.51 9C398.872 9.41143 399.098 9.88312 399.168 10.375C399.168 10.5 398.51 10.75 398.017 11C397.688 10.625 397.359 10.125 397.03 9.75C397.455 9.43024 397.958 9.17562 398.51 9V9Z" fill="#F1EFEC"/>
<path opacity="0.6" d="M1159.98 9C1160.35 9.41143 1160.57 9.88312 1160.64 10.375C1160.64 10.5 1159.98 10.75 1159.49 11C1159.16 10.625 1158.83 10.125 1158.5 9.75C1158.93 9.43024 1159.43 9.17562 1159.98 9V9Z" fill="#F1EFEC"/>
<path opacity="0.6" d="M291.507 13C291.685 13.3014 292.042 13.6028 292.22 13.8288C291.685 13.9041 291.151 14.0548 290.794 13.9795C290.595 13.9173 290.429 13.8383 290.306 13.7475C290.184 13.6567 290.107 13.5561 290.081 13.4521C290.081 13.3315 290.794 13.1808 291.507 13Z" fill="#F1EFEC"/>
<path opacity="0.6" d="M1052.98 13C1053.16 13.3014 1053.51 13.6028 1053.69 13.8288C1053.16 13.9041 1052.62 14.0548 1052.27 13.9795C1052.07 13.9173 1051.9 13.8383 1051.78 13.7475C1051.66 13.6567 1051.58 13.5561 1051.55 13.4521C1051.55 13.3315 1052.27 13.1808 1052.98 13Z" fill="#F1EFEC"/>
<path opacity="0.6" d="M398.812 13C398.901 13.3014 399.079 13.6028 399.168 13.8288C398.901 13.9041 398.634 14.0548 398.455 13.9795C398.356 13.9173 398.273 13.8383 398.212 13.7475C398.15 13.6567 398.112 13.5561 398.099 13.4521C398.099 13.3315 398.455 13.1808 398.812 13Z" fill="#F1EFEC"/>
<path opacity="0.6" d="M1160.29 13C1160.37 13.3014 1160.55 13.6028 1160.64 13.8288C1160.37 13.9041 1160.11 14.0548 1159.93 13.9795C1159.83 13.9173 1159.75 13.8383 1159.68 13.7475C1159.62 13.6567 1159.58 13.5561 1159.57 13.4521C1159.57 13.3315 1159.93 13.1808 1160.29 13Z" fill="#F1EFEC"/>
<path opacity="0.6" d="M186.035 11C186.443 11.2473 186.902 11.4859 187.41 11.7143C186.723 11.7857 186.035 12 185.806 12C185.119 11.8571 184.89 11.5714 184.202 11.3571C184.832 11.2479 185.444 11.1287 186.035 11Z" fill="#F1EFEC"/>
<path opacity="0.6" d="M481.301 7.10578C478.078 10.1416 477.337 13.0502 475.937 16.066C474.6 15.6806 473.106 15.597 472.594 15.1025C470.721 13.4227 469.011 11.6412 466.96 9.56329C463.37 11.4029 464.282 14.1934 461.527 16.2239C460.482 15.8416 459.567 15.3425 458.832 14.7532C456.45 12.679 454.396 10.5011 452.179 8.42506C449.37 8.65588 448.737 9.66297 447.939 10.6719C446.831 12.3843 445.726 14.1967 444.458 16.1109C439.615 14.8638 439.685 11.6625 435.824 10.0045C431.719 11.2497 431.15 14.3564 427.229 16.1997C425.997 15.6925 424.867 15.1008 423.862 14.4363C421.992 12.8565 420.453 11.2731 418.24 9.29706C416.472 11.1167 415.029 12.7328 413.102 14.7542C412.415 13.9616 411.406 13.4726 411.56 13.0709C412.946 10.5928 414.589 8.16964 416.478 5.81579C421.661 7.35926 422.426 10.7514 426.461 12.7075C430.725 11.2606 432.111 7.74482 437.715 6.78326C439.254 8.36666 440.79 9.85008 442.835 11.728C445.407 9.09937 447.656 6.77433 450.231 4.2457C451.489 4.60603 452.627 5.10199 453.589 5.70916C455.631 7.48708 457.513 9.46679 459.901 11.741L463.123 8.70519L466.023 5.97297C470.523 6.82382 470.113 9.72878 473.633 11.0904C477.717 9.14537 476.272 5.16055 481.343 3.00463C485.951 7.45488 492.353 10.9853 493.175 16.2772C491.714 17.2934 490.546 17.0061 489.856 16.1135C488.308 14.2302 487.257 12.3414 485.709 10.458C484.52 9.47089 483.002 8.58738 481.301 7.10578Z" fill="#F1EFEC"/>
<path opacity="0.6" d="M1242.77 7.10578C1239.55 10.1416 1238.81 13.0502 1237.41 16.066C1236.07 15.6806 1234.58 15.597 1234.07 15.1025C1232.19 13.4227 1230.48 11.6412 1228.43 9.56329C1224.84 11.4029 1225.76 14.1934 1223 16.2239C1221.95 15.8416 1221.04 15.3425 1220.3 14.7532C1217.92 12.679 1215.87 10.5011 1213.65 8.42506C1210.84 8.65588 1210.21 9.66297 1209.41 10.6719C1208.3 12.3843 1207.2 14.1967 1205.93 16.1109C1201.09 14.8638 1201.16 11.6625 1197.3 10.0045C1193.19 11.2497 1192.62 14.3564 1188.7 16.1997C1187.47 15.6925 1186.34 15.1008 1185.34 14.4363C1183.46 12.8565 1181.93 11.2731 1179.71 9.29706C1177.94 11.1167 1176.5 12.7328 1174.57 14.7542C1173.89 13.9616 1172.88 13.4726 1173.03 13.0709C1174.42 10.5928 1176.06 8.16964 1177.95 5.81579C1183.13 7.35926 1183.9 10.7514 1187.93 12.7075C1192.2 11.2606 1193.58 7.74482 1199.19 6.78326C1200.73 8.36666 1202.26 9.85008 1204.31 11.728C1206.88 9.09937 1209.13 6.77433 1211.7 4.2457C1212.96 4.60603 1214.1 5.10199 1215.06 5.70916C1217.1 7.48708 1218.99 9.46679 1221.37 11.741L1224.6 8.70519L1227.5 5.97297C1232 6.82382 1231.59 9.72878 1235.11 11.0904C1239.19 9.14537 1237.74 5.16055 1242.82 3.00463C1247.42 7.45488 1253.83 10.9853 1254.65 16.2772C1253.19 17.2934 1252.02 17.0061 1251.33 16.1135C1249.78 14.2302 1248.73 12.3414 1247.18 10.458C1245.99 9.47089 1244.48 8.58738 1242.77 7.10578Z" fill="#F1EFEC"/>
<path opacity="0.6" d="M635.753 13.6731C633.597 13.5967 633.079 12.9023 633.714 11.9952C635.461 9.47563 637.376 7.05424 639.448 4.33109C640.785 4.7165 642.117 4.90194 642.797 5.49458C644.567 7.04524 646.166 8.66491 647.582 10.343C648.555 9.63219 649.368 9.1232 650.016 8.61602C651.467 7.2999 652.919 5.98377 654.536 4.66583C654.805 4.48908 655.142 4.35477 655.516 4.27464C655.891 4.19451 656.293 4.171 656.686 4.20615C657.079 4.24131 657.452 4.33405 657.773 4.4763C658.093 4.61856 658.351 4.80599 658.523 5.02222C659.565 6.61106 660.444 8.3017 661.664 10.2887C662.656 9.8253 663.582 9.31336 664.435 8.75805C666.049 7.34013 667.494 5.82405 669.431 4.10255C670.78 4.8879 671.951 5.27513 672.466 5.86959C673.831 7.15485 674.869 8.64372 676.411 10.3271C677.503 9.82514 678.487 9.24321 679.342 8.5947C680.793 7.27858 681.91 5.86611 684.705 5.13537C688.054 6.29887 687.801 8.90207 690.665 10.4709C691.723 9.9103 692.702 9.2974 693.592 8.63858C695.206 7.22067 696.486 5.70638 698.254 3.88671C699.434 4.57389 700.437 4.86295 700.784 5.35924C702.509 7.64071 704.072 10.024 705.469 12.4091C705.485 12.6289 705.405 12.8473 705.236 13.0423C705.067 13.2374 704.816 13.4021 704.508 13.5198C704.162 13.558 703.806 13.5531 703.463 13.5053C703.119 13.4574 702.796 13.3677 702.512 13.2416C701.142 11.7564 699.934 10.1693 698.724 8.48233C694.79 9.92566 695.058 13.3233 689.948 14.1794C688.927 13.2905 687.74 12.4033 686.885 11.5125C686.03 10.6218 685.343 9.82916 684.317 8.74023C683.312 9.26646 682.387 9.8456 681.552 10.4708C679.932 11.6888 679.32 13.3957 676.529 14.2265C672.846 12.9666 672.924 10.0653 669.894 8.49819C665.793 9.84335 666.401 13.5373 662.13 14.7843C658.101 13.0281 658.993 9.61783 655.286 7.55811C653.196 9.68136 651.103 11.7046 648.687 14.0315C647.519 13.5518 646.446 12.9931 645.489 12.3662C643.962 11.1828 642.595 9.79751 640.556 8.11957C639.436 9.43206 638.469 10.3428 637.668 11.2517C637.097 12.0777 636.458 12.8858 635.753 13.6731V13.6731Z" fill="#F1EFEC"/>
<path opacity="0.6" d="M1397.23 13.6731C1395.07 13.5967 1394.55 12.9023 1395.19 11.9952C1396.93 9.47563 1398.85 7.05424 1400.92 4.33109C1402.26 4.7165 1403.59 4.90194 1404.27 5.49458C1406.04 7.04524 1407.64 8.66491 1409.06 10.343C1410.03 9.63219 1410.84 9.1232 1411.49 8.61602C1412.94 7.2999 1414.39 5.98377 1416.01 4.66583C1416.28 4.48908 1416.61 4.35477 1416.99 4.27464C1417.36 4.19451 1417.77 4.171 1418.16 4.20615C1418.55 4.24131 1418.93 4.33405 1419.25 4.4763C1419.57 4.61856 1419.82 4.80599 1420 5.02222C1421.04 6.61106 1421.92 8.3017 1423.14 10.2887C1424.13 9.8253 1425.06 9.31336 1425.91 8.75805C1427.52 7.34013 1428.97 5.82405 1430.9 4.10255C1432.25 4.8879 1433.42 5.27513 1433.94 5.86959C1435.3 7.15485 1436.34 8.64372 1437.88 10.3271C1438.98 9.82514 1439.96 9.24321 1440.81 8.5947C1442.27 7.27858 1443.38 5.86611 1446.18 5.13537C1449.53 6.29887 1449.27 8.90207 1452.14 10.4709C1453.2 9.9103 1454.18 9.2974 1455.07 8.63858C1456.68 7.22067 1457.96 5.70638 1459.73 3.88671C1460.91 4.57389 1461.91 4.86295 1462.26 5.35924C1463.98 7.64071 1465.55 10.024 1466.94 12.4091C1466.96 12.6289 1466.88 12.8473 1466.71 13.0423C1466.54 13.2374 1466.29 13.4021 1465.98 13.5198C1465.63 13.558 1465.28 13.5531 1464.94 13.5053C1464.59 13.4574 1464.27 13.3677 1463.98 13.2416C1462.61 11.7564 1461.41 10.1693 1460.2 8.48233C1456.26 9.92566 1456.53 13.3233 1451.42 14.1794C1450.4 13.2905 1449.21 12.4033 1448.36 11.5125C1447.5 10.6218 1446.82 9.82916 1445.79 8.74023C1444.78 9.26646 1443.86 9.8456 1443.02 10.4708C1441.4 11.6888 1440.79 13.3957 1438 14.2265C1434.32 12.9666 1434.4 10.0653 1431.37 8.49819C1427.27 9.84335 1427.87 13.5373 1423.6 14.7843C1419.57 13.0281 1420.47 9.61783 1416.76 7.55811C1414.67 9.68136 1412.58 11.7046 1410.16 14.0315C1408.99 13.5518 1407.92 12.9931 1406.96 12.3662C1405.44 11.1828 1404.07 9.79751 1402.03 8.11957C1400.91 9.43206 1399.94 10.3428 1399.14 11.2517C1398.57 12.0777 1397.93 12.8858 1397.23 13.6731V13.6731Z" fill="#F1EFEC"/>
<path opacity="0.6" d="M582.582 14.1971C577.385 12.1537 576.779 8.55975 572.413 6.60728C570.317 8.53056 568.386 10.452 566.131 12.5771C565.017 12.1328 563.999 11.6064 563.101 11.01C561.397 9.42843 559.858 7.84502 558.147 6.06347C553.41 8.31575 553.527 12.2151 549.278 14.162C545.116 13.5075 545.692 10.6007 542.177 9.43902C541.231 11.0496 540.12 12.6621 539.334 14.0709C537.527 14.5908 536.681 14 535.997 13.3073C534.151 11.2387 531.743 9.37187 528.872 7.78451C527.27 9.60237 525.831 11.3184 524.219 12.8363C523.981 13.0035 523.665 13.1236 523.312 13.181C522.959 13.2383 522.586 13.2304 522.241 13.1581C521.738 12.9635 521.22 12.2691 521.542 11.9655C523.452 9.34415 525.53 6.82097 527.761 3.89604C528.827 4.34018 529.79 4.86775 530.625 5.46492C532.492 6.94471 534.359 8.42449 536.398 10.1024C539.666 8.56638 538.401 5.07967 543.367 4.92524C546.231 6.49412 544.33 9.41541 548.83 10.2663C552.573 8.02488 552.95 4.02009 558.205 2.46226C561.9 4.12205 560.831 7.13426 565.01 8.38867C565.907 7.96704 566.725 7.48863 567.453 6.96166C568.585 6.04911 569.383 5.04021 570.516 4.12765C570.799 3.85659 571.2 3.6374 571.675 3.49374C572.149 3.35009 572.68 3.28742 573.209 3.3125C573.739 3.33758 574.247 3.44945 574.678 3.63605C575.11 3.82266 575.449 4.07689 575.659 4.37132C577.029 5.85656 578.403 7.44178 579.773 8.92701C580.116 9.32332 580.625 9.71781 580.797 9.91596C583.938 9.6815 583.561 8.18538 584.697 7.37281C585.695 6.43291 586.833 5.55001 588.097 4.73511C588.507 4.56873 588.982 4.46925 589.475 4.44632C589.968 4.42339 590.462 4.47781 590.91 4.60428C594.114 6.46949 597.321 8.43467 597.739 11.3306C597.627 11.7172 597.415 12.0908 597.11 12.4376C592.62 11.8867 593.014 8.48186 589.169 7.3238C587.085 9.64702 584.998 11.8703 582.582 14.1971Z" fill="#F1EFEC"/>
<path opacity="0.6" d="M1344.06 14.1971C1338.86 12.1537 1338.25 8.55975 1333.89 6.60728C1331.79 8.53056 1329.86 10.452 1327.6 12.5771C1326.49 12.1328 1325.47 11.6064 1324.57 11.01C1322.87 9.42843 1321.33 7.84502 1319.62 6.06347C1314.88 8.31575 1315 12.2151 1310.75 14.162C1306.59 13.5075 1307.16 10.6007 1303.65 9.43902C1302.7 11.0496 1301.59 12.6621 1300.81 14.0709C1299 14.5908 1298.15 14 1297.47 13.3073C1295.62 11.2387 1293.22 9.37187 1290.35 7.78451C1288.74 9.60237 1287.3 11.3184 1285.69 12.8363C1285.45 13.0035 1285.14 13.1236 1284.79 13.181C1284.43 13.2383 1284.06 13.2304 1283.71 13.1581C1283.21 12.9635 1282.69 12.2691 1283.02 11.9655C1284.92 9.34415 1287 6.82097 1289.23 3.89604C1290.3 4.34018 1291.26 4.86775 1292.1 5.46492C1293.97 6.94471 1295.83 8.42449 1297.87 10.1024C1301.14 8.56638 1299.87 5.07967 1304.84 4.92524C1307.7 6.49412 1305.8 9.41541 1310.3 10.2663C1314.05 8.02488 1314.42 4.02009 1319.68 2.46226C1323.37 4.12205 1322.3 7.13426 1326.48 8.38867C1327.38 7.96704 1328.2 7.48863 1328.93 6.96166C1330.06 6.04911 1330.86 5.04021 1331.99 4.12765C1332.27 3.85659 1332.67 3.6374 1333.15 3.49374C1333.62 3.35009 1334.15 3.28742 1334.68 3.3125C1335.21 3.33758 1335.72 3.44945 1336.15 3.63605C1336.58 3.82266 1336.92 4.07689 1337.13 4.37132C1338.5 5.85656 1339.88 7.44178 1341.25 8.92701C1341.59 9.32332 1342.1 9.71781 1342.27 9.91596C1345.41 9.6815 1345.03 8.18538 1346.17 7.37281C1347.17 6.43291 1348.31 5.55001 1349.57 4.73511C1349.98 4.56873 1350.45 4.46925 1350.95 4.44632C1351.44 4.42339 1351.93 4.47781 1352.38 4.60428C1355.59 6.46949 1358.79 8.43467 1359.21 11.3306C1359.1 11.7172 1358.89 12.0908 1358.58 12.4376C1354.09 11.8867 1354.49 8.48186 1350.64 7.3238C1348.56 9.64702 1346.47 11.8703 1344.06 14.1971Z" fill="#F1EFEC"/>
<path opacity="0.6" d="M753.925 9.3787C752.329 11.3965 751.043 12.7108 749.603 14.4269C748.751 13.6361 748.242 13.2416 748.23 12.8417C748.155 10.3421 750.245 8.21883 751.838 6.10102C752.16 5.79744 753.308 5.38481 753.807 5.47935C754.74 5.64792 755.561 5.98871 756.156 6.45378C757.524 7.83903 757.575 9.53874 760.424 10.6077C762.712 9.58246 763.486 7.77367 765.269 6.45392C767.212 4.93239 769.368 5.00878 770.744 6.69398C771.278 7.57944 771.912 8.4414 772.644 9.27359C773.402 9.8152 774.25 10.3086 775.174 10.7461C776.616 9.13005 777.899 7.71576 779.185 6.40145C780.471 5.08714 782.456 4.96537 783.992 6.44879C785.184 7.5359 786.211 8.62484 787.401 9.61197C787.569 9.71014 787.901 9.7065 788.569 9.89921C791.686 8.86488 792.758 5.95266 797.381 5.40192C798.745 6.68719 800.275 7.97064 801.636 9.15593C805.756 8.41066 805.482 4.81306 810.779 4.655C812.939 6.67692 814.154 9.01335 814.296 11.4176C812.164 12.1411 811.484 11.5484 810.972 11.054C810.116 10.1632 809.255 9.07244 808.225 7.88352L802.247 12.9499C797.603 12.8007 798.344 9.89211 795.327 8.72498C793.387 10.3465 791.448 11.968 789.183 13.7931C786.31 11.9243 783.778 10.3518 781.245 8.77927C778.312 10.4117 778.896 13.3057 774.445 14.0546C770.771 13.0947 770.524 10.397 767.332 8.93173C763.553 9.97331 764.149 13.2673 759.872 14.3144C758.769 13.6386 757.75 12.9142 756.825 12.1474C756.145 11.5947 755.293 10.8039 753.925 9.3787Z" fill="#F1EFEC"/>
<path d="M503.195 13.3654C503.695 13.46 504.195 13.5545 504.366 13.7527C504.538 13.9508 504.05 14.2562 503.89 14.458C503.39 14.3635 502.891 14.2689 502.719 14.0708C502.836 13.8262 502.996 13.5898 503.195 13.3654V13.3654Z" fill="#F1EFEC"/>
<path d="M1264.67 13.3654C1265.17 13.46 1265.67 13.5545 1265.84 13.7527C1266.01 13.9508 1265.52 14.2562 1265.36 14.458C1264.86 14.3635 1264.36 14.2689 1264.19 14.0708C1264.31 13.8262 1264.47 13.5898 1264.67 13.3654V13.3654Z" fill="#F1EFEC"/>
<path opacity="0.6" d="M721.1 8.73841C721.474 9.06351 721.713 9.43831 721.796 9.83098C721.799 9.93096 721.142 10.1382 720.651 10.3436C720.311 10.0473 719.968 9.65098 719.628 9.35466C720.049 9.09419 720.549 8.88498 721.1 8.73841V8.73841Z" fill="#F1EFEC"/>
<path opacity="0.6" d="M722.213 12.7268C722.391 13.1249 722.734 13.5212 722.909 13.8194C722.415 13.9248 721.924 14.1302 721.59 14.0338C721.402 13.9534 721.245 13.8502 721.127 13.731C721.009 13.6117 720.934 13.479 720.906 13.3412C720.901 13.1813 721.558 12.974 722.213 12.7268Z" fill="#F1EFEC"/>
<path opacity="0.6" d="M502.966 5.76736C503.271 6.11032 503.613 6.4407 503.99 6.7563C503.496 6.86173 503.008 7.16712 502.843 7.16894C502.34 6.97441 502.162 6.5763 501.656 6.28179C502.107 6.12392 502.544 5.95222 502.966 5.76736Z" fill="#F1EFEC"/>
<path opacity="0.6" d="M1264.44 5.76736C1264.74 6.11032 1265.09 6.4407 1265.46 6.7563C1264.97 6.86173 1264.48 7.16712 1264.32 7.16894C1263.81 6.97441 1263.64 6.5763 1263.13 6.28179C1263.58 6.12392 1264.02 5.95222 1264.44 5.76736Z" fill="#F1EFEC"/>
<path opacity="0.6" d="M616.315 11.8868C615.987 11.9904 615.656 11.994 615.328 12.0977L615.304 11.2978C615.301 11.1978 615.632 11.1942 615.794 11.0924C615.941 11.3634 616.115 11.6288 616.315 11.8868V11.8868Z" fill="#F1EFEC"/>
<path opacity="0.6" d="M1377.79 11.8868C1377.46 11.9904 1377.13 11.994 1376.8 12.0977L1376.78 11.2978C1376.77 11.1978 1377.1 11.1942 1377.27 11.0924C1377.41 11.3634 1377.59 11.6288 1377.79 11.8868V11.8868Z" fill="#F1EFEC"/>
<path opacity="0.6" d="M615.186 7.43683C615.341 7.21344 615.559 7.008 615.831 6.82968C615.984 6.90699 616.153 6.97234 616.333 7.0242L615.855 7.62955C615.692 7.73135 615.355 7.535 615.186 7.43683Z" fill="#F1EFEC"/>
<path opacity="0.6" d="M1376.66 7.43683C1376.81 7.21344 1377.03 7.008 1377.3 6.82968C1377.46 6.90699 1377.63 6.97234 1377.81 7.0242L1377.33 7.62955C1377.17 7.73135 1376.83 7.535 1376.66 7.43683Z" fill="#F1EFEC"/>
</g>
</g>
<defs>
<clipPath id="clip0">
<rect width="1440" height="23" fill="white"/>
</clipPath>
</defs>
</svg>
